<svg width="592" height="451" viewBox="0 0 592 451" fill="none" xmlns="http://www.w3.org/2000/svg">
<g clip-path="url(#clip0_303_1364)">
<path d="M346.18 410.913C340.567 410.913 334.958 409.675 330.693 407.203L6.42098 219.398C-2.10061 214.46 -2.08238 206.453 6.49751 201.512L50.7522 176.049L330.693 338.18C334.958 340.652 340.567 341.889 346.179 341.889C351.777 341.89 357.38 340.659 361.663 338.194L540.194 235.469L584.53 261.148C593.052 266.085 593.032 274.09 584.449 279.028L361.663 407.216C357.38 409.682 351.778 410.913 346.18 410.913Z" fill="#6E6E6E" fill-opacity="0.29782"/>
<path d="M142.961 225.817L142.942 232.1L106.755 253.059L106.773 246.775L142.961 225.817Z" fill="#3A3E27"/>
<path d="M106.773 246.775L106.755 253.059L16.2279 200.97L16.247 194.689L106.773 246.775Z" fill="#282B1B"/>
<path d="M142.961 225.817L106.773 246.775L16.2471 194.689L52.4342 173.728L142.961 225.817Z" fill="#41462B"/>
<path d="M6.42098 150.374L330.693 338.18C339.212 343.117 353.085 343.13 361.663 338.194L584.449 210.006C593.032 205.068 593.052 197.062 584.53 192.124L260.26 4.31458C251.738 -0.617462 237.867 -0.632477 229.286 4.30032L6.49751 132.488C-2.08238 137.43 -2.10061 145.436 6.42098 150.374Z" fill="#443C41"/>
<path d="M443.065 312.597L443.132 335.673L507.104 298.861L507.041 275.782L443.065 312.597Z" fill="#A3B7BF"/>
<path d="M432.417 307.446L432.485 330.521L496.459 293.708L496.392 270.629L432.417 307.446Z" fill="#273545"/>
<path d="M443.132 335.673L443.065 312.597L507.041 275.782L507.104 298.861L443.132 335.673ZM590.916 204.658C590.915 204.166 590.226 204.197 590 204.637C588.993 206.601 587.143 208.455 584.449 210.006L361.663 338.194C353.085 343.13 339.212 343.117 330.692 338.18L6.42127 150.374C2.97581 148.378 0.926485 145.879 0.274408 143.286C0.246463 143.18 0.0511475 143.112 0.0511475 143.222C0.0820302 153.825 0.111106 164.43 0.140558 175.034C0.147337 177.249 1.33218 179.314 3.2524 180.431C15.9865 187.828 39.1444 201.304 45.4042 204.947C46.3678 205.509 47.001 206.523 47.001 207.636V229.464C47.001 231.713 48.2094 233.805 50.1604 234.934L330.861 397.507C339.388 402.45 353.254 402.458 361.839 397.526L584.621 269.332C588.928 266.857 591.084 263.601 591.07 260.345L590.916 204.658Z" fill="#241913"/>
<path d="M291.089 348.07C295.473 350.593 299.01 356.698 298.996 361.719C298.981 366.733 295.422 368.761 291.037 366.239C286.658 363.719 283.117 357.604 283.131 352.591C283.145 347.568 286.711 345.551 291.089 348.07Z" fill="#C0B9B0"/>
<path d="M292.385 351.154C295.138 352.738 297.359 356.571 297.348 359.724C297.34 362.873 295.105 364.147 292.352 362.562C289.602 360.98 287.379 357.14 287.388 353.994C287.395 350.84 289.635 349.573 292.385 351.154Z" fill="#4C453F"/>
<path d="M157.203 268.781C161.587 271.304 165.124 277.41 165.109 282.43C165.094 287.444 161.535 289.472 157.151 286.95C152.771 284.43 149.229 278.316 149.244 273.301C149.26 268.281 152.823 266.262 157.203 268.781Z" fill="#C0B9B0"/>
<path d="M158.498 271.866C161.251 273.45 163.474 277.283 163.463 280.437C163.454 283.584 161.218 284.858 158.466 283.273C155.717 281.691 153.491 277.851 153.502 274.705C153.509 271.55 155.75 270.284 158.498 271.866Z" fill="#4C453F"/>
<path d="M74.2737 218.242C78.6575 220.763 82.1955 226.87 82.1796 231.89C82.1661 236.905 78.607 238.932 74.2225 236.411C69.8431 233.89 66.3007 227.775 66.3157 222.761C66.3293 217.74 69.8966 215.722 74.2737 218.242Z" fill="#C0B9B0"/>
<path d="M75.5692 221.326C78.3215 222.909 80.5428 226.742 80.5337 229.896C80.5247 233.043 78.2891 234.317 75.536 232.733C72.7867 231.151 70.5624 227.311 70.5722 224.163C70.5805 221.011 72.8191 219.743 75.5692 221.326Z" fill="#4C453F"/>
<path d="M470.969 138.417C532.093 173.588 532.406 230.808 471.687 265.976C410.968 301.141 311.85 301.147 250.726 265.976C230.734 254.474 216.505 240.126 209.534 224.449L190.759 235.323L62.835 162.649L54.944 125.811L181.788 52.3461C220.988 29.6429 284.989 29.6362 324.455 52.3446L410.279 100.785L398.794 107.438L417.583 118.249C419.582 118.706 421.41 119.137 423.177 119.584C440.995 124.09 457.079 130.425 470.969 138.417Z" fill="#251B1C"/>
<path d="M269.602 129.252L269.582 147.944L246.747 161.001L246.766 142.31L269.602 129.252Z" fill="#7C0B0B"/>
<path d="M416.94 118.975L416.888 137.349L396.736 125.807L396.788 107.432L416.94 118.975Z" fill="#2C2324"/>
<path d="M323.449 52.9264C284.543 30.5407 221.442 30.5347 182.789 52.9218L56.4302 126.107L59.4265 143.166L182.737 71.295C221.39 48.9086 284.491 48.9131 323.397 71.2988L396.982 112.822L396.931 107.349L408.264 100.784L323.449 52.9264Z" fill="#2C2324"/>
<path d="M515.607 202.638L514.501 218.677C514.568 195.64 500.399 174.903 469.921 157.368C456.157 149.447 440.219 143.165 422.554 138.703C420.778 138.252 418.914 137.812 416.888 137.348L416.94 118.975C418.966 119.438 420.829 119.878 422.606 120.33C440.27 124.79 456.21 131.075 469.973 138.993C500.449 156.531 515.674 179.603 515.607 202.638Z" fill="#2C2324"/>
<path d="M251.72 265.4C312.284 300.25 410.517 300.25 470.686 265.398C530.859 230.548 530.537 173.843 469.973 138.993C456.211 131.074 440.271 124.79 422.606 120.33C420.83 119.877 418.966 119.438 416.941 118.975L396.788 107.432L408.264 100.785L323.45 52.9264C284.543 30.5408 221.442 30.5348 182.789 52.9219L56.4302 126.107L64.1719 162.269L190.752 234.17L210.298 222.849L210.599 223.55C217.398 239.356 231.613 253.83 251.72 265.4ZM470.969 138.417C532.093 173.588 532.406 230.808 471.687 265.976C410.968 301.141 311.85 301.147 250.726 265.976C230.734 254.474 216.505 240.126 209.534 224.449L190.759 235.323L62.835 162.649L54.944 125.811L181.788 52.3461C220.988 29.6429 284.989 29.6362 324.455 52.3446L410.279 100.785L398.794 107.438L417.583 118.249C419.582 118.706 421.41 119.137 423.177 119.584C440.995 124.09 457.079 130.425 470.969 138.417Z" fill="#443C41"/>
<path d="M43.6625 143.065C43.6625 145.175 39.021 146.883 33.2978 146.883C27.5724 146.883 22.932 145.175 22.932 143.065C22.932 140.959 27.5724 139.25 33.2978 139.25C39.021 139.25 43.6625 140.959 43.6625 143.065Z" fill="#929396"/>
<mask id="mask0_303_1364" style="mask-type:luminance" maskUnits="userSpaceOnUse" x="22" y="134" width="22" height="12">
<path d="M43.6626 140.505L43.6479 145.379C43.6522 143.822 42.6259 142.259 40.564 141.076C36.4612 138.715 29.8166 138.715 25.7482 141.076C23.7283 142.245 22.7146 143.782 22.7114 145.317L22.7226 140.448C22.7275 138.908 23.7421 137.372 25.7626 136.199C29.8342 133.844 36.4789 133.841 40.5772 136.199C42.6348 137.388 43.6661 138.947 43.6626 140.505Z" fill="white"/>
</mask>
<g mask="url(#mask0_303_1364)">
<path d="M43.6626 140.505L43.6479 145.379C43.6519 143.822 42.6259 142.259 40.564 141.076C36.4612 138.715 29.8166 138.715 25.7482 141.076C23.7283 142.244 22.7146 143.782 22.7114 145.317L22.7226 140.448C22.7275 138.908 23.7421 137.372 25.7626 136.199C29.8342 133.844 36.4789 133.841 40.5775 136.199C42.6348 137.388 43.6661 138.947 43.6626 140.505Z" fill="#B3B4B6"/>
</g>
<path d="M25.8144 144.752C29.9101 147.109 36.5521 147.109 40.6237 144.752C44.6953 142.392 44.6738 138.558 40.5775 136.199C36.4788 133.841 29.8342 133.844 25.7625 136.199C21.6918 138.558 21.7119 142.392 25.8144 144.752ZM41.983 135.387C46.8609 138.191 46.8865 142.762 42.0398 145.566C37.1965 148.374 29.2802 148.374 24.4079 145.566C19.5301 142.762 19.5013 138.19 24.3453 135.387C29.1933 132.581 37.1076 132.581 41.983 135.387Z" fill="#443C41"/>
<path d="M363.067 323.504C363.067 325.615 358.425 327.323 352.703 327.323C346.977 327.323 342.338 325.615 342.338 323.504C342.338 321.4 346.977 319.689 352.703 319.689C358.425 319.689 363.067 321.4 363.067 323.504Z" fill="#929396"/>
<mask id="mask1_303_1364" style="mask-type:luminance" maskUnits="userSpaceOnUse" x="342" y="314" width="22" height="12">
<path d="M363.068 320.945L363.053 325.818C363.056 324.26 362.03 322.699 359.969 321.514C355.867 319.155 349.222 319.155 345.153 321.514C343.132 322.685 342.119 324.221 342.115 325.757L342.126 320.888C342.132 319.348 343.146 317.812 345.167 316.638C349.24 314.284 355.882 314.28 359.981 316.638C362.039 317.828 363.07 319.387 363.068 320.945Z" fill="white"/>
</mask>
<g mask="url(#mask1_303_1364)">
<path d="M363.068 320.945L363.053 325.817C363.056 324.26 362.03 322.698 359.969 321.514C355.867 319.154 349.222 319.154 345.153 321.514C343.133 322.684 342.119 324.221 342.115 325.757L342.127 320.888C342.132 319.348 343.146 317.811 345.167 316.637C349.24 314.284 355.882 314.279 359.981 316.637C362.039 317.828 363.07 319.386 363.068 320.945Z" fill="#B3B4B6"/>
</g>
<path d="M345.218 325.192C349.315 327.549 355.957 327.549 360.027 325.192C364.099 322.831 364.078 318.999 359.981 316.638C355.882 314.28 349.24 314.284 345.167 316.638C341.097 318.999 341.116 322.831 345.218 325.192ZM361.387 315.827C366.264 318.632 366.292 323.2 361.445 326.006C356.602 328.813 348.685 328.813 343.812 326.006C338.934 323.2 338.905 318.629 343.749 315.827C348.598 313.021 356.512 313.021 361.387 315.827Z" fill="#443C41"/>
<path d="M569.503 204.82C569.503 206.932 564.86 208.639 559.137 208.639C553.411 208.639 548.771 206.932 548.771 204.82C548.771 202.714 553.411 201.005 559.137 201.005C564.86 201.005 569.503 202.714 569.503 204.82Z" fill="#929396"/>
<mask id="mask2_303_1364" style="mask-type:luminance" maskUnits="userSpaceOnUse" x="548" y="196" width="22" height="12">
<path d="M569.503 202.262L569.487 207.134C569.491 205.577 568.465 204.015 566.403 202.83C562.3 200.471 555.656 200.471 551.587 202.83C549.567 203.999 548.553 205.538 548.55 207.074L548.562 202.203C548.566 200.665 549.582 199.127 551.601 197.955C555.673 195.599 562.317 195.598 566.416 197.955C568.474 199.142 569.505 200.702 569.503 202.262Z" fill="white"/>
</mask>
<g mask="url(#mask2_303_1364)">
<path d="M569.503 202.262L569.487 207.134C569.491 205.577 568.465 204.015 566.403 202.83C562.3 200.471 555.656 200.471 551.587 202.83C549.567 203.999 548.553 205.538 548.55 207.074L548.562 202.203C548.566 200.665 549.582 199.127 551.601 197.955C555.673 195.599 562.317 195.598 566.416 197.955C568.474 199.142 569.505 200.702 569.503 202.262Z" fill="#B3B4B6"/>
</g>
<path d="M551.653 206.507C555.748 208.865 562.391 208.865 566.462 206.507C570.534 204.148 570.513 200.314 566.416 197.955C562.317 195.598 555.673 195.599 551.601 197.955C547.531 200.314 547.551 204.148 551.653 206.507ZM567.822 197.143C572.699 199.948 572.726 204.517 567.879 207.323C563.036 210.129 555.119 210.129 550.246 207.323C545.37 204.517 545.34 199.945 550.184 197.143C555.032 194.338 562.946 194.338 567.822 197.143Z" fill="#443C41"/>
<path d="M255.279 19.5866C255.279 21.6976 250.636 23.4061 244.914 23.4061C239.187 23.4061 234.548 21.6976 234.548 19.5866C234.548 17.4824 239.187 15.7716 244.914 15.7716C250.636 15.7716 255.279 17.4824 255.279 19.5866Z" fill="#929396"/>
<mask id="mask3_303_1364" style="mask-type:luminance" maskUnits="userSpaceOnUse" x="234" y="10" width="22" height="12">
<path d="M255.279 17.0283L255.264 21.9003C255.267 20.3434 254.242 18.782 252.18 17.5966C248.077 15.238 241.433 15.238 237.364 17.5966C235.344 18.767 234.33 20.3051 234.327 21.8403L234.339 16.9705C234.343 15.4316 235.356 13.895 237.377 12.7202C241.45 10.3675 248.094 10.3645 252.192 12.7202C254.25 13.9107 255.282 15.4692 255.279 17.0283Z" fill="white"/>
</mask>
<g mask="url(#mask3_303_1364)">
<path d="M255.279 17.0283L255.264 21.9003C255.267 20.3434 254.242 18.782 252.18 17.5966C248.077 15.238 241.433 15.238 237.364 17.5966C235.344 18.767 234.33 20.3051 234.327 21.8403L234.339 16.9705C234.343 15.4316 235.357 13.895 237.377 12.7202C241.45 10.3675 248.094 10.3645 252.192 12.7202C254.25 13.9107 255.282 15.4692 255.279 17.0283Z" fill="#B3B4B6"/>
</g>
<path d="M237.429 21.2742C241.525 23.6321 248.168 23.6321 252.239 21.2742C256.311 18.9148 256.289 15.081 252.192 12.7201C248.093 10.3644 241.45 10.3674 237.377 12.7201C233.308 15.081 233.326 18.9148 237.429 21.2742ZM253.597 11.9093C258.476 14.7147 258.502 19.2826 253.655 22.0895C248.813 24.8956 240.896 24.8956 236.023 22.0895C231.146 19.2826 231.117 14.7117 235.96 11.9093C240.809 9.10326 248.723 9.10326 253.597 11.9093Z" fill="#443C41"/>
<path d="M351.034 92.1561L342.495 87.2225C337.064 84.4525 340.482 68.3974 332.236 63.6501C313.073 52.5526 294.661 39.1152 255.279 39.1633C215.966 39.1152 197.579 52.4985 178.321 63.6501C170.002 68.4417 173.555 84.4202 168.061 87.2225L159.523 92.1561C154.119 95.285 154.139 100.358 159.578 103.486L189.905 120.936C195.287 124.034 204.359 124.642 209.962 121.692C212.18 120.524 214.153 118.798 216.668 117.971L220.453 106.051C224.309 98.814 229.975 92.575 240.792 88.9379H269.764C280.583 92.575 286.248 98.814 290.103 106.051L293.89 117.971C296.404 118.798 298.377 120.524 300.596 121.692C306.197 124.642 315.27 124.034 320.652 120.936L350.979 103.486C356.418 100.358 356.438 95.285 351.034 92.1561Z" fill="#AEAAA9"/>
<path d="M354.924 97.8884C354.93 99.9505 353.564 102.015 350.83 103.589L320.504 121.038C315.121 124.135 306.585 123.786 300.866 121.066C290.592 116.183 298.895 99.663 282.484 92.4991C266.907 84.2926 243.598 84.3203 228.073 92.4991C211.674 99.6585 219.96 116.186 209.69 121.066C203.973 123.786 195.437 124.135 190.054 121.038L159.727 103.589C156.993 102.015 155.628 99.9505 155.634 97.8884L155.585 104.365C155.579 106.427 156.945 108.492 159.679 110.065L190.006 127.516C195.387 130.613 204.042 130.494 209.644 127.544C225.388 119.253 216.748 105.554 229.275 98.4882L229.27 98.4724C244.217 91.0841 266.371 91.0991 281.287 98.4724L281.282 98.4882C293.809 105.554 285.169 119.253 300.913 127.544C306.515 130.494 315.168 130.613 320.552 127.516L350.879 110.065C353.612 108.492 354.978 106.427 354.971 104.365L354.924 97.8884Z" fill="#9C9897"/>
<mask id="mask4_303_1364" style="mask-type:luminance" maskUnits="userSpaceOnUse" x="169" y="77" width="3" height="9">
<path d="M169.529 85.9141L169.495 85.8938C170.827 84.0734 171.336 80.9798 171.887 77.6189L171.895 77.6151C171.346 80.9752 170.845 84.0756 169.529 85.9141Z" fill="white"/>
</mask>
<g mask="url(#mask4_303_1364)">
<path d="M169.495 85.9141H171.895V77.6151H169.495V85.9141Z" fill="#1E1617"/>
</g>
<path d="M171.887 77.6189C172.572 73.4323 173.323 68.8305 175.811 65.7602L175.836 65.7752C173.336 68.8298 172.578 73.424 171.895 77.6151L171.887 77.6189Z" fill="#241C1D"/>
<path d="M215.392 112.964L169.529 85.9141C170.845 84.0756 171.346 80.9752 171.895 77.6151C172.579 73.424 173.336 68.8298 175.836 65.7752L224.443 94.4419C217.16 99.428 216.953 106.967 215.392 112.964Z" fill="#908B8A"/>
<path d="M295.139 112.919C293.724 107.405 293.42 100.605 287.692 95.6918C287.188 95.2534 286.64 94.8293 286.046 94.4224L334.68 65.7392C339.164 71.2756 338.004 81.7868 340.996 85.8735L295.139 112.919Z" fill="#908B8A"/>
<path d="M295.098 112.943C293.665 107.436 293.374 100.628 287.692 95.6919C293.42 100.605 293.724 107.405 295.139 112.919L295.098 112.943Z" fill="#817C7B"/>
<path d="M176.071 97.8357L176.066 100.324C176.064 101.289 175.426 102.252 174.156 102.988C171.596 104.47 167.435 104.47 164.859 102.988C163.563 102.242 162.915 101.264 162.92 100.286L162.926 97.7975C162.921 98.7771 163.569 99.7568 164.864 100.5C167.441 101.984 171.602 101.984 174.163 100.5C175.433 99.7643 176.069 98.8004 176.071 97.8357Z" fill="#B9C0D1"/>
<path d="M174.132 95.1341C176.705 96.6159 176.721 99.0204 174.163 100.5C171.602 101.984 167.441 101.984 164.864 100.5C162.291 99.0204 162.275 96.6159 164.833 95.1341C167.395 93.653 171.554 93.653 174.132 95.1341Z" fill="#D5F0FD"/>
<path d="M173.682 95.2497C174.448 95.6911 174.444 96.405 173.69 96.8419L172.249 97.6774L173.699 98.5137C174.459 98.9506 174.475 99.6645 173.709 100.106C172.959 100.543 171.711 100.543 170.95 100.106L169.499 99.2711L168.068 100.101C167.304 100.543 166.074 100.543 165.306 100.101C164.55 99.6645 164.533 98.9506 165.297 98.5077L166.731 97.6774L165.288 96.8479C164.521 96.405 164.526 95.6911 165.278 95.2542C166.043 94.8128 167.27 94.8143 168.038 95.2542L169.481 96.0837L170.923 95.2497C171.677 94.8128 172.924 94.8128 173.682 95.2497Z" fill="#B1B8C5"/>
<path d="M199.071 111.718L199.065 114.206C199.062 115.171 198.425 116.134 197.154 116.87C194.595 118.352 190.433 118.352 187.858 116.87C186.562 116.124 185.914 115.148 185.918 114.168L185.925 111.68C185.919 112.659 186.568 113.64 187.862 114.382C190.441 115.866 194.601 115.866 197.162 114.382C198.432 113.648 199.068 112.684 199.071 111.718Z" fill="#B9C0D1"/>
<path d="M197.131 109.016C199.705 110.498 199.72 112.902 197.162 114.382C194.601 115.866 190.441 115.866 187.862 114.382C185.289 112.902 185.274 110.498 187.832 109.016C190.395 107.535 194.553 107.535 197.131 109.016Z" fill="#D5F0FD"/>
<path d="M196.681 109.131C197.447 109.573 197.444 110.288 196.69 110.724L195.248 111.559L196.698 112.396C197.458 112.832 197.474 113.548 196.708 113.989C195.957 114.426 194.71 114.426 193.949 113.989L192.498 113.153L191.067 113.985C190.302 114.426 189.073 114.426 188.305 113.985C187.548 113.548 187.532 112.832 188.296 112.389L189.73 111.559L188.287 110.731C187.52 110.288 187.525 109.573 188.277 109.136C189.041 108.695 190.268 108.696 191.037 109.136L192.48 109.967L193.921 109.131C194.675 108.695 195.923 108.695 196.681 109.131Z" fill="#B1B8C5"/>
<path d="M320.096 113.09L320.091 115.578C320.089 116.545 319.451 117.508 318.181 118.243C315.622 119.724 311.459 119.724 308.884 118.243C307.588 117.496 306.941 116.52 306.945 115.54L306.951 113.054C306.946 114.031 307.594 115.012 308.889 115.756C311.466 117.238 315.627 117.238 318.187 115.756C319.457 115.02 320.094 114.057 320.096 113.09Z" fill="#B9C0D1"/>
<path d="M318.157 110.388C320.73 111.87 320.745 114.275 318.187 115.755C315.627 117.238 311.466 117.238 308.889 115.755C306.316 114.275 306.3 111.87 308.858 110.388C311.42 108.908 315.579 108.908 318.157 110.388Z" fill="#D5F0FD"/>
<path d="M317.708 110.504C318.474 110.945 318.469 111.659 317.716 112.097L316.274 112.932L317.724 113.768C318.485 114.205 318.499 114.92 317.735 115.361C316.983 115.797 315.735 115.797 314.976 115.361L313.524 114.526L312.093 115.357C311.328 115.797 310.099 115.797 309.331 115.357C308.575 114.92 308.559 114.205 309.322 113.762L310.755 112.932L309.313 112.103C308.546 111.659 308.55 110.945 309.303 110.508C310.067 110.067 311.295 110.068 312.064 110.508L313.505 111.338L314.948 110.504C315.702 110.067 316.95 110.067 317.708 110.504Z" fill="#B1B8C5"/>
<path d="M344.6 99.208L344.594 101.695C344.591 102.661 343.955 103.624 342.683 104.361C340.124 105.841 335.963 105.841 333.388 104.361C332.091 103.614 331.444 102.638 331.447 101.658L331.454 99.1705C331.448 100.149 332.097 101.131 333.392 101.872C335.97 103.356 340.131 103.356 342.691 101.872C343.961 101.138 344.597 100.174 344.6 99.208Z" fill="#B9C0D1"/>
<path d="M342.661 96.5063C345.234 97.9882 345.249 100.393 342.691 101.872C340.131 103.356 335.97 103.356 333.391 101.872C330.818 100.393 330.803 97.9882 333.361 96.5063C335.924 95.0252 340.083 95.0252 342.661 96.5063Z" fill="#D5F0FD"/>
<path d="M342.21 96.6219C342.976 97.0633 342.973 97.7772 342.219 98.2141L340.778 99.0496L342.228 99.8859C342.987 100.321 343.003 101.037 342.237 101.48C341.486 101.915 340.239 101.915 339.478 101.48L338.027 100.642L336.596 101.474C335.831 101.915 334.602 101.915 333.834 101.474C333.077 101.037 333.061 100.321 333.825 99.8784L335.259 99.0496L333.815 98.2201C333.049 97.7772 333.054 97.0633 333.806 96.6264C334.57 96.185 335.797 96.1865 336.567 96.6264L338.009 97.4559L339.45 96.6219C340.204 96.185 341.452 96.185 342.21 96.6219Z" fill="#B1B8C5"/>
<path d="M220.079 133.548C216.875 131.706 213.989 128.749 213.967 125.1L213.956 140.02C213.948 143.099 215.988 146.183 220.069 148.532L246.748 161.034V146.044L220.079 133.548Z" fill="#5B0808"/>
<path d="M461.984 143.373C479.032 153.248 490.628 165.073 496.718 177.618C506.712 198.105 502.12 220.48 482.984 239.3C477.119 245.052 469.931 250.448 461.352 255.38C407.588 286.315 320.702 286.307 267.316 255.38C213.907 224.449 214.189 174.304 267.95 143.367C321.713 112.433 408.574 112.436 461.984 143.373Z" fill="#91A2C1"/>
<path d="M227.441 199.767L227.45 202.729C227.509 222.87 240.792 242.981 267.327 258.348C320.713 289.27 407.597 289.283 461.361 258.348C469.939 253.415 477.126 248.02 482.99 242.264C495.61 229.858 501.904 215.904 501.866 201.968L501.856 199.001C501.894 212.936 495.6 226.892 482.984 239.3C477.119 245.052 469.932 250.448 461.352 255.38C407.588 286.315 320.703 286.307 267.316 255.38C240.781 240.015 227.499 219.903 227.441 199.767Z" fill="#4A6699"/>
<path d="M220.732 134.149L220.697 146.716C220.697 146.783 220.659 146.849 220.576 146.912C209.998 154.853 197.361 153.723 197.79 169.936C197.804 170.41 198.305 172.234 198.366 172.776C198.396 173.043 196.284 171.536 196.149 171.458C196.149 171.458 110.587 122.73 110.681 122.269C114.11 105.452 162.97 128.403 175.113 133.265C186.836 137.963 210.035 142.287 220.613 134.346C220.696 134.283 220.732 134.217 220.732 134.149Z" fill="#8C0C0C"/>
<path d="M203.578 141.339C193.013 141.341 181.313 138.533 174.722 135.891C173.498 135.401 171.922 134.741 170.075 133.97C156.207 128.173 127.349 116.108 117.611 120.996C116.024 121.792 115.054 122.981 114.646 124.632L113.915 124.453C114.371 122.603 115.501 121.213 117.273 120.324C127.32 115.282 156.395 127.437 170.366 133.278C172.209 134.048 173.781 134.705 175.003 135.195C185.715 139.488 210.058 144.257 220.498 136.421L220.951 137.02C216.76 140.167 210.405 141.339 203.578 141.339Z" fill="#3A0404"/>
<path d="M194.441 170.977C194.417 170.759 194.301 170.257 194.188 169.773C194.004 168.979 193.882 168.436 193.875 168.165C193.582 157.077 201.346 153.856 209.566 150.444C213.332 148.883 217.224 147.267 220.476 144.828L220.929 145.427C217.602 147.924 213.665 149.558 209.856 151.138C201.881 154.447 194.348 157.573 194.628 168.144C194.634 168.361 194.794 169.05 194.922 169.605C195.045 170.133 195.161 170.633 195.19 170.893L194.441 170.977Z" fill="#3A0404"/>
<path d="M200.972 143.42C190.396 143.42 178.932 141.453 173.058 139.098C171.696 138.552 169.8 137.738 167.604 136.796C155.118 131.435 129.14 120.284 120.689 124.47C119.341 125.138 118.518 126.145 118.171 127.55L117.44 127.371C117.837 125.761 118.818 124.559 120.354 123.798C129.12 119.453 154.349 130.287 167.903 136.107C170.094 137.047 171.986 137.859 173.338 138.401C183.765 142.58 211.566 145.238 220.476 138.551L220.929 139.15C216.812 142.241 209.158 143.42 200.972 143.42Z" fill="#3A0404"/>
<path d="M189.896 168.031C189.875 167.838 189.77 167.388 189.669 166.952C189.505 166.246 189.397 165.764 189.39 165.518C189.126 155.502 199.833 150.853 209.281 146.754C213.594 144.883 217.668 143.115 220.511 140.98L220.964 141.58C218.05 143.768 213.936 145.554 209.582 147.443C199.901 151.644 189.892 155.987 190.143 165.498C190.149 165.686 190.289 166.294 190.404 166.784C190.514 167.262 190.618 167.712 190.645 167.95L189.896 168.031Z" fill="#3A0404"/>
<path d="M191.442 145.842C185.008 145.842 179.067 145.077 175.205 143.53C173.845 142.985 171.953 142.172 169.761 141.231C157.273 135.869 131.291 124.711 122.838 128.902C121.491 129.571 120.667 130.577 120.32 131.983L119.588 131.803C119.986 130.194 120.966 128.991 122.503 128.23C131.27 123.884 156.503 134.721 170.059 140.542C172.246 141.48 174.135 142.293 175.486 142.834C185.599 146.886 211.491 145.294 220.476 138.551L220.929 139.15C215.028 143.58 202.506 145.842 191.442 145.842Z" fill="#3A0404"/>
<path d="M184.713 166.07C184.692 165.878 184.587 165.427 184.486 164.993C184.323 164.284 184.214 163.801 184.206 163.557C183.951 153.908 196.075 149.732 206.772 146.047C212.245 144.162 217.413 142.382 220.5 140.065L220.953 140.665C217.772 143.052 212.548 144.852 207.018 146.757C196.566 150.356 184.719 154.437 184.959 163.536C184.965 163.723 185.107 164.334 185.221 164.825C185.331 165.301 185.436 165.75 185.462 165.986L184.713 166.07Z" fill="#3A0404"/>
<path d="M185.392 149.04C181.677 149.04 178.389 148.604 175.93 147.619C174.56 147.069 172.701 146.272 170.549 145.346C157.946 139.929 134.488 129.851 126.267 133.919C124.867 134.612 124.009 135.67 123.643 137.152L122.912 136.973C123.328 135.287 124.344 134.033 125.932 133.246C134.466 129.023 158.132 139.193 170.848 144.657C172.995 145.58 174.849 146.377 176.211 146.923C186.425 151.018 211.314 145.427 220.476 138.551L220.929 139.15C213.828 144.48 197.394 149.04 185.392 149.04Z" fill="#3A0404"/>
<path d="M178.913 165.118C178.892 164.926 178.788 164.479 178.687 164.045C178.522 163.334 178.414 162.849 178.406 162.604C178.174 153.836 191.529 149.867 203.313 146.366C211.134 144.042 218.524 141.847 220.908 138.628L221.515 139.074C218.979 142.494 211.474 144.725 203.527 147.086C192.004 150.509 178.942 154.39 179.16 162.583C179.165 162.771 179.306 163.384 179.422 163.876C179.531 164.352 179.636 164.8 179.662 165.035L178.913 165.118Z" fill="#3A0404"/>
<path d="M168.989 158.637L168.61 157.988C173.319 155.262 180.225 153.287 186.903 151.377C189.914 150.515 192.759 149.701 195.278 148.852L195.519 149.563C192.984 150.418 190.131 151.233 187.111 152.098C180.477 153.996 173.617 155.957 168.989 158.637Z" fill="#3A0404"/>
<path d="M181.909 151.383C179.828 151.383 177.838 151.199 175.989 150.789C172.194 149.946 166.62 147.72 160.719 145.363C149.569 140.908 136.929 135.864 131.755 138.174C130.753 138.621 130.091 139.319 129.732 140.307L129.025 140.052C129.45 138.878 130.265 138.016 131.447 137.489C136.911 135.047 149.71 140.156 160.999 144.666C166.871 147.012 172.417 149.227 176.153 150.056C190.288 153.196 213.061 142.703 220.545 139.253L220.86 139.935C214.289 142.962 196.016 151.383 181.909 151.383Z" fill="#3A0404"/>
<path d="M175.274 152.1C171.695 152.1 168.075 151.818 164.474 151.173C160.366 150.436 156.02 148.72 151.817 147.06C145.717 144.651 139.954 142.376 136.547 143.904C135.311 144.46 134.435 145.484 133.87 147.04L133.162 146.785C133.791 145.054 134.825 143.854 136.239 143.219C139.934 141.562 145.842 143.894 152.094 146.363C156.263 148.008 160.573 149.71 164.608 150.435C187.743 154.584 211.826 143.486 219.739 139.838L220.056 140.52C213.317 143.625 194.928 152.098 175.274 152.1Z" fill="#3A0404"/>
<path d="M220.399 133.771C219.863 133.461 218.818 133.269 218.378 133.598C211.173 139.005 195.13 137.828 185.414 135.69C177.966 134.048 171.488 130.586 164.954 128.025C155.896 124.465 125.799 111.399 115.69 116.861C128.505 113.593 165.184 129.291 175.113 133.265C186.837 137.962 210.035 142.286 220.613 134.346C220.852 134.165 220.71 133.95 220.399 133.771Z" fill="#4E0707"/>
<path d="M288.81 167.953L288.777 170.068L277.738 161.435L277.767 159.322L288.81 167.953Z" fill="#717273"/>
<path d="M311.27 192.247L311.24 194.358L288.777 170.068L288.81 167.953L311.27 192.247Z" fill="#6F6F70"/>
<path d="M315.654 191.224L315.623 193.338L311.24 194.358L311.27 192.247L315.654 191.224Z" fill="#A7A8A9"/>
<path d="M301.031 153.924L303.487 164.548L315.654 191.224L311.271 192.247L288.81 167.953L277.767 159.322L301.031 153.924Z" fill="#BEBFC1"/>
<path d="M261.955 133.202L261.943 136.975L253.005 142.151L253.017 138.381L261.955 133.202Z" fill="#757372"/>
<path d="M287.027 152.789L287.015 156.562L261.943 136.975L261.955 133.202L287.027 152.789Z" fill="#757372"/>
<path d="M297.51 158.822C292.463 161.744 284.256 161.744 279.178 158.822L220.238 131.203C216.155 128.857 214.117 125.773 214.126 122.693L214.114 126.466C214.106 129.545 216.147 132.63 220.228 134.978L279.166 162.596C284.245 165.515 292.452 165.517 297.499 162.593C300.007 161.143 301.261 159.242 301.265 157.34L301.276 153.567C301.271 155.471 300.018 157.369 297.51 158.822Z" fill="#7E7D7B"/>
<path d="M253.017 138.381L287.027 152.789L261.954 133.202L253.017 138.381ZM297.45 148.24C302.527 151.161 302.557 155.9 297.509 158.822C292.463 161.744 284.256 161.744 279.178 158.822L220.238 131.203C212.127 126.539 212.081 118.97 220.14 114.301C228.199 109.636 241.308 109.636 249.421 114.301L297.45 148.24Z" fill="#C4C1BF"/>
<path d="M246.204 115.194C252.737 118.953 252.776 125.05 246.284 128.809C239.794 132.569 229.234 132.569 222.699 128.809C216.168 125.05 216.134 118.953 222.625 115.194C229.116 111.436 239.672 111.436 246.204 115.194Z" fill="#757372"/>
<path d="M248.698 119.661L248.686 121.784C248.68 123.874 247.299 125.96 244.546 127.556C239.001 130.766 229.983 130.766 224.401 127.556C221.594 125.94 220.192 123.82 220.199 121.701L220.209 119.58C220.203 121.698 221.606 123.819 224.412 125.433C229.994 128.645 239.014 128.645 244.559 125.433C247.313 123.838 248.692 121.751 248.698 119.661Z" fill="#8791A0"/>
<path d="M244.491 113.806C250.072 117.017 250.102 122.222 244.559 125.433C239.014 128.645 229.994 128.645 224.412 125.433C218.834 122.222 218.805 117.017 224.349 113.806C229.894 110.595 238.909 110.595 244.491 113.806Z" fill="#C6DCE5"/>
<path d="M244.879 117.939L244.87 119.261C244.865 120.792 243.856 122.318 241.84 123.488C237.782 125.837 231.18 125.837 227.094 123.488C225.038 122.304 224.014 120.751 224.016 119.203L224.026 117.88C224.022 119.43 225.047 120.984 227.103 122.167C231.188 124.515 237.791 124.515 241.849 122.167C243.864 120.998 244.873 119.471 244.879 117.939Z" fill="#A0ADC1"/>
<path d="M241.8 113.654C245.885 116.003 245.908 119.815 241.849 122.167C237.791 124.515 231.188 124.515 227.103 122.167C223.017 119.815 222.996 116.003 227.056 113.654C231.115 111.303 237.713 111.303 241.8 113.654Z" fill="#D5F0FD"/>
<path d="M237.48 116.155C239.163 117.124 239.174 118.695 237.501 119.663C235.829 120.632 233.106 120.632 231.423 119.663C229.739 118.695 229.731 117.124 231.403 116.155C233.077 115.186 235.797 115.186 237.48 116.155Z" fill="#BFC8D4"/>
<path d="M76.0173 140.042C71.4384 137.405 69.1515 133.944 69.1606 130.486L69.1553 133.114C69.144 136.571 71.4316 140.03 76.0113 142.668L90.7664 151.157L90.7732 148.532L76.0173 140.042Z" fill="#CA7444"/>
<path d="M132.485 191.445L90.8907 167.514C86.3065 164.873 84.0167 161.409 84.025 157.948L84.019 160.576C84.0084 164.033 86.2967 167.501 90.884 170.139L132.478 194.07C141.58 199.308 156.307 199.308 165.35 194.071L165.355 191.446C156.316 196.681 141.587 196.681 132.485 191.445Z" fill="#CA7444"/>
<path d="M212.981 199.936C203.942 205.173 189.212 205.173 180.111 199.936L165.355 191.446L165.35 194.071L180.103 202.56C189.205 207.798 203.934 207.798 212.975 202.56C217.473 199.956 219.724 196.546 219.733 193.132L219.741 190.506C219.731 193.92 217.48 197.33 212.981 199.936Z" fill="#CA7444"/>
<path d="M212.885 180.955C221.987 186.19 222.035 194.695 212.981 199.936C203.942 205.173 189.212 205.173 180.111 199.936L165.355 191.446C156.316 196.681 141.587 196.681 132.485 191.445L90.8908 167.514C81.7811 162.271 81.7329 153.768 90.7733 148.532L76.0174 140.042C66.9175 134.804 66.8701 126.302 75.9119 121.064C84.9636 115.823 99.6931 115.823 108.793 121.059L212.885 180.955Z" fill="#FC9862"/>
<path d="M124.513 156.071C123.417 155.442 121.646 155.442 120.553 156.071C119.466 156.702 119.47 157.725 120.568 158.356C121.665 158.988 123.436 158.988 124.527 158.356C125.616 157.725 125.61 156.702 124.513 156.071ZM123.374 140.408C122.284 141.039 122.29 142.064 123.387 142.694C124.483 143.325 126.254 143.325 127.345 142.694C128.435 142.064 128.43 141.039 127.333 140.408C126.234 139.776 124.466 139.776 123.374 140.408ZM125.408 172.262C126.505 172.891 128.274 172.891 129.364 172.262C130.455 171.63 130.448 170.606 129.35 169.974C128.254 169.342 126.483 169.342 125.393 169.974C124.301 170.606 124.308 171.63 125.408 172.262ZM130.679 169.206C132.508 170.26 132.52 171.974 130.699 173.03C128.882 174.083 125.912 174.08 124.082 173.028C122.524 172.129 122.28 170.756 123.367 169.719L108.129 160.652C103.408 157.932 103.385 153.507 108.08 150.789L117.571 145.294L118.529 144.74L121.46 143.042C120.254 141.989 120.446 140.559 122.038 139.64C123.856 138.587 126.829 138.587 128.66 139.64C130.489 140.693 130.501 142.41 128.682 143.462C127.091 144.383 124.616 144.5 122.791 143.808L119.862 145.505L118.904 146.062C114.942 148.354 114.966 152.088 118.953 154.382L119.954 154.959C121.764 154.267 124.237 154.378 125.841 155.305C127.672 156.356 127.684 158.071 125.863 159.126C124.044 160.178 121.073 160.177 119.244 159.123C117.64 158.2 117.434 156.774 118.627 155.727L117.627 155.153C114.585 153.4 113.494 150.949 114.347 148.698L109.411 151.558C105.452 153.852 105.47 157.586 109.459 159.881L124.643 168.922C126.466 168.164 129.031 168.259 130.679 169.206Z" fill="#043F3B"/>
<path d="M163.346 165.69C164.461 166.33 166.261 166.329 167.368 165.687C168.472 165.049 168.468 164.012 167.354 163.369C166.242 162.727 164.441 162.729 163.337 163.369C162.231 164.012 162.231 165.049 163.346 165.69ZM168.702 162.589C170.563 163.659 170.57 165.401 168.722 166.467C167.108 167.404 164.593 167.519 162.746 166.819L160.144 168.326C159.352 168.784 158.559 169.17 157.78 169.471C157.002 169.775 156.214 170.002 155.44 170.159C155.083 170.227 154.706 170.171 154.453 170.025C154.354 169.968 154.276 169.895 154.225 169.814C154.051 169.527 154.316 169.213 154.816 169.113C155.433 168.99 156.073 168.804 156.706 168.556C157.385 168.294 158.087 167.953 158.787 167.545L161.391 166.041C160.167 164.975 160.364 163.526 161.98 162.589C163.827 161.52 166.841 161.52 168.702 162.589Z" fill="#043F3B"/>
<path d="M125.329 172.171C126.444 172.811 128.241 172.811 129.348 172.169C130.451 171.53 130.45 170.49 129.336 169.85C128.222 169.21 126.421 169.21 125.317 169.851C124.212 170.49 124.215 171.53 125.329 172.171ZM131.289 169.498C132.514 170.564 132.318 172.015 130.704 172.951C128.858 174.021 125.843 174.02 123.983 172.951C122.124 171.88 122.112 170.139 123.96 169.071C125.575 168.134 128.085 168.016 129.932 168.718L132.385 167.297C133.498 166.655 134.615 166.159 135.714 165.821C136.398 165.605 137.09 165.451 137.774 165.353C138.11 165.303 138.45 165.369 138.678 165.499C138.798 165.568 138.887 165.655 138.931 165.755C139.061 166.05 138.748 166.35 138.236 166.423C137.707 166.498 137.164 166.621 136.622 166.788C135.688 167.081 134.72 167.511 133.742 168.078L131.289 169.498Z" fill="#043F3B"/>
<path d="M138.788 179.913C139.902 180.555 141.7 180.553 142.807 179.913C143.909 179.273 143.907 178.235 142.793 177.594C141.678 176.952 139.881 176.955 138.775 177.594C137.668 178.235 137.675 179.273 138.788 179.913ZM149.88 155.626C148.772 156.267 148.775 157.305 149.888 157.945C151.001 158.586 152.802 158.583 153.911 157.944C155.013 157.303 155.012 156.267 153.896 155.626C152.783 154.984 150.982 154.985 149.88 155.626ZM144.747 177.242C145.969 178.306 145.776 179.76 144.16 180.695C142.314 181.764 139.3 181.764 137.44 180.695C135.581 179.623 135.574 177.883 137.42 176.814C139.032 175.878 141.544 175.761 143.391 176.462L145.845 175.041C149.853 172.72 149.842 170.648 145.808 168.327L145.376 168.08C142.949 166.683 141.768 165.331 141.767 163.939C141.753 162.551 142.918 161.199 145.329 159.802L147.93 158.294C146.709 157.231 146.907 155.782 148.522 154.843C150.368 153.777 153.385 153.774 155.244 154.843C157.103 155.915 157.111 157.657 155.266 158.726C153.649 159.661 151.134 159.775 149.288 159.074L146.685 160.582C142.674 162.904 142.686 164.976 146.723 167.3L147.154 167.547C149.578 168.942 150.761 170.296 150.77 171.684C150.777 173.074 149.609 174.426 147.2 175.821L144.747 177.242Z" fill="#043F3B"/>
<path d="M102.309 125.814C101.18 125.159 99.3414 125.159 98.2055 125.814C97.0636 126.469 97.0583 127.529 98.1882 128.183C99.318 128.839 101.157 128.842 102.299 128.183C103.434 127.529 103.438 126.469 102.309 125.814ZM127.341 142.688C128.478 142.034 128.483 140.976 127.355 140.319C126.222 139.664 124.384 139.664 123.247 140.317C122.106 140.976 122.1 142.034 123.235 142.691C124.363 143.345 126.202 143.345 127.341 142.688ZM102.912 129.342C101.022 130.06 98.4548 129.94 96.803 128.982C94.9146 127.89 94.9267 126.111 96.8278 125.016C98.729 123.924 101.808 123.924 103.695 125.016C105.348 125.974 105.548 127.456 104.295 128.545L122.628 139.164C124.52 138.444 127.086 138.564 128.74 139.522C130.626 140.616 130.618 142.392 128.716 143.488C126.814 144.581 123.735 144.581 121.849 143.489C120.195 142.528 119.995 141.048 121.247 139.959L102.912 129.342Z" fill="#043F3B"/>
<path d="M95.7175 134.861C94.5892 134.206 92.7505 134.206 91.6154 134.861C90.472 135.517 90.4675 136.577 91.5966 137.231C92.7272 137.887 94.5658 137.89 95.7077 137.231C96.8436 136.577 96.8466 135.516 95.7175 134.861ZM109.965 145.495C111.102 144.839 111.106 143.779 109.979 143.123C108.844 142.467 107.008 142.467 105.87 143.122C104.732 143.779 104.725 144.839 105.858 145.496C106.987 146.15 108.824 146.15 109.965 145.495ZM96.3224 138.39C94.4302 139.108 91.8655 138.986 90.2114 138.03C88.3238 136.938 88.3358 135.158 90.237 134.064C92.1381 132.972 95.2174 132.972 97.1042 134.064C98.7568 135.021 98.9572 136.502 97.7038 137.593L105.252 141.967C107.143 141.25 109.71 141.368 111.361 142.328C113.25 143.42 113.239 145.197 111.34 146.291C109.438 147.386 106.359 147.386 104.472 146.292C102.819 145.334 102.619 143.852 103.869 142.763L96.3224 138.39Z" fill="#043F3B"/>
<path d="M134.902 147.71C133.772 148.366 133.776 149.427 134.913 150.081C136.054 150.739 137.893 150.735 139.025 150.081C140.152 149.427 140.149 148.366 139.006 147.71C137.869 147.056 136.032 147.056 134.902 147.71ZM120.656 158.343C121.795 159 123.633 159 124.763 158.345C125.896 157.689 125.891 156.629 124.75 155.971C123.612 155.316 121.776 155.316 120.644 155.972C119.514 156.629 119.518 157.689 120.656 158.343ZM126.75 155.613C128.001 156.701 127.802 158.183 126.148 159.142C124.261 160.234 121.182 160.234 119.281 159.14C117.381 158.045 117.371 156.271 119.258 155.177C120.911 154.217 123.476 154.098 125.369 154.816L132.918 150.443C131.663 149.352 131.863 147.87 133.516 146.912C135.404 145.821 138.482 145.821 140.384 146.912C142.285 148.007 142.296 149.786 140.409 150.88C138.756 151.836 136.19 151.958 134.299 151.238L126.75 155.613Z" fill="#043F3B"/>
<path d="M167.56 163.306C166.429 162.651 164.592 162.651 163.455 163.306C162.314 163.964 162.309 165.021 163.438 165.675C164.569 166.332 166.407 166.333 167.551 165.675C168.685 165.021 168.688 163.963 167.56 163.306ZM192.59 180.182C193.727 179.526 193.736 178.465 192.605 177.814C191.472 177.155 189.634 177.157 188.497 177.809C187.357 178.465 187.351 179.526 188.484 180.183C189.614 180.838 191.451 180.838 192.59 180.182ZM168.163 166.833C166.273 167.552 163.706 167.43 162.052 166.475C160.167 165.382 160.176 163.604 162.079 162.509C163.978 161.416 167.057 161.416 168.946 162.51C170.597 163.467 170.796 164.948 169.544 166.039L187.879 176.655C189.77 175.935 192.335 176.057 193.99 177.015C195.876 178.11 195.868 179.886 193.967 180.976C192.065 182.073 188.985 182.073 187.097 180.981C185.444 180.021 185.245 178.54 186.497 177.452L168.163 166.833Z" fill="#043F3B"/>
<path d="M207.186 189.283L207.181 191.769C207.178 192.735 206.542 193.698 205.27 194.435C202.712 195.916 198.549 195.916 195.975 194.435C194.678 193.689 194.031 192.71 194.035 191.732L194.042 189.245C194.036 190.223 194.684 191.205 195.978 191.946C198.556 193.429 202.718 193.429 205.278 191.946C206.548 191.212 207.184 190.247 207.186 189.283Z" fill="#B9C0D1"/>
<path d="M205.248 186.58C207.821 188.063 207.835 190.466 205.278 191.946C202.718 193.429 198.556 193.429 195.978 191.946C193.405 190.466 193.39 188.063 195.948 186.58C198.511 185.099 202.67 185.099 205.248 186.58Z" fill="#D5F0FD"/>
<path d="M204.797 186.694C205.564 187.136 205.56 187.851 204.806 188.288L203.365 189.124L204.815 189.96C205.575 190.395 205.59 191.111 204.825 191.552C204.073 191.989 202.826 191.989 202.065 191.552L200.615 190.717L199.184 191.548C198.419 191.989 197.189 191.989 196.421 191.548C195.664 191.111 195.649 190.395 196.412 189.952L197.847 189.124L196.404 188.294C195.635 187.851 195.641 187.136 196.393 186.7C197.158 186.259 198.385 186.259 199.154 186.7L200.595 187.531L202.038 186.694C202.792 186.259 204.04 186.259 204.797 186.694Z" fill="#B1B8C5"/>
<path d="M157.868 184.246L157.863 186.733C157.859 187.699 157.223 188.662 155.951 189.397C153.394 190.88 149.23 190.88 146.655 189.397C145.359 188.652 144.712 187.673 144.715 186.694L144.721 184.208C144.717 185.186 145.366 186.167 146.66 186.91C149.237 188.392 153.4 188.392 155.96 186.91C157.23 186.174 157.866 185.213 157.868 184.246Z" fill="#B9C0D1"/>
<path d="M155.93 181.544C158.5 183.025 158.518 185.429 155.96 186.91C153.4 188.392 149.237 188.392 146.66 186.91C144.087 185.429 144.072 183.025 146.63 181.544C149.191 180.061 153.351 180.061 155.93 181.544Z" fill="#D5F0FD"/>
<path d="M155.478 181.658C156.245 182.101 156.242 182.815 155.486 183.252L154.046 184.087L155.497 184.922C156.256 185.36 156.272 186.074 155.506 186.516C154.756 186.954 153.507 186.954 152.747 186.516L151.295 185.682L149.864 186.511C149.099 186.954 147.871 186.954 147.102 186.511C146.346 186.074 146.33 185.36 147.094 184.916L148.526 184.087L147.084 183.258C146.318 182.815 146.321 182.101 147.075 181.663C147.838 181.221 149.067 181.223 149.834 181.663L151.276 182.494L152.719 181.658C153.473 181.221 154.72 181.221 155.478 181.658Z" fill="#B1B8C5"/>
<path d="M90.5933 125.006L90.5895 127.493C90.5857 128.46 89.95 129.423 88.677 130.158C86.1198 131.639 81.9574 131.639 79.3813 130.158C78.0873 129.412 77.4395 128.434 77.4425 127.456L77.4478 124.968C77.4433 125.947 78.0918 126.928 79.3866 127.671C81.9649 129.154 86.1258 129.154 88.6876 127.671C89.956 126.936 90.5925 125.972 90.5933 125.006Z" fill="#B9C0D1"/>
<path d="M88.6567 122.304C91.2282 123.786 91.244 126.189 88.6875 127.671C86.1258 129.154 81.9649 129.154 79.3866 127.671C76.812 126.189 76.7992 123.786 79.3572 122.304C81.9182 120.823 86.0783 120.823 88.6567 122.304Z" fill="#D5F0FD"/>
<path d="M88.2048 122.419C88.9715 122.861 88.9685 123.575 88.2138 124.012L86.7736 124.848L88.2236 125.683C88.9821 126.119 88.9987 126.834 88.2326 127.277C87.4816 127.713 86.2328 127.713 85.4743 127.277L84.0205 126.442L82.5909 127.271C81.8256 127.713 80.5978 127.713 79.8288 127.271C79.0718 126.834 79.0567 126.119 79.8205 125.676L81.2539 124.848L79.8114 124.018C79.0446 123.575 79.0499 122.861 79.8024 122.424C80.5647 121.983 81.7932 121.984 82.563 122.424L84.0024 123.254L85.4449 122.419C86.2004 121.983 87.447 121.983 88.2048 122.419Z" fill="#B1B8C5"/>
<path d="M101.951 155.8L101.946 158.287C101.944 159.254 101.307 160.217 100.035 160.951C97.4771 162.432 93.3155 162.432 90.7387 160.951C89.4431 160.205 88.7961 159.228 88.7998 158.249L88.8059 155.762C88.8006 156.74 89.4499 157.721 90.7432 158.463C93.3208 159.946 97.4839 159.946 100.043 158.463C101.313 157.728 101.948 156.765 101.951 155.8Z" fill="#B9C0D1"/>
<path d="M100.013 153.096C102.586 154.579 102.6 156.984 100.043 158.463C97.4838 159.947 93.3207 159.947 90.7431 158.463C88.17 156.984 88.155 154.579 90.7129 153.096C93.2762 151.616 97.4348 151.616 100.013 153.096Z" fill="#D5F0FD"/>
<path d="M99.5619 153.213C100.329 153.654 100.324 154.368 99.571 154.805L98.1293 155.641L99.5793 156.476C100.34 156.913 100.355 157.628 99.5898 158.07C98.8381 158.506 97.5907 158.506 96.83 158.07L95.3792 157.234L93.9481 158.065C93.1836 158.506 91.9543 158.506 91.1867 158.065C90.4297 157.628 90.4139 156.913 91.1777 156.471L92.6118 155.641L91.1694 154.811C90.4003 154.368 90.4056 153.654 91.1588 153.217C91.9226 152.776 93.1504 152.777 93.9187 153.217L95.3604 154.047L96.8028 153.213C97.5568 152.776 98.8042 152.776 99.5619 153.213Z" fill="#B1B8C5"/>
<path d="M419.811 181.221L419.764 197.712C419.741 205.832 414.385 213.939 403.686 220.137C382.149 232.611 347.111 232.613 325.432 220.137C314.523 213.86 309.075 205.623 309.1 197.398L309.146 180.906C309.123 189.133 314.569 197.37 325.477 203.647C347.158 216.122 382.194 216.122 403.735 203.645C414.431 197.45 419.786 189.343 419.811 181.221Z" fill="#8791A0"/>
<path d="M403.473 158.475C425.154 170.949 425.271 191.172 403.735 203.645C382.194 216.122 347.158 216.122 325.477 203.647C303.798 191.172 303.691 170.949 325.229 158.475C346.768 146 381.794 146 403.473 158.475Z" fill="#C6DCE5"/>
<path d="M412.183 174.102L412.142 180.147C412.123 187.149 407.505 194.14 398.281 199.482C379.712 210.238 349.5 210.238 330.809 199.482C321.404 194.07 316.707 186.969 316.727 179.875L316.767 173.829C316.746 180.922 321.441 188.025 330.847 193.436C349.542 204.194 379.75 204.194 398.322 193.436C407.546 188.094 412.163 181.104 412.183 174.102Z" fill="#A0ADC1"/>
<path d="M398.097 154.488C416.791 165.244 416.894 182.68 398.322 193.436C379.75 204.194 349.542 204.194 330.847 193.436C312.157 182.68 312.062 165.244 330.633 154.488C349.205 143.732 379.405 143.732 398.097 154.488Z" fill="#D5F0FD"/>
<path d="M392.003 158.017C407.31 166.824 407.395 181.1 392.188 189.909C376.984 198.715 352.248 198.715 336.942 189.909C321.638 181.1 321.56 166.824 336.765 158.017C351.972 149.209 376.699 149.209 392.003 158.017Z" fill="#BFC8D4"/>
<path d="M393.311 161.134L393.307 162.825C393.307 163.48 392.874 164.135 392.011 164.635C390.274 165.641 387.447 165.641 385.696 164.635C384.818 164.129 384.374 163.464 384.377 162.801L384.382 161.111C384.38 161.774 384.82 162.44 385.699 162.944C387.451 163.952 390.277 163.952 392.015 162.944C392.878 162.446 393.311 161.792 393.311 161.134Z" fill="#B9C0D1"/>
<path d="M391.995 159.299C393.743 160.306 393.753 161.94 392.015 162.944C390.277 163.952 387.451 163.952 385.698 162.944C383.949 161.94 383.941 160.306 385.679 159.299C387.418 158.293 390.245 158.293 391.995 159.299Z" fill="#D5F0FD"/>
<path d="M391.688 159.38C392.209 159.677 392.206 160.164 391.696 160.46L390.716 161.028L391.7 161.595C392.217 161.891 392.227 162.378 391.709 162.678C391.197 162.975 390.349 162.975 389.835 162.678L388.849 162.109L387.877 162.674C387.357 162.975 386.52 162.975 385.998 162.674C385.485 162.378 385.474 161.891 385.993 161.592L386.968 161.028L385.988 160.465C385.467 160.164 385.47 159.677 385.98 159.383C386.499 159.08 387.335 159.082 387.857 159.383L388.836 159.947L389.815 159.38C390.329 159.08 391.172 159.08 391.688 159.38Z" fill="#B1B8C5"/>
<path d="M354.972 156.457L354.968 158.148C354.968 158.803 354.535 159.457 353.671 159.957C351.935 160.964 349.106 160.964 347.357 159.957C346.478 159.451 346.035 158.786 346.038 158.123L346.043 156.434C346.041 157.097 346.481 157.761 347.36 158.268C349.112 159.274 351.939 159.274 353.676 158.268C354.54 157.768 354.972 157.116 354.972 156.457Z" fill="#B9C0D1"/>
<path d="M353.656 154.622C355.403 155.629 355.412 157.262 353.676 158.268C351.939 159.274 349.112 159.274 347.36 158.268C345.611 157.262 345.602 155.629 347.339 154.622C349.079 153.616 351.904 153.616 353.656 154.622Z" fill="#D5F0FD"/>
<path d="M353.348 154.701C353.869 155.002 353.867 155.485 353.357 155.783L352.377 156.351L353.362 156.916C353.877 157.214 353.887 157.699 353.369 158.001C352.858 158.297 352.009 158.297 351.496 158.001L350.509 157.431L349.536 157.995C349.019 158.297 348.18 158.297 347.659 157.995C347.146 157.699 347.135 157.214 347.654 156.916L348.628 156.351L347.649 155.785C347.128 155.485 347.13 155.002 347.641 154.705C348.16 154.405 348.996 154.405 349.517 154.705L350.497 155.268L351.476 154.701C351.986 154.405 352.833 154.405 353.348 154.701Z" fill="#B1B8C5"/>
<path d="M388.068 171.503L388.045 174.494C388.038 177.959 385.753 181.416 381.19 184.06C372.004 189.38 357.057 189.38 347.81 184.06C343.158 181.383 340.833 177.869 340.844 174.361L340.861 171.37C340.854 174.879 343.175 178.393 347.83 181.07C357.077 186.391 372.022 186.39 381.21 181.069C385.771 178.426 388.058 174.968 388.068 171.503Z" fill="#C9CFDD"/>
<path d="M381.097 161.8C390.347 167.122 390.397 175.748 381.21 181.069C372.022 186.39 357.077 186.391 347.83 181.07C338.583 175.748 338.535 167.122 347.721 161.8C356.911 156.478 371.85 156.478 381.097 161.8Z" fill="#D5F0FD"/>
<path d="M378.084 163.546C385.656 167.904 385.696 174.965 378.177 179.324C370.655 183.679 358.417 183.679 350.844 179.324C343.273 174.965 343.233 167.904 350.758 163.546C358.281 159.191 370.513 159.191 378.084 163.546Z" fill="#BFC8D4"/>
<path d="M343.024 181.615L343.022 183.596C343.019 184.368 342.51 185.138 341.496 185.722C339.457 186.905 336.136 186.905 334.082 185.722C333.05 185.129 332.534 184.349 332.536 183.567L332.541 181.585C332.536 182.365 333.055 183.147 334.088 183.739C336.142 184.922 339.462 184.922 341.504 183.739C342.516 183.153 343.024 182.384 343.024 181.615Z" fill="#B9C0D1"/>
<path d="M341.477 179.459C343.53 180.641 343.543 182.557 341.504 183.739C339.462 184.922 336.142 184.922 334.087 183.739C332.033 182.557 332.023 180.641 334.062 179.459C336.105 178.277 339.424 178.277 341.477 179.459Z" fill="#D5F0FD"/>
<path d="M341.119 179.55C341.731 179.903 341.728 180.472 341.126 180.821L339.978 181.488L341.134 182.154C341.74 182.503 341.752 183.072 341.141 183.425C340.542 183.773 339.548 183.773 338.941 183.425L337.783 182.758L336.642 183.421C336.033 183.773 335.052 183.773 334.44 183.421C333.836 183.072 333.822 182.503 334.432 182.15L335.575 181.488L334.425 180.826C333.813 180.472 333.818 179.903 334.417 179.555C335.027 179.203 336.005 179.204 336.62 179.555L337.767 180.217L338.918 179.55C339.521 179.203 340.515 179.203 341.119 179.55Z" fill="#B1B8C5"/>
<path d="M386.482 187.305L386.476 189.29C386.476 190.06 385.969 190.828 384.954 191.414C382.915 192.596 379.594 192.596 377.539 191.414C376.507 190.819 375.992 190.039 375.994 189.259L375.998 187.277C375.994 188.055 376.51 188.838 377.545 189.431C379.599 190.612 382.92 190.612 384.961 189.429C385.973 188.844 386.482 188.076 386.482 187.305Z" fill="#B9C0D1"/>
<path d="M384.936 185.151C386.987 186.333 387.001 188.251 384.961 189.429C382.92 190.612 379.599 190.612 377.545 189.431C375.491 188.251 375.48 186.333 377.519 185.151C379.564 183.969 382.881 183.969 384.936 185.151Z" fill="#D5F0FD"/>
<path d="M384.575 185.243C385.188 185.595 385.186 186.165 384.584 186.513L383.435 187.179L384.591 187.846C385.198 188.193 385.21 188.763 384.598 189.117C383.999 189.466 383.005 189.466 382.398 189.117L381.24 188.45L380.1 189.111C379.491 189.466 378.508 189.466 377.896 189.111C377.293 188.763 377.28 188.193 377.889 187.84L379.032 187.179L377.881 186.517C377.27 186.165 377.275 185.595 377.875 185.246C378.484 184.893 379.463 184.896 380.077 185.246L381.226 185.908L382.375 185.243C382.978 184.893 383.971 184.893 384.575 185.243Z" fill="#B1B8C5"/>
<path d="M369.539 171.937C369.539 172.958 367.296 173.783 364.53 173.783C361.762 173.783 359.517 172.958 359.517 171.937C359.517 170.92 361.762 170.094 364.53 170.094C367.296 170.094 369.539 170.92 369.539 171.937Z" fill="#9DA1AB"/>
<mask id="mask5_303_1364" style="mask-type:luminance" maskUnits="userSpaceOnUse" x="359" y="167" width="11" height="7">
<path d="M369.539 170.7L369.531 173.056C369.534 172.304 369.038 171.549 368.041 170.976C366.057 169.836 362.847 169.836 360.879 170.976C359.902 171.542 359.414 172.285 359.411 173.028L359.416 170.672C359.419 169.93 359.91 169.185 360.886 168.621C362.855 167.48 366.065 167.48 368.046 168.621C369.044 169.194 369.542 169.947 369.539 170.7Z" fill="white"/>
</mask>
<g mask="url(#mask5_303_1364)">
<path d="M369.539 170.7L369.531 173.056C369.534 172.304 369.038 171.549 368.041 170.976C366.057 169.836 362.847 169.836 360.879 170.976C359.902 171.542 359.414 172.285 359.411 173.028L359.416 170.672C359.419 169.93 359.91 169.185 360.886 168.621C362.855 167.48 366.065 167.48 368.046 168.621C369.044 169.194 369.542 169.947 369.539 170.7Z" fill="#BBBEC5"/>
</g>
<path d="M360.909 172.754C362.891 173.894 366.103 173.894 368.069 172.754C370.037 171.613 370.027 169.759 368.046 168.621C366.065 167.48 362.855 167.48 360.886 168.621C358.918 169.759 358.927 171.613 360.909 172.754ZM368.728 168.227C371.084 169.584 371.098 171.791 368.756 173.148C366.412 174.503 362.588 174.503 360.229 173.148C357.872 171.791 357.86 169.582 360.201 168.227C362.543 166.87 366.37 166.87 368.728 168.227Z" fill="#D3D7DD"/>
<path d="M338.905 170.556C338.905 171.417 337.01 172.115 334.673 172.115C332.337 172.115 330.442 171.417 330.442 170.556C330.442 169.697 332.337 168.999 334.673 168.999C337.01 168.999 338.905 169.697 338.905 170.556Z" fill="#9DA1AB"/>
<mask id="mask6_303_1364" style="mask-type:luminance" maskUnits="userSpaceOnUse" x="330" y="167" width="9" height="5">
<path d="M338.905 169.511L338.9 171.5C338.9 170.865 338.483 170.227 337.64 169.744C335.965 168.781 333.254 168.781 331.592 169.744C330.766 170.222 330.354 170.85 330.351 171.477L330.357 169.487C330.359 168.86 330.771 168.232 331.597 167.753C333.259 166.793 335.973 166.791 337.647 167.753C338.486 168.238 338.908 168.876 338.905 169.511Z" fill="white"/>
</mask>
<g mask="url(#mask6_303_1364)">
<path d="M338.905 169.511L338.9 171.5C338.9 170.865 338.483 170.227 337.64 169.744C335.965 168.781 333.254 168.781 331.592 169.744C330.766 170.222 330.354 170.85 330.351 171.477L330.357 169.487C330.359 168.86 330.771 168.233 331.597 167.753C333.259 166.793 335.973 166.791 337.647 167.753C338.486 168.238 338.908 168.876 338.905 169.511Z" fill="#BBBEC5"/>
</g>
<path d="M331.618 171.244C333.291 172.208 336.004 172.208 337.665 171.244C339.326 170.282 339.319 168.716 337.647 167.753C335.973 166.791 333.259 166.793 331.597 167.753C329.936 168.716 329.943 170.282 331.618 171.244ZM338.221 167.421C340.212 168.568 340.223 170.433 338.243 171.579C336.264 172.725 333.034 172.725 331.043 171.579C329.052 170.433 329.042 168.567 331.019 167.421C332.996 166.276 336.23 166.276 338.221 167.421Z" fill="#D3D7DD"/>
<path d="M400.638 175.222C400.638 176.083 398.742 176.78 396.409 176.78C394.071 176.78 392.174 176.083 392.174 175.222C392.174 174.363 394.071 173.663 396.409 173.663C398.742 173.663 400.638 174.363 400.638 175.222Z" fill="#9DA1AB"/>
<mask id="mask7_303_1364" style="mask-type:luminance" maskUnits="userSpaceOnUse" x="392" y="171" width="9" height="6">
<path d="M400.638 174.176L400.632 176.166C400.632 175.529 400.216 174.892 399.373 174.408C397.698 173.445 394.986 173.445 393.324 174.408C392.498 174.888 392.086 175.515 392.083 176.143L392.089 174.153C392.09 173.525 392.503 172.897 393.329 172.419C394.991 171.456 397.705 171.455 399.378 172.419C400.22 172.903 400.64 173.54 400.638 174.176Z" fill="white"/>
</mask>
<g mask="url(#mask7_303_1364)">
<path d="M400.638 174.177L400.632 176.166C400.632 175.529 400.216 174.892 399.374 174.408C397.697 173.445 394.986 173.445 393.324 174.408C392.499 174.888 392.086 175.515 392.083 176.143L392.089 174.153C392.091 173.525 392.503 172.897 393.329 172.419C394.991 171.456 397.705 171.455 399.378 172.419C400.22 172.903 400.64 173.54 400.638 174.177Z" fill="#BBBEC5"/>
</g>
<path d="M393.349 175.909C395.024 176.871 397.735 176.871 399.397 175.909C401.061 174.948 401.051 173.382 399.378 172.418C397.705 171.455 394.991 171.456 393.329 172.418C391.668 173.382 391.675 174.948 393.349 175.909ZM399.953 172.087C401.944 173.232 401.955 175.098 399.975 176.243C397.999 177.389 394.766 177.389 392.776 176.243C390.784 175.098 390.775 173.232 392.75 172.087C394.731 170.942 397.962 170.942 399.953 172.087Z" fill="#D3D7DD"/>
<path d="M359.872 192.48C359.872 193.343 357.976 194.039 355.64 194.039C353.302 194.039 351.408 193.343 351.408 192.48C351.408 191.62 353.302 190.923 355.64 190.923C357.976 190.923 359.872 191.62 359.872 192.48Z" fill="#9DA1AB"/>
<mask id="mask8_303_1364" style="mask-type:luminance" maskUnits="userSpaceOnUse" x="351" y="188" width="9" height="6">
<path d="M359.872 191.435L359.864 193.424C359.866 192.79 359.447 192.152 358.605 191.668C356.932 190.705 354.218 190.705 352.555 191.668C351.732 192.146 351.318 192.774 351.318 193.4L351.319 191.412C351.323 190.783 351.737 190.157 352.561 189.677C354.225 188.717 356.936 188.715 358.61 189.677C359.452 190.162 359.872 190.8 359.872 191.435Z" fill="white"/>
</mask>
<g mask="url(#mask8_303_1364)">
<path d="M359.872 191.435L359.864 193.424C359.866 192.789 359.447 192.152 358.605 191.668C356.932 190.705 354.218 190.705 352.555 191.668C351.733 192.146 351.318 192.774 351.318 193.4L351.319 191.412C351.323 190.783 351.737 190.157 352.561 189.677C354.225 188.717 356.936 188.715 358.61 189.677C359.452 190.162 359.872 190.8 359.872 191.435Z" fill="#BBBEC5"/>
</g>
<path d="M352.583 193.169C354.255 194.132 356.966 194.132 358.63 193.169C360.292 192.206 360.282 190.64 358.61 189.677C356.936 188.715 354.225 188.717 352.561 189.677C350.902 190.64 350.91 192.206 352.583 193.169ZM359.185 189.346C361.176 190.491 361.186 192.357 359.207 193.503C357.231 194.649 353.998 194.649 352.009 193.503C350.018 192.357 350.006 190.489 351.984 189.346C353.962 188.2 357.193 188.2 359.185 189.346Z" fill="#D3D7DD"/>
<path d="M372.92 155.93C372.92 156.791 371.024 157.488 368.687 157.488C366.349 157.488 364.456 156.791 364.456 155.93C364.456 155.069 366.349 154.373 368.687 154.373C371.024 154.373 372.92 155.069 372.92 155.93Z" fill="#9DA1AB"/>
<mask id="mask9_303_1364" style="mask-type:luminance" maskUnits="userSpaceOnUse" x="364" y="152" width="9" height="5">
<path d="M372.92 154.884L372.913 156.874C372.915 156.237 372.494 155.599 371.654 155.116C369.979 154.153 367.266 154.153 365.604 155.116C364.781 155.596 364.365 156.222 364.365 156.848L364.371 154.861C364.371 154.232 364.786 153.604 365.611 153.126C367.273 152.164 369.988 152.163 371.659 153.126C372.5 153.611 372.92 154.248 372.92 154.884Z" fill="white"/>
</mask>
<g mask="url(#mask9_303_1364)">
<path d="M372.92 154.884L372.913 156.874C372.915 156.237 372.494 155.599 371.654 155.116C369.979 154.153 367.266 154.153 365.604 155.116C364.781 155.596 364.365 156.222 364.365 156.849L364.371 154.861C364.371 154.232 364.786 153.604 365.611 153.126C367.273 152.164 369.988 152.163 371.659 153.126C372.5 153.611 372.92 154.248 372.92 154.884Z" fill="#BBBEC5"/>
</g>
<path d="M365.631 156.619C367.304 157.58 370.018 157.58 371.679 156.619C373.34 155.656 373.333 154.09 371.659 153.127C369.987 152.163 367.273 152.164 365.611 153.127C363.95 154.09 363.958 155.656 365.631 156.619ZM372.232 152.795C374.224 153.94 374.234 155.805 372.258 156.95C370.279 158.097 367.047 158.097 365.058 156.95C363.065 155.805 363.054 153.939 365.033 152.795C367.011 151.65 370.241 151.65 372.232 152.795Z" fill="#D3D7DD"/>
<path d="M393.064 198.596L382.926 200.284C382.926 200.284 374.991 203.873 371.374 208.862C368.098 219.713 371.283 218.07 378.629 215.261C381.737 214.073 383.417 213.172 384.455 212.526C385.186 212.315 386.938 211.928 387.353 212.931C387.752 213.894 385.564 215.174 384.615 215.669C383.952 216.013 382.56 216.985 382.517 217.781C382.453 218.975 383.548 219.127 383.548 219.127C383.548 219.127 384.172 219.052 387.217 217.438C389.666 216.14 391.571 215.404 392.979 214.643C393.794 214.201 395.616 210.68 396.039 210.138C396.921 209.78 393.064 198.596 393.064 198.596Z" fill="#E8C7B1"/>
<path d="M450.659 252.522L450.651 255.649C450.645 257.188 449.631 258.726 447.602 259.901C443.518 262.266 436.876 262.266 432.765 259.901C430.697 258.711 429.663 257.148 429.668 255.589L429.677 252.463C429.672 254.022 430.704 255.584 432.773 256.775C436.884 259.139 443.527 259.139 447.612 256.774C449.64 255.599 450.655 254.062 450.659 252.522Z" fill="#8791A0"/>
<path d="M447.562 248.209C451.672 250.575 451.694 254.408 447.612 256.774C443.527 259.139 436.884 259.139 432.773 256.774C428.663 254.408 428.643 250.575 432.726 248.209C436.81 245.844 443.451 245.844 447.562 248.209Z" fill="#C6DCE5"/>
<path d="M449.214 251.172L449.205 252.318C449.202 253.646 448.326 254.971 446.578 255.984C443.057 258.024 437.328 258.024 433.784 255.984C432.002 254.959 431.11 253.612 431.114 252.267L431.122 251.121C431.118 252.466 432.008 253.812 433.792 254.838C437.336 256.878 443.064 256.878 446.585 254.838C448.335 253.825 449.21 252.499 449.214 251.172Z" fill="#A0ADC1"/>
<path d="M446.543 247.454C450.087 249.493 450.107 252.799 446.585 254.838C443.063 256.878 437.336 256.878 433.792 254.838C430.247 252.799 430.229 249.493 433.751 247.454C437.272 245.414 442.998 245.414 446.543 247.454Z" fill="#D5F0FD"/>
<path d="M445.386 248.122C448.289 249.792 448.305 252.499 445.423 254.169C442.539 255.839 437.85 255.839 434.947 254.169C432.046 252.499 432.03 249.792 434.913 248.122C437.796 246.452 442.485 246.452 445.386 248.122Z" fill="#BFC8D4"/>
<path d="M481.869 105.585C476.973 102.492 464.851 93.7505 455.72 120.217C449.413 138.495 439.55 160.678 434.618 165.02C429.442 169.579 397.828 194.898 391.043 194.286C390.56 194.245 390.073 194.58 390.203 195.04L396.397 213.616C396.519 214.051 396.783 214.493 397.232 214.549C403.113 215.233 443.4 194.96 446.958 191.609C463.06 176.45 478.199 153.134 485.308 130.731C488.173 121.707 486.76 108.68 481.869 105.585Z" fill="white"/>
<path d="M530.667 450.256C518.438 450.257 506.93 444.596 505.087 432.036C503.643 422.201 478.118 416.55 462.72 416.55C460.249 416.55 458.039 416.695 456.231 416.992C455.835 417.057 455.424 417.089 455.002 417.089C441.472 417.089 416.193 384.659 500.27 381.533C500.27 381.533 552.565 386.905 561.511 419.68C566.755 438.891 547.989 450.254 530.667 450.256Z" fill="#6E6E6E" fill-opacity="0.29782"/>
<path d="M482.962 382.964L480.636 388.284C480.636 388.284 458.617 397.376 457.259 398.104C455.718 398.919 452.309 400.387 452.843 403.328C452.962 404.029 452.953 404.477 453.42 405.1C455.077 407.3 458.313 408.215 461.301 408.634C467.803 409.606 481.303 407.245 481.303 407.245C485.243 406.649 491.744 404.502 492.456 403.896C492.456 403.896 495.823 402.789 496.476 403.984C496.71 404.395 496.44 406.385 496.404 406.787L504.728 403.116C505.141 402.877 505.77 398.739 505.894 396.902L505.242 384.836L482.962 382.964Z" fill="#140F10"/>
<path d="M457.562 406.649C459.281 407.428 461.668 407.77 464.042 407.986C473.502 408.805 487.621 405.174 487.621 405.174C489.024 404.801 494.322 403.328 494.322 403.328C494.322 403.328 496.524 403.46 496.476 403.984C496.468 403.716 496.443 403.948 496.565 403.99C496.778 404.048 496.404 406.787 496.404 406.787L494.081 405.403C494.081 405.403 487.604 407.023 486.469 407.428C486.469 407.428 472.879 410.881 463.355 410.175C460.345 409.958 455.213 408.328 453.32 405.601C452.976 405.112 452.563 403.913 452.88 403.06C452.932 403.208 455.23 405.601 457.562 406.649Z" fill="#282827"/>
<path d="M496.476 403.984L505.55 399.567C505.55 399.567 504.946 403.174 504.812 403.119L496.501 406.806C496.518 406.511 496.479 404.732 496.476 403.984Z" fill="#282827"/>
<path d="M549.169 407.228C549.169 407.228 548.328 420.631 548.329 420.95C548.248 426.932 540.384 441.529 530.969 441.579C529.56 441.595 524.731 440.649 524.731 440.649C524.731 440.649 518.374 439.817 520.725 427.88C521.635 423.237 527.874 404.779 527.874 404.779L549.169 407.228Z" fill="#383736"/>
<path d="M550.378 403.983C550.378 403.983 548.926 411.581 547.374 421.5C546.447 427.414 538.596 439.367 530.329 439.083C528.186 439.002 526.531 438.634 526.389 438.615C522.858 438.083 518.148 436.245 521.267 424.155C522.381 419.846 526.866 403.235 527.113 403.25L550.378 403.983Z" fill="#140F10"/>
<path d="M481.477 225.803L479.347 376.011C479.183 380.905 481.379 382.431 481.811 382.84C486.383 387.219 504.609 393.554 507.285 387.312L516.279 226.254L481.477 225.803Z" fill="#141413"/>
<path d="M515.184 221.442L517.125 264.694L524.744 399.754C524.844 402.664 527.36 404.831 529.724 406.011C539.653 410.926 549.636 405.035 549.636 405.035C552.564 403.912 552.622 401.618 552.873 400.281L555.369 255.712L534.946 221.878L515.184 221.442Z" fill="#383736"/>
<path d="M520.454 124.208C515.482 120.45 489.163 114.982 476.053 120.389C471.054 122.449 460.646 122.517 455.335 127.519C447.697 134.714 452.777 160.654 465.566 184.028C466.22 185.221 478.722 205.477 480.944 223.183C483.044 239.927 473.197 269.587 472.803 274.886C472.505 278.882 486.392 282.694 501.354 284.525C502.657 284.687 503.986 242.015 505.299 242.147C506.829 242.297 508.345 285.238 509.863 285.335C518.307 285.906 526.316 285.746 531.487 284.505C541.854 282.017 557.589 276.404 561.42 272.534C563.546 270.386 557.221 228.68 553.483 203.529C551.927 193.057 546.073 143.566 520.454 124.208Z" fill="#EFEFEF"/>
<path d="M474.115 143.901C484.795 150.863 487.397 132.455 491.757 124.462L481.182 90.952L460.542 102.958L466.632 118.775L474.115 143.901Z" fill="#E8C5AC"/>
<path d="M454.81 70.0782L459.635 69.4581L474.653 72.6388L482.566 104.045C482.849 106.256 483.372 109.152 482.04 111.724C481.073 113.583 480.188 114.51 477.719 117.004C477.719 117.004 467.843 124.942 460.786 124.443C456.901 124.169 454.508 120.149 453.534 117.939C452.529 115.65 441.821 90.3754 441.821 90.3754C441.821 90.3754 437.857 82.4046 442.18 76.4261C444.365 73.4008 454.81 70.0782 454.81 70.0782Z" fill="#E8C5AC"/>
<path d="M437.792 77.4094C436.347 79.1014 436.144 81.1973 438.222 82.2776C440.065 83.2392 444.43 82.8541 445.363 82.716C446.501 82.5404 456.536 80.6636 456.601 80.7297C456.824 80.9038 456.008 78.6826 456.343 78.4618C458.646 76.974 461.5 78.9941 464.108 81.5997C466.92 84.4133 470.142 91.593 470.64 94.378L471.313 97.1218C471.653 98.5534 472.379 99.0075 472.704 98.9129C473.83 98.5931 474.579 97.4176 474.629 95.7863C474.629 95.7863 475.245 91.638 479.322 91.2581C482.816 90.9241 482.187 99.3611 482.087 99.8228L482.936 101.984C483.643 103.46 485.981 107.789 486.144 106.675C486.674 103.104 488.717 94.1588 489.009 90.7034C491.097 66.2458 470.767 51.2027 450.551 65.589C446.192 68.6796 438.587 76.465 437.792 77.4094Z" fill="#332107"/>
<path d="M478.589 88.594C474.066 89.6885 474.606 94.1424 474.606 94.1424L474.924 101.565C474.924 101.565 476.079 104.006 477.872 103.937C480.582 103.847 480.835 103.524 482.393 101.188C483.325 99.8199 484.241 96.4215 484.281 96.1835C484.764 92.7927 482.884 87.5611 478.589 88.594Z" fill="#E8C5AC"/>
<path d="M505.148 242.249C505.146 242.08 504.42 225.239 502.483 218.177C500.538 211.068 490.82 177.179 490.723 176.842L490.82 176.35C490.917 176.687 501.304 210.855 503.247 217.968C505.202 225.127 505.422 241.449 505.442 242.147L505.148 242.249Z" fill="#A0A1A3"/>
<path d="M486.144 157.709L477.974 145.739L482.106 143.323L483.153 143.167L484.559 142.552L489.833 142.837L486.144 157.709Z" fill="#A5DBCC"/>
<path d="M467.987 123.636C467.987 123.636 467.387 124.049 466.65 126.111C465.855 128.33 465.517 131.326 465.517 131.326L479.367 149.188C479.367 149.188 479.856 143.029 482.752 143.338C485.181 143.608 473.106 141.359 467.987 123.636Z" fill="#BFEFE3"/>
<path d="M488.85 115.405C488.85 115.405 490.951 114.885 494.427 116.517C496.57 117.523 498.085 121.022 498.085 121.022L489.059 146.418C489.059 146.418 485.471 141.501 483.124 143.238C481.161 144.68 488.85 139.215 488.85 115.405Z" fill="#BFEFE3"/>
<path d="M466.783 125.637L459.105 134.221C458.778 134.604 458.783 135.176 459.116 135.565L484.812 164.578L486.144 157.655L466.783 125.637Z" fill="white"/>
<path d="M495.682 117.521L484.391 166.833C484.281 167.381 484.407 167.962 484.73 168.44L491.181 177.772L488.916 167.746C488.856 167.459 488.865 167.166 488.961 166.883L505.115 120.573C505.264 120.127 504.992 119.646 504.522 119.535L495.682 117.521Z" fill="white"/>
<path d="M463.572 151.224C463.872 151.224 464.142 151.028 464.229 150.736L469.62 132.906C469.73 132.544 469.523 132.161 469.159 132.051C468.796 131.942 468.411 132.148 468.302 132.511L463.978 146.812L462.766 130.828C462.737 130.45 462.393 130.167 462.028 130.196C461.649 130.224 461.364 130.554 461.393 130.932L462.884 150.591C462.909 150.919 463.167 151.185 463.496 151.22L463.572 151.224Z" fill="#707070"/>
<path d="M478.615 97.0619C478.521 96.6955 478.743 96.3209 479.11 96.2271C479.477 96.134 479.853 96.3524 479.949 96.7188L480.24 97.8426C479.89 97.8478 479.352 97.9146 478.915 98.2172L478.615 97.0619Z" fill="#F4F4F4"/>
<path d="M460.643 123.771C461.02 123.693 461.382 123.931 461.46 124.3L462.837 130.795L468.367 132.245L479.938 102.165L478.915 98.2171C479.352 97.9146 479.89 97.8478 480.24 97.8425L481.325 102.034C481.36 102.172 481.353 102.317 481.301 102.451L469.43 133.31C469.327 133.581 469.067 133.751 468.789 133.751L468.613 133.729L462.077 132.015C461.825 131.948 461.632 131.746 461.578 131.493L460.113 124.584C460.035 124.213 460.273 123.849 460.643 123.771Z" fill="#707070"/>
<path d="M440.341 246.008C442.277 244.613 443.958 242.229 445.585 239.098C448.414 233.619 450.999 225.796 453.327 216.959C456.815 203.709 459.697 188.2 461.712 175.171C462.719 168.657 463.509 162.764 464.049 158.083C464.318 155.742 464.525 153.705 464.664 152.039C464.804 150.373 464.878 149.088 464.878 148.21H462.619C462.62 149.366 462.457 151.659 462.142 154.723C461.041 165.472 458.091 185.92 453.955 204.676C451.888 214.053 449.523 223.011 446.96 230.104C445.679 233.649 444.349 236.727 442.999 239.142C441.654 241.557 440.272 243.297 439.025 244.176L440.341 246.008Z" fill="#707070"/>
<path d="M464.72 240.334C464.72 240.334 452.874 237.931 449.965 245.454C446.095 255.453 433.129 256.109 433.792 259.153C434.455 262.198 440.647 264.875 446.039 263.275C450.503 261.948 455.641 258.21 459.327 254.486C463.021 250.762 472.507 247.859 472.507 247.859L464.72 240.334Z" fill="#E8C5AC"/>
<path d="M446.103 250.992C446.103 250.992 447.502 248.836 446.557 247.855C445.615 246.874 444.248 246.121 442.671 246.658C442.317 246.78 434.918 248.303 433.997 247.691C433.013 247.038 431.929 245.944 433.287 245.109C435.551 243.719 441.704 241.918 443.223 241.118C448 238.609 454.358 240.331 456.408 239.304C462.809 236.099 460.476 234.137 468.697 230.736L466.281 242.122L446.103 250.992Z" fill="#E8C5AC"/>
<path d="M523.972 123.621C518.436 121.91 504.442 116.628 502.566 144.552C501.269 163.837 497.565 187.817 493.942 193.294C490.14 199.043 466.262 231.713 459.552 232.89C459.075 232.975 458.692 233.424 458.94 233.836L469.788 250.153C470.02 250.542 470.392 250.901 470.838 250.837C476.695 249.966 510.267 219.907 512.826 215.745C524.393 196.92 532.893 170.472 533.883 146.996C534.283 137.539 529.504 125.332 523.972 123.621Z" fill="white"/>
</g>
<defs>
<clipPath id="clip0_303_1364">
<rect width="592" height="451" fill="white"/>
</clipPath>
</defs>
</svg>
