<?xml version="1.0" standalone="no"?>
<!DOCTYPE svg PUBLIC "-//W3C//DTD SVG 20010904//EN"
 "http://www.w3.org/TR/2001/REC-SVG-20010904/DTD/svg10.dtd">
<svg version="1.0" xmlns="http://www.w3.org/2000/svg"
 width="260.000000pt" height="260.000000pt" viewBox="0 0 260.000000 260.000000"
 preserveAspectRatio="xMidYMid meet">
<metadata>
Created by potrace 1.14, written by Peter Selinger 2001-2017
</metadata>
<g transform="translate(0.000000,260.000000) scale(0.100000,-0.100000)"
fill="#000000" stroke="none">
<path d="M475 2500 c-31 -12 -64 -53 -75 -91 -6 -21 -10 -442 -10 -1117 0
-1184 -3 -1122 59 -1175 l33 -27 815 0 c801 0 816 0 848 20 68 42 65 -19 65
1192 0 1067 0 1093 -20 1133 -39 80 22 75 -887 74 -444 0 -817 -4 -828 -9z
m935 -101 c164 -26 304 -102 426 -232 143 -152 214 -333 214 -546 0 -190 -52
-342 -166 -491 -142 -186 -362 -298 -568 -288 l-68 3 157 204 c86 112 159 210
162 218 14 36 -37 -4 -249 -194 l-231 -206 -46 17 c-173 64 -328 212 -415 397
-58 123 -71 185 -71 349 1 137 2 150 33 240 43 124 98 215 185 306 169 179
404 261 637 223z m-500 -1819 c24 -24 26 -67 4 -98 -23 -33 -76 -30 -104 5
-53 67 40 153 100 93z"/>
<path d="M1230 1814 c-80 -35 -123 -100 -124 -189 -1 -139 108 -231 240 -203
81 18 154 112 154 199 0 140 -148 246 -270 193z"/>
</g>
</svg>
