<?xml version="1.0" encoding="UTF-8" standalone="no"?>
<svg
   id="body_1"
   width="200"
   height="200"
   version="1.1"
   xmlns="http://www.w3.org/2000/svg"
   xmlns:svg="http://www.w3.org/2000/svg">
  <defs
     id="defs510" />
  <g
     transform="matrix(1 0 0 1 0 0)"
     id="g505">
    <path
       d="M2.45699 89.6264L71.0893 48.0253C 72.3981 47.2319 74.5204 47.2319 75.8292 48.0253L75.8292 48.0253L173.364 107.149C 174.673 107.942 174.673 109.229 173.364 110.022L173.364 110.022L104.732 151.623C 103.422 152.417 101.3 152.417 99.9913 151.623L99.9913 151.623L2.45645 92.4995C 1.14764 91.7061 1.14764 90.4191 2.45645 89.6258"
       stroke="none"
       fill="#8993A7"
       fill-rule="nonzero"
       id="path251" />
    <path
       d="M103.476 149.687C 104.089 149.315 104.089 148.711 103.476 148.339C 102.861 147.967 101.866 147.967 101.252 148.339C 100.638 148.711 100.638 149.315 101.252 149.687C 101.866 150.059 102.861 150.059 103.476 149.687z"
       stroke="none"
       fill="#17282F"
       fill-rule="nonzero"
       id="path253" />
    <path
       d="M170.173 109.258C 170.787 108.885 170.787 108.282 170.173 107.91C 169.559 107.538 168.564 107.538 167.949 107.91C 167.336 108.282 167.336 108.885 167.949 109.258C 168.564 109.63 169.559 109.63 170.173 109.258z"
       stroke="none"
       fill="#17282F"
       fill-rule="nonzero"
       id="path255" />
    <path
       d="M7.87082 91.7351C 8.48512 91.3628 8.48512 90.7597 7.87082 90.3875C 7.25709 90.0152 6.26189 90.0152 5.6476 90.3875C 5.03387 90.7597 5.03387 91.3628 5.6476 91.7351C 6.26189 92.1073 7.25709 92.1073 7.87082 91.7351z"
       stroke="none"
       fill="#17282F"
       fill-rule="nonzero"
       id="path257" />
    <path
       d="M74.5732 51.3003C 75.1875 50.9287 75.1875 50.3249 74.5732 49.9527C 73.9595 49.5804 72.9643 49.5804 72.35 49.9527C 71.7362 50.3249 71.7362 50.9287 72.35 51.3003C 72.9643 51.6726 73.9595 51.6726 74.5732 51.3003z"
       stroke="none"
       fill="#17282F"
       fill-rule="nonzero"
       id="path259" />
    <path
       d="M1.48092 91.0635L1.48092 101.844C 1.48092 102.361 1.80407 102.884 2.461 103.281L2.461 103.281L99.9903 162.405C 101.299 163.198 103.422 163.198 104.731 162.405L104.731 162.405L173.363 120.805C 174.019 120.403 174.343 119.886 174.343 119.363L174.343 119.363L174.343 108.582C 174.343 109.105 174.014 109.622 173.363 110.019L173.363 110.019L104.731 151.624C 103.422 152.417 101.299 152.417 99.9903 151.624L99.9903 151.624L2.461 92.5007C 1.80968 92.1043 1.48092 91.5813 1.48092 91.0641"
       stroke="none"
       fill="#4B4F58"
       fill-rule="nonzero"
       id="path261" />
    <path
       d="M105.209 155.058L172.332 114.37L172.332 119.149L105.209 159.838L105.209 155.058z"
       stroke="none"
       fill="#717887"
       fill-rule="nonzero"
       id="path263" />
    <path
       d="M143.396 133.902L171.74 116.72L171.74 115.647L143.396 132.828L143.396 133.902z"
       stroke="none"
       fill="#273E47"
       fill-rule="nonzero"
       id="path265" />
    <path
       d="M143.396 135.769L171.74 118.588L171.74 117.514L143.396 134.696L143.396 135.769z"
       stroke="none"
       fill="#273E47"
       fill-rule="nonzero"
       id="path267" />
    <path
       d="M132.597 142.313L142.392 136.375L142.392 133.437L132.597 139.374L132.597 142.313z"
       stroke="none"
       fill="#273E47"
       fill-rule="nonzero"
       id="path269" />
    <path
       d="M125.927 146.353L131.574 142.93L131.574 139.991L125.927 143.415L125.927 146.353z"
       stroke="none"
       fill="#273E47"
       fill-rule="nonzero"
       id="path271" />
    <path
       d="M119.312 150.364L124.96 146.941L124.96 144.002L119.312 147.426L119.312 150.364z"
       stroke="none"
       fill="#4A505B"
       fill-rule="nonzero"
       id="path273" />
    <path
       d="M112.704 154.375L118.351 150.951L118.351 148.013L112.704 151.437L112.704 154.375z"
       stroke="none"
       fill="#4A505B"
       fill-rule="nonzero"
       id="path275" />
    <path
       d="M106.09 158.38L111.737 154.957L111.737 152.019L106.09 155.443L106.09 158.38z"
       stroke="none"
       fill="#4A505B"
       fill-rule="nonzero"
       id="path277" />
    <path
       d="M102.365 162.998C 101.506 162.999 100.648 162.8 99.9929 162.403L99.9929 162.403L2.46356 103.279C 1.80719 102.882 1.48406 102.359 1.48406 101.842L1.48406 101.842L1.48406 91.0618C 1.48406 91.5789 1.8128 92.102 2.46356 92.4984L2.46356 92.4984L99.9929 151.622C 100.648 152.019 101.506 152.217 102.365 152.217L102.365 152.217L102.365 162.998"
       stroke="none"
       fill="#555A66"
       fill-rule="nonzero"
       id="path279" />
    <path
       d="M77.0189 142.419L80.781 144.699C 81.9579 145.412 82.9116 147.326 82.9116 148.974L82.9116 148.974L82.9116 152.05L74.8877 147.186L74.8877 144.11C 74.8877 142.462 75.8419 141.705 77.0189 142.419z"
       stroke="none"
       fill="#717887"
       fill-rule="nonzero"
       id="path281" />
    <path
       d="M77.4399 145.723C 77.4399 146.851 78.0934 148.162 78.9001 148.651C 79.7063 149.14 80.3599 148.621 80.3599 147.493C 80.3599 146.364 79.7063 145.053 78.9001 144.564C 78.0934 144.075 77.4399 144.594 77.4399 145.723z"
       stroke="none"
       fill="#E7E8E5"
       fill-rule="nonzero"
       id="path283" />
    <path
       d="M45.0086 123.017L48.7706 125.298C 49.9476 126.011 50.9019 127.925 50.9019 129.573L50.9019 129.573L50.9019 132.648L42.8774 127.784L42.8774 124.709C 42.8774 123.061 43.8316 122.304 45.0086 123.017z"
       stroke="none"
       fill="#717887"
       fill-rule="nonzero"
       id="path285" />
    <path
       d="M45.4293 126.321C 45.4293 127.45 46.0834 128.762 46.8896 129.25C 47.6957 129.739 48.3499 129.22 48.3499 128.091C 48.3499 126.963 47.6957 125.651 46.8896 125.162C 46.0834 124.673 45.4293 125.192 45.4293 126.321z"
       stroke="none"
       fill="#E7E8E5"
       fill-rule="nonzero"
       id="path287" />
    <path
       d="M13.0034 103.615L16.7661 105.896C 17.9425 106.609 18.8967 108.523 18.8967 110.17L18.8967 110.17L18.8967 113.246L10.8728 108.382L10.8728 105.306C 10.8728 103.659 11.8265 102.902 13.0034 103.615z"
       stroke="none"
       fill="#717887"
       fill-rule="nonzero"
       id="path289" />
    <path
       d="M13.4245 106.919C 13.4245 108.049 14.078 109.36 14.8842 109.849C 15.6909 110.337 16.3445 109.819 16.3445 108.69C 16.3445 107.561 15.6909 106.25 14.8842 105.761C 14.078 105.272 13.4245 105.791 13.4245 106.919z"
       stroke="none"
       fill="#E7E8E5"
       fill-rule="nonzero"
       id="path291" />
    <path
       d="M23.9375 113.204L37.8384 121.631L37.8384 117.441L23.9375 109.015L23.9375 113.204z"
       stroke="none"
       fill="#DADBD8"
       fill-rule="nonzero"
       id="path293" />
    <path
       d="M66.6013 117.663L65.3873 116.927C 58.9005 115.796 52.7834 113.682 47.6722 110.584C 42.5598 107.485 39.0693 103.775 37.2017 99.8416L37.2017 99.8416L36.8719 99.6419C 38.6418 103.847 42.2417 107.828 47.6722 111.12C 53.1009 114.411 59.6657 116.591 66.6013 117.663z"
       stroke="none"
       fill="#8993A7"
       fill-rule="nonzero"
       id="path295" />
    <path
       d="M65.3894 116.927L63.6211 115.855C 57.7935 114.663 52.3182 112.661 47.6742 109.846C 43.0286 107.03 39.7227 103.71 37.7564 100.176L37.7564 100.176L37.2038 99.8409C 39.0714 103.774 42.5619 107.484 47.6742 110.583C 52.7855 113.681 58.9026 115.795 65.3894 116.927z"
       stroke="none"
       fill="#8993A7"
       fill-rule="nonzero"
       id="path297" />
    <path
       d="M84.8898 96.3937C 89.3991 93.6602 89.3991 89.2286 84.8898 86.495C 80.3805 83.7621 73.069 83.7621 68.5597 86.495C 64.0504 89.2286 64.0504 93.6602 68.5597 96.3937C 73.069 99.1273 80.3805 99.1273 84.8898 96.3937z"
       stroke="none"
       fill="#AD58B2"
       fill-rule="nonzero"
       id="path299" />
    <path
       d="M86.8981 117.81L99.7017 125.571C 100.971 126.341 103.188 126.244 104.654 125.356L104.654 125.356L110.523 121.798C 111.989 120.909 112.148 119.565 110.879 118.796L110.879 118.796L98.0748 111.035C 96.8058 110.266 94.5888 110.362 93.1234 111.25L93.1234 111.25L87.2537 114.808C 85.7884 115.697 85.6291 117.041 86.8981 117.81z"
       stroke="none"
       fill="#AD58B2"
       fill-rule="nonzero"
       id="path301" />
    <path
       d="M131.75 108.81L132.581 108.305L130.112 106.809L129.281 107.313L129.778 107.786L127.792 108.99L125.36 107.516L127.346 106.312L128.126 106.614L128.958 106.109L128.319 105.722L127.128 105L126.489 104.613L125.658 105.118L126.155 105.591L121.215 108.585L120.434 108.283L119.606 108.785L122.075 110.281L122.902 109.78L122.406 109.307L124.296 108.161L126.728 109.635L124.838 110.781L124.057 110.48L123.229 110.981L125.698 112.478L126.526 111.976L126.033 111.505L130.973 108.511L131.75 108.81z"
       stroke="none"
       fill="#AD58B2"
       fill-rule="nonzero"
       id="path303" />
    <path
       d="M123.133 103.868L118.372 106.754L117.582 106.275C 117.154 106.015 116.984 105.711 117.076 105.361C 117.167 105.012 117.482 104.673 118.021 104.346L118.021 104.346L119.169 103.65C 119.702 103.327 120.257 103.138 120.834 103.083C 121.411 103.027 121.914 103.13 122.342 103.389L122.342 103.389L123.133 103.868zM123.344 102.707C 122.616 102.266 121.747 102.064 120.737 102.104C 119.728 102.144 118.802 102.419 117.96 102.929L117.96 102.929L116.822 103.619C 115.977 104.132 115.524 104.692 115.461 105.302C 115.4 105.912 115.733 106.438 116.461 106.88L116.461 106.88L119.143 108.505L119.97 108.004L119.478 107.533L124.418 104.539L125.194 104.837L126.026 104.334L125.391 103.948L123.344 102.707z"
       stroke="none"
       fill="#AD58B2"
       fill-rule="nonzero"
       id="path305" />
    <path
       d="M117.36 100.37L112.599 103.255L111.81 102.776C 111.381 102.517 111.212 102.212 111.304 101.862C 111.394 101.512 111.71 101.174 112.248 100.848L112.248 100.848L113.397 100.151C 113.93 99.8285 114.484 99.6395 115.062 99.5841C 115.638 99.5287 116.141 99.6306 116.57 99.891L116.57 99.891L117.36 100.37zM117.572 99.2089C 116.842 98.7672 115.974 98.5663 114.964 98.6058C 113.955 98.6452 113.029 98.9197 112.188 99.4298L112.188 99.4298L111.049 100.121C 110.204 100.633 109.751 101.194 109.688 101.804C 109.627 102.414 109.96 102.94 110.689 103.381L110.689 103.381L113.37 105.006L114.198 104.505L113.705 104.035L118.645 101.04L119.422 101.339L120.253 100.835L119.619 100.45L117.572 99.2089z"
       stroke="none"
       fill="#AD58B2"
       fill-rule="nonzero"
       id="path307" />
    <path
       d="M27.1294 82.1165C 27.1294 81.5965 27.4565 81.0764 28.1111 80.68L28.1111 80.68L96.7435 39.0789C 98.0523 38.2849 100.175 38.2849 101.483 39.0789L101.483 39.0789L199.018 98.2027C 199.673 98.5997 200 99.1192 200 99.6393L200 99.6393L200 110.421C 200.001 110.941 199.673 111.462 199.018 111.859L199.018 111.859L130.386 153.46C 129.077 154.253 126.954 154.253 125.645 153.46L125.645 153.46L28.1106 94.3359C 27.4559 93.9395 27.1288 93.4194 27.1288 92.8994L27.1288 92.8994L27.1288 82.1171"
       stroke="none"
       fill="#3B404A"
       fill-rule="nonzero"
       id="path309" />
    <path
       d="M128.013 152.325C 128.608 152.325 129.187 152.189 129.562 151.961L129.562 151.961L198.099 110.416L100.66 51.3512C 100.283 51.1233 99.7045 50.9866 99.1104 50.9866C 98.5163 50.9866 97.9379 51.1233 97.5615 51.3512L97.5615 51.3512L29.0245 92.8963L126.464 151.961C 126.84 152.189 127.419 152.325 128.013 152.325z"
       stroke="none"
       fill="#262729"
       fill-rule="nonzero"
       id="path311" />
    <path
       d="M145.803 114.458L151.886 84.1285C 152.689 80.1227 156.985 78.1095 160.362 80.1562L160.362 80.1562L180.338 92.2655C 182.536 93.5984 183.639 95.9255 183.645 98.2568C 183.651 100.275 183.642 107.059 183.645 109.067C 183.647 111.409 182.545 113.75 180.337 115.089L180.337 115.089L154.696 130.632L145.803 125.241L145.803 114.458z"
       stroke="none"
       fill="#DADBD8"
       fill-rule="nonzero"
       id="path313" />
    <path
       d="M160.361 80.1552L180.337 92.2645C 184.75 94.9403 184.75 101.63 180.337 104.305L180.337 104.305L154.695 119.849L145.802 114.457L151.885 84.1274C 152.688 80.1216 156.984 78.1085 160.361 80.1552z"
       stroke="none"
       fill="#D3D3D3"
       fill-rule="nonzero"
       id="path315" />
    <path
       d="M154.695 130.633L154.695 127.937L152.472 129.284L152.471 129.285L154.695 130.633zM152.472 124.636L154.695 123.289L154.695 119.85L145.802 114.459L145.802 117.154L152.472 121.198L152.472 124.636z"
       stroke="none"
       fill="#C0C1BF"
       fill-rule="nonzero"
       id="path317" />
    <path
       d="M155.3 82.0753C 156.4 81.3932 158.184 81.3932 159.285 82.0753C 159.835 82.4163 160.11 82.8628 160.109 83.3098L160.109 83.3098L160.109 83.7916C 160.109 84.2387 159.835 84.6851 159.285 85.0262C 158.184 85.7082 156.4 85.7082 155.3 85.0262C 154.75 84.6851 154.475 84.2375 154.476 83.7905L154.476 83.7905L154.476 83.3098C 154.476 82.8628 154.75 82.4163 155.3 82.0753z"
       stroke="none"
       fill="#DADBD8"
       fill-rule="nonzero"
       id="path319" />
    <path
       d="M159.289 84.5432C 160.389 83.8611 160.389 82.7556 159.289 82.0735C 158.188 81.3915 156.404 81.3915 155.304 82.0735C 154.203 82.7556 154.203 83.8611 155.304 84.5432C 156.404 85.2253 158.188 85.2253 159.289 84.5432z"
       stroke="none"
       fill="#FAFAF9"
       fill-rule="nonzero"
       id="path321" />
    <path
       d="M158.969 84.3192C 159.893 83.7591 159.893 82.8514 158.969 82.2913C 158.046 81.7318 156.548 81.7318 155.625 82.2913C 154.701 82.8514 154.701 83.7591 155.625 84.3192C 156.548 84.8788 158.046 84.8788 158.969 84.3192z"
       stroke="none"
       fill="#DADBD8"
       fill-rule="nonzero"
       id="path323" />
    <path
       d="M158.161 83.8305C 158.639 83.5413 158.639 83.0719 158.161 82.7827C 157.684 82.4935 156.91 82.4935 156.432 82.7827C 155.955 83.0719 155.955 83.5413 156.432 83.8305C 156.91 84.1197 157.684 84.1197 158.161 83.8305z"
       stroke="none"
       fill="#FAFAF9"
       fill-rule="nonzero"
       id="path325" />
    <path
       d="M150.728 112.138C 151.829 111.456 153.613 111.456 154.713 112.138C 155.264 112.479 155.538 112.925 155.538 113.372L155.538 113.372L155.538 113.854C 155.538 114.301 155.264 114.748 154.713 115.089C 153.613 115.771 151.829 115.771 150.728 115.089C 150.178 114.747 149.904 114.3 149.904 113.853L149.904 113.853L149.904 113.372C 149.904 112.925 150.179 112.479 150.728 112.138z"
       stroke="none"
       fill="#DADBD8"
       fill-rule="nonzero"
       id="path327" />
    <path
       d="M154.717 114.606C 155.818 113.924 155.818 112.818 154.717 112.136C 153.617 111.454 151.833 111.454 150.733 112.136C 149.632 112.818 149.632 113.924 150.733 114.606C 151.833 115.288 153.617 115.288 154.717 114.606z"
       stroke="none"
       fill="#FAFAF9"
       fill-rule="nonzero"
       id="path329" />
    <path
       d="M154.397 114.382C 155.321 113.822 155.321 112.915 154.397 112.355C 153.474 111.794 151.976 111.794 151.053 112.355C 150.129 112.915 150.129 113.822 151.053 114.382C 151.976 114.942 153.474 114.942 154.397 114.382z"
       stroke="none"
       fill="#DADBD8"
       fill-rule="nonzero"
       id="path331" />
    <path
       d="M153.589 113.893C 154.067 113.604 154.067 113.134 153.589 112.845C 153.112 112.555 152.338 112.555 151.86 112.845C 151.383 113.134 151.383 113.604 151.86 113.893C 152.338 114.182 153.112 114.182 153.589 113.893z"
       stroke="none"
       fill="#FAFAF9"
       fill-rule="nonzero"
       id="path333" />
    <path
       d="M112.451 129.284L133.64 116.439L143.578 115.806L152.471 121.197L152.471 129.284L149.389 133.847L134.085 143.125C 130.328 145.402 125.7 145.402 121.945 143.125L121.945 143.125L112.451 137.37L112.451 129.284z"
       stroke="none"
       fill="#DADBD8"
       fill-rule="nonzero"
       id="path335" />
    <path
       d="M128.013 144.827L128.013 143.265C 127.156 143.265 126.298 143.066 125.644 142.67L125.644 142.67L112.453 134.673L112.453 137.368L121.943 143.12C 123.821 144.258 125.917 144.827 128.013 144.827zM128.01 137.442L128.013 137.442L128.013 136.744C 125.918 136.744 123.822 136.174 121.945 135.036L121.945 135.036L118.263 132.805L112.453 129.283L112.453 130.032L122.322 136.014C 123.892 136.966 125.951 137.442 128.01 137.442z"
       stroke="none"
       fill="#C0C1BF"
       fill-rule="nonzero"
       id="path337" />
    <path
       d="M134.084 135.038L149.388 125.761L152.47 121.197L143.577 115.806L133.639 116.439L112.45 129.284L121.944 135.038C 125.699 137.315 130.327 137.315 134.084 135.038z"
       stroke="none"
       fill="#D3D3D3"
       fill-rule="nonzero"
       id="path339" />
    <path
       d="M130.594 135.044C 131.289 134.623 131.289 133.94 130.594 133.519C 129.899 133.097 128.772 133.097 128.077 133.519C 127.382 133.94 127.382 134.623 128.077 135.044C 128.772 135.466 129.899 135.466 130.594 135.044z"
       stroke="none"
       fill="#DADBD8"
       fill-rule="nonzero"
       id="path341" />
    <path
       d="M129.337 135.356C 129.793 135.356 130.249 135.251 130.596 135.04C 130.943 134.83 131.117 134.553 131.117 134.277C 131.117 134.001 130.943 133.725 130.596 133.514C 130.249 133.303 129.793 133.199 129.337 133.199C 128.882 133.199 128.426 133.303 128.079 133.514C 127.731 133.725 127.557 134.001 127.557 134.277C 127.557 134.553 127.731 134.83 128.079 135.04C 128.426 135.251 128.882 135.356 129.337 135.356z"
       stroke="none"
       fill="#C0C1BF"
       fill-rule="nonzero"
       id="path343" />
    <path
       d="M132.115 131.581C 132.419 131.396 132.419 131.097 132.115 130.913C 131.81 130.728 131.317 130.728 131.013 130.913C 130.709 131.097 130.709 131.396 131.013 131.581C 131.317 131.765 131.81 131.765 132.115 131.581z"
       stroke="none"
       fill="#DADBD8"
       fill-rule="nonzero"
       id="path345" />
    <path
       d="M131.565 131.716C 131.764 131.716 131.963 131.67 132.115 131.578C 132.268 131.486 132.344 131.365 132.344 131.244C 132.344 131.124 132.268 131.002 132.115 130.91C 131.963 130.818 131.764 130.772 131.565 130.772C 131.365 130.772 131.166 130.818 131.014 130.91C 130.862 131.002 130.786 131.124 130.786 131.244C 130.786 131.365 130.862 131.486 131.014 131.578C 131.166 131.67 131.365 131.716 131.565 131.716z"
       stroke="none"
       fill="#C0C1BF"
       fill-rule="nonzero"
       id="path347" />
    <path
       d="M147.385 124.925C 148.08 124.503 148.08 123.821 147.385 123.399C 146.69 122.978 145.563 122.978 144.868 123.399C 144.173 123.821 144.173 124.503 144.868 124.925C 145.563 125.346 146.69 125.346 147.385 124.925z"
       stroke="none"
       fill="#DADBD8"
       fill-rule="nonzero"
       id="path349" />
    <path
       d="M146.123 125.243C 146.578 125.243 147.034 125.138 147.381 124.927C 147.729 124.717 147.903 124.44 147.903 124.164C 147.903 123.888 147.729 123.612 147.381 123.401C 147.034 123.191 146.578 123.086 146.123 123.086C 145.667 123.086 145.211 123.191 144.864 123.401C 144.517 123.612 144.343 123.888 144.343 124.164C 144.343 124.44 144.517 124.717 144.864 124.927C 145.211 125.138 145.667 125.243 146.123 125.243z"
       stroke="none"
       fill="#C0C1BF"
       fill-rule="nonzero"
       id="path351" />
    <path
       d="M142.224 125.473C 142.528 125.288 142.528 124.989 142.224 124.805C 141.919 124.62 141.426 124.62 141.122 124.805C 140.817 124.989 140.817 125.288 141.122 125.473C 141.426 125.657 141.919 125.657 142.224 125.473z"
       stroke="none"
       fill="#DADBD8"
       fill-rule="nonzero"
       id="path353" />
    <path
       d="M141.674 125.608C 141.873 125.608 142.073 125.562 142.225 125.47C 142.377 125.377 142.453 125.257 142.453 125.136C 142.453 125.015 142.377 124.894 142.225 124.802C 142.073 124.709 141.873 124.664 141.674 124.664C 141.474 124.664 141.275 124.709 141.123 124.802C 140.971 124.894 140.895 125.015 140.895 125.136C 140.895 125.257 140.971 125.377 141.123 125.47C 141.275 125.562 141.474 125.608 141.674 125.608z"
       stroke="none"
       fill="#C0C1BF"
       fill-rule="nonzero"
       id="path355" />
    <path
       d="M136.614 120.025L119.738 130.254L117.176 128.703L134.051 118.474L136.614 120.025z"
       stroke="none"
       fill="#DADBD8"
       fill-rule="nonzero"
       id="path357" />
    <path
       d="M135.974 120.413L119.739 130.254L117.817 129.091L134.052 119.25L135.974 120.413z"
       stroke="none"
       fill="#EDEDEB"
       fill-rule="nonzero"
       id="path359" />
    <path
       d="M149.388 133.848L152.47 129.285L152.47 129.284L149.388 131.153L149.388 133.848z"
       stroke="none"
       fill="#CED0CD"
       fill-rule="nonzero"
       id="path361" />
    <path
       d="M149.388 126.503L152.47 124.635L152.47 121.196L149.388 125.76L149.388 126.503z"
       stroke="none"
       fill="#CED0CD"
       fill-rule="nonzero"
       id="path363" />
    <path
       d="M39.0899 85.5622L45.5419 89.4732C 48.6835 91.3774 50.0159 90.7696 49.2686 87.8346C 48.8164 86.0605 48.5864 84.2435 48.5859 82.3969C 48.5859 80.3867 48.858 78.4118 49.392 76.4887C 50.2739 73.314 49.1441 72.5707 46.003 74.4749L46.003 74.4749L39.0899 78.6656C 35.9483 80.5704 35.9489 83.6574 39.0899 85.5622zM90.3336 50.5438C 93.2036 50.2299 96.1376 50.0691 99.1087 50.0691C 102.081 50.0691 105.017 50.2299 107.889 50.5444C 111.497 50.9396 111.84 49.9955 108.699 48.0912L108.699 48.0912L104.799 45.7264C 101.658 43.8222 96.5646 43.8222 93.4235 45.7264L93.4235 45.7264L89.5241 48.0906C 86.3825 49.9955 86.7258 50.939 90.3336 50.5438zM90.8671 116.948L122.319 136.012C 125.46 137.917 130.553 137.917 133.695 136.013L133.695 136.013L188.031 103.077C 191.173 101.172 191.173 98.0849 188.031 96.1807L188.031 96.1807L152.213 74.4684C 149.071 72.5642 147.942 73.3087 148.825 76.4851C 149.359 78.4094 149.632 80.3849 149.632 82.3964C 149.631 91.4528 144.094 99.7948 134.043 105.887C 124.648 111.58 112.244 114.714 99.1104 114.714C 96.6061 114.714 94.127 114.602 91.6912 114.377C 88.0778 114.045 87.7255 115.043 90.8671 116.948zM28.1084 80.6741L96.7407 39.073C 98.0495 38.2791 100.172 38.2791 101.481 39.073L101.481 39.073L199.015 98.1969C 200.324 98.9903 200.324 100.277 199.015 101.07L199.015 101.07L130.383 142.672C 129.074 143.465 126.951 143.465 125.643 142.672L125.643 142.672L28.1078 83.5478C 26.799 82.7545 26.799 81.4681 28.1078 80.6747"
       stroke="none"
       fill="#717887"
       fill-rule="nonzero"
       id="path365" />
    <path
       d="M129.124 140.74C 129.739 140.367 129.739 139.764 129.124 139.392C 128.511 139.02 127.515 139.02 126.901 139.392C 126.287 139.764 126.287 140.367 126.901 140.74C 127.515 141.112 128.511 141.112 129.124 140.74z"
       stroke="none"
       fill="#17282F"
       fill-rule="nonzero"
       id="path367" />
    <path
       d="M195.827 100.305C 196.441 99.9326 196.441 99.3294 195.827 98.9572C 195.213 98.5849 194.218 98.5849 193.604 98.9572C 192.99 99.3294 192.99 99.9326 193.604 100.305C 194.218 100.677 195.213 100.677 195.827 100.305z"
       stroke="none"
       fill="#17282F"
       fill-rule="nonzero"
       id="path369" />
    <path
       d="M33.5249 82.7881C 34.1392 82.4165 34.1392 81.8127 33.5249 81.4405C 32.9111 81.0688 31.9159 81.0688 31.3017 81.4405C 30.6879 81.8127 30.6879 82.4165 31.3017 82.7881C 31.9159 83.161 32.9111 83.161 33.5249 82.7881z"
       stroke="none"
       fill="#17282F"
       fill-rule="nonzero"
       id="path371" />
    <path
       d="M100.222 42.3532C 100.836 41.981 100.836 41.3778 100.222 41.0056C 99.6082 40.6333 98.6124 40.6333 97.9987 41.0056C 97.3849 41.3778 97.3849 41.981 97.9987 42.3532C 98.6124 42.7254 99.6082 42.7254 100.222 42.3532z"
       stroke="none"
       fill="#17282F"
       fill-rule="nonzero"
       id="path373" />
    <path
       d="M132.126 102.408C 150.359 91.3551 150.359 73.4354 132.126 62.3828C 113.893 51.3302 84.3298 51.3302 66.0963 62.3828C 47.8628 73.4354 47.8628 91.3551 66.0963 102.408C 84.3304 113.46 113.893 113.46 132.126 102.408z"
       stroke="none"
       fill="#273E47"
       fill-rule="nonzero"
       id="path375" />
    <path
       d="M131.486 102.019C 149.365 91.1819 149.365 73.6114 131.486 62.7738C 113.608 51.9368 84.6211 51.9368 66.7416 62.7738C 48.8626 73.6114 48.8626 91.1819 66.7416 102.019C 84.62 112.856 113.607 112.856 131.486 102.019z"
       stroke="none"
       fill="#E3E3E3"
       fill-rule="nonzero"
       id="path377" />
    <path
       d="M99.111 54.6456C 110.827 54.6456 122.544 57.3544 131.483 62.7732C 149.361 73.6108 149.361 91.1812 131.483 102.018C 122.544 107.437 110.827 110.146 99.111 110.146C 87.3946 110.146 75.6782 107.437 66.7393 102.018C 48.8603 91.1812 48.8603 73.6108 66.7393 62.7732C 75.6782 57.3544 87.3946 54.6456 99.111 54.6456zM99.111 55.2199C 86.9772 55.2199 75.5778 58.0794 67.0131 63.2709C 58.5426 68.4052 53.8773 75.197 53.8773 82.3957C 53.8773 89.5945 58.5426 96.3862 67.0131 101.521C 75.5778 106.713 86.9772 109.572 99.111 109.572C 111.245 109.572 122.644 106.713 131.209 101.521C 139.68 96.3862 144.344 89.5945 144.344 82.3957C 144.344 75.197 139.68 68.4052 131.209 63.2709C 122.644 58.0794 111.245 55.2199 99.111 55.2199z"
       stroke="none"
       fill="#FAFAF9"
       fill-rule="nonzero"
       id="path379" />
    <path
       d="M88.7999 74.536C 94.4951 71.0067 103.728 71.0067 109.423 74.536C 112.27 76.3013 113.691 78.6143 113.69 80.9273L113.69 80.9273L113.69 82.3986C 113.689 84.7104 112.268 87.0217 109.423 88.7857C 103.728 92.315 94.4951 92.315 88.7999 88.7857C 85.9517 87.0199 84.5307 84.7057 84.5324 82.3921L84.5324 82.3921L84.5324 80.9273C 84.5318 78.6143 85.9528 76.3013 88.7999 74.536z"
       stroke="none"
       fill="#DADBD8"
       fill-rule="nonzero"
       id="path381" />
    <path
       d="M109.422 87.3174C 115.117 83.7881 115.117 78.0654 109.422 74.5355C 103.728 71.0063 94.4948 71.0063 88.7995 74.5355C 83.1049 78.0654 83.1049 83.7881 88.7995 87.3174C 94.4948 90.8473 103.728 90.8473 109.422 87.3174z"
       stroke="none"
       fill="#FAFAF9"
       fill-rule="nonzero"
       id="path383" />
    <path
       d="M108.861 86.8404C 114.246 83.5768 114.246 78.2852 108.861 75.0215C 103.477 71.7573 94.7472 71.7573 89.3633 75.0215C 83.9789 78.2852 83.9789 83.5768 89.3633 86.8404C 94.7472 90.1041 103.477 90.1041 108.861 86.8404z"
       stroke="none"
       fill="#DADBD8"
       fill-rule="nonzero"
       id="path385" />
    <path
       d="M89.3496 86.8289L89.3406 86.8232C 89.3436 86.8251 89.3466 86.8263 89.3496 86.8289z"
       stroke="none"
       fill="#A7AAA9"
       fill-rule="nonzero"
       id="path387" />
    <path
       d="M89.3328 86.817C 89.3295 86.8153 89.3269 86.813 89.3231 86.8113C 89.3269 86.8136 89.3295 86.8147 89.3328 86.817z"
       stroke="none"
       fill="#A7AAA9"
       fill-rule="nonzero"
       id="path389" />
    <path
       d="M108.905 86.8113C 108.91 86.8088 108.915 86.8056 108.919 86.8031C 108.915 86.8056 108.91 86.8088 108.905 86.8113z"
       stroke="none"
       fill="#A7AAA9"
       fill-rule="nonzero"
       id="path391" />
    <path
       d="M108.917 86.8054C 111.57 85.178 112.897 83.0546 112.897 80.9313C 112.897 78.792 111.551 76.6534 108.859 75.0219C 106.166 73.3897 102.638 72.574 99.1097 72.574C 95.581 72.574 92.0523 73.3897 89.3607 75.0219C 86.6684 76.6534 85.3221 78.792 85.3221 80.9313C 85.3221 83.0387 86.6297 85.1468 89.244 86.7695C 86.8267 85.2693 85.5291 83.3539 85.3467 81.4078C 85.5319 79.4305 86.8682 77.4851 89.3607 75.9743C 92.0523 74.3427 95.581 73.5264 99.1097 73.5264C 102.638 73.5264 106.166 74.3427 108.859 75.9743C 111.351 77.4851 112.687 79.4305 112.872 81.4078C 112.689 83.3692 111.371 85.2993 108.917 86.8054z"
       stroke="none"
       fill="#A7AAA9"
       fill-rule="nonzero"
       id="path393" />
    <path
       d="M89.3607 75.9735C 94.7446 72.7098 103.475 72.7098 108.859 75.9735C 111.351 77.4842 112.687 79.4297 112.872 81.407C 112.687 83.3843 111.351 85.3291 108.859 86.8399C 103.475 90.1036 94.7446 90.1036 89.3607 86.8399C 86.8682 85.3291 85.5319 83.3843 85.3468 81.407C 85.5319 79.4297 86.8682 77.4842 89.3607 75.9735z"
       stroke="none"
       fill="#DADBD8"
       fill-rule="nonzero"
       id="path395" />
    <path
       d="M103.122 83.4535C 105.337 82.0594 105.337 79.7994 103.122 78.4058C 100.906 77.0116 97.3139 77.0116 95.0985 78.4058C 92.8826 79.7994 92.8826 82.0594 95.0985 83.4535C 97.3139 84.8477 100.906 84.8477 103.122 83.4535z"
       stroke="none"
       fill="#FAFAF9"
       fill-rule="nonzero"
       id="path397" />
    <path
       d="M102.797 83.1649C 104.832 81.931 104.832 79.9307 102.797 78.6968C 100.761 77.4628 97.4617 77.4628 95.4258 78.6968C 93.3905 79.9307 93.3905 81.931 95.4258 83.1649C 97.4617 84.3983 100.761 84.3983 102.797 83.1649z"
       stroke="none"
       fill="#DADBD8"
       fill-rule="nonzero"
       id="path399" />
    <path
       d="M95.4252 79.2421C 97.461 78.0081 100.761 78.0081 102.796 79.2421C 103.698 79.7887 104.199 80.4867 104.301 81.2017C 104.199 81.9162 103.698 82.6141 102.796 83.1613C 100.761 84.3947 97.461 84.3947 95.4252 83.1613C 94.5231 82.6141 94.0227 81.9162 93.9206 81.2017C 94.0227 80.4867 94.5231 79.7887 95.4252 79.2421z"
       stroke="none"
       fill="#E7E8E5"
       fill-rule="nonzero"
       id="path401" />
    <path
       d="M100.222 81.6043C 100.836 81.232 100.836 80.6283 100.222 80.2566C 99.6079 79.8844 98.6122 79.8844 97.9984 80.2566C 97.3847 80.6283 97.3847 81.232 97.9984 81.6043C 98.6122 81.9765 99.6079 81.9765 100.222 81.6043z"
       stroke="none"
       fill="#FAFAF9"
       fill-rule="nonzero"
       id="path403" />
    <path
       d="M98.3422 81.3449L98.9756 80.9609L98.3635 80.5898L98.3383 80.4914L98.432 80.4655L99.1125 80.8778L99.8143 80.4526L99.908 80.4785L99.8827 80.5768L99.2493 80.9609L99.862 81.3319L99.8872 81.4303L99.8277 81.4662L99.7935 81.4568L99.1125 81.0439L98.4107 81.4692L98.3764 81.4786L98.317 81.4427L98.3422 81.3449z"
       stroke="none"
       fill="#DADBD8"
       fill-rule="nonzero"
       id="path405" />
    <path
       d="M99.1106 75.4435C 99.3637 75.4435 99.6167 75.3852 99.8096 75.268C 100.196 75.0342 100.196 74.6548 99.8096 74.4204C 99.6167 74.3038 99.3637 74.2449 99.1106 74.2449C 98.8576 74.2449 98.6046 74.3038 98.4111 74.4204C 98.0251 74.6548 98.0251 75.0342 98.4111 75.268C 98.6046 75.3852 98.8576 75.4435 99.1106 75.4435z"
       stroke="none"
       fill="#A7AAA9"
       fill-rule="nonzero"
       id="path407" />
    <path
       d="M105.573 77.2046C 105.826 77.2046 106.079 77.1462 106.273 77.029C 106.659 76.7952 106.659 76.4159 106.273 76.1815C 106.079 76.0649 105.826 76.006 105.573 76.006C 105.32 76.006 105.067 76.0649 104.874 76.1815C 104.488 76.4159 104.488 76.7952 104.874 77.029C 105.067 77.1462 105.32 77.2046 105.573 77.2046z"
       stroke="none"
       fill="#A7AAA9"
       fill-rule="nonzero"
       id="path409" />
    <path
       d="M92.3733 77.2046C 92.6264 77.2046 92.8794 77.1462 93.0723 77.029C 93.4583 76.7952 93.4583 76.4159 93.0723 76.1815C 92.8794 76.0649 92.6264 76.006 92.3733 76.006C 92.1203 76.006 91.8673 76.0649 91.6743 76.1815C 91.2878 76.4159 91.2878 76.7952 91.6743 77.029C 91.8673 77.1462 92.1203 77.2046 92.3733 77.2046z"
       stroke="none"
       fill="#A7AAA9"
       fill-rule="nonzero"
       id="path411" />
    <path
       d="M105.573 85.9157C 105.826 85.9157 106.079 85.8568 106.273 85.7402C 106.659 85.5058 106.659 85.1264 106.273 84.8926C 106.079 84.7754 105.826 84.7171 105.573 84.7171C 105.32 84.7171 105.067 84.7754 104.874 84.8926C 104.488 85.1264 104.488 85.5058 104.874 85.7402C 105.067 85.8568 105.32 85.9157 105.573 85.9157z"
       stroke="none"
       fill="#A7AAA9"
       fill-rule="nonzero"
       id="path413" />
    <path
       d="M92.3733 85.9157C 92.6264 85.9157 92.8794 85.8568 93.0723 85.7402C 93.4583 85.5058 93.4583 85.1264 93.0723 84.8926C 92.8794 84.7754 92.6264 84.7171 92.3733 84.7171C 92.1203 84.7171 91.8673 84.7754 91.6743 84.8926C 91.2878 85.1264 91.2878 85.5058 91.6743 85.7402C 91.8673 85.8568 92.1203 85.9157 92.3733 85.9157z"
       stroke="none"
       fill="#A7AAA9"
       fill-rule="nonzero"
       id="path415" />
    <path
       d="M108.592 81.5629C 108.845 81.5629 109.098 81.504 109.291 81.3874C 109.677 81.153 109.677 80.7737 109.291 80.5393C 109.098 80.4226 108.845 80.3637 108.592 80.3637C 108.339 80.3637 108.086 80.4226 107.893 80.5393C 107.507 80.7737 107.507 81.153 107.893 81.3874C 108.086 81.504 108.339 81.5629 108.592 81.5629z"
       stroke="none"
       fill="#A7AAA9"
       fill-rule="nonzero"
       id="path417" />
    <path
       d="M89.6299 81.5629C 89.8829 81.5629 90.1359 81.504 90.3294 81.3874C 90.7154 81.153 90.7154 80.7737 90.3294 80.5393C 90.1359 80.4226 89.8829 80.3637 89.6299 80.3637C 89.3769 80.3637 89.1238 80.4226 88.9309 80.5393C 88.5449 80.7737 88.5449 81.153 88.9309 81.3874C 89.1238 81.504 89.3769 81.5629 89.6299 81.5629z"
       stroke="none"
       fill="#A7AAA9"
       fill-rule="nonzero"
       id="path419" />
    <path
       d="M99.1106 87.6768C 99.3637 87.6768 99.6167 87.6185 99.8096 87.5019C 100.196 87.2674 100.196 86.8881 99.8096 86.6543C 99.6167 86.5371 99.3637 86.4788 99.1106 86.4788C 98.8576 86.4788 98.6046 86.5371 98.4111 86.6543C 98.0251 86.8881 98.0251 87.2674 98.4111 87.5019C 98.6046 87.6185 98.8576 87.6768 99.1106 87.6768z"
       stroke="none"
       fill="#A7AAA9"
       fill-rule="nonzero"
       id="path421" />
    <path
       d="M91.6891 114.459C 94.1249 114.683 96.6034 114.798 99.1105 114.798C 112.241 114.798 124.65 111.645 134.043 105.951C 142.915 100.572 148.283 93.3825 149.413 85.5588L149.413 85.5588L149.413 91.374C 148.306 99.2348 142.95 106.396 134.043 111.798C 124.65 117.487 112.242 120.624 99.1111 120.624C 98.3616 120.624 97.6115 120.613 96.8671 120.59L96.8671 120.59L90.8678 116.953C 87.7262 115.045 88.0768 114.131 91.6891 114.459z"
       stroke="none"
       fill="#E7E8E5"
       fill-rule="nonzero"
       id="path423" />
    <path
       d="M88.7717 115.154C 88.9905 114.757 89.9705 114.614 91.6889 114.769C 94.1247 114.993 96.6043 115.108 99.1109 115.108C 112.242 115.108 124.65 111.976 134.042 106.281C 144.097 100.19 149.631 91.8454 149.631 82.7889C 149.631 82.7141 149.631 82.6393 149.625 82.5645C 149.565 91.5579 144.037 99.8393 134.042 105.891C 124.65 111.586 112.241 114.717 99.1103 114.717C 96.6032 114.717 94.1247 114.602 91.6889 114.378C 89.4943 114.177 88.5035 114.47 88.7717 115.154z"
       stroke="none"
       fill="#273E47"
       fill-rule="nonzero"
       id="path425" />
    <path
       d="M95.2234 119.589L95.0831 119.504C 93.9516 119.461 92.8206 119.396 91.6919 119.306C 92.8661 119.426 94.0442 119.52 95.2234 119.589z"
       stroke="none"
       fill="#263F48"
       fill-rule="nonzero"
       id="path427" />
    <path
       d="M99.9581 119.73C 109.28 119.73 118.624 118.096 127.298 114.481C 133.928 111.713 140.837 107.18 145.182 101.013L145.182 101.013L144.927 100.957C 137.223 111.7 121.627 117.18 109.721 118.776C 105.909 119.3 102.063 119.565 98.2173 119.565C 97.1727 119.565 96.1281 119.545 95.0847 119.506L95.0847 119.506L95.2249 119.591C 96.8008 119.684 98.3783 119.73 99.9581 119.73zM149.133 92.1898C 149.247 91.6627 149.342 91.1267 149.417 90.5842L149.417 90.5842L149.417 89.8179C 149.307 90.626 149.158 91.4159 148.975 92.1869L148.975 92.1869L149.133 92.1898z"
       stroke="none"
       fill="#B1B3B1"
       fill-rule="nonzero"
       id="path429" />
    <path
       d="M99.9581 116.214C 109.28 116.213 118.624 114.579 127.298 110.965C 132.807 108.665 138.509 105.146 142.772 100.484L142.772 100.484L142.474 100.418C 134.234 109.21 120.473 113.818 109.721 115.259C 105.909 115.783 102.064 116.048 98.2173 116.048C 96.0412 116.048 93.864 115.963 91.6935 115.792C 94.4351 116.07 97.1952 116.214 99.9581 116.214zM145.569 96.933C 145.893 96.4483 146.2 95.9547 146.491 95.4511C 146.414 95.4311 146.335 95.414 146.255 95.3999C 145.953 95.9135 145.634 96.4165 145.299 96.9083L145.299 96.9083L145.366 96.9159L145.383 96.9159L145.426 96.9224C 145.474 96.9265 145.522 96.9301 145.569 96.933zM148.075 92.1721C 148.71 90.5547 149.169 88.8525 149.417 87.0678L149.417 87.0678L149.417 86.301C 149.133 88.3795 148.599 90.3339 147.853 92.168L147.853 92.168L148.075 92.1721z"
       stroke="none"
       fill="#B1B3B1"
       fill-rule="nonzero"
       id="path431" />
    <path
       d="M93.0298 118.258L92.9742 118.224C 92.5468 118.197 92.1198 118.167 91.6929 118.134C 92.1378 118.178 92.5838 118.22 93.0298 118.258z"
       stroke="none"
       fill="#263F48"
       fill-rule="nonzero"
       id="path433" />
    <path
       d="M99.9579 118.558C 109.279 118.558 118.623 116.924 127.298 113.309C 133.56 110.694 140.073 106.504 144.437 100.85L144.437 100.85L144.17 100.791C 136.238 110.872 121.249 116.058 109.72 117.603C 105.908 118.128 102.063 118.393 98.2166 118.393C 96.4679 118.393 94.7193 118.338 92.9741 118.228L92.9741 118.228L93.0296 118.261C 95.3308 118.457 97.6432 118.558 99.9579 118.558zM146.816 96.7363C 146.912 96.6962 147.004 96.6509 147.089 96.5984C 147.115 96.5831 147.139 96.5672 147.164 96.5507C 147.258 96.364 147.349 96.1761 147.439 95.9871C 147.391 95.9311 147.336 95.8775 147.272 95.8257C 147.126 96.1331 146.974 96.4365 146.816 96.7363zM147.621 95.593C 147.621 95.5918 147.622 95.5907 147.622 95.5901C 147.598 95.5029 147.558 95.4163 147.501 95.3333C 147.5 95.3345 147.501 95.3339 147.5 95.335C 147.557 95.4181 147.597 95.5047 147.621 95.593zM148.848 92.1857C 149.093 91.2845 149.285 90.3603 149.417 89.4121L149.417 89.4121L149.417 88.6458C 149.249 89.8674 148.996 91.0459 148.664 92.1821L148.664 92.1821L148.848 92.1857z"
       stroke="none"
       fill="#B1B3B1"
       fill-rule="nonzero"
       id="path435" />
    <path
       d="M99.9581 117.386C 109.28 117.386 118.624 115.752 127.298 112.138C 133.188 109.678 139.297 105.827 143.635 100.674L143.635 100.674L143.353 100.612C 135.243 110.042 120.865 114.938 109.721 116.431C 105.909 116.956 102.064 117.221 98.2173 117.221C 96.0406 117.221 93.864 117.136 91.6935 116.965C 94.4351 117.243 97.1952 117.386 99.9581 117.386zM146.046 96.9225C 146.146 96.913 146.245 96.8989 146.342 96.8795C 146.58 96.4778 146.806 96.0714 147.021 95.6573C 146.957 95.6214 146.889 95.589 146.819 95.5595C 146.575 96.0225 146.317 96.4766 146.046 96.9225zM147.297 95.1119L147.297 95.1113C 147.243 95.0648 147.183 95.02 147.116 94.9782C 147.183 95.0206 147.243 95.0653 147.297 95.1119zM148.497 92.1798C 148.916 90.9158 149.228 89.6018 149.417 88.2406L149.417 88.2406L149.417 87.4737C 149.192 89.1182 148.811 90.6855 148.292 92.1763L148.292 92.1763L148.497 92.1798z"
       stroke="none"
       fill="#B1B3B1"
       fill-rule="nonzero"
       id="path437" />
    <path
       d="M134.409 111.573C 134.288 111.647 134.17 111.724 134.048 111.798C 129.14 114.77 123.404 117.038 117.177 118.535L117.177 118.535L117.177 112.638C 123.404 111.143 129.14 108.866 134.048 105.89C 134.171 105.816 134.287 105.746 134.409 105.67L134.409 105.67L134.409 111.573z"
       stroke="none"
       fill="#3B404A"
       fill-rule="nonzero"
       id="path439" />
    <path
       d="M147.087 94.9569C 146.808 94.785 146.458 94.6813 146.097 94.6412L146.097 94.6412L137.136 93.584C 136.535 93.5145 135.889 93.6181 135.423 93.8997C 134.679 94.3538 134.679 95.0836 135.423 95.5377C 135.691 95.6985 136.02 95.8022 136.365 95.8481L136.365 95.8481L136.403 95.8534L136.414 95.8534L145.363 96.9107L145.38 96.9107L145.424 96.9171C 146.014 96.9743 146.633 96.8706 147.087 96.5949C 147.832 96.1408 147.832 95.4111 147.087 94.9569zM107.033 90.7851L116.075 91.5437L157.377 92.3483L157.383 92.3483L157.383 92.3541C 159.347 92.4001 161.296 92.8772 162.796 93.7848C 163.288 94.0835 163.71 94.4168 164.049 94.7673C 164.743 95.4694 165.109 96.2586 165.166 97.055L165.166 97.055L165.167 97.0785C 165.171 97.1416 165.177 97.2046 165.177 97.267L165.177 97.267L165.177 98.3938C 165.171 99.6524 164.383 100.911 162.801 101.876C 160.508 103.261 157.191 103.641 154.329 103.026L154.329 103.026L154.323 103.032L115.856 94.5317L106.852 93.6529L106.852 92.532L107.033 90.7851z"
       stroke="none"
       fill="#DADBD8"
       fill-rule="nonzero"
       id="path441" />
    <path
       d="M135.424 95.5401C 135.692 95.7009 136.021 95.8045 136.366 95.8505L136.366 95.8505L136.404 95.8558L136.415 95.8558L145.364 96.913L145.381 96.913L145.425 96.9195C 146.015 96.9766 146.634 96.873 147.089 96.5973C 147.833 96.1432 147.833 95.4134 147.089 94.9593C 146.809 94.7873 146.459 94.6837 146.098 94.6436L146.098 94.6436L137.138 93.5864C 136.536 93.5169 135.89 93.6205 135.424 93.9021C 134.68 94.3562 134.68 95.0859 135.424 95.5401zM107.028 90.7874L107.034 90.7874L116.076 91.5461L157.378 92.3506L157.373 92.3565L157.384 92.3565C 159.349 92.4025 161.297 92.8796 162.797 93.7872C 163.29 94.0858 163.711 94.4192 164.05 94.7697C 165.89 96.6609 165.474 99.1318 162.797 100.752C 160.504 102.143 157.187 102.522 154.319 101.907L154.319 101.907L154.319 101.913L115.852 93.4079L106.853 92.5344L106.848 92.5344L107.028 90.7874z"
       stroke="none"
       fill="#F3F2F1"
       fill-rule="nonzero"
       id="path443" />
    <path
       d="M153.096 94.3032C 155.28 92.9491 158.822 92.9491 161.008 94.3032C 162.1 94.98 162.645 95.8676 162.645 96.7552L162.645 96.7552L162.645 97.3195C 162.644 98.2065 162.099 99.093 161.008 99.7697C 158.822 101.124 155.28 101.124 153.096 99.7697C 152.003 99.0924 151.458 98.2047 151.459 97.3165L151.459 97.3165L151.459 96.7552C 151.458 95.8676 152.004 94.98 153.096 94.3032z"
       stroke="none"
       fill="#DADBD8"
       fill-rule="nonzero"
       id="path445" />
    <path
       d="M161.006 99.2036C 163.19 97.8495 163.19 95.6542 161.006 94.3001C 158.821 92.946 155.279 92.946 153.094 94.3001C 150.91 95.6542 150.91 97.8495 153.094 99.2036C 155.279 100.558 158.821 100.558 161.006 99.2036z"
       stroke="none"
       fill="#FAFAF9"
       fill-rule="nonzero"
       id="path447" />
    <path
       d="M160.793 99.0211C 162.858 97.7695 162.858 95.7392 160.793 94.487C 158.727 93.2354 155.378 93.2354 153.313 94.487C 151.247 95.7392 151.247 97.7695 153.313 99.0211C 155.378 100.273 158.727 100.273 160.793 99.0211z"
       stroke="none"
       fill="#DADBD8"
       fill-rule="nonzero"
       id="path449" />
    <path
       d="M157.051 99.9578C 158.404 99.9578 159.758 99.6444 160.791 99.0183C 161.824 98.3928 162.34 97.5723 162.34 96.7518C 162.34 95.9308 161.824 95.1103 160.791 94.4842C 159.758 93.8581 158.404 93.5453 157.051 93.5453C 155.698 93.5453 154.344 93.8581 153.311 94.4842C 152.278 95.1103 151.762 95.9308 151.762 96.7518C 151.762 97.5723 152.278 98.3928 153.311 99.0183C 154.344 99.6444 155.698 99.9578 157.051 99.9578z"
       stroke="none"
       fill="#A7AAA9"
       fill-rule="nonzero"
       id="path451" />
    <path
       d="M153.309 94.851C 155.375 93.5988 158.723 93.5988 160.789 94.851C 161.745 95.4306 162.257 96.1768 162.329 96.9354C 162.257 97.6941 161.745 98.4403 160.789 99.0193C 158.723 100.272 155.375 100.272 153.309 99.0193C 152.352 98.4403 151.84 97.6941 151.769 96.9354C 151.84 96.1768 152.352 95.4306 153.309 94.851z"
       stroke="none"
       fill="#DADBD8"
       fill-rule="nonzero"
       id="path453" />
    <path
       d="M158.436 97.5957C 159.202 97.1315 159.202 96.3782 158.436 95.9141C 157.67 95.4499 156.428 95.4499 155.662 95.9141C 154.897 96.3782 154.897 97.1315 155.662 97.5957C 156.428 98.0598 157.67 98.0598 158.436 97.5957z"
       stroke="none"
       fill="#FAFAF9"
       fill-rule="nonzero"
       id="path455" />
    <path
       d="M112.137 94.1736L106.853 93.6576L106.853 93.66L112.137 94.1736zM106.852 93.455L106.852 92.5379L106.846 92.5379L106.852 93.455z"
       stroke="none"
       fill="#CCCDCB"
       fill-rule="nonzero"
       id="path457" />
    <path
       d="M115.857 94.5327L115.851 93.4107L106.852 92.5355L106.852 93.4525L106.853 93.6551L112.137 94.1711L115.857 94.5327z"
       stroke="none"
       fill="#C0C1BF"
       fill-rule="nonzero"
       id="path459" />
    <path
       d="M128.749 94.7215C 129.09 94.7215 129.432 94.6426 129.692 94.4847C 130.214 94.169 130.214 93.6566 129.692 93.3403C 129.432 93.1824 129.09 93.1035 128.749 93.1035C 128.407 93.1035 128.065 93.1824 127.805 93.3403C 127.283 93.6566 127.283 94.169 127.805 94.4847C 128.065 94.6426 128.407 94.7215 128.749 94.7215z"
       stroke="none"
       fill="#D5D7D4"
       fill-rule="nonzero"
       id="path461" />
    <path
       d="M134.964 95.0865C 135.057 94.9198 135.211 94.7702 135.424 94.6382C 135.889 94.3567 136.535 94.2471 137.137 94.3166L137.137 94.3166L146.097 95.3739C 146.459 95.4198 146.809 95.5229 147.088 95.6955C 147.301 95.828 147.454 95.9776 147.548 96.1437C 147.766 95.742 147.613 95.282 147.088 94.9598C 146.809 94.7878 146.459 94.6842 146.097 94.6441L146.097 94.6441L137.137 93.5869C 136.535 93.5174 135.889 93.621 135.424 93.9026C 134.899 94.2242 134.746 94.6842 134.964 95.0865z"
       stroke="none"
       fill="#DADBD8"
       fill-rule="nonzero"
       id="path463" />
    <path
       d="M147.548 96.1467C 147.612 96.0289 147.644 95.9064 147.644 95.7833C 147.645 95.487 147.459 95.1908 147.088 94.9628C 146.809 94.7908 146.459 94.6872 146.097 94.6471L146.097 94.6471L137.137 93.5899C 137.017 93.5757 136.895 93.5687 136.774 93.5687C 136.285 93.5687 135.796 93.68 135.424 93.9056C 135.052 94.1335 134.867 94.4298 134.868 94.7261C 134.868 94.8486 134.9 94.9717 134.964 95.0895C 135.058 94.9228 135.211 94.7732 135.424 94.6412C 135.799 94.4145 136.291 94.2996 136.783 94.2996C 136.902 94.2996 137.02 94.3061 137.137 94.3196L137.137 94.3196L140.18 94.6784L141.105 94.7879L145.572 95.3145L145.574 95.3151L145.81 95.3433L146.097 95.3769C 146.15 95.3834 146.201 95.3916 146.253 95.4005C 146.332 95.4146 146.412 95.4317 146.489 95.4517C 146.603 95.4812 146.712 95.5177 146.817 95.5607C 146.887 95.5901 146.955 95.6225 147.019 95.6584C 147.043 95.6714 147.066 95.6849 147.088 95.6985C 147.155 95.7403 147.216 95.7833 147.271 95.8281C 147.334 95.8799 147.39 95.9335 147.438 95.9895C 147.481 96.0401 147.517 96.0925 147.548 96.1467z"
       stroke="none"
       fill="#C0C1BF"
       fill-rule="nonzero"
       id="path465" />
    <path
       d="M107.812 123.529C 107.812 123.053 108.112 122.576 108.711 122.213C 109.911 121.485 111.856 121.485 113.055 122.213C 113.655 122.576 113.954 123.053 113.954 123.529L113.954 123.529L113.954 124.797C 113.954 125.274 113.654 125.75 113.055 126.114C 111.855 126.841 109.911 126.841 108.711 126.114C 108.112 125.75 107.812 125.274 107.812 124.797L107.812 124.797L107.812 123.529z"
       stroke="none"
       fill="#17282F"
       fill-rule="nonzero"
       id="path467" />
    <path
       d="M113.057 122.21C 113.657 122.573 113.957 123.05 113.957 123.526C 113.957 124.003 113.656 124.479 113.057 124.843C 111.857 125.57 109.913 125.57 108.713 124.843C 108.114 124.479 107.814 124.003 107.814 123.526C 107.814 123.05 108.114 122.573 108.713 122.21C 109.913 121.483 111.858 121.483 113.057 122.21z"
       stroke="none"
       fill="#686F80"
       fill-rule="nonzero"
       id="path469" />
    <path
       d="M27.1351 82.1167L27.1351 92.8977C 27.1351 93.4149 27.4582 93.9379 28.1145 94.3343L28.1145 94.3343L125.644 153.458C 126.952 154.251 129.076 154.251 130.384 153.458L130.384 153.458L199.017 111.858C 199.673 111.456 199.996 110.939 199.996 110.416L199.996 110.416L199.996 99.6353C 199.996 100.158 199.668 100.675 199.017 101.072L199.017 101.072L130.384 142.678C 129.076 143.47 126.952 143.47 125.644 142.678L125.644 142.678L28.1145 83.5539C 27.4632 83.1575 27.1351 82.6344 27.1351 82.1173"
       stroke="none"
       fill="#4B4F58"
       fill-rule="nonzero"
       id="path471" />
    <path
       d="M130.864 146.112L197.987 105.424L197.987 110.203L130.864 150.891L130.864 146.112z"
       stroke="none"
       fill="#717887"
       fill-rule="nonzero"
       id="path473" />
    <path
       d="M169.05 124.955L197.394 107.773L197.394 106.701L169.05 123.882L169.05 124.955z"
       stroke="none"
       fill="#4A505B"
       fill-rule="nonzero"
       id="path475" />
    <path
       d="M169.05 126.822L197.394 109.64L197.394 108.567L169.05 125.749L169.05 126.822z"
       stroke="none"
       fill="#4A505B"
       fill-rule="nonzero"
       id="path477" />
    <path
       d="M158.251 133.366L168.046 127.428L168.046 124.49L158.251 130.428L158.251 133.366z"
       stroke="none"
       fill="#4A505B"
       fill-rule="nonzero"
       id="path479" />
    <path
       d="M151.581 137.406L157.229 133.982L157.229 131.044L151.581 134.468L151.581 137.406z"
       stroke="none"
       fill="#4A505B"
       fill-rule="nonzero"
       id="path481" />
    <path
       d="M144.967 141.417L150.614 137.994L150.614 135.056L144.967 138.479L144.967 141.417z"
       stroke="none"
       fill="#4A505B"
       fill-rule="nonzero"
       id="path483" />
    <path
       d="M138.353 145.428L144 142.005L144 139.066L138.353 142.49L138.353 145.428z"
       stroke="none"
       fill="#4A505B"
       fill-rule="nonzero"
       id="path485" />
    <path
       d="M131.739 149.434L137.386 146.01L137.386 143.072L131.739 146.495L131.739 149.434z"
       stroke="none"
       fill="#4A505B"
       fill-rule="nonzero"
       id="path487" />
    <path
       d="M128.013 154.051C 127.155 154.051 126.296 153.853 125.642 153.456L125.642 153.456L28.1123 94.3324C 27.4559 93.936 27.1328 93.413 27.1328 92.8958L27.1328 92.8958L27.1328 82.1148C 27.1328 82.6319 27.4609 83.1549 28.1123 83.5513L28.1123 83.5513L125.642 142.675C 126.296 143.072 127.155 143.27 128.013 143.269L128.013 143.269L128.013 154.05"
       stroke="none"
       fill="#555A66"
       fill-rule="nonzero"
       id="path489" />
    <path
       d="M102.668 133.472L106.43 135.752C 107.607 136.465 108.56 138.38 108.56 140.027L108.56 140.027L108.56 143.103L100.536 138.239L100.536 135.163C 100.536 133.516 101.491 132.758 102.668 133.472z"
       stroke="none"
       fill="#717887"
       fill-rule="nonzero"
       id="path491" />
    <path
       d="M103.088 136.776C 103.088 137.905 103.742 139.216 104.549 139.705C 105.355 140.194 106.008 139.675 106.008 138.546C 106.008 137.417 105.355 136.106 104.549 135.617C 103.742 135.128 103.088 135.647 103.088 136.776z"
       stroke="none"
       fill="#E7E8E5"
       fill-rule="nonzero"
       id="path493" />
    <path
       d="M70.6626 114.07L74.4247 116.351C 75.6017 117.064 76.5559 118.978 76.5559 120.625L76.5559 120.625L76.5559 123.701L68.5314 118.837L68.5314 115.761C 68.5314 114.114 69.4857 113.357 70.6626 114.07z"
       stroke="none"
       fill="#717887"
       fill-rule="nonzero"
       id="path495" />
    <path
       d="M71.0834 117.374C 71.0834 118.503 71.7375 119.814 72.5436 120.303C 73.3498 120.792 74.0039 120.273 74.0039 119.145C 74.0039 118.016 73.3498 116.704 72.5436 116.216C 71.7375 115.727 71.0834 116.246 71.0834 117.374z"
       stroke="none"
       fill="#E7E8E5"
       fill-rule="nonzero"
       id="path497" />
    <path
       d="M38.6578 94.6683L42.4198 96.9489C 43.5968 97.6621 44.551 99.5764 44.551 101.224L44.551 101.224L44.551 104.3L36.5271 99.4356L36.5271 96.3599C 36.5271 94.7124 37.4808 93.955 38.6578 94.6683z"
       stroke="none"
       fill="#717887"
       fill-rule="nonzero"
       id="path499" />
    <path
       d="M39.0786 97.9727C 39.0786 99.1018 39.7321 100.413 40.5383 100.902C 41.345 101.391 41.9985 100.872 41.9985 99.7426C 41.9985 98.6141 41.345 97.3024 40.5383 96.8135C 39.7321 96.3252 39.0786 96.8441 39.0786 97.9727z"
       stroke="none"
       fill="#E7E8E5"
       fill-rule="nonzero"
       id="path501" />
    <path
       d="M49.5917 104.251L63.4927 112.678L63.4927 108.487L49.5917 100.061L49.5917 104.251z"
       stroke="none"
       fill="#DADBD8"
       fill-rule="nonzero"
       id="path503" />
  </g>
</svg>
