<?xml version="1.0" encoding="UTF-8" standalone="no"?>
<svg
   id="body_1"
   width="201"
   height="200"
   version="1.1"
   xmlns="http://www.w3.org/2000/svg"
   xmlns:svg="http://www.w3.org/2000/svg">
  <defs
     id="defs1957" />
  <g
     transform="matrix(1 0 0 1 0 0)"
     id="g1952">
    <path
       d="M121.706 159.44C 120.278 159.44 118.852 159.07 117.573 158.333L117.573 158.333L9.54356 95.9626C 8.56954 95.3982 8.0015 94.4802 7.84594 93.5041C 7.68613 92.5085 7.43771 85.6856 7.86108 81.867C 8.02953 82.8195 8.59332 83.714 9.54793 84.2648L9.54793 84.2648L117.581 146.636C 118.857 147.376 120.284 147.743 121.71 147.743C 123.14 147.743 124.572 147.372 125.853 146.635L125.853 146.635L133.433 142.256L133.433 149.231L139.114 145.949L141.057 144.826L141.404 144.632L142.073 144.243L143.996 143.121L144.362 142.925L145.011 142.536L146.933 141.435L147.3 141.22L147.948 140.853L149.891 139.729L150.259 139.513L150.906 139.146L152.872 138.022L153.196 137.807L153.866 137.44L155.809 136.316L156.155 136.101L156.868 135.712L158.812 134.589L159.157 134.373L159.805 134.005L161.749 132.882L162.094 132.666L162.764 132.299L162.785 132.299L164.707 131.176L165.054 130.96L165.724 130.593L167.667 129.469L168.013 129.276L168.661 128.886L170.604 127.764L170.95 127.57L171.619 127.181L173.542 126.058L173.908 125.863L174.622 125.452L176.565 124.33L176.91 124.134L177.559 123.747L179.502 122.623L179.87 122.429L185.572 119.124L185.572 112.169L185.557 112.162L191.404 108.785C 192.327 108.253 192.887 107.41 193.082 106.5C 193.427 110.202 193.187 116.706 193.153 117.597C 193.107 118.724 192.524 119.834 191.397 120.481L191.397 120.481L125.846 158.33C 124.565 159.068 123.135 159.44 121.706 159.44z"
       stroke="none"
       fill="#FFFFFF"
       fill-rule="nonzero"
       id="path1840"
       style="fill:#3f4754;fill-opacity:1" />
    <g
       id="g1844"
       style="fill:#3f4754;fill-opacity:1">
      <path
         d="M121.706 159.44C 120.278 159.44 118.852 159.07 117.573 158.333L117.573 158.333L9.54357 95.9626C 8.56956 95.3981 8.00151 94.4802 7.84596 93.504C 7.68614 92.5085 8.12191 85.4777 8.20624 81.2619C 11.7065 81.977 10.2356 82.5114 9.54795 84.2648L9.54795 84.2648L117.581 146.636C 118.857 147.375 120.284 147.743 121.71 147.743C 123.14 147.743 124.572 147.372 125.853 146.635L125.853 146.635L133.433 142.256L133.433 149.231L139.114 145.949L141.057 144.826L141.404 144.632L142.073 144.243L143.996 143.12L144.362 142.925L145.011 142.536L146.933 141.435L147.3 141.22L147.948 140.853L149.891 139.729L150.259 139.513L150.906 139.146L152.872 138.022L153.196 137.807L153.866 137.44L155.809 136.316L156.155 136.101L156.868 135.712L158.812 134.589L159.157 134.373L159.805 134.005L161.749 132.882L162.094 132.666L162.764 132.299L162.785 132.299L164.707 131.176L165.054 130.96L165.724 130.593L167.667 129.469L168.013 129.275L168.661 128.886L170.604 127.764L170.95 127.57L171.619 127.181L173.542 126.058L173.908 125.863L174.622 125.452L176.565 124.33L176.911 124.134L177.559 123.747L179.502 122.623L179.87 122.429L185.572 119.124L185.572 112.169L185.557 112.162L191.404 108.785C 192.327 108.253 192.887 107.41 193.082 106.5C 193.427 110.202 193.187 116.706 193.153 117.597C 193.107 118.724 192.524 119.834 191.398 120.481L191.398 120.481L125.846 158.33C 124.565 159.068 123.135 159.44 121.706 159.44z"
         stroke="none"
         fill="#3F4754"
         fill-rule="nonzero"
         id="path1842"
         style="fill:#3f4754;fill-opacity:1" />
    </g>
    <path
       d="M9.49657 84.3181L118.239 147.369C 120.796 148.846 123.952 148.845 126.511 147.368L126.511 147.368L192.062 109.519C 194.406 108.172 194.4 104.819 192.077 103.479L192.077 103.479L84.0319 41.0998C 81.4877 39.6309 78.3343 39.6325 75.775 41.1099L75.775 41.1099L10.2089 78.9508C 8.14493 79.9748 6.92511 82.7625 9.49657 84.3181z"
       stroke="none"
       fill="#8993A7"
       fill-rule="nonzero"
       id="path1846" />
    <path
       d="M34.7919 79.3363L81.0707 52.6254C 82.6775 51.6989 84.6559 51.7004 86.2606 52.6294L86.2606 52.6294L171.751 102.124C 173.2 102.965 173.2 105.057 171.749 105.896L171.749 105.896L125.479 132.611C 123.872 133.537 121.893 133.537 120.289 132.608L120.289 132.608L34.7898 83.1067C 33.3406 82.2673 33.3406 80.1716 34.7919 79.3363z"
       stroke="none"
       fill="#FFFFFF"
       fill-rule="nonzero"
       id="path1848"
       style="fill:#575757;fill-opacity:1" />
    <g
       id="g1852">
      <path
         d="M34.7919 79.3363L81.0707 52.6254C 82.6775 51.6989 84.6559 51.7004 86.2606 52.6294L86.2606 52.6294L171.751 102.124C 173.2 102.965 173.2 105.057 171.749 105.896L171.749 105.896L125.479 132.611C 123.872 133.537 121.893 133.537 120.289 132.608L120.289 132.608L34.7898 83.1067C 33.3406 82.2673 33.3406 80.1716 34.7919 79.3363z"
         stroke="none"
         fill="none"
         id="path1850" />
    </g>
    <path
       d="M34.7919 81.7661L81.0707 55.055C 82.6775 54.1287 84.6559 54.1302 86.2606 55.0591L86.2606 55.0591L171.751 104.554C 173.2 105.394 173.2 107.487 171.749 108.325L171.749 108.325L125.479 135.04C 123.872 135.967 121.893 135.967 120.289 135.037L120.289 135.037L34.7898 85.5364C 33.3406 84.6969 33.3406 82.6012 34.7919 81.7661z"
       stroke="none"
       fill="#8DA4D7"
       fill-rule="nonzero"
       id="path1854"
       style="fill:#597ac4;fill-opacity:1" />
    <path
       d="M185.572 112.148L179.546 115.626L133.433 142.256L131.511 141.132L130.388 140.485L127.58 138.843L125.485 137.634L177.624 107.548L185.572 112.148z"
       stroke="none"
       fill="#2D2634"
       fill-rule="nonzero"
       id="path1856" />
    <path
       d="M177.61 107.548L185.572 112.169L185.572 119.124L171.492 111.087L177.61 107.548z"
       stroke="none"
       fill="#171418"
       fill-rule="nonzero"
       id="path1858" />
    <path
       d="M185.572 119.124L185.572 121.025L133.433 151.132L133.433 142.256L179.546 115.647L185.572 119.124z"
       stroke="none"
       fill="#1C1822"
       fill-rule="nonzero"
       id="path1860" />
    <path
       d="M77.0317 66.2153L88.7898 73.0034L86.2953 74.4436L74.5371 67.6554L77.0317 66.2153z"
       stroke="none"
       fill="#EDECEF"
       fill-rule="nonzero"
       id="path1862" />
    <path
       d="M84.6473 61.6964L107.593 74.9449L102.725 77.755L79.7791 64.5066L84.6473 61.6964z"
       stroke="none"
       fill="#EDECEF"
       fill-rule="nonzero"
       id="path1864" />
    <path
       d="M92.2862 75.0223L105.373 82.5773L102.876 84.016L89.792 76.4633L92.2862 75.0223z"
       stroke="none"
       fill="#EDECEF"
       fill-rule="nonzero"
       id="path1866" />
    <path
       d="M108.869 84.5945L106.375 86.0355L120.712 94.3137L123.206 92.8735L108.869 84.5945z"
       stroke="none"
       fill="#EDECEF"
       fill-rule="nonzero"
       id="path1868" />
    <path
       d="M39.1699 79.238L130.522 132.129L149.834 120.977L58.4852 68.0914L39.1699 79.238z"
       stroke="none"
       fill="#EDECEF"
       fill-rule="nonzero"
       id="path1870" />
    <path
       d="M118.228 117.713L115.734 119.155L130.07 127.431L132.565 125.99L118.228 117.713z"
       stroke="none"
       fill="#4F5972"
       fill-rule="nonzero"
       id="path1872" />
    <path
       d="M185.572 119.124L179.87 122.429L179.502 122.623L177.559 123.745L176.91 124.135L176.565 124.33L174.622 125.452L173.908 125.863L173.542 126.058L171.619 127.181L170.95 127.57L170.604 127.764L168.661 128.886L168.013 129.276L167.667 129.47L165.722 130.593L165.053 130.96L164.707 131.177L162.785 132.299L162.764 132.299L162.094 132.666L161.749 132.882L159.805 134.005L159.157 134.373L158.812 134.589L156.868 135.712L156.155 136.101L155.809 136.316L153.866 137.44L153.196 137.807L152.872 138.022L150.906 139.146L150.258 139.513L149.891 139.729L147.948 140.853L147.3 141.22L146.933 141.435L145.011 142.536L144.362 142.925L143.996 143.121L142.073 144.243L141.404 144.632L141.057 144.826L139.114 145.949L133.433 149.231L133.433 142.256L132.85 141.91L132.505 141.716L131.511 141.132L177.624 114.523L179.546 115.626L179.546 115.647L185.572 119.124z"
       stroke="none"
       fill="#2D2634"
       fill-rule="nonzero"
       id="path1874" />
    <path
       d="M127.576 138.848L125.485 137.634L177.624 107.548L177.61 109.962L127.576 138.848z"
       stroke="none"
       fill="#1C1822"
       fill-rule="nonzero"
       id="path1876" />
    <path
       d="M130.388 140.485L127.583 138.846L162.619 118.617L173.589 112.283L176.44 113.913L130.388 140.485z"
       stroke="none"
       fill="#1B181F"
       fill-rule="nonzero"
       id="path1878" />
    <path
       d="M176.44 113.913L173.589 112.283L177.602 109.967L176.5 113.876L176.44 113.913z"
       stroke="none"
       fill="#151214"
       fill-rule="nonzero"
       id="path1880" />
    <path
       d="M127.583 138.846L127.58 138.843L162.62 118.617L127.583 138.846z"
       stroke="none"
       fill="#171518"
       fill-rule="nonzero"
       id="path1882" />
    <path
       d="M82.9194 45.6098L82.9194 45.662L82.8179 46.0182L82.615 46.3657C 81.928 47.3226 80.198 48.016 78.4183 48.0312C 76.9929 48.0463 75.7726 47.6363 75.1117 47.012L75.1117 47.012L74.8071 46.6231L74.6278 46.1928L74.6019 45.9321L74.5522 45.4849C 74.5782 45.2278 74.6796 44.9493 74.8308 44.675C 75.5176 43.5606 77.2477 42.8157 79.0533 42.8307C 80.1721 42.8435 81.2153 43.1606 81.9539 43.7141C 82.4615 44.0921 82.7683 44.5577 82.8698 45.0335L82.8698 45.0335L82.8957 45.0614L82.9194 45.6098z"
       stroke="none"
       fill="#FFFFFF"
       fill-rule="nonzero"
       id="path1884"
       style="fill:#575757;fill-opacity:1" />
    <g
       id="g1888">
      <path
         d="M82.9194 45.6098L82.9194 45.662L82.8179 46.0182L82.615 46.3657C 81.928 47.3226 80.198 48.016 78.4183 48.0312C 76.9929 48.0463 75.7726 47.6363 75.1117 47.012L75.1117 47.012L74.8071 46.6231L74.6278 46.1928L74.6019 45.9321L74.5522 45.4849C 74.5782 45.2278 74.6796 44.9493 74.8308 44.675C 75.5176 43.5606 77.2477 42.8157 79.0533 42.8307C 80.1721 42.8435 81.2153 43.1606 81.9539 43.7141C 82.4615 44.0921 82.7683 44.5577 82.8698 45.0335L82.8698 45.0335L82.8957 45.0614L82.9194 45.6098z"
         stroke="none"
         fill="none"
         id="path1886" />
    </g>
    <path
       d="M82.9196 45.6098L82.9196 45.662L82.8181 46.0181L82.615 46.3657C 81.9281 47.3225 80.1981 48.016 78.4184 48.0311C 76.993 48.0463 75.7727 47.6363 75.1118 47.0119L75.1118 47.0119L74.8072 46.6231L74.628 46.1927L74.6021 45.932L74.628 45.7244C 74.6798 45.4959 74.7813 45.2689 74.9324 45.0489C 75.6192 44.0634 77.3493 43.3707 79.1549 43.3596C 80.276 43.3707 81.2931 43.6078 82.0037 44.055C 82.4616 44.3249 82.7423 44.686 82.8699 45.0335L82.8699 45.0335L82.8958 45.0614L82.9196 45.6098z"
       stroke="none"
       fill="#4E5975"
       fill-rule="nonzero"
       id="path1890" />
    <path
       d="M21.4723 80.7788L21.4723 80.8303L21.3687 81.1871L21.1656 81.5347C 20.4788 82.4932 18.7488 83.1867 16.9691 83.2001C 15.5458 83.2146 14.3233 82.8044 13.6624 82.1803L13.6624 82.1803L13.3578 81.7912L13.1786 81.3617L13.1527 81.1004L13.103 80.653C 13.1289 80.3967 13.2304 80.1174 13.3816 79.8457C 14.0684 78.7286 15.7984 77.9837 17.6041 77.9989C 18.7251 78.0115 19.7661 78.3295 20.5047 78.8822C 21.0144 79.2601 21.319 79.7267 21.4205 80.2016L21.4205 80.2016L21.4464 80.2304L21.4723 80.7788z"
       stroke="none"
       fill="#FFFFFF"
       fill-rule="nonzero"
       id="path1892"
       style="fill:#575757;fill-opacity:1" />
    <g
       id="g1896">
      <path
         d="M21.4723 80.7788L21.4723 80.8303L21.3687 81.1871L21.1656 81.5347C 20.4788 82.4932 18.7488 83.1867 16.9691 83.2001C 15.5458 83.2146 14.3233 82.8044 13.6624 82.1803L13.6624 82.1803L13.3578 81.7912L13.1786 81.3617L13.1527 81.1004L13.103 80.653C 13.1289 80.3967 13.2304 80.1174 13.3816 79.8457C 14.0684 78.7286 15.7984 77.9837 17.6041 77.9989C 18.7251 78.0115 19.7661 78.3295 20.5047 78.8822C 21.0144 79.2601 21.319 79.7267 21.4205 80.2016L21.4205 80.2016L21.4464 80.2304L21.4723 80.7788z"
         stroke="none"
         fill="none"
         id="path1894" />
    </g>
    <path
       d="M21.4721 80.7789L21.4721 80.8304L21.3684 81.1872L21.1654 81.5348C 20.4786 82.4933 18.7485 83.1868 16.9688 83.2002C 15.5455 83.2147 14.3231 82.8045 13.6621 82.1804L13.6621 82.1804L13.3576 81.7913L13.1783 81.3618L13.1523 81.1005L13.1783 80.8929C 13.2302 80.6641 13.3317 80.4371 13.485 80.2171C 14.1718 79.2324 15.8997 78.5389 17.7074 78.5279C 18.8262 78.5389 19.8436 78.7769 20.5563 79.2239C 21.0142 79.494 21.2928 79.8542 21.4202 80.2017L21.4202 80.2017L21.4462 80.2305L21.4721 80.7789z"
       stroke="none"
       fill="#4E5975"
       fill-rule="nonzero"
       id="path1898" />
    <path
       d="M144.362 142.925L143.996 143.121L142.073 144.243L142.03 144.222L135.421 140.421L135.096 140.226L136.716 139.297L137.385 138.908L144.362 142.925z"
       stroke="none"
       fill="#D0A02B"
       fill-rule="nonzero"
       id="path1900" />
    <path
       d="M144.362 142.925L143.996 143.121L137.364 139.297L136.976 139.535L135.421 140.421L135.096 140.226L136.716 139.297L137.385 138.908L144.362 142.925z"
       stroke="none"
       fill="#5D5F6B"
       fill-rule="nonzero"
       id="path1902" />
    <path
       d="M147.418 141.288L145.127 142.612L138.039 138.52L140.33 137.197L147.418 141.288z"
       stroke="none"
       fill="#D0A02B"
       fill-rule="nonzero"
       id="path1904" />
    <path
       d="M147.067 141.491L140.317 137.593L138.375 138.714L138.039 138.519L140.33 137.197L147.418 141.288L147.067 141.491z"
       stroke="none"
       fill="#5D5F6B"
       fill-rule="nonzero"
       id="path1906" />
    <path
       d="M150.367 139.584L148.075 140.908L140.988 136.816L143.28 135.493L150.367 139.584z"
       stroke="none"
       fill="#D0A02B"
       fill-rule="nonzero"
       id="path1908" />
    <path
       d="M150.016 139.787L143.265 135.888L141.324 137.01L140.988 136.816L143.28 135.493L150.367 139.584L150.016 139.787z"
       stroke="none"
       fill="#5D5F6B"
       fill-rule="nonzero"
       id="path1910" />
    <path
       d="M153.196 137.807L152.872 138.023L150.906 139.146L144.276 135.301L143.931 135.107L146.219 133.79L153.196 137.807z"
       stroke="none"
       fill="#D0A02B"
       fill-rule="nonzero"
       id="path1912" />
    <path
       d="M153.196 137.807L152.872 138.022L146.219 134.178L144.276 135.301L143.931 135.107L146.219 133.79L153.196 137.807z"
       stroke="none"
       fill="#5D5F6B"
       fill-rule="nonzero"
       id="path1914" />
    <path
       d="M156.265 136.176L153.974 137.498L146.886 133.407L149.179 132.083L156.265 136.176z"
       stroke="none"
       fill="#D0A02B"
       fill-rule="nonzero"
       id="path1916" />
    <path
       d="M155.915 136.376L149.164 132.481L147.222 133.602L146.886 133.407L149.179 132.084L156.265 136.176L155.915 136.376z"
       stroke="none"
       fill="#5D5F6B"
       fill-rule="nonzero"
       id="path1918" />
    <path
       d="M159.213 134.412L156.922 135.736L149.834 131.642L152.126 130.321L159.213 134.412z"
       stroke="none"
       fill="#F2BD3E"
       fill-rule="nonzero"
       id="path1920" />
    <path
       d="M158.863 134.614L152.111 130.715L150.17 131.836L149.834 131.642L152.126 130.321L159.213 134.412L158.863 134.614z"
       stroke="none"
       fill="#5D5F6B"
       fill-rule="nonzero"
       id="path1922" />
    <path
       d="M162.094 132.666L161.749 132.882L159.805 134.005L159.719 133.941L153.11 130.139L152.786 129.944L154.405 128.994L155.075 128.606L162.094 132.666z"
       stroke="none"
       fill="#D0A02B"
       fill-rule="nonzero"
       id="path1924" />
    <path
       d="M162.094 132.666L161.749 132.882L155.054 129.016L154.664 129.232L153.11 130.139L152.786 129.944L154.405 128.994L155.075 128.606L162.094 132.666z"
       stroke="none"
       fill="#5D5F6B"
       fill-rule="nonzero"
       id="path1926" />
    <path
       d="M165.112 131.003L162.82 132.325L155.733 128.234L158.026 126.91L165.112 131.003z"
       stroke="none"
       fill="#D0A02B"
       fill-rule="nonzero"
       id="path1928" />
    <path
       d="M164.761 131.204L158.01 127.308L156.069 128.428L155.733 128.234L158.026 126.91L165.112 131.003L164.761 131.204z"
       stroke="none"
       fill="#5D5F6B"
       fill-rule="nonzero"
       id="path1930" />
    <path
       d="M168.06 129.299L165.769 130.621L158.682 126.53L160.973 125.206L168.06 129.299z"
       stroke="none"
       fill="#D0A02B"
       fill-rule="nonzero"
       id="path1932" />
    <path
       d="M167.71 129.5L160.958 125.604L159.019 126.725L158.682 126.53L160.973 125.206L168.06 129.299L167.71 129.5z"
       stroke="none"
       fill="#5D5F6B"
       fill-rule="nonzero"
       id="path1934" />
    <path
       d="M170.95 127.57L170.604 127.764L168.661 128.886L161.965 125.021L161.641 124.825L163.93 123.509L170.95 127.57z"
       stroke="none"
       fill="#D0A02B"
       fill-rule="nonzero"
       id="path1936" />
    <path
       d="M170.95 127.57L170.604 127.764L163.909 123.898L161.965 125.021L161.641 124.825L163.93 123.509L170.95 127.57z"
       stroke="none"
       fill="#5D5F6B"
       fill-rule="nonzero"
       id="path1938" />
    <path
       d="M173.961 125.889L171.667 127.213L164.581 123.122L166.872 121.798L173.961 125.889z"
       stroke="none"
       fill="#D0A02B"
       fill-rule="nonzero"
       id="path1940" />
    <path
       d="M173.609 126.092L166.859 122.194L164.918 123.314L164.581 123.122L166.872 121.798L173.961 125.889L173.609 126.092z"
       stroke="none"
       fill="#5D5F6B"
       fill-rule="nonzero"
       id="path1942" />
    <path
       d="M176.907 124.126L174.615 125.45L167.528 121.357L169.82 120.033L176.907 124.126z"
       stroke="none"
       fill="#F2BD3E"
       fill-rule="nonzero"
       id="path1944" />
    <path
       d="M176.556 124.327L169.805 120.431L167.864 121.551L167.528 121.357L169.82 120.033L176.907 124.126L176.556 124.327z"
       stroke="none"
       fill="#5D5F6B"
       fill-rule="nonzero"
       id="path1946" />
    <path
       d="M179.87 122.429L179.502 122.623L177.559 123.747L177.407 123.66L170.821 119.837L170.474 119.642L172.095 118.714L172.764 118.325L179.87 122.429z"
       stroke="none"
       fill="#D0A02B"
       fill-rule="nonzero"
       id="path1948" />
    <path
       d="M179.87 122.429L179.502 122.623L172.764 118.736L172.354 118.973L170.821 119.837L170.474 119.642L172.095 118.714L172.764 118.325L179.87 122.429z"
       stroke="none"
       fill="#5D5F6B"
       fill-rule="nonzero"
       id="path1950" />
  </g>
</svg>
