<?xml version="1.0" encoding="UTF-8" standalone="no"?>
<svg
   width="200"
   height="200"
   viewBox="0 0 200 200"
   fill="none"
   version="1.1"
   id="svg43129"
   sodipodi:docname="img-raid.svg"
   xml:space="preserve"
   inkscape:version="1.2.2 (1:1.2.2+202212051552+b0a8486541)"
   xmlns:inkscape="http://www.inkscape.org/namespaces/inkscape"
   xmlns:sodipodi="http://sodipodi.sourceforge.net/DTD/sodipodi-0.dtd"
   xmlns:xlink="http://www.w3.org/1999/xlink"
   xmlns="http://www.w3.org/2000/svg"
   xmlns:svg="http://www.w3.org/2000/svg"><sodipodi:namedview
     id="namedview43131"
     pagecolor="#505050"
     bordercolor="#eeeeee"
     borderopacity="1"
     inkscape:showpageshadow="0"
     inkscape:pageopacity="0"
     inkscape:pagecheckerboard="0"
     inkscape:deskcolor="#505050"
     showgrid="false"
     inkscape:zoom="2.7647875"
     inkscape:cx="39.062676"
     inkscape:cy="120.6241"
     inkscape:window-width="1920"
     inkscape:window-height="1016"
     inkscape:window-x="0"
     inkscape:window-y="0"
     inkscape:window-maximized="1"
     inkscape:current-layer="svg43129" /><mask
     id="mask0_135_190"
     style="mask-type:luminance"
     maskUnits="userSpaceOnUse"
     x="100"
     y="85"
     width="87"
     height="79"><path
       d="M100.001 163.758V135.598H100.003L186.667 85.9219V114.082L169.814 123.74L157.982 130.524L155.849 131.747L100.001 163.758Z"
       fill="white"
       id="path42933" /></mask><g
     id="g1381"
     transform="translate(0.5001521,20.453934)"><path
       d="m 99.895133,135.60233 -86.667706,-49.678104 86.665706,-49.6783 86.668007,49.6802 z"
       fill="#C1B8E2"
       id="path42927"
       style="fill:#8da4d7;fill-opacity:1" /><g
       mask="url(#mask0_135_190)"
       id="g42938"><path
         d="m 100.001,163.758 v -28.16 h 0.002 l 86.664,-49.6761 v 28.1601 l -16.853,9.658 -11.832,6.784 -2.133,1.223 z"
         fill="url(#paint0_linear_135_190)"
         id="path42936"
         style="fill:url(#linearGradient1687)" /></g><path
       d="M 13.3333,85.9199 V 114.08 l 86.6677,49.678 v -28.16 z"
       fill="#262864"
       id="path42940" /><path
       d="m 100.003,133.985 -85.2624,-48.8716 -1.4073,0.8064 86.6697,49.6782 86.664,-49.6762 -1.41,-0.8084 z"
       fill="#ffffff"
       id="path42942" /><path
       d="m 173.668,105.654 v 5.041 l -60.666,34.775 v -5.041 z"
       fill="#423a9b"
       id="path42944" /><path
       d="M 100.001,163.758 44.1511,131.745 42.0177,130.522 13.3333,114.08 V 85.9199 L 100.001,135.598 Z M 19.2033,98.5727 v 8.8673 l 74.9277,42.949 v -8.868 z"
       fill="#322F85"
       id="path42946"
       style="fill:#456095;fill-opacity:1" /><path
       d="M 94.131,150.389 19.2032,107.44 V 98.5727 L 94.131,141.521 Z"
       fill="#393293"
       id="path42948"
       style="fill:#37438c;fill-opacity:1" /><path
       d="m 74.7009,134.104 -15.6938,-8.998 -0.0019,1.858 15.6938,8.998 z"
       fill="#76d1cb"
       id="path42950" /><path
       d="m 56.7443,123.828 -4.2532,-2.437 -0.0019,1.858 4.2532,2.438 z"
       fill="#76d1cb"
       id="path42952" /><path
       d="m 36.8229,112.413 -8.6982,-4.989 -0.002,1.858 8.6983,4.989 z"
       fill="#76d1cb"
       id="path42954" /><path
       d="m 44.7637,116.964 -6.2927,-3.607 v 1.858 l 6.2908,3.607 z"
       fill="#76d1cb"
       id="path42956" /><path
       d="m 50.665,120.345 -4.2532,-2.437 -0.002,1.86 4.2532,2.437 z"
       fill="#76d1cb"
       id="path42958" /></g><defs
     id="defs43127"><linearGradient
       id="paint0_linear_135_190"
       x1="143.334"
       y1="146.374"
       x2="143.334"
       y2="87.5735"
       gradientUnits="userSpaceOnUse"><stop
         stop-color="#C5BAE3"
         id="stop43122"
         offset="0"
         style="stop-color:#bacde3;stop-opacity:1;" /><stop
         offset="1"
         stop-color="#ECE9F6"
         id="stop43124" /></linearGradient><linearGradient
       inkscape:collect="always"
       xlink:href="#paint0_linear_135_190"
       id="linearGradient1685"
       gradientUnits="userSpaceOnUse"
       x1="143.334"
       y1="146.374"
       x2="143.334"
       y2="87.5735" /><linearGradient
       inkscape:collect="always"
       xlink:href="#paint0_linear_135_190"
       id="linearGradient1687"
       gradientUnits="userSpaceOnUse"
       x1="143.334"
       y1="146.374"
       x2="143.334"
       y2="87.5735" /></defs><g
     id="g1575"
     transform="translate(0.5520661,-19.966153)"><path
       d="M 100.001,135.598 13.3333,85.9199 99.999,36.2416 186.667,85.9218 Z"
       fill="#C1B8E2"
       id="path1383"
       style="fill:#8da4d7;fill-opacity:1" /><path
       d="M 100.001,122.034 36.9971,85.9199 99.9989,49.8078 163.001,85.9219 Z"
       fill="#423A9B"
       id="path1385"
       style="fill:#3d3a9b;fill-opacity:1" /><path
       d="m 99.9989,52.2524 60.8681,34.8918 2.134,-1.2224 -63.0021,-36.114 -63.0018,36.1121 2.1334,1.2223 z"
       fill="#ffffff"
       id="path1387" /><g
       mask="url(#mask0_135_190)"
       id="g1391"><path
         d="m 100.001,163.758 v -28.16 h 0.002 l 86.664,-49.6761 v 28.1601 l -16.853,9.658 -11.832,6.784 -2.133,1.223 z"
         fill="url(#paint0_linear_135_190)"
         id="path1389"
         style="fill:url(#linearGradient1685)" /></g><path
       d="M 13.3333,85.9199 V 114.08 l 86.6677,49.678 v -28.16 z"
       fill="#262864"
       id="path1393" /><path
       d="m 100.003,133.985 -85.2624,-48.8716 -1.4073,0.8064 86.6697,49.6782 86.664,-49.6762 -1.41,-0.8084 z"
       fill="#ffffff"
       id="path1395" /><path
       d="m 173.668,105.654 v 5.041 l -60.666,34.775 v -5.041 z"
       fill="#423a9b"
       id="path1397" /><path
       d="M 100.001,163.758 44.1511,131.745 42.0177,130.522 13.3333,114.08 V 85.9199 L 100.001,135.598 Z M 19.2033,98.5727 v 8.8673 l 74.9277,42.949 v -8.868 z"
       fill="#322F85"
       id="path1399"
       style="fill:#456095;fill-opacity:1" /><path
       d="M 94.131,150.389 19.2032,107.44 V 98.5727 L 94.131,141.521 Z"
       fill="#393293"
       id="path1401"
       style="fill:#37438c;fill-opacity:1" /><path
       d="m 74.7009,134.104 -15.6938,-8.998 -0.0019,1.858 15.6938,8.998 z"
       fill="#76d1cb"
       id="path1403" /><path
       d="m 56.7443,123.828 -4.2532,-2.437 -0.0019,1.858 4.2532,2.438 z"
       fill="#76d1cb"
       id="path1405" /><path
       d="m 36.8229,112.413 -8.6982,-4.989 -0.002,1.858 8.6983,4.989 z"
       fill="#76d1cb"
       id="path1407" /><path
       d="m 44.7637,116.964 -6.2927,-3.607 v 1.858 l 6.2908,3.607 z"
       fill="#76d1cb"
       id="path1409" /><path
       d="m 50.665,120.345 -4.2532,-2.437 -0.002,1.86 4.2532,2.437 z"
       fill="#76d1cb"
       id="path1411" /><path
       d="m 100.089,62.2059 -2.752,-1.5759 2.752,-1.578 2.752,1.578 z"
       fill="#76d1cb"
       id="path1413" /><path
       d="m 105.593,65.3618 -2.752,-1.5779 2.752,-1.578 2.752,1.578 z"
       fill="#4447a5"
       id="path1415" /><path
       d="m 111.099,68.5157 -2.754,-1.5759 2.754,-1.578 2.75,1.578 z"
       fill="#4c7ebe"
       id="path1417" /><path
       d="m 116.601,71.6716 -2.752,-1.5779 2.752,-1.578 2.752,1.578 z"
       fill="#76d1cb"
       id="path1419" /><path
       d="m 122.107,74.8276 -2.754,-1.5779 2.754,-1.578 2.75,1.578 z"
       fill="#4c7ebe"
       id="path1421" /><path
       d="m 127.609,77.9816 -2.752,-1.5761 2.752,-1.5779 2.754,1.5779 z"
       fill="#76d1cb"
       id="path1423" /><path
       d="m 133.115,81.1375 -2.752,-1.578 2.752,-1.576 2.752,1.576 z"
       fill="#76d1cb"
       id="path1425" /><path
       d="m 138.617,84.2914 -2.75,-1.576 2.75,-1.578 2.754,1.578 z"
       fill="#76d1cb"
       id="path1427" /><path
       d="m 144.123,87.4473 -2.754,-1.578 2.754,-1.576 2.752,1.576 z"
       fill="#4447a5"
       id="path1429" /><path
       d="m 94.5616,65.3755 -2.7519,-1.5779 2.7519,-1.578 2.7539,1.578 z"
       fill="#76d1cb"
       id="path1431" /><path
       d="m 100.067,68.5294 -2.7515,-1.5779 2.7515,-1.576 2.752,1.576 z"
       fill="#76d1cb"
       id="path1433" /><path
       d="m 105.57,71.6853 -2.75,-1.5779 2.75,-1.578 2.753,1.578 z"
       fill="#76d1cb"
       id="path1435" /><path
       d="m 111.075,74.8392 -2.752,-1.5779 2.752,-1.576 2.752,1.576 z"
       fill="#76d1cb"
       id="path1437" /><path
       d="m 116.579,77.9951 -2.752,-1.5779 2.752,-1.578 2.752,1.578 z"
       fill="#76d1cb"
       id="path1439" /><path
       d="m 122.083,81.149 -2.752,-1.5779 2.752,-1.576 2.752,1.576 z"
       fill="#76d1cb"
       id="path1441" /><path
       d="m 127.589,84.3051 -2.754,-1.578 2.754,-1.5779 2.75,1.5779 z"
       fill="#76d1cb"
       id="path1443" /><path
       d="m 133.091,87.4608 -2.752,-1.5799 2.752,-1.576 2.752,1.578 z"
       fill="#76d1cb"
       id="path1445" /><path
       d="m 138.597,90.6149 -2.754,-1.578 2.754,-1.576 2.75,1.5779 z"
       fill="#76d1cb"
       id="path1447" /><path
       d="m 89.0362,68.5431 -2.752,-1.578 2.752,-1.5779 2.7519,1.5779 z"
       fill="#76d1cb"
       id="path1449" /><path
       d="m 94.542,71.6969 -2.754,-1.576 2.754,-1.578 2.75,1.578 z"
       fill="#76d1cb"
       id="path1451" /><path
       d="m 100.044,74.8529 -2.752,-1.578 2.752,-1.5779 2.752,1.5779 z"
       fill="#76d1cb"
       id="path1453" /><path
       d="m 105.55,78.0068 -2.754,-1.5759 2.754,-1.578 2.75,1.578 z"
       fill="#4447a5"
       id="path1455" /><path
       d="m 111.052,81.1627 -2.752,-1.5779 2.752,-1.578 2.754,1.578 z"
       fill="#4c7ebe"
       id="path1457" /><path
       d="m 116.558,84.3167 -2.752,-1.576 2.752,-1.578 2.752,1.578 z"
       fill="#4c7ebe"
       id="path1459" /><path
       d="m 122.06,87.4725 -2.75,-1.5779 2.75,-1.578 2.754,1.578 z"
       fill="#76d1cb"
       id="path1461" /><path
       d="m 127.566,90.6265 -2.752,-1.576 2.752,-1.578 2.752,1.578 z"
       fill="#76d1cb"
       id="path1463" /><path
       d="m 133.068,93.7825 -2.75,-1.578 2.75,-1.576 2.754,1.576 z"
       fill="#76d1cb"
       id="path1465" /><path
       d="m 83.5105,71.7104 -2.7519,-1.5779 2.7519,-1.578 2.752,1.578 z"
       fill="#4c7ebe"
       id="path1467" /><path
       d="m 89.0125,74.8665 -2.75,-1.578 2.75,-1.5779 2.7539,1.5779 z"
       fill="#4c7ebe"
       id="path1469" /><path
       d="m 94.5185,78.0205 -2.752,-1.578 2.752,-1.5759 2.752,1.5759 z"
       fill="#4447a5"
       id="path1471" /><path
       d="m 100.024,81.1764 -2.7535,-1.578 2.7515,-1.5779 2.752,1.5779 z"
       fill="#76d1cb"
       id="path1473" /><path
       d="m 105.526,84.3302 -2.752,-1.578 2.752,-1.576 2.752,1.576 z"
       fill="#76d1cb"
       id="path1475" /><path
       d="m 111.032,87.4862 -2.754,-1.578 2.754,-1.5779 2.75,1.5779 z"
       fill="#76d1cb"
       id="path1477" /><path
       d="m 116.534,90.6401 -2.752,-1.5779 2.752,-1.576 2.752,1.576 z"
       fill="#4c7ebe"
       id="path1479" /><path
       d="m 122.04,93.796 -2.754,-1.5779 2.754,-1.578 2.75,1.578 z"
       fill="#76d1cb"
       id="path1481" /><path
       d="m 127.542,96.9501 -2.752,-1.578 2.752,-1.576 2.752,1.576 z"
       fill="#76d1cb"
       id="path1483" /><path
       d="m 77.985,74.8781 -2.7539,-1.578 2.7539,-1.5779 2.7501,1.5779 z"
       fill="#76d1cb"
       id="path1485" /><path
       d="m 83.4871,78.0321 -2.752,-1.576 2.752,-1.578 2.7539,1.578 z"
       fill="#76d1cb"
       id="path1487" /><path
       d="m 88.993,81.1881 -2.752,-1.578 2.752,-1.5779 2.7499,1.5779 z"
       fill="#76d1cb"
       id="path1489" /><path
       d="m 94.4949,84.3419 -2.7499,-1.576 2.7499,-1.5779 2.754,1.5779 z"
       fill="#76d1cb"
       id="path1491" /><path
       d="m 100.001,87.4978 -2.752,-1.576 2.752,-1.5799 2.752,1.5799 z"
       fill="#76d1cb"
       id="path1493" /><path
       d="m 105.503,90.6537 -2.75,-1.578 2.75,-1.5779 2.754,1.5779 z"
       fill="#76d1cb"
       id="path1495" /><path
       d="m 111.009,93.8077 -2.752,-1.576 2.752,-1.5779 2.752,1.5779 z"
       fill="#76d1cb"
       id="path1497" /><path
       d="m 116.513,96.9636 -2.752,-1.578 2.75,-1.5779 2.754,1.5779 z"
       fill="#76d1cb"
       id="path1499" /><path
       d="m 122.017,100.118 -2.752,-1.5764 2.752,-1.5779 2.752,1.5779 z"
       fill="#76d1cb"
       id="path1501" /><path
       d="m 72.4577,78.0457 -2.752,-1.578 2.752,-1.576 2.752,1.576 z"
       fill="#76d1cb"
       id="path1503" /><path
       d="m 77.9616,81.2015 -2.7519,-1.5779 2.7519,-1.578 2.752,1.578 z"
       fill="#76d1cb"
       id="path1505" /><path
       d="m 83.4675,84.3555 -2.7539,-1.578 2.7519,-1.576 2.752,1.576 z"
       fill="#4c7ebe"
       id="path1507" /><path
       d="m 88.9695,87.5115 -2.752,-1.578 2.752,-1.5779 2.7519,1.5779 z"
       fill="#76d1cb"
       id="path1509" /><path
       d="m 94.4754,90.6653 -2.7539,-1.578 2.7539,-1.576 2.7501,1.576 z"
       fill="#4447a5"
       id="path1511" /><path
       d="m 99.9773,93.8213 -2.752,-1.578 2.752,-1.5779 2.7517,1.5779 z"
       fill="#76d1cb"
       id="path1513" /><path
       d="m 105.483,96.9752 -2.754,-1.578 2.754,-1.5759 2.75,1.5759 z"
       fill="#76d1cb"
       id="path1515" /><path
       d="m 110.985,100.131 -2.75,-1.5777 2.75,-1.578 2.752,1.578 z"
       fill="#76d1cb"
       id="path1517" /><path
       d="m 116.491,103.287 -2.754,-1.578 2.754,-1.578 2.752,1.578 z"
       fill="#76d1cb"
       id="path1519" /><path
       d="m 66.9301,81.2131 -2.7519,-1.5759 2.7519,-1.578 2.754,1.578 z"
       fill="#76d1cb"
       id="path1521" /><path
       d="m 72.4363,84.3691 -2.752,-1.5779 2.752,-1.578 2.7519,1.578 z"
       fill="#76d1cb"
       id="path1523" /><path
       d="m 77.9381,87.5231 -2.75,-1.576 2.75,-1.578 2.7519,1.578 z"
       fill="#4c7ebe"
       id="path1525" /><path
       d="m 83.444,90.679 -2.752,-1.578 2.752,-1.5779 2.752,1.5779 z"
       fill="#76d1cb"
       id="path1527" /><path
       d="m 88.946,93.8329 -2.75,-1.576 2.75,-1.578 2.754,1.578 z"
       fill="#76d1cb"
       id="path1529" /><path
       d="M 94.452,96.9889 91.7,95.411 l 2.752,-1.578 2.752,1.578 z"
       fill="#4447a5"
       id="path1531" /><path
       d="m 99.9557,100.143 -2.7518,-1.5762 2.7499,-1.5779 2.7542,1.5779 z"
       fill="#4c7ebe"
       id="path1533" /><path
       d="m 105.46,103.299 -2.752,-1.578 2.752,-1.578 2.752,1.578 z"
       fill="#76d1cb"
       id="path1535" /><path
       d="m 110.964,106.453 -2.752,-1.576 2.752,-1.578 2.752,1.578 z"
       fill="#4447a5"
       id="path1537" /><path
       d="m 61.4046,84.3827 -2.752,-1.578 2.752,-1.5779 2.752,1.5779 z"
       fill="#76d1cb"
       id="path1539" /><path
       d="m 66.9107,87.5367 -2.754,-1.5779 2.754,-1.578 2.75,1.578 z"
       fill="#4c7ebe"
       id="path1541" /><path
       d="m 72.4125,90.6926 -2.7519,-1.5779 2.7519,-1.578 2.752,1.578 z"
       fill="#76d1cb"
       id="path1543" /><path
       d="m 77.9185,93.8464 -2.7539,-1.5779 2.7539,-1.576 2.7501,1.576 z"
       fill="#76d1cb"
       id="path1545" /><path
       d="m 83.4205,97.0024 -2.7519,-1.5779 2.7519,-1.578 2.752,1.578 z"
       fill="#76d1cb"
       id="path1547" /><path
       d="m 88.9265,100.156 -2.754,-1.5774 2.754,-1.5761 2.752,1.5761 z"
       fill="#76d1cb"
       id="path1549" /><path
       d="m 94.4285,103.312 -2.7499,-1.577 2.7499,-1.578 2.752,1.578 z"
       fill="#76d1cb"
       id="path1551" /><path
       d="m 99.9345,106.466 -2.7539,-1.578 2.7539,-1.576 2.7515,1.576 z"
       fill="#4c7ebe"
       id="path1553" /><path
       d="m 105.436,109.622 -2.75,-1.578 2.75,-1.578 2.752,1.578 z"
       fill="#76d1cb"
       id="path1555" /><path
       d="m 55.8791,87.5483 -2.752,-1.576 2.752,-1.5779 2.752,1.5779 z"
       fill="#76d1cb"
       id="path1557" /><path
       d="m 61.3813,90.7043 -2.7501,-1.5779 2.7501,-1.578 2.7539,1.578 z"
       fill="#4447a5"
       id="path1559" /><path
       d="m 66.8872,93.8582 -2.7519,-1.5761 2.7519,-1.5779 2.752,1.5779 z"
       fill="#76d1cb"
       id="path1561" /><path
       d="m 72.389,97.0142 -2.7499,-1.578 2.7499,-1.5779 2.7539,1.5779 z"
       fill="#76d1cb"
       id="path1563" /><path
       d="m 77.8951,100.17 -2.7519,-1.5779 2.7519,-1.578 2.752,1.578 z"
       fill="#76d1cb"
       id="path1565" /><path
       d="m 83.3991,103.324 -2.7519,-1.576 2.7519,-1.578 2.752,1.578 z"
       fill="#76d1cb"
       id="path1567" /><path
       d="m 88.903,106.48 -2.752,-1.578 2.752,-1.578 2.752,1.578 z"
       fill="#4c7ebe"
       id="path1569" /><path
       d="m 94.407,109.634 -2.752,-1.576 2.752,-1.578 2.752,1.578 z"
       fill="#76d1cb"
       id="path1571" /><path
       d="m 99.911,112.79 -2.7519,-1.578 2.7519,-1.578 2.752,1.578 z"
       fill="#76d1cb"
       id="path1573" /></g></svg>
