<?xml version="1.0" encoding="UTF-8" standalone="no"?>
<svg
   width="200"
   height="200"
   viewBox="0 0 200 200"
   fill="none"
   version="1.1"
   id="svg25480"
   sodipodi:docname="img-ssd.svg"
   xml:space="preserve"
   inkscape:version="1.2.2 (1:1.2.2+202212051552+b0a8486541)"
   xmlns:inkscape="http://www.inkscape.org/namespaces/inkscape"
   xmlns:sodipodi="http://sodipodi.sourceforge.net/DTD/sodipodi-0.dtd"
   xmlns="http://www.w3.org/2000/svg"
   xmlns:svg="http://www.w3.org/2000/svg"><sodipodi:namedview
     id="namedview25482"
     pagecolor="#505050"
     bordercolor="#eeeeee"
     borderopacity="1"
     inkscape:showpageshadow="0"
     inkscape:pageopacity="0"
     inkscape:pagecheckerboard="0"
     inkscape:deskcolor="#505050"
     showgrid="false"
     inkscape:zoom="2.7647875"
     inkscape:cx="71.07237"
     inkscape:cy="94.220622"
     inkscape:window-width="1920"
     inkscape:window-height="1016"
     inkscape:window-x="0"
     inkscape:window-y="0"
     inkscape:window-maximized="1"
     inkscape:current-layer="svg25480" /><mask
     id="mask0_135_189"
     style="mask-type:luminance"
     maskUnits="userSpaceOnUse"
     x="85"
     y="10"
     width="105"
     height="59"><path
       d="M189.375 68.6602C189.426 68.311 189.337 67.9 189.157 67.5105L187.512 68.2062C187.272 67.7576 186.91 67.352 186.499 67.125L86.4252 11.8357C86.1707 11.6961 85.9285 11.6276 85.713 11.6276C85.5759 11.6276 85.4499 11.6544 85.3386 11.7082L86.8319 10.8889L86.8292 10.8969C86.9613 10.8137 87.1177 10.7694 87.2914 10.7694C87.504 10.7694 87.7432 10.8352 87.9948 10.9749L188.069 66.2628C188.879 66.71 189.495 67.849 189.375 68.6602Z"
       fill="white"
       id="path24765" /></mask><g
     mask="url(#mask0_135_189)"
     id="g24770"><path
       d="M189.375 68.6602C189.426 68.311 189.337 67.9 189.157 67.5105L187.512 68.2062C187.272 67.7576 186.91 67.352 186.499 67.125L86.4252 11.8357C86.1707 11.6961 85.9285 11.6276 85.713 11.6276C85.5759 11.6276 85.4499 11.6544 85.3386 11.7082L86.8319 10.8889L86.8292 10.8969C86.9613 10.8137 87.1177 10.7694 87.2914 10.7694C87.504 10.7694 87.7432 10.8352 87.9948 10.9749L188.069 66.2628C188.879 66.71 189.495 67.849 189.375 68.6602Z"
       fill="url(#paint0_linear_135_189)"
       id="path24768" /></g><mask
     id="mask1_135_189"
     style="mask-type:luminance"
     maskUnits="userSpaceOnUse"
     x="174"
     y="67"
     width="16"
     height="75"><path
       d="M174.786 141.874C174.984 141.743 175.123 141.519 175.177 141.211L187.798 69.5571C187.871 69.1501 187.752 68.6559 187.512 68.2073V68.2059L189.157 67.5103C189.337 67.8997 189.426 68.3107 189.375 68.6599C189.375 68.6613 189.375 68.6626 189.375 68.6626C189.373 68.6653 189.373 68.6666 189.373 68.668C189.373 68.6707 189.373 68.672 189.372 68.6733C189.372 68.6747 189.372 68.676 189.372 68.6774C189.372 68.68 189.37 68.6827 189.37 68.6854C189.37 68.6895 189.369 68.6921 189.369 68.6948L176.747 140.349C176.681 140.724 176.489 140.971 176.221 141.08H176.222L174.786 141.874Z"
       fill="white"
       id="path24772" /></mask><g
     mask="url(#mask1_135_189)"
     id="g24777"
     style="fill:#9dabc7;fill-opacity:1"><path
       d="M174.786 141.874C174.984 141.743 175.123 141.519 175.177 141.211L187.798 69.5571C187.871 69.1501 187.752 68.6559 187.512 68.2073V68.2059L189.157 67.5103C189.337 67.8997 189.426 68.3107 189.375 68.6599C189.375 68.6613 189.375 68.6626 189.375 68.6626C189.373 68.6653 189.373 68.6666 189.373 68.668C189.373 68.6707 189.373 68.672 189.372 68.6733C189.372 68.6747 189.372 68.676 189.372 68.6774C189.372 68.68 189.37 68.6827 189.37 68.6854C189.37 68.6895 189.369 68.6921 189.369 68.6948L176.747 140.349C176.681 140.724 176.489 140.971 176.221 141.08H176.222L174.786 141.874Z"
       fill="url(#paint1_linear_135_189)"
       id="path24775"
       style="fill:#82a4e4;fill-opacity:1" /></g><path
     d="M73.5336 86.5078L173.607 141.797C174.381 142.224 175.042 141.977 175.177 141.212L187.798 69.5572C187.943 68.7433 187.321 67.5788 186.499 67.1249L86.4252 11.8356C85.6527 11.4085 84.9915 11.6556 84.8549 12.4212L72.2344 84.0755C72.0896 84.8894 72.7113 86.0538 73.5336 86.5078Z"
     fill="#262864"
     id="path24779" /><mask
     id="mask2_135_189"
     style="mask-type:luminance"
     maskUnits="userSpaceOnUse"
     x="10"
     y="92"
     width="164"
     height="89"><path
       d="M10.6266 120.432L16.0884 123.161L70.8505 92.9062C71.7672 92.3998 73.3682 92.4629 74.4251 93.0485L168.876 145.23C169.78 144.746 173.901 142.85 173.901 142.85L171.902 147.834L171.894 147.829C171.811 148.05 171.634 148.256 171.335 148.421L113.659 180.286C112.743 180.793 111.143 180.729 110.084 180.145L13.4316 126.746C12.9968 126.507 12.7304 126.215 12.6208 125.921L12.613 125.926L10.6266 120.432Z"
       fill="white"
       id="path24785" /></mask><g
     mask="url(#mask2_135_189)"
     id="g24790"><path
       d="M10.6266 120.432L16.0884 123.161L70.8505 92.9062C71.7672 92.3998 73.3682 92.4629 74.4251 93.0485L168.876 145.23C169.78 144.746 173.901 142.85 173.901 142.85L171.902 147.834L171.894 147.829C171.811 148.05 171.634 148.256 171.335 148.421L113.659 180.286C112.743 180.793 111.143 180.729 110.084 180.145L13.4316 126.746C12.9968 126.507 12.7304 126.215 12.6208 125.921L12.613 125.926L10.6266 120.432Z"
       fill="url(#paint2_linear_135_189)"
       id="path24788" /></g><mask
     id="mask3_135_189"
     style="mask-type:luminance"
     maskUnits="userSpaceOnUse"
     x="10"
     y="86"
     width="164"
     height="91"><path
       d="M11.4705 121.291L110.528 176.017C111.613 176.617 113.252 176.683 114.191 176.163L173.302 143.506C174.241 142.987 174.123 142.081 173.039 141.482L73.9823 86.755C72.8978 86.156 71.2581 86.0915 70.3189 86.6099L11.2085 119.267C10.2694 119.786 10.3867 120.692 11.4705 121.291Z"
       fill="white"
       id="path24792" /></mask><g
     mask="url(#mask3_135_189)"
     id="g24797"><path
       d="M11.4705 121.291L110.528 176.017C111.613 176.617 113.252 176.683 114.191 176.163L173.302 143.506C174.241 142.987 174.123 142.081 173.039 141.482L73.9823 86.755C72.8978 86.156 71.2581 86.0915 70.3189 86.6099L11.2085 119.267C10.2694 119.786 10.3867 120.692 11.4705 121.291Z"
       fill="url(#paint3_linear_135_189)"
       id="path24795"
       style="fill:#8da4d7;fill-opacity:1" /></g><path
     d="M11.4715 120.867L110.528 175.594C111.612 176.191 113.252 176.257 114.191 175.739L173.302 143.081C173.631 142.898 173.825 142.666 173.897 142.419C174.002 142.822 173.817 143.221 173.302 143.505L114.191 176.163C113.252 176.683 111.612 176.617 110.528 176.017L11.4715 121.291C10.7681 120.903 10.4793 120.388 10.613 119.93C10.6991 120.263 10.9809 120.596 11.4715 120.867Z"
     fill="white"
     id="path24799" /><path
     d="M140.406 164.18V163.141L140.266 163.039L136.435 165.155L136.295 165.412V166.45L136.435 166.552L140.266 164.434L140.406 164.18Z"
     fill="#262864"
     id="path24801" /><path
     d="M134.677 167.345V166.305L134.537 166.204L130.705 168.321L130.565 168.576V169.617L130.705 169.718L134.537 167.601L134.677 167.345Z"
     fill="#262864"
     id="path24803" /><path
     d="M157.891 140.447L75.5753 94.9688C75.026 94.6666 74.3501 94.6666 73.8018 94.9702L44.4886 111.198C44.0681 111.432 44.0681 112.013 44.4898 112.246L126.767 157.703C127.315 158.005 127.991 158.005 128.539 157.703L157.891 141.495C158.312 141.261 158.312 140.68 157.891 140.447Z"
     fill="#B3ABDC"
     id="path24805"
     style="fill:#6f84bf;fill-opacity:1" /><path
     d="M157.891 141.495L157.596 141.657L75.5753 96.3428C75.026 96.0393 74.3501 96.0393 73.8018 96.3428L44.7837 112.408L44.4898 112.246C44.0681 112.014 44.0681 111.432 44.4886 111.198L73.8018 94.9702C74.3501 94.6667 75.026 94.6667 75.5753 94.9689L157.891 140.447C158.312 140.68 158.312 141.261 157.891 141.495Z"
     fill="#9197D0"
     id="path24807"
     style="fill:#bdc6d9;fill-opacity:1" /><path
     d="M71.5896 99.08L143.092 138.584L146.271 136.828L74.7683 97.3233L71.5896 99.08Z"
     fill="#262864"
     id="path24809" /><path
     d="M63.7947 103.386L130.862 140.439L134.041 138.684L66.9745 101.631L63.7947 103.386Z"
     fill="#262864"
     id="path24811" /><path
     d="M58.719 106.191L137.683 149.818L140.862 148.06L61.8977 104.435L58.719 106.191Z"
     fill="#262864"
     id="path24813" /><path
     d="M53.6422 108.996L132.607 152.622L135.786 150.865L56.8208 107.239L53.6422 108.996Z"
     fill="#262864"
     id="path24815" /><path
     d="M48.5654 111.8L127.529 155.426L130.709 153.67L51.7441 110.043L48.5654 111.8Z"
     fill="#262864"
     id="path24817" /><path
     d="M147.412 140.971L150.591 142.728L153.772 140.971L150.591 139.214L147.412 140.971Z"
     fill="#262864"
     id="path24819" /><path
     d="M136.2 143.387L142.798 147.034L145.977 145.277L139.379 141.632L136.2 143.387Z"
     fill="#262864"
     id="path24821" /><mask
     id="mask4_135_189"
     style="mask-type:luminance"
     maskUnits="userSpaceOnUse"
     x="49"
     y="128"
     width="43"
     height="24"><path
       d="M72.4054 151.452L50.2102 139.19C49.3423 138.711 49.3423 137.933 50.2102 137.455L65.3878 129.069C66.2552 128.59 67.6619 128.59 68.5293 129.069L90.7244 141.331C91.5918 141.811 91.5918 142.588 90.7244 143.068L75.5468 151.452C74.6795 151.932 73.2733 151.932 72.4054 151.452Z"
       fill="white"
       id="path24823" /></mask><g
     mask="url(#mask4_135_189)"
     id="g24828"><path
       d="M72.4054 151.452L50.2102 139.19C49.3423 138.711 49.3423 137.933 50.2102 137.455L65.3878 129.069C66.2552 128.59 67.6619 128.59 68.5293 129.069L90.7244 141.331C91.5918 141.811 91.5918 142.588 90.7244 143.068L75.5468 151.452C74.6795 151.932 73.2733 151.932 72.4054 151.452Z"
       fill="url(#paint4_linear_135_189)"
       id="path24826" /></g><path
     d="M90.7245 142.042L68.5293 129.779C67.6619 129.3 66.2552 129.3 65.3878 129.779L50.2102 138.164C49.9426 138.313 49.7671 138.49 49.6653 138.677C49.4355 138.258 49.6104 137.785 50.2102 137.455L65.3878 129.069C66.2552 128.59 67.6619 128.59 68.5293 129.069L90.7245 141.331C91.3238 141.663 91.4992 142.136 91.2704 142.555C91.168 142.368 90.9925 142.189 90.7245 142.042Z"
     fill="#9197D0"
     id="path24830"
     style="fill:#bdc6d9;fill-opacity:1" /><mask
     id="mask5_135_189"
     style="mask-type:luminance"
     maskUnits="userSpaceOnUse"
     x="75"
     y="16"
     width="110"
     height="122"><path
       d="M87.7332 16.4085L184.197 69.7034L172.235 137.188L75.8358 83.929L87.7332 16.4085Z"
       fill="white"
       id="path24832" /></mask><mask
     id="mask7_135_189"
     style="mask-type:luminance"
     maskUnits="userSpaceOnUse"
     x="75"
     y="16"
     width="110"
     height="122"><path
       d="M87.7332 16.4085L184.197 69.7034L172.235 137.188L75.8358 83.929L87.7332 16.4085Z"
       fill="white"
       id="path24844" /></mask><mask
     id="mask9_135_189"
     style="mask-type:luminance"
     maskUnits="userSpaceOnUse"
     x="75"
     y="16"
     width="110"
     height="122"><path
       d="M87.7332 16.4085L184.197 69.7034L172.235 137.188L75.8358 83.929L87.7332 16.4085Z"
       fill="white"
       id="path24856" /></mask><path
     d="M128.186 60.3694L128.542 58.3858L130.337 59.3796L129.981 61.3633L128.186 60.3694Z"
     fill="#76D1CB"
     id="path24881" /><mask
     id="mask10_135_189"
     style="mask-type:luminance"
     maskUnits="userSpaceOnUse"
     x="127"
     y="62"
     width="3"
     height="4"><path
       d="M129.269 65.3319L127.473 64.338L127.829 62.3544L129.624 63.3482L129.269 65.3319Z"
       fill="white"
       id="path24883" /></mask><g
     mask="url(#mask10_135_189)"
     id="g24888"><path
       d="M129.269 65.3319L127.473 64.338L127.829 62.3544L129.624 63.3482L129.269 65.3319Z"
       fill="url(#paint7_linear_135_189)"
       id="path24886" /></g><mask
     id="mask11_135_189"
     style="mask-type:luminance"
     maskUnits="userSpaceOnUse"
     x="126"
     y="66"
     width="3"
     height="4"><path
       d="M128.555 69.3007L126.76 68.3068L127.116 66.3218L128.911 67.3156L128.555 69.3007Z"
       fill="white"
       id="path24890" /></mask><g
     mask="url(#mask11_135_189)"
     id="g24895"><path
       d="M128.555 69.3007L126.76 68.3068L127.116 66.3218L128.911 67.3156L128.555 69.3007Z"
       fill="url(#paint8_linear_135_189)"
       id="path24893" /></g><path
     d="M126.048 72.2756L126.405 70.2905L128.198 71.2844L127.842 73.2694L126.048 72.2756Z"
     fill="#76D1CB"
     id="path24897" /><path
     d="M127.13 77.2382L125.334 76.243L125.536 75.1255L127.331 76.1181L127.13 77.2382Z"
     fill="#497AB7"
     id="path24899" /><path
     d="M127.331 76.118L125.536 75.1255L125.692 74.2592L127.485 75.2531L127.331 76.118Z"
     fill="#4778B5"
     id="path24901" /><path
     d="M124.622 80.2116L124.977 78.2279L126.774 79.2218L126.417 81.2054L124.622 80.2116Z"
     fill="#76D1CB"
     id="path24903" /><path
     d="M123.909 84.1804L124.265 82.1953L126.061 83.1905L125.704 85.1742L123.909 84.1804Z"
     fill="#76D1CB"
     id="path24905" /><path
     d="M123.196 88.1491L123.553 86.164L125.348 87.1579L124.991 89.1429L123.196 88.1491Z"
     fill="#76D1CB"
     id="path24907" /><path
     d="M124.334 92.7987L122.539 91.8075L122.84 90.1327L124.635 91.1266L124.334 92.7987Z"
     fill="#3F429D"
     id="path24909" /><path
     d="M124.278 93.1102L122.483 92.1164L122.539 91.8074L124.334 92.7986L124.278 93.1102Z"
     fill="#33378F"
     id="path24911" /><path
     d="M124.581 58.3737L124.938 56.39L126.733 57.3839L126.376 59.3676L124.581 58.3737Z"
     fill="#76D1CB"
     id="path24913" /><path
     d="M123.869 62.3425L124.225 60.3574L126.02 61.3513L125.664 63.3363L123.869 62.3425Z"
     fill="#76D1CB"
     id="path24915" /><path
     d="M123.155 66.3096L123.512 64.3259L125.307 65.3198L124.95 67.3048L123.155 66.3096Z"
     fill="#76D1CB"
     id="path24917" /><path
     d="M122.442 70.2785L122.799 68.2948L124.594 69.2887L124.238 71.2723L122.442 70.2785Z"
     fill="#76D1CB"
     id="path24919" /><path
     d="M121.729 74.247L122.086 72.2619L123.881 73.2572L123.525 75.2408L121.729 74.247Z"
     fill="#76D1CB"
     id="path24921" /><path
     d="M121.017 78.216L121.373 76.2323L123.168 77.2262L122.812 79.2098L121.017 78.216Z"
     fill="#76D1CB"
     id="path24923" /><path
     d="M120.303 82.1845L120.66 80.1995L122.455 81.1933L122.099 83.1783L120.303 82.1845Z"
     fill="#76D1CB"
     id="path24925" /><path
     d="M119.592 86.1519L119.947 84.1682L121.742 85.1621L121.386 87.1471L119.592 86.1519Z"
     fill="#76D1CB"
     id="path24927" /><path
     d="M118.878 90.1208L119.235 88.1371L121.029 89.1309L120.674 91.1146L118.878 90.1208Z"
     fill="#76D1CB"
     id="path24929" /><path
     d="M120.976 56.3779L121.332 54.3928L123.127 55.388L122.771 57.3717L120.976 56.3779Z"
     fill="#76D1CB"
     id="path24931" /><path
     d="M120.264 60.3452L120.619 58.3615L122.414 59.3554L122.058 61.3405L120.264 60.3452Z"
     fill="#76D1CB"
     id="path24933" /><path
     d="M119.551 64.3152L119.908 62.3302L121.701 63.3241L121.346 65.3077L119.551 64.3152Z"
     fill="#76D1CB"
     id="path24935" /><mask
     id="mask12_135_189"
     style="mask-type:luminance"
     maskUnits="userSpaceOnUse"
     x="118"
     y="66"
     width="3"
     height="4"><path
       d="M120.633 69.2765L118.837 68.2826L119.193 66.2976L120.99 67.2928L120.633 69.2765Z"
       fill="white"
       id="path24937" /></mask><g
     mask="url(#mask12_135_189)"
     id="g24942"><path
       d="M120.633 69.2765L118.837 68.2826L119.193 66.2976L120.99 67.2928L120.633 69.2765Z"
       fill="url(#paint9_linear_135_189)"
       id="path24940" /></g><path
     d="M119.92 73.2451L118.125 72.2513L118.297 71.295C118.539 71.3205 118.778 71.3931 118.997 71.5126L120.12 72.1331L119.92 73.2451Z"
     fill="#497AB7"
     id="path24944" /><path
     d="M120.12 72.1332L118.997 71.5127C118.778 71.3932 118.539 71.3206 118.296 71.2951L118.482 70.2677L120.277 71.2602L120.12 72.1332Z"
     fill="#4778B5"
     id="path24946" /><path
     d="M119.207 77.2139L117.412 76.22L117.769 74.235L119.564 75.2288L119.207 77.2139Z"
     fill="#416FAE"
     id="path24948" /><path
     d="M116.699 80.1874L117.056 78.2037L118.851 79.1976L118.494 81.1826L116.699 80.1874Z"
     fill="#76D1CB"
     id="path24950" /><path
     d="M115.986 84.1561L116.343 82.1725L118.138 83.1663L117.781 85.15L115.986 84.1561Z"
     fill="#76D1CB"
     id="path24952" /><path
     d="M115.273 88.1248L115.63 86.1398L117.425 87.135L117.068 89.1187L115.273 88.1248Z"
     fill="#76D1CB"
     id="path24954" /><path
     d="M119.167 55.376L117.372 54.3808L117.728 52.3971L119.523 53.391L119.167 55.376Z"
     fill="#4270AF"
     id="path24956" /><path
     d="M118.454 59.3433L116.659 58.3508L117.015 56.3657L118.81 57.3596L118.454 59.3433Z"
     fill="#4270AF"
     id="path24958" /><path
     d="M116.162 61.1161L116.302 60.3345L116.939 60.6863L116.162 61.1161Z"
     fill="#343891"
     id="path24960" /><mask
     id="mask13_135_189"
     style="mask-type:luminance"
     maskUnits="userSpaceOnUse"
     x="115"
     y="60"
     width="4"
     height="4"><path
       d="M117.741 63.312L115.946 62.3182L116.162 61.1161L116.939 60.6863L118.097 61.3283L117.741 63.312Z"
       fill="white"
       id="path24962" /></mask><g
     mask="url(#mask13_135_189)"
     id="g24967"><path
       d="M117.741 63.312L115.946 62.3182L116.162 61.1161L116.939 60.6863L118.097 61.3283L117.741 63.312Z"
       fill="url(#paint10_linear_135_189)"
       id="path24965" /></g><path
     d="M115.233 66.2869L115.589 64.3032L117.384 65.2957L117.028 67.2808L115.233 66.2869Z"
     fill="#76D1CB"
     id="path24969" /><path
     d="M114.52 70.2556L114.876 68.2706L116.671 69.2658L116.315 71.2495L114.52 70.2556Z"
     fill="#76D1CB"
     id="path24971" /><path
     d="M113.807 74.223L114.163 72.2393L115.958 73.2331L115.602 75.2181L113.807 74.223Z"
     fill="#76D1CB"
     id="path24973" /><path
     d="M115.227 77.3053L113.432 76.3128L113.452 76.208L115.245 77.2019L115.227 77.3053Z"
     fill="#497AB7"
     id="path24975" /><path
     d="M114.89 79.1855L113.094 78.1917L113.432 76.3128L115.227 77.3053L114.89 79.1855Z"
     fill="#416FAE"
     id="path24977" /><path
     d="M112.381 82.1603L112.737 80.1766L114.534 81.1705L114.177 83.1542L112.381 82.1603Z"
     fill="#76D1CB"
     id="path24979" /><path
     d="M111.669 86.1292L112.024 84.1455L113.821 85.138L113.463 87.123L111.669 86.1292Z"
     fill="#76D1CB"
     id="path24981" /><path
     d="M113.767 52.3863L114.124 50.4013L115.918 51.3951L115.561 53.3788L113.767 52.3863Z"
     fill="#76D1CB"
     id="path24983" /><path
     d="M113.053 56.3538L113.409 54.3701L115.206 55.364L114.849 57.3477L113.053 56.3538Z"
     fill="#76D1CB"
     id="path24985" /><path
     d="M112.341 60.3224L112.696 58.3388L114.493 59.3326L114.136 61.3163L112.341 60.3224Z"
     fill="#76D1CB"
     id="path24987" /><path
     d="M111.628 64.2912L111.985 62.3062L113.778 63.3013L113.423 65.285L111.628 64.2912Z"
     fill="#76D1CB"
     id="path24989" /><path
     d="M110.915 68.2597L111.272 66.2747L113.067 67.2685L112.71 69.2535L110.915 68.2597Z"
     fill="#76D1CB"
     id="path24991" /><path
     d="M110.202 72.2272L110.559 70.2435L112.354 71.2374L111.997 73.2211L110.202 72.2272Z"
     fill="#76D1CB"
     id="path24993" /><path
     d="M109.489 76.1959L109.846 74.2123L111.641 75.2061L111.285 77.1898L109.489 76.1959Z"
     fill="#76D1CB"
     id="path24995" /><path
     d="M108.776 80.1647L109.133 78.1797L110.928 79.1735L110.572 81.1586L108.776 80.1647Z"
     fill="#76D1CB"
     id="path24997" /><path
     d="M108.063 84.1319L108.42 82.1482L110.215 83.142L109.859 85.1271L108.063 84.1319Z"
     fill="#76D1CB"
     id="path24999" /><path
     d="M110.162 50.3893L110.518 48.4056L112.313 49.3995L111.957 51.3832L110.162 50.3893Z"
     fill="#76D1CB"
     id="path25001" /><path
     d="M109.449 54.3578L109.805 52.3728L111.6 53.368L111.244 55.3517L109.449 54.3578Z"
     fill="#76D1CB"
     id="path25003" /><path
     d="M110.531 59.3204L108.736 58.3266L109.092 56.3416L110.887 57.3367L110.531 59.3204Z"
     fill="#4270AF"
     id="path25005" /><path
     d="M108.023 62.2953L108.379 60.3103L110.174 61.3042L109.818 63.2892L108.023 62.2953Z"
     fill="#76D1CB"
     id="path25007" /><path
     d="M107.362 65.9779L107.666 64.2789L109.05 65.0445L107.362 65.9779Z"
     fill="#343891"
     id="path25009" /><mask
     id="mask14_135_189"
     style="mask-type:luminance"
     maskUnits="userSpaceOnUse"
     x="107"
     y="65"
     width="3"
     height="3"><path
       d="M109.105 67.2567L107.31 66.2628L107.362 65.9781L109.05 65.0447L109.461 65.273L109.105 67.2567Z"
       fill="white"
       id="path25011" /></mask><g
     mask="url(#mask14_135_189)"
     id="g25016"><path
       d="M109.105 67.2567L107.31 66.2628L107.362 65.9781L109.05 65.0447L109.461 65.273L109.105 67.2567Z"
       fill="url(#paint11_linear_135_189)"
       id="path25014" /></g><path
     d="M106.597 70.2313L106.953 68.2476L108.748 69.2414L108.393 71.2251L106.597 70.2313Z"
     fill="#76D1CB"
     id="path25018" /><path
     d="M105.884 74.2001L106.24 72.2151L108.037 73.2103L107.679 75.194L105.884 74.2001Z"
     fill="#76D1CB"
     id="path25020" /><path
     d="M105.172 78.1674L105.529 76.1837L107.322 77.1776L106.966 79.1626L105.172 78.1674Z"
     fill="#76D1CB"
     id="path25022" /><path
     d="M104.459 82.1375L104.816 80.1524L106.611 81.1463L106.254 83.13L104.459 82.1375Z"
     fill="#76D1CB"
     id="path25024" /><path
     d="M106.556 48.3933L106.913 46.4083L108.709 47.4035L108.353 49.3872L106.556 48.3933Z"
     fill="#76D1CB"
     id="path25026" /><path
     d="M105.844 52.3622L106.201 50.3785L107.995 51.371L107.638 53.3561L105.844 52.3622Z"
     fill="#76D1CB"
     id="path25028" /><path
     d="M106.927 57.3232L105.131 56.3307L105.488 54.3457L107.283 55.3396L106.927 57.3232Z"
     fill="#4270AF"
     id="path25030" /><path
     d="M104.419 60.2983L104.775 58.3146L106.57 59.3084L106.214 61.2935L104.419 60.2983Z"
     fill="#76D1CB"
     id="path25032" /><path
     d="M103.706 64.2669L104.062 62.2832L105.857 63.2771L105.501 65.2607L103.706 64.2669Z"
     fill="#76D1CB"
     id="path25034" /><path
     d="M103.134 68.3136L102.992 68.2357L103.349 66.2507L105.106 67.2244L103.134 68.3136Z"
     fill="#343891"
     id="path25036" /><mask
     id="mask15_135_189"
     style="mask-type:luminance"
     maskUnits="userSpaceOnUse"
     x="103"
     y="67"
     width="3"
     height="3"><path
       d="M104.788 69.2295L103.134 68.3135L105.106 67.2243L105.144 67.2458L104.788 69.2295Z"
       fill="white"
       id="path25038" /></mask><g
     mask="url(#mask15_135_189)"
     id="g25043"><path
       d="M104.788 69.2295L103.134 68.3135L105.106 67.2243L105.144 67.2458L104.788 69.2295Z"
       fill="url(#paint12_linear_135_189)"
       id="path25041" /></g><mask
     id="mask16_135_189"
     style="mask-type:luminance"
     maskUnits="userSpaceOnUse"
     x="102"
     y="70"
     width="3"
     height="4"><path
       d="M104.075 73.1982L102.28 72.2044L102.636 70.2193L104.431 71.2132L104.075 73.1982Z"
       fill="white"
       id="path25045" /></mask><g
     mask="url(#mask16_135_189)"
     id="g25050"><path
       d="M104.075 73.1982L102.28 72.2044L102.636 70.2193L104.431 71.2132L104.075 73.1982Z"
       fill="url(#paint13_linear_135_189)"
       id="path25048" /></g><path
     d="M101.567 76.173L101.923 74.188L103.718 75.1819L103.362 77.1655L101.567 76.173Z"
     fill="#76D1CB"
     id="path25052" /><mask
     id="mask17_135_189"
     style="mask-type:luminance"
     maskUnits="userSpaceOnUse"
     x="101"
     y="78"
     width="1"
     height="2"><path
       d="M101.04 79.0996L101.21 78.1568L101.978 78.5812L101.04 79.0996Z"
       fill="white"
       id="path25054" /></mask><g
     mask="url(#mask17_135_189)"
     id="g25059"><path
       d="M101.04 79.0996L101.21 78.1568L101.978 78.5812L101.04 79.0996Z"
       fill="url(#paint14_linear_135_189)"
       id="path25057" /></g><path
     d="M102.649 81.1343L101.248 80.358L102.959 79.4112L102.649 81.1343Z"
     fill="#3F429D"
     id="path25061" /><path
     d="M101.248 80.358L100.854 80.1405L101.04 79.0996L101.978 78.5812L103.005 79.1506L102.959 79.4112L101.248 80.358Z"
     fill="#3C409A"
     id="path25063" /><path
     d="M102.952 46.3978L103.308 44.4141L105.103 45.4066L104.747 47.3916L102.952 46.3978Z"
     fill="#76D1CB"
     id="path25065" /><path
     d="M104.034 51.3588L102.239 50.3663L102.595 48.3812L104.39 49.3751L104.034 51.3588Z"
     fill="#4270AF"
     id="path25067" /><path
     d="M101.526 54.3338L101.882 52.3501L103.677 53.3439L103.321 55.329L101.526 54.3338Z"
     fill="#76D1CB"
     id="path25069" /><path
     d="M100.813 58.3024L101.169 56.3187L102.964 57.3126L102.608 59.2963L100.813 58.3024Z"
     fill="#76D1CB"
     id="path25071" /><path
     d="M100.1 62.2712L100.456 60.2861L102.253 61.2814L101.896 63.265L100.1 62.2712Z"
     fill="#76D1CB"
     id="path25073" /><path
     d="M99.3883 66.2399L99.7434 64.2562L101.538 65.2487L101.182 67.2338L99.3883 66.2399Z"
     fill="#76D1CB"
     id="path25075" /><path
     d="M98.6754 70.2087L99.0319 68.2236L100.826 69.2175L100.47 71.2012L98.6754 70.2087Z"
     fill="#76D1CB"
     id="path25077" /><mask
     id="mask18_135_189"
     style="mask-type:luminance"
     maskUnits="userSpaceOnUse"
     x="97"
     y="72"
     width="4"
     height="4"><path
       d="M99.7574 75.1698L97.9609 74.1759L98.3188 72.1923L100.114 73.1861L99.7574 75.1698Z"
       fill="white"
       id="path25079" /></mask><g
     mask="url(#mask18_135_189)"
     id="g25084"><path
       d="M99.7574 75.1698L97.9609 74.1759L98.3188 72.1923L100.114 73.1861L99.7574 75.1698Z"
       fill="url(#paint15_linear_135_189)"
       id="path25082" /></g><path
     d="M97.2493 78.1447L97.6058 76.161L99.4009 77.1549L99.0444 79.1385L97.2493 78.1447Z"
     fill="#76D1CB"
     id="path25086" /><path
     d="M99.3476 44.4018L99.7041 42.4167L101.498 43.4119L101.143 45.3956L99.3476 44.4018Z"
     fill="#76D1CB"
     id="path25088" /><path
     d="M100.43 49.3644L98.6346 48.3692L98.9911 46.3855L100.786 47.3794L100.43 49.3644Z"
     fill="#343891"
     id="path25090" /><path
     d="M97.9218 52.3378L98.2783 50.3541L100.073 51.348L99.7169 53.3317L97.9218 52.3378Z"
     fill="#76D1CB"
     id="path25092" /><path
     d="M97.2087 56.3066L97.5652 54.3229L99.3603 55.3167L99.0038 57.3004L97.2087 56.3066Z"
     fill="#76D1CB"
     id="path25094" /><path
     d="M96.4956 60.2753L96.8521 58.2903L98.6472 59.2841L98.2907 61.2692L96.4956 60.2753Z"
     fill="#76D1CB"
     id="path25096" /><path
     d="M95.7827 64.2427L96.1392 62.259L97.9343 63.2529L97.5778 65.2379L95.7827 64.2427Z"
     fill="#76D1CB"
     id="path25098" /><path
     d="M96.8649 69.2065L95.0698 68.2114L95.4263 66.2277L97.2214 67.2215L96.8649 69.2065Z"
     fill="#4270AF"
     id="path25100" /><path
     d="M94.3567 72.1801L94.7132 70.1964L96.5083 71.1903L96.1518 73.174L94.3567 72.1801Z"
     fill="#76D1CB"
     id="path25102" /><path
     d="M93.6437 76.1487L94.0002 74.1637L95.7953 75.1589L95.4388 77.1426L93.6437 76.1487Z"
     fill="#76D1CB"
     id="path25104" /><path
     d="M160.588 78.2399L160.945 76.2549L162.74 77.2487L162.384 79.2324L160.588 78.2399Z"
     fill="#76D1CB"
     id="path25106" /><mask
     id="mask19_135_189"
     style="mask-type:luminance"
     maskUnits="userSpaceOnUse"
     x="159"
     y="80"
     width="4"
     height="4"><path
       d="M161.672 83.2012L159.877 82.2073L160.233 80.2236L162.027 81.2175L161.672 83.2012Z"
       fill="white"
       id="path25108" /></mask><g
     mask="url(#mask19_135_189)"
     id="g25113"><path
       d="M161.672 83.2012L159.877 82.2073L160.233 80.2236L162.027 81.2175L161.672 83.2012Z"
       fill="url(#paint16_linear_135_189)"
       id="path25111" /></g><mask
     id="mask20_135_189"
     style="mask-type:luminance"
     maskUnits="userSpaceOnUse"
     x="159"
     y="84"
     width="3"
     height="4"><path
       d="M160.959 87.1698L159.164 86.176L159.52 84.1923L161.316 85.1861L160.959 87.1698Z"
       fill="white"
       id="path25115" /></mask><g
     mask="url(#mask20_135_189)"
     id="g25120"><path
       d="M160.959 87.1698L159.164 86.176L159.52 84.1923L161.316 85.1861L160.959 87.1698Z"
       fill="url(#paint17_linear_135_189)"
       id="path25118" /></g><path
     d="M158.451 90.1448L158.806 88.1598L160.603 89.155L160.246 91.1387L158.451 90.1448Z"
     fill="#76D1CB"
     id="path25122" /><path
     d="M159.533 95.1073L157.738 94.1135L157.933 93.0242L159.73 94.0168L159.533 95.1073Z"
     fill="#497AB7"
     id="path25124" /><path
     d="M159.73 94.0167L157.933 93.0242L158.095 92.1284L159.89 93.1222L159.73 94.0167Z"
     fill="#4778B5"
     id="path25126" /><path
     d="M157.025 98.0809L157.382 96.0972L159.177 97.091L158.82 99.0747L157.025 98.0809Z"
     fill="#76D1CB"
     id="path25128" /><path
     d="M156.312 102.049L156.669 100.066L158.464 101.06L158.107 103.043L156.312 102.049Z"
     fill="#76D1CB"
     id="path25130" /><path
     d="M155.599 106.018L155.955 104.035L157.751 105.027L157.394 107.012L155.599 106.018Z"
     fill="#76D1CB"
     id="path25132" /><path
     d="M156.732 110.699L154.937 109.706L155.243 108.002L157.038 108.997L156.732 110.699Z"
     fill="#3F429D"
     id="path25134" /><path
     d="M156.681 110.981L154.886 109.987L154.937 109.706L156.732 110.699L156.681 110.981Z"
     fill="#33378F"
     id="path25136" /><path
     d="M156.984 76.243L157.341 74.2593L159.136 75.2531L158.779 77.2382L156.984 76.243Z"
     fill="#76D1CB"
     id="path25138" /><path
     d="M156.271 80.2116L156.628 78.2279L158.423 79.2218L158.066 81.2054L156.271 80.2116Z"
     fill="#76D1CB"
     id="path25140" /><path
     d="M155.558 84.1804L155.915 82.1953L157.71 83.1905L157.354 85.1742L155.558 84.1804Z"
     fill="#76D1CB"
     id="path25142" /><path
     d="M154.845 88.1491L155.202 86.164L156.997 87.1579L156.642 89.1429L154.845 88.1491Z"
     fill="#76D1CB"
     id="path25144" /><path
     d="M154.132 92.1164L154.489 90.1327L156.284 91.1265L155.928 93.1102L154.132 92.1164Z"
     fill="#76D1CB"
     id="path25146" /><path
     d="M153.421 96.0849L153.776 94.1012L155.571 95.095L155.215 97.0787L153.421 96.0849Z"
     fill="#76D1CB"
     id="path25148" /><path
     d="M152.706 100.054L153.064 98.0689L154.858 99.064L154.503 101.048L152.706 100.054Z"
     fill="#76D1CB"
     id="path25150" /><path
     d="M151.993 104.022L152.35 102.037L154.146 103.033L153.79 105.016L151.993 104.022Z"
     fill="#76D1CB"
     id="path25152" /><path
     d="M151.282 107.991L151.638 106.006L153.433 107L153.076 108.985L151.282 107.991Z"
     fill="#76D1CB"
     id="path25154" /><path
     d="M153.38 74.247L153.737 72.2619L155.53 73.2572L155.175 75.2408L153.38 74.247Z"
     fill="#76D1CB"
     id="path25156" /><path
     d="M152.666 78.216L153.022 76.2323L154.819 77.2262L154.462 79.2098L152.666 78.216Z"
     fill="#76D1CB"
     id="path25158" /><path
     d="M151.954 82.1845L152.311 80.1995L154.106 81.1933L153.749 83.1783L151.954 82.1845Z"
     fill="#76D1CB"
     id="path25160" /><mask
     id="mask21_135_189"
     style="mask-type:luminance"
     maskUnits="userSpaceOnUse"
     x="151"
     y="84"
     width="3"
     height="4"><path
       d="M153.036 87.1456L151.241 86.1518L151.543 84.4703L153.338 85.4614L153.036 87.1456Z"
       fill="white"
       id="path25162" /></mask><g
     mask="url(#mask21_135_189)"
     id="g25167"><path
       d="M153.036 87.1456L151.241 86.1518L151.543 84.4703L153.338 85.4614L153.036 87.1456Z"
       fill="url(#paint18_linear_135_189)"
       id="path25165" /></g><mask
     id="mask22_135_189"
     style="mask-type:luminance"
     maskUnits="userSpaceOnUse"
     x="151"
     y="84"
     width="3"
     height="2"><path
       d="M153.338 85.4618L151.543 84.4706L151.598 84.1685L153.393 85.1623L153.338 85.4618Z"
       fill="white"
       id="path25169" /></mask><g
     mask="url(#mask22_135_189)"
     id="g25174"><path
       d="M153.338 85.4618L151.543 84.4706L151.598 84.1685L153.393 85.1623L153.338 85.4618Z"
       fill="url(#paint19_linear_135_189)"
       id="path25172" /></g><path
     d="M152.323 91.1146L150.528 90.1208L150.722 89.041L152.517 90.0335L152.323 91.1146Z"
     fill="#497AB7"
     id="path25176" /><path
     d="M152.517 90.0332L150.722 89.0407L150.885 88.1368L152.68 89.1307L152.517 90.0332Z"
     fill="#4778B5"
     id="path25178" /><path
     d="M151.61 95.0831L149.815 94.0893L150.172 92.1043L151.967 93.0994L151.61 95.0831Z"
     fill="#416FAE"
     id="path25180" /><path
     d="M149.102 98.0579L149.459 96.0729L151.254 97.0667L150.897 99.0518L149.102 98.0579Z"
     fill="#76D1CB"
     id="path25182" /><path
     d="M148.389 102.027L148.746 100.042L150.541 101.036L150.184 103.019L148.389 102.027Z"
     fill="#76D1CB"
     id="path25184" /><path
     d="M147.676 105.994L148.033 104.01L149.828 105.004L149.471 106.988L147.676 105.994Z"
     fill="#76D1CB"
     id="path25186" /><mask
     id="mask23_135_189"
     style="mask-type:luminance"
     maskUnits="userSpaceOnUse"
     x="149"
     y="70"
     width="3"
     height="4"><path
       d="M151.569 73.2451L149.774 72.2513L150.131 70.2676L151.926 71.2601L151.569 73.2451Z"
       fill="white"
       id="path25188" /></mask><g
     mask="url(#mask23_135_189)"
     id="g25193"><path
       d="M151.569 73.2451L149.774 72.2513L150.131 70.2676L151.926 71.2601L151.569 73.2451Z"
       fill="url(#paint20_linear_135_189)"
       id="path25191" /></g><mask
     id="mask24_135_189"
     style="mask-type:luminance"
     maskUnits="userSpaceOnUse"
     x="149"
     y="74"
     width="3"
     height="4"><path
       d="M150.857 77.2139L149.062 76.22L149.418 74.235L151.213 75.2288L150.857 77.2139Z"
       fill="white"
       id="path25195" /></mask><g
     mask="url(#mask24_135_189)"
     id="g25200"><path
       d="M150.857 77.2139L149.062 76.22L149.418 74.235L151.213 75.2288L150.857 77.2139Z"
       fill="url(#paint21_linear_135_189)"
       id="path25198" /></g><mask
     id="mask25_135_189"
     style="mask-type:luminance"
     maskUnits="userSpaceOnUse"
     x="148"
     y="78"
     width="3"
     height="4"><path
       d="M150.144 81.1826L148.349 80.1874L148.705 78.2037L150.5 79.1976L150.144 81.1826Z"
       fill="white"
       id="path25202" /></mask><g
     mask="url(#mask25_135_189)"
     id="g25207"><path
       d="M150.144 81.1826L148.349 80.1874L148.705 78.2037L150.5 79.1976L150.144 81.1826Z"
       fill="url(#paint22_linear_135_189)"
       id="path25205" /></g><path
     d="M147.635 84.1561L147.992 82.1725L149.787 83.1663L149.431 85.15L147.635 84.1561Z"
     fill="#76D1CB"
     id="path25209" /><path
     d="M146.924 88.1248L147.28 86.1398L149.074 87.135L148.718 89.1187L146.924 88.1248Z"
     fill="#76D1CB"
     id="path25211" /><path
     d="M146.209 92.0934L146.566 90.1098L148.362 91.1022L148.006 93.0873L146.209 92.0934Z"
     fill="#76D1CB"
     id="path25213" /><path
     d="M147.626 95.204L145.829 94.2115L145.853 94.0772L147.65 95.071L147.626 95.204Z"
     fill="#497AB7"
     id="path25215" /><path
     d="M147.293 97.0547L145.498 96.0622L145.829 94.2115L147.626 95.204L147.293 97.0547Z"
     fill="#416FAE"
     id="path25217" /><path
     d="M144.785 100.03L145.141 98.0459L146.935 99.0397L146.58 101.025L144.785 100.03Z"
     fill="#76D1CB"
     id="path25219" /><path
     d="M144.072 103.998L144.429 102.015L146.224 103.009L145.867 104.992L144.072 103.998Z"
     fill="#76D1CB"
     id="path25221" /><path
     d="M146.17 70.2556L146.525 68.2706L148.322 69.2658L147.965 71.2495L146.17 70.2556Z"
     fill="#76D1CB"
     id="path25223" /><path
     d="M145.457 74.223L145.814 72.2393L147.608 73.2331L147.252 75.2181L145.457 74.223Z"
     fill="#76D1CB"
     id="path25225" /><path
     d="M144.744 78.1917L145.101 76.208L146.896 77.2019L146.539 79.1855L144.744 78.1917Z"
     fill="#76D1CB"
     id="path25227" /><path
     d="M144.031 82.1603L144.388 80.1766L146.183 81.1705L145.826 83.1542L144.031 82.1603Z"
     fill="#76D1CB"
     id="path25229" /><path
     d="M143.318 86.1292L143.675 84.1455L145.47 85.138L145.113 87.123L143.318 86.1292Z"
     fill="#76D1CB"
     id="path25231" /><path
     d="M142.605 90.0978L142.962 88.1128L144.757 89.1066L144.4 91.0917L142.605 90.0978Z"
     fill="#76D1CB"
     id="path25233" /><path
     d="M141.892 94.065L142.249 92.0813L144.044 93.0752L143.687 95.0602L141.892 94.065Z"
     fill="#76D1CB"
     id="path25235" /><path
     d="M141.179 98.034L141.536 96.0503L143.331 97.0441L142.974 99.0278L141.179 98.034Z"
     fill="#76D1CB"
     id="path25237" /><path
     d="M140.466 102.003L140.823 100.018L142.618 101.013L142.261 102.996L140.466 102.003Z"
     fill="#76D1CB"
     id="path25239" /><path
     d="M142.565 68.2597L142.921 66.2747L144.716 67.2685L144.36 69.2535L142.565 68.2597Z"
     fill="#76D1CB"
     id="path25241" /><path
     d="M141.852 72.2272L142.208 70.2435L144.003 71.2374L143.647 73.2211L141.852 72.2272Z"
     fill="#76D1CB"
     id="path25243" /><mask
     id="mask26_135_189"
     style="mask-type:luminance"
     maskUnits="userSpaceOnUse"
     x="141"
     y="74"
     width="3"
     height="4"><path
       d="M142.934 77.1898L141.14 76.1959L141.495 74.2123L143.29 75.2061L142.934 77.1898Z"
       fill="white"
       id="path25245" /></mask><g
     mask="url(#mask26_135_189)"
     id="g25250"><path
       d="M142.934 77.1898L141.14 76.1959L141.495 74.2123L143.29 75.2061L142.934 77.1898Z"
       fill="url(#paint23_linear_135_189)"
       id="path25248" /></g><path
     d="M140.426 80.1647L140.782 78.1797L142.577 79.1735L142.222 81.1586L140.426 80.1647Z"
     fill="#76D1CB"
     id="path25252" /><path
     d="M141.509 85.1271L139.713 84.1319L139.905 83.0642L141.701 84.0567L141.509 85.1271Z"
     fill="#3F429D"
     id="path25254" /><path
     d="M141.701 84.0568L139.905 83.0643L140.069 82.1483L141.866 83.1421L141.701 84.0568Z"
     fill="#3C409A"
     id="path25256" /><path
     d="M139.001 88.1005L139.358 86.1168L141.151 87.1107L140.795 89.0957L139.001 88.1005Z"
     fill="#76D1CB"
     id="path25258" /><path
     d="M138.288 92.0693L138.645 90.0856L140.44 91.0794L140.083 93.0631L138.288 92.0693Z"
     fill="#76D1CB"
     id="path25260" /><path
     d="M137.575 96.038L137.932 94.0543L139.727 95.0482L139.37 97.0319L137.575 96.038Z"
     fill="#76D1CB"
     id="path25262" /><path
     d="M136.862 100.007L137.219 98.0217L139.014 99.0156L138.657 101.001L136.862 100.007Z"
     fill="#76D1CB"
     id="path25264" /><path
     d="M138.96 66.2628L139.317 64.2792L141.112 65.273L140.756 67.2567L138.96 66.2628Z"
     fill="#76D1CB"
     id="path25266" /><path
     d="M138.247 70.2313L138.604 68.2476L140.399 69.2414L140.043 71.2251L138.247 70.2313Z"
     fill="#76D1CB"
     id="path25268" /><mask
     id="mask27_135_189"
     style="mask-type:luminance"
     maskUnits="userSpaceOnUse"
     x="137"
     y="72"
     width="3"
     height="4"><path
       d="M139.33 75.194L137.534 74.2001L137.891 72.2151L139.686 73.2103L139.33 75.194Z"
       fill="white"
       id="path25270" /></mask><g
     mask="url(#mask27_135_189)"
     id="g25275"><path
       d="M139.33 75.194L137.534 74.2001L137.891 72.2151L139.686 73.2103L139.33 75.194Z"
       fill="url(#paint24_linear_135_189)"
       id="path25273" /></g><path
     d="M136.821 78.1674L137.178 76.1837L138.973 77.1776L138.617 79.1626L136.821 78.1674Z"
     fill="#76D1CB"
     id="path25277" /><path
     d="M136.109 82.1375L136.465 80.1524L138.26 81.1463L137.904 83.13L136.109 82.1375Z"
     fill="#76D1CB"
     id="path25279" /><path
     d="M137.191 87.0986L135.396 86.1048L135.752 84.1211L137.547 85.1149L137.191 87.0986Z"
     fill="#33378F"
     id="path25281" /><path
     d="M136.809 89.2275L135.014 88.2364L135.039 88.09L136.834 89.0825L136.809 89.2275Z"
     fill="#497AB7"
     id="path25283" /><path
     d="M136.478 91.0675L134.682 90.0737L135.014 88.2364L136.809 89.2275L136.478 91.0675Z"
     fill="#416FAE"
     id="path25285" /><path
     d="M133.97 94.0423L134.326 92.0573L136.121 93.0511L135.765 95.0361L133.97 94.0423Z"
     fill="#76D1CB"
     id="path25287" /><path
     d="M135.099 98.7471L133.303 97.7545L133.613 96.0261L135.409 97.0199L135.099 98.7471Z"
     fill="#3F429D"
     id="path25289" /><path
     d="M135.13 99.0282L133.333 98.033L133.38 97.7778L135.176 98.7703L135.13 99.0282Z"
     fill="#33378F"
     id="path25291" /><path
     d="M135.355 64.2669L135.711 62.2832L137.506 63.2771L137.15 65.2607L135.355 64.2669Z"
     fill="#76D1CB"
     id="path25293" /><mask
     id="mask28_135_189"
     style="mask-type:luminance"
     maskUnits="userSpaceOnUse"
     x="134"
     y="66"
     width="3"
     height="4"><path
       d="M136.437 69.2295L134.642 68.2356L134.998 66.2506L136.793 67.2458L136.437 69.2295Z"
       fill="white"
       id="path25295" /></mask><g
     mask="url(#mask28_135_189)"
     id="g25300"><path
       d="M136.437 69.2295L134.642 68.2356L134.998 66.2506L136.793 67.2458L136.437 69.2295Z"
       fill="url(#paint25_linear_135_189)"
       id="path25298" /></g><path
     d="M133.929 72.2044L134.285 70.2193L136.082 71.2132L135.725 73.1982L133.929 72.2044Z"
     fill="#76D1CB"
     id="path25302" /><path
     d="M133.217 76.173L133.572 74.188L135.367 75.1819L135.011 77.1655L133.217 76.173Z"
     fill="#76D1CB"
     id="path25304" /><path
     d="M132.504 80.1404L132.861 78.1567L134.654 79.1506L134.299 81.1343L132.504 80.1404Z"
     fill="#76D1CB"
     id="path25306" /><path
     d="M131.791 84.1092L132.148 82.1255L133.943 83.118L133.586 85.103L131.791 84.1092Z"
     fill="#76D1CB"
     id="path25308" /><path
     d="M131.078 88.0778L131.435 86.0928L133.23 87.088L132.873 89.0717L131.078 88.0778Z"
     fill="#76D1CB"
     id="path25310" /><path
     d="M132.348 91.9955L130.552 91.003L130.722 90.0615L132.517 91.0553L132.348 91.9955Z"
     fill="#497AB7"
     id="path25312" /><path
     d="M132.16 93.0404L130.365 92.0452L130.552 91.003L132.348 91.9955L132.16 93.0404Z"
     fill="#416FAE"
     id="path25314" /><path
     d="M129.652 96.0153L130.009 94.0303L131.804 95.0242L131.447 97.0078L129.652 96.0153Z"
     fill="#76D1CB"
     id="path25316" /><path
     d="M131.751 62.2712L132.107 60.2861L133.902 61.2814L133.546 63.265L131.751 62.2712Z"
     fill="#76D1CB"
     id="path25318" /><mask
     id="mask29_135_189"
     style="mask-type:luminance"
     maskUnits="userSpaceOnUse"
     x="131"
     y="64"
     width="3"
     height="4"><path
       d="M132.833 67.2338L131.038 66.2399L131.394 64.2562L133.189 65.2487L132.833 67.2338Z"
       fill="white"
       id="path25320" /></mask><g
     mask="url(#mask29_135_189)"
     id="g25325"><path
       d="M132.833 67.2338L131.038 66.2399L131.394 64.2562L133.189 65.2487L132.833 67.2338Z"
       fill="url(#paint26_linear_135_189)"
       id="path25323" /></g><path
     d="M130.325 70.2087L130.681 68.2236L132.476 69.2175L132.12 71.2012L130.325 70.2087Z"
     fill="#76D1CB"
     id="path25327" /><path
     d="M129.612 74.1758L129.968 72.1921L131.763 73.186L131.407 75.171L129.612 74.1758Z"
     fill="#76D1CB"
     id="path25329" /><path
     d="M128.899 78.1447L129.255 76.161L131.05 77.1549L130.694 79.1385L128.899 78.1447Z"
     fill="#76D1CB"
     id="path25331" /><path
     d="M128.186 82.1132L128.542 80.1282L130.337 81.1234L129.981 83.1071L128.186 82.1132Z"
     fill="#76D1CB"
     id="path25333" /><path
     d="M129.598 85.244L127.801 84.2515L127.829 84.097L129.624 85.0909L129.598 85.244Z"
     fill="#497AB7"
     id="path25335" /><path
     d="M129.269 87.0758L127.473 86.082L127.801 84.2514L129.598 85.2439L129.269 87.0758Z"
     fill="#416FAE"
     id="path25337" /><path
     d="M126.76 90.0492L127.116 88.0656L128.911 89.0594L128.555 91.0431L126.76 90.0492Z"
     fill="#76D1CB"
     id="path25339" /><path
     d="M126.048 94.0182L126.405 92.0346L128.198 93.0284L127.842 95.0121L126.048 94.0182Z"
     fill="#76D1CB"
     id="path25341" /><defs
     id="defs25478"><linearGradient
       id="paint0_linear_135_189"
       x1="189.39"
       y1="76.3343"
       x2="73.7832"
       y2="76.3343"
       gradientUnits="userSpaceOnUse"><stop
         stop-color="#C5BAE3"
         id="stop25343"
         offset="0"
         style="stop-color:#80a2e4;stop-opacity:1;" /><stop
         offset="1"
         stop-color="#ECE9F6"
         id="stop25345" /></linearGradient><linearGradient
       id="paint1_linear_135_189"
       x1="189.389"
       y1="104.705"
       x2="169.538"
       y2="104.705"
       gradientUnits="userSpaceOnUse"><stop
         stop-color="#5659B1"
         id="stop25348" /><stop
         offset="1"
         stop-color="#C1B9E2"
         id="stop25350" /></linearGradient><linearGradient
       id="paint2_linear_135_189"
       x1="173.901"
       y1="136.597"
       x2="10.6259"
       y2="136.597"
       gradientUnits="userSpaceOnUse"><stop
         stop-color="#566FB1"
         id="stop25353"
         offset="0"
         style="stop-color:#778dc2;stop-opacity:1;" /><stop
         offset="1"
         stop-color="#B9BDE2"
         id="stop25355"
         style="stop-color:#a9c5f2;stop-opacity:1;" /></linearGradient><linearGradient
       id="paint3_linear_135_189"
       x1="119.04"
       y1="131.387"
       x2="-44.3215"
       y2="131.387"
       gradientUnits="userSpaceOnUse"><stop
         stop-color="#C5BAE3"
         id="stop25358"
         offset="0"
         style="stop-color:#bcc6d9;stop-opacity:1;" /><stop
         offset="1"
         stop-color="#ECE9F6"
         id="stop25360"
         style="stop-color:#e9edf6;stop-opacity:1;" /></linearGradient><linearGradient
       id="paint4_linear_135_189"
       x1="91.3757"
       y1="140.261"
       x2="49.5597"
       y2="140.261"
       gradientUnits="userSpaceOnUse"><stop
         stop-color="#C5BAE3"
         id="stop25363"
         offset="0"
         style="stop-color:#c4cde9;stop-opacity:1;" /><stop
         offset="1"
         stop-color="#ECE9F6"
         id="stop25365"
         style="stop-color:#c8def3;stop-opacity:1;" /></linearGradient><linearGradient
       id="paint5_linear_135_189"
       x1="181.454"
       y1="96.7376"
       x2="18.0926"
       y2="96.7376"
       gradientUnits="userSpaceOnUse"><stop
         stop-color="#3F3494"
         id="stop25368" /><stop
         offset="1"
         stop-color="#433695"
         id="stop25370" /></linearGradient><linearGradient
       id="paint6_linear_135_189"
       x1="192.205"
       y1="85.2626"
       x2="150.389"
       y2="85.2626"
       gradientUnits="userSpaceOnUse"><stop
         stop-color="#3F3494"
         id="stop25373" /><stop
         offset="1"
         stop-color="#433695"
         id="stop25375" /></linearGradient><linearGradient
       id="paint7_linear_135_189"
       x1="181.454"
       y1="96.7377"
       x2="18.0929"
       y2="96.7377"
       gradientUnits="userSpaceOnUse"><stop
         stop-color="#40439D"
         id="stop25378" /><stop
         offset="1"
         stop-color="#44469F"
         id="stop25380" /></linearGradient><linearGradient
       id="paint8_linear_135_189"
       x1="181.454"
       y1="96.738"
       x2="18.093"
       y2="96.738"
       gradientUnits="userSpaceOnUse"><stop
         stop-color="#4A7BB8"
         id="stop25383" /><stop
         offset="1"
         stop-color="#4C7FB8"
         id="stop25385" /></linearGradient><linearGradient
       id="paint9_linear_135_189"
       x1="181.454"
       y1="96.7377"
       x2="18.0928"
       y2="96.7377"
       gradientUnits="userSpaceOnUse"><stop
         stop-color="#40439D"
         id="stop25388" /><stop
         offset="1"
         stop-color="#44469F"
         id="stop25390" /></linearGradient><linearGradient
       id="paint10_linear_135_189"
       x1="181.454"
       y1="96.7379"
       x2="18.0929"
       y2="96.7379"
       gradientUnits="userSpaceOnUse"><stop
         stop-color="#40439D"
         id="stop25393" /><stop
         offset="1"
         stop-color="#44469F"
         id="stop25395" /></linearGradient><linearGradient
       id="paint11_linear_135_189"
       x1="181.455"
       y1="96.7384"
       x2="18.0922"
       y2="96.7384"
       gradientUnits="userSpaceOnUse"><stop
         stop-color="#40439D"
         id="stop25398" /><stop
         offset="1"
         stop-color="#44469F"
         id="stop25400" /></linearGradient><linearGradient
       id="paint12_linear_135_189"
       x1="181.455"
       y1="96.7377"
       x2="18.0922"
       y2="96.7377"
       gradientUnits="userSpaceOnUse"><stop
         stop-color="#40439D"
         id="stop25403" /><stop
         offset="1"
         stop-color="#44469F"
         id="stop25405" /></linearGradient><linearGradient
       id="paint13_linear_135_189"
       x1="181.454"
       y1="96.7381"
       x2="18.093"
       y2="96.7381"
       gradientUnits="userSpaceOnUse"><stop
         stop-color="#4A7BB8"
         id="stop25408" /><stop
         offset="1"
         stop-color="#4C7FB8"
         id="stop25410" /></linearGradient><linearGradient
       id="paint14_linear_135_189"
       x1="181.454"
       y1="96.7379"
       x2="18.0935"
       y2="96.7379"
       gradientUnits="userSpaceOnUse"><stop
         stop-color="#40439D"
         id="stop25413" /><stop
         offset="1"
         stop-color="#44469F"
         id="stop25415" /></linearGradient><linearGradient
       id="paint15_linear_135_189"
       x1="181.454"
       y1="96.7378"
       x2="18.0928"
       y2="96.7378"
       gradientUnits="userSpaceOnUse"><stop
         stop-color="#4A7BB8"
         id="stop25418" /><stop
         offset="1"
         stop-color="#4C7FB8"
         id="stop25420" /></linearGradient><linearGradient
       id="paint16_linear_135_189"
       x1="192.205"
       y1="85.2628"
       x2="150.39"
       y2="85.2628"
       gradientUnits="userSpaceOnUse"><stop
         stop-color="#40439D"
         id="stop25423" /><stop
         offset="1"
         stop-color="#44469F"
         id="stop25425" /></linearGradient><linearGradient
       id="paint17_linear_135_189"
       x1="192.205"
       y1="85.2627"
       x2="150.39"
       y2="85.2627"
       gradientUnits="userSpaceOnUse"><stop
         stop-color="#4A7BB8"
         id="stop25428" /><stop
         offset="1"
         stop-color="#4C7FB8"
         id="stop25430" /></linearGradient><linearGradient
       id="paint18_linear_135_189"
       x1="181.455"
       y1="96.7377"
       x2="18.0921"
       y2="96.7377"
       gradientUnits="userSpaceOnUse"><stop
         stop-color="#40439D"
         id="stop25433" /><stop
         offset="1"
         stop-color="#44469F"
         id="stop25435" /></linearGradient><linearGradient
       id="paint19_linear_135_189"
       x1="192.206"
       y1="85.263"
       x2="150.389"
       y2="85.263"
       gradientUnits="userSpaceOnUse"><stop
         stop-color="#40439D"
         id="stop25438" /><stop
         offset="1"
         stop-color="#44469F"
         id="stop25440" /></linearGradient><linearGradient
       id="paint20_linear_135_189"
       x1="181.454"
       y1="96.7377"
       x2="18.093"
       y2="96.7377"
       gradientUnits="userSpaceOnUse"><stop
         stop-color="#4A7BB8"
         id="stop25443" /><stop
         offset="1"
         stop-color="#4C7FB8"
         id="stop25445" /></linearGradient><linearGradient
       id="paint21_linear_135_189"
       x1="181.455"
       y1="96.7377"
       x2="18.092"
       y2="96.7377"
       gradientUnits="userSpaceOnUse"><stop
         stop-color="#4A7BB8"
         id="stop25448" /><stop
         offset="1"
         stop-color="#4C7FB8"
         id="stop25450" /></linearGradient><linearGradient
       id="paint22_linear_135_189"
       x1="181.454"
       y1="96.7378"
       x2="18.093"
       y2="96.7378"
       gradientUnits="userSpaceOnUse"><stop
         stop-color="#40439D"
         id="stop25453" /><stop
         offset="1"
         stop-color="#44469F"
         id="stop25455" /></linearGradient><linearGradient
       id="paint23_linear_135_189"
       x1="181.454"
       y1="96.738"
       x2="18.093"
       y2="96.738"
       gradientUnits="userSpaceOnUse"><stop
         stop-color="#4A7BB8"
         id="stop25458" /><stop
         offset="1"
         stop-color="#4C7FB8"
         id="stop25460" /></linearGradient><linearGradient
       id="paint24_linear_135_189"
       x1="181.455"
       y1="96.7378"
       x2="18.092"
       y2="96.7378"
       gradientUnits="userSpaceOnUse"><stop
         stop-color="#4A7BB8"
         id="stop25463" /><stop
         offset="1"
         stop-color="#4C7FB8"
         id="stop25465" /></linearGradient><linearGradient
       id="paint25_linear_135_189"
       x1="181.455"
       y1="96.7377"
       x2="18.092"
       y2="96.7377"
       gradientUnits="userSpaceOnUse"><stop
         stop-color="#4A7BB8"
         id="stop25468" /><stop
         offset="1"
         stop-color="#4C7FB8"
         id="stop25470" /></linearGradient><linearGradient
       id="paint26_linear_135_189"
       x1="181.454"
       y1="96.7378"
       x2="18.093"
       y2="96.7378"
       gradientUnits="userSpaceOnUse"><stop
         stop-color="#40439D"
         id="stop25473" /><stop
         offset="1"
         stop-color="#44469F"
         id="stop25475" /></linearGradient></defs></svg>
