<?xml version="1.0" encoding="UTF-8" standalone="no"?>
<svg
   id="body_1"
   width="201"
   height="200"
   version="1.1"
   xmlns="http://www.w3.org/2000/svg"
   xmlns:svg="http://www.w3.org/2000/svg">
  <defs
     id="defs39404" />
  <g
     transform="matrix(1 0 0 1 0 0)"
     id="g39399">
    <g
       id="g39397">
      <path
         d="M74.9295 164.435C 74.9416 164.435 74.9526 164.435 74.9646 164.435L74.9646 164.435L74.8924 164.435C 74.9045 164.435 74.9165 164.435 74.9295 164.435zM52.0877 143.341L52.0877 143.278C 52.0877 143.299 52.0877 143.32 52.0877 143.341z"
         stroke="none"
         fill="#FFFFFF"
         fill-rule="nonzero"
         id="path39279" />
      <g
         id="g39283">
        <path
           d="M51.978 120.646L105.807 120.646L105.807 164.533L51.978 164.533L51.978 120.646z"
           stroke="none"
           fill="none"
           id="path39281" />
      </g>
      <g
         id="g39293">
        <g
           id="g39291">
          <path
             d="M62.2261 106.539L80.2748 106.539L80.2748 115.208L62.2261 115.208L62.2261 106.539z"
             stroke="none"
             fill="none"
             id="path39289" />
        </g>
      </g>
      <g
         id="g39303">
        <g
           id="g39301">
          <path
             d="M71.1716 114.998L98.0631 114.998L98.0631 123.744L71.1716 123.744L71.1716 114.998z"
             stroke="none"
             fill="none"
             id="path39299" />
        </g>
      </g>
      <g
         id="g39313">
        <g
           id="g39311">
          <path
             d="M88.9596 123.534L107.034 123.534L107.034 132.28L88.9596 132.28L88.9596 123.534z"
             stroke="none"
             fill="none"
             id="path39309" />
        </g>
      </g>
      <g
         id="g39323">
        <g
           id="g39321">
          <path
             d="M97.8535 132.07L133.716 132.07L133.716 140.739L97.8535 140.739L97.8535 132.07z"
             stroke="none"
             fill="none"
             id="path39319" />
        </g>
      </g>
      <g
         id="g39329">
        <path
           d="M80.0654 71.8311L98.063 71.8311L98.063 123.564L80.0654 123.564L80.0654 71.8311z"
           stroke="none"
           fill="none"
           id="path39327" />
      </g>
      <path
         d="M133.698 114.96L124.62 114.96L124.62 97.601L133.698 97.601L133.698 114.96z"
         stroke="none"
         fill="#FFFFFF"
         fill-rule="nonzero"
         id="path39331" />
      <g
         id="g39335">
        <path
           d="M124.612 97.5932L133.716 97.5932L133.716 114.977L124.612 114.977L124.612 97.5932z"
           stroke="none"
           fill="none"
           id="path39333" />
      </g>
      <path
         d="M28.5484 50.2796C 25.028 52.3118 25.007 55.6093 28.5063 57.6429L28.5063 57.6429L121.202 111.512L157.779 90.394L65.0829 36.5253C 61.5836 34.4917 55.8927 34.4917 52.3723 36.5243L52.3723 36.5243L28.5484 50.2796z"
         stroke="none"
         fill="#8993A7"
         fill-rule="nonzero"
         id="path39337" />
      <path
         d="M28.5064 57.6428L121.202 111.512L121.265 133.763L28.5695 79.8941C 26.8319 78.8841 25.9621 77.5621 25.958 76.2384L25.958 76.2384L25.8949 53.9869C 25.8989 55.3107 26.7687 56.6328 28.5064 57.6428z"
         stroke="none"
         fill="#7A7A7A"
         fill-rule="nonzero"
         id="path39339" />
      <path
         d="M121.202 111.512L121.265 133.763L157.842 112.645L157.779 90.3939L121.202 111.512z"
         stroke="none"
         fill="#666666"
         fill-rule="nonzero"
         id="path39341" />
      <path
         d="M28.5064 57.6428L121.202 111.512L121.265 133.763L28.5695 79.8941C 26.8319 78.8841 25.9621 77.5621 25.958 76.2384L25.958 76.2384L25.8949 53.9869C 25.8989 55.3107 26.7687 56.6328 28.5064 57.6428z"
         stroke="none"
         fill="#5F6C83"
         fill-rule="nonzero"
         id="path39343" />
      <path
         d="M121.202 111.512L121.265 133.763L157.842 112.645L157.779 90.3939L121.202 111.512z"
         stroke="none"
         fill="none"
         id="path39345" />
      <path
         d="M149.676 126.92L149.721 142.71L176.107 127.476L176.062 111.686L149.676 126.92z"
         stroke="none"
         fill="#4D4D4D"
         fill-rule="nonzero"
         id="path39347" />
      <path
         d="M176.062 111.686L152.863 98.2046L152.908 113.994L176.107 127.476L176.062 111.686z"
         stroke="none"
         fill="#333333"
         fill-rule="nonzero"
         id="path39349" />
      <path
         d="M176.107 127.476L152.908 113.995L126.522 129.228L149.721 142.71L176.107 127.476z"
         stroke="none"
         fill="#4D4D4D"
         fill-rule="nonzero"
         id="path39351" />
      <path
         d="M176.062 111.686L152.863 98.2046L126.478 113.438L149.676 126.92L176.062 111.686z"
         stroke="none"
         fill="#383839"
         fill-rule="nonzero"
         id="path39353" />
      <path
         d="M149.676 126.92L126.478 113.439L126.523 129.228L149.721 142.71L149.676 126.92z"
         stroke="none"
         fill="#3D3D3D"
         fill-rule="nonzero"
         id="path39355" />
      <path
         d="M150.962 136.331L150.973 140.347L174.824 126.576L174.813 122.56L150.962 136.331z"
         stroke="none"
         fill="#D4D4D4"
         fill-rule="nonzero"
         id="path39357" />
      <path
         d="M150.962 136.331L126.503 121.506L126.522 126.138L150.973 140.347L150.962 136.331z"
         stroke="none"
         fill="#767676"
         fill-rule="nonzero"
         id="path39359" />
      <path
         d="M174.813 122.56L148.507 107.273L126.503 121.506L150.962 136.331L174.813 122.56z"
         stroke="none"
         fill="#B3B3B3"
         fill-rule="nonzero"
         id="path39361" />
      <path
         d="M125.918 113.069L149.117 126.549L176.617 110.672L153.418 97.1903L125.918 113.069z"
         stroke="none"
         fill="#CCCCCC"
         fill-rule="nonzero"
         id="path39363" />
      <path
         d="M158.419 112.318L161.97 110.268L162.249 110.107L154.408 105.55L150.577 107.763L150.857 107.925L158.419 112.318zM154.41 105.028L163.148 110.107L158.415 112.841L149.677 107.763L154.41 105.028z"
         stroke="none"
         fill="#4E4F4F"
         fill-rule="nonzero"
         id="path39365" />
      <path
         d="M149.99 117.284L153.541 115.235L153.82 115.072L145.979 110.517L142.145 112.726L142.429 112.889L149.99 117.284zM145.981 109.995L154.719 115.072L149.986 117.806L141.248 112.726L145.981 109.995z"
         stroke="none"
         fill="#4E4F4F"
         fill-rule="nonzero"
         id="path39367" />
      <path
         d="M162.077 121.723L167.086 124.633L170.882 122.441L165.874 119.531L162.077 121.723z"
         stroke="none"
         fill="#4D4D4D"
         fill-rule="nonzero"
         id="path39369" />
      <path
         d="M156.294 124.773L161.508 127.803L165.461 125.521L160.247 122.491L156.294 124.773z"
         stroke="none"
         fill="#4D4D4D"
         fill-rule="nonzero"
         id="path39371" />
      <path
         d="M150.872 127.734L156.086 130.763L160.04 128.481L154.826 125.451L150.872 127.734z"
         stroke="none"
         fill="#4D4D4D"
         fill-rule="nonzero"
         id="path39373" />
      <path
         d="M145.451 130.693L150.665 133.723L154.618 131.442L149.404 128.411L145.451 130.693z"
         stroke="none"
         fill="#4D4D4D"
         fill-rule="nonzero"
         id="path39375" />
      <path
         d="M149.721 142.71L176.107 127.476L176.062 111.686L149.676 126.92L149.721 142.71zM176.618 110.672L176.667 127.845L149.165 143.722L149.117 126.549L176.618 110.672z"
         stroke="none"
         fill="#D4D4D4"
         fill-rule="nonzero"
         id="path39377" />
      <path
         d="M149.117 126.549L125.918 113.068L125.967 130.241L149.165 143.722L149.117 126.549z"
         stroke="none"
         fill="#B3B3B3"
         fill-rule="nonzero"
         id="path39379" />
      <path
         d="M154.408 105.551L162.249 110.107L161.97 110.269L158.419 112.318L150.857 107.925L150.576 107.763L154.408 105.551z"
         stroke="none"
         fill="#333333"
         fill-rule="nonzero"
         id="path39381" />
      <path
         d="M145.979 110.517L153.82 115.072L153.541 115.235L149.99 117.284L142.429 112.889L142.146 112.726L145.979 110.517z"
         stroke="none"
         fill="#B3B3B3"
         fill-rule="nonzero"
         id="path39383" />
      <path
         d="M161.97 110.269L162.249 110.107L154.408 105.551L150.576 107.763L150.857 107.925L154.408 105.876L161.97 110.269z"
         stroke="none"
         fill="#2A2A2A"
         fill-rule="nonzero"
         id="path39385" />
      <path
         d="M153.541 115.235L153.82 115.072L145.979 110.517L142.146 112.726L142.429 112.889L145.979 110.841L153.541 115.235z"
         stroke="none"
         fill="#949494"
         fill-rule="nonzero"
         id="path39387" />
      <path
         d="m 106.791,119.41836 c -0.004,0.04 -0.01,0.081 -0.015,0.121 -0.005,0.039 -0.008,0.077 -0.015,0.114 -0.006,0.04 -0.016,0.08 -0.024,0.12 -0.008,0.037 -0.015,0.075 -0.024,0.113 -0.011,0.04 -0.023,0.079 -0.035,0.119 -0.011,0.038 -0.021,0.076 -0.034,0.113 -0.013,0.04 -0.029,0.079 -0.044,0.119 -0.014,0.037 -0.027,0.074 -0.043,0.111 -0.017,0.04 -0.037,0.08 -0.055,0.119 -0.017,0.036 -0.033,0.074 -0.052,0.11 -0.02,0.039 -0.043,0.078 -0.065,0.118 -0.021,0.035 -0.04,0.072 -0.061,0.107 -0.024,0.039 -0.05,0.077 -0.076,0.116 -0.023,0.035 -0.045,0.071 -0.069,0.107 -0.028,0.039 -0.058,0.077 -0.088,0.115 -0.025,0.035 -0.05,0.069 -0.077,0.103 -0.032,0.039 -0.066,0.077 -0.099,0.116 -0.029,0.033 -0.056,0.066 -0.086,0.099 -0.035,0.04 -0.073,0.078 -0.111,0.116 -0.031,0.032 -0.06,0.064 -0.092,0.095 -0.04,0.039 -0.082,0.076 -0.124,0.114 -0.033,0.031 -0.065,0.062 -0.099,0.092 -0.044,0.038 -0.091,0.075 -0.136,0.113 -0.036,0.029 -0.07,0.059 -0.106,0.088 -0.05,0.039 -0.103,0.077 -0.155,0.115 -0.036,0.027 -0.07,0.054 -0.107,0.079 -0.06,0.043 -0.124,0.085 -0.188,0.127 -0.031,0.021 -0.061,0.042 -0.093,0.063 -0.097,0.062 -0.197,0.123 -0.3,0.183 v 0 l -22.3066,12.878 c -3.2959,1.903 -8.6261,1.904 -11.9009,0.001 v 0 l -16.8854,-9.814 34.2457,-19.771 16.8852,9.812 c 1.632,0.949 2.446,2.192 2.445,3.435 0,0.041 -0.003,0.081 -0.005,0.121 -0.002,0.038 -0.002,0.076 -0.005,0.113 z"
         stroke="none"
         fill="#8993a7"
         fill-rule="nonzero"
         id="path39389" />
      <path
         d="M53.2251 125.62L53.2843 146.452L70.1696 156.265C 71.79 157.209 73.9195 157.684 76.0529 157.692C 78.2275 157.702 80.4081 157.224 82.0716 156.265L82.0716 156.265L104.376 143.388C 106.034 142.43 106.865 141.172 106.86 139.917L106.86 139.917L106.801 119.096C 106.801 119.136 106.799 119.177 106.796 119.215C 106.794 119.254 106.794 119.292 106.791 119.33C 106.788 119.369 106.781 119.409 106.776 119.45C 106.77 119.488 106.768 119.528 106.76 119.563C 106.755 119.604 106.745 119.645 106.737 119.683C 106.73 119.721 106.722 119.76 106.712 119.798C 106.702 119.836 106.689 119.877 106.678 119.915C 106.666 119.954 106.658 119.993 106.645 120.029C 106.63 120.069 106.615 120.108 106.599 120.148C 106.586 120.184 106.574 120.222 106.556 120.258C 106.54 120.299 106.52 120.337 106.502 120.378C 106.484 120.414 106.469 120.452 106.451 120.489C 106.431 120.527 106.408 120.565 106.385 120.606C 106.364 120.642 106.346 120.677 106.323 120.713C 106.3 120.751 106.275 120.79 106.249 120.83C 106.226 120.863 106.203 120.899 106.178 120.936C 106.152 120.974 106.121 121.012 106.091 121.051C 106.065 121.086 106.042 121.12 106.014 121.155C 105.983 121.193 105.948 121.232 105.914 121.27C 105.886 121.303 105.858 121.336 105.83 121.369C 105.794 121.408 105.756 121.447 105.718 121.485C 105.687 121.516 105.659 121.549 105.626 121.58C 105.587 121.618 105.544 121.656 105.503 121.694C 105.47 121.725 105.436 121.756 105.403 121.786C 105.36 121.824 105.314 121.86 105.268 121.899C 105.232 121.927 105.196 121.958 105.16 121.986C 105.112 122.027 105.058 122.065 105.007 122.103C 104.969 122.129 104.936 122.154 104.9 122.182C 104.838 122.224 104.774 122.267 104.711 122.308C 104.68 122.328 104.649 122.351 104.619 122.372C 104.521 122.433 104.422 122.495 104.317 122.554L104.317 122.554L82.0104 135.432C 80.365 136.382 78.2075 136.86 76.0529 136.86C 73.8984 136.86 71.7469 136.382 70.1105 135.432L70.1105 135.432L53.2251 125.62z"
         stroke="none"
         fill="#615F9E"
         fill-rule="nonzero"
         id="path39391" />
      <path
         d="M53.2251 125.62L53.2843 146.452L70.1696 156.265C 71.79 157.209 73.9195 157.684 76.0529 157.692C 78.2275 157.702 80.4081 157.224 82.0716 156.265L82.0716 156.265L104.376 143.388C 106.034 142.43 106.865 141.172 106.86 139.917L106.86 139.917L106.801 119.096C 106.801 119.136 106.799 119.177 106.796 119.215C 106.794 119.254 106.794 119.292 106.791 119.33C 106.788 119.369 106.781 119.409 106.776 119.45C 106.77 119.488 106.768 119.528 106.76 119.563C 106.755 119.604 106.745 119.645 106.737 119.683C 106.73 119.721 106.722 119.76 106.712 119.798C 106.702 119.836 106.689 119.877 106.678 119.915C 106.666 119.954 106.658 119.993 106.645 120.029C 106.63 120.069 106.615 120.108 106.599 120.148C 106.586 120.184 106.574 120.222 106.556 120.258C 106.54 120.299 106.52 120.337 106.502 120.378C 106.484 120.414 106.469 120.452 106.451 120.489C 106.431 120.527 106.408 120.565 106.385 120.606C 106.364 120.642 106.346 120.677 106.323 120.713C 106.3 120.751 106.275 120.79 106.249 120.83C 106.226 120.863 106.203 120.899 106.178 120.936C 106.152 120.974 106.121 121.012 106.091 121.051C 106.065 121.086 106.042 121.12 106.014 121.155C 105.983 121.193 105.948 121.232 105.914 121.27C 105.886 121.303 105.858 121.336 105.83 121.369C 105.794 121.408 105.756 121.447 105.718 121.485C 105.687 121.516 105.659 121.549 105.626 121.58C 105.587 121.618 105.544 121.656 105.503 121.694C 105.47 121.725 105.436 121.756 105.403 121.786C 105.36 121.824 105.314 121.86 105.268 121.899C 105.232 121.927 105.196 121.958 105.16 121.986C 105.112 122.027 105.058 122.065 105.007 122.103C 104.969 122.129 104.936 122.154 104.9 122.182C 104.838 122.224 104.774 122.267 104.711 122.308C 104.68 122.328 104.649 122.351 104.619 122.372C 104.521 122.433 104.422 122.495 104.317 122.554L104.317 122.554L82.0104 135.432C 80.365 136.382 78.2075 136.86 76.0529 136.86C 73.8984 136.86 71.7469 136.382 70.1105 135.432L70.1105 135.432L53.2251 125.62z"
         stroke="none"
         fill="#5F6C83"
         fill-rule="nonzero"
         id="path39393" />
      <path
         d="M53.2252 125.62L53.2843 146.452L70.1697 156.266C 71.79 157.209 73.9185 157.685 76.053 157.693L76.053 157.693L76.053 136.86C 73.8985 136.86 71.747 136.382 70.1105 135.432L70.1105 135.432L53.2252 125.62z"
         stroke="none"
         fill="#5F6C83"
         fill-rule="nonzero"
         id="path39395" />
    </g>
  </g>
</svg>
