<?xml version="1.0" encoding="UTF-8" standalone="no"?>
<svg
   width="200"
   height="200"
   viewBox="0 0 200 200"
   fill="none"
   version="1.1"
   id="svg1846"
   sodipodi:docname="img-hdd.svg.2023_02_03_10_42_45.0.svg"
   inkscape:version="1.2.2 (1:1.2.2+202212051552+b0a8486541)"
   xmlns:inkscape="http://www.inkscape.org/namespaces/inkscape"
   xmlns:sodipodi="http://sodipodi.sourceforge.net/DTD/sodipodi-0.dtd"
   xmlns:xlink="http://www.w3.org/1999/xlink"
   xmlns="http://www.w3.org/2000/svg"
   xmlns:svg="http://www.w3.org/2000/svg">
  <sodipodi:namedview
     id="namedview1848"
     pagecolor="#505050"
     bordercolor="#eeeeee"
     borderopacity="1"
     inkscape:showpageshadow="0"
     inkscape:pageopacity="0"
     inkscape:pagecheckerboard="0"
     inkscape:deskcolor="#505050"
     showgrid="false"
     inkscape:zoom="2.8284271"
     inkscape:cx="27.046834"
     inkscape:cy="66.998367"
     inkscape:window-width="1920"
     inkscape:window-height="1016"
     inkscape:window-x="0"
     inkscape:window-y="0"
     inkscape:window-maximized="1"
     inkscape:current-layer="svg1846" />
  <path
     d="M 1.5224053,82.597862 114.67678,145.29429 V 162.239 L 1.5224053,99.288239 Z"
     fill="#322f85"
     id="path1743"
     style="stroke-width:0.995715;fill:url(#linearGradient9988);fill-opacity:1" />
  <path
     d="M198.251 99.4321L85.6969 37.0804L1.33333 82.5996L114.5 145.831L198.251 99.4321Z"
     fill="#C1B8E2"
     id="path1745"
     style="fill:url(#linearGradient4723);fill-opacity:1" />
  <path
     d="m 198.23884,99.430187 -83.73846,46.396153 5.8e-4,16.42133 83.73784,-45.56224 z"
     fill="url(#paint0_linear_135_191)"
     id="path1751"
     style="fill:url(#linearGradient12219);stroke-width:0.994634;fill-opacity:1"
     sodipodi:nodetypes="ccccc" />
  <path
     d="M128.724 147.418V152.712L148.525 141.634L149.412 141.147V140.128L149.403 135.853L128.724 147.418Z"
     fill="#C1B8E2"
     id="path1753"
     style="fill-opacity:1;fill:#b3b3b3" />
  <path
     d="M149.403 135.853L145.032 133.398L124.353 144.963L128.724 147.418L149.403 135.853Z"
     fill="#DBDBDB"
     id="path1755"
     style="fill-opacity:1;fill:url(#linearGradient10012)" />
  <path
     d="M128.724 152.712V147.418L124.353 144.963V150.257L128.724 152.712Z"
     fill="#B3B3B3"
     id="path1757"
     style="fill-opacity:1;fill:url(#linearGradient10018)" />
  <path
     d="M129.662 148.95V151.53L147.778 141.414L148.473 141.035L148.465 140.243V138.786L146.979 138.089L131.018 147.004L129.662 148.95Z"
     fill="white"
     fill-opacity="0.38"
     id="path1759"
     style="fill-opacity:0.38000003;fill:#ffffff" />
  <path
     d="M129.662 147.288V146.922L148.465 136.427V140.243L148.473 141.035L147.778 141.414L129.662 151.53V147.288ZM128.724 147.418V152.712L148.525 141.634L149.412 141.147V140.128L149.403 135.853L128.724 147.418Z"
     fill="#C1B8E2"
     id="path1761"
     style="fill-opacity:1;fill:#b3b3b3" />
  <mask
     id="mask0_135_191"
     style="mask-type:luminance"
     maskUnits="userSpaceOnUse"
     x="129"
     y="141"
     width="15"
     height="11">
    <path
       d="M129.662 148.95V151.53L142.348 144.479L143.034 144.1V143.308L143.025 141.851L141.548 141.153L131.018 147.004L129.662 148.95Z"
       fill="white"
       id="path1763" />
  </mask>
  <g
     mask="url(#mask0_135_191)"
     id="g1782">
    <path
       d="M140.462 144.065V144.416L141.705 143.706V143.354L140.462 144.065Z"
       fill="white"
       id="path1766" />
    <path
       d="M140.462 144.065L141.705 143.354L138.299 141.426L137.048 142.136L140.462 144.065Z"
       fill="white"
       id="path1768" />
    <path
       d="M137.969 145.486V145.839L139.22 145.128V144.777L137.969 145.486Z"
       fill="white"
       id="path1770" />
    <path
       d="M137.969 145.486L139.22 144.777L135.805 142.848L134.554 143.558L137.969 145.486Z"
       fill="white"
       id="path1772" />
    <path
       d="M135.466 146.908V147.26L136.709 146.551L136.717 146.199L135.466 146.908Z"
       fill="white"
       id="path1774" />
    <path
       d="M135.466 146.908L136.717 146.199L133.303 144.27L132.051 144.98L135.466 146.908Z"
       fill="white"
       id="path1776" />
    <path
       d="M132.929 148.327V148.679L134.172 147.97L134.18 147.618L132.929 148.327Z"
       fill="white"
       id="path1778" />
    <path
       d="M132.929 148.327L134.18 147.618L130.765 145.689L129.514 146.398L132.929 148.327Z"
       fill="white"
       id="path1780" />
  </g>
  <mask
     id="mask1_135_191"
     style="mask-type:luminance"
     maskUnits="userSpaceOnUse"
     x="134"
     y="138"
     width="15"
     height="11">
    <path
       d="M134.693 146.126V148.706L147.37 141.654L148.056 141.276V140.483V139.027L146.57 138.33L136.048 144.179L134.693 146.126Z"
       fill="white"
       id="path1784" />
  </mask>
  <g
     mask="url(#mask1_135_191)"
     id="g1803">
    <path
       d="M145.484 141.239V141.591L146.735 140.882V140.53L145.484 141.239Z"
       fill="white"
       id="path1787" />
    <path
       d="M145.484 141.239L146.735 140.53L143.321 138.601L142.078 139.311L145.484 141.239Z"
       fill="white"
       id="path1789" />
    <path
       d="M142.999 142.662V143.014L144.242 142.304V141.953L142.999 142.662Z"
       fill="white"
       id="path1791" />
    <path
       d="M142.999 142.662L144.242 141.953L140.836 140.024L139.585 140.733L142.999 142.662Z"
       fill="white"
       id="path1793" />
    <path
       d="M140.497 144.085L140.488 144.436L141.739 143.726V143.375L140.497 144.085Z"
       fill="white"
       id="path1795" />
    <path
       d="M140.497 144.085L141.739 143.375L138.325 141.446L137.082 142.156L140.497 144.085Z"
       fill="white"
       id="path1797" />
    <path
       d="M137.96 145.503L137.951 145.855L139.202 145.145V144.793L137.96 145.503Z"
       fill="white"
       id="path1799" />
    <path
       d="M137.96 145.503L139.202 144.793L135.788 142.865L134.545 143.575L137.96 145.503Z"
       fill="white"
       id="path1801"
       style="fill-opacity:1;fill:url(#linearGradient10024)" />
  </g>
  <path
     d="M168.944 128.655V127.542L166.372 126.133V127.116L168.944 128.655Z"
     fill="#D3AE11"
     id="path1805" />
  <path
     d="M166.372 124.057V131.175L192.16 116.523V109.689L166.372 124.057Z"
     fill="#98999B"
     id="path1807" />
  <path
     d="M192.16 116.523L185.522 113.231L166.372 124.057V131.175L192.16 116.523Z"
     fill="#848484"
     id="path1809" />
  <path
     d="M187.66 112.091L192.647 114.43L192.569 115.33L168.944 128.655L166.372 127.116V124.057L187.66 112.091Z"
     fill="#E0B917"
     id="path1811" />
  <path
     d="M168.944 127.542L192.647 114.43L192.569 115.33L168.944 128.655V127.542Z"
     fill="#E2CC00"
     id="path1813" />
  <path
     d="M181.204 119.272L181.213 119.222L181.169 119.246V118.796L178.519 117.296L178.484 117.277L180.109 116.373L180.144 116.392V116.391L182.777 117.878V117.882L182.82 117.905L182.811 118.358L181.204 119.272Z"
     fill="#EDD779"
     id="path1815" />
  <path
     d="M177.946 121.099V120.646L175.33 119.168L175.348 119.146L175.269 119.102L175.443 119.003L175.487 118.941L176.833 118.194L176.859 118.214L176.894 118.198L179.57 119.71V120.163L179.544 120.174V120.184L177.946 121.099Z"
     fill="#EDD779"
     id="path1817" />
  <path
     d="M174.731 122.909V122.457L173.74 121.894L172.002 120.915L173.627 120.011L174.426 120.46L176.338 121.543V121.995L174.731 122.909Z"
     fill="#EDD779"
     id="path1819" />
  <path
     d="M171.464 124.736V124.283L168.857 122.806L169.013 122.579L170.351 121.833L173.071 123.369V123.823L171.464 124.736Z"
     fill="#EDD779"
     id="path1821" />
  <path
     d="M187.642 115.608V115.155L184.992 113.657L186.617 112.753L189.25 114.241V114.694L187.642 115.608Z"
     fill="#EDD779"
     id="path1823" />
  <path
     d="M184.436 117.44V116.987L181.777 115.483L181.743 115.464L183.367 114.561L186.043 116.073V116.526L184.479 117.416L184.436 117.44Z"
     fill="#EDD779"
     id="path1825" />
  <path
     d="M86.1749 107.013C72.994 107.013 59.8131 104.558 49.7602 99.6483C29.6544 89.8276 29.6544 73.9067 49.7602 64.0868C59.8131 59.1765 72.994 56.7212 86.1749 56.7212C99.3557 56.7212 112.528 59.1765 122.589 64.0868C142.695 73.9067 142.695 89.8276 122.589 99.6483C112.528 104.558 99.3557 107.013 86.1749 107.013ZM86.1749 61.6427C75.5746 61.6427 64.9742 63.6174 56.885 67.5668C40.7152 75.4647 40.7152 88.2705 56.885 96.1684C64.9742 100.118 75.5746 102.092 86.1749 102.092C96.7752 102.092 107.375 100.118 115.465 96.1684C131.634 88.2705 131.634 75.4647 115.465 67.5668C107.375 63.6174 96.7752 61.6427 86.1749 61.6427Z"
     fill="#AD92C8"
     id="path1827"
     style="fill:url(#linearGradient4717)" />
  <path
     d="M86.1749 88.4141C82.7428 88.4141 79.3107 87.7745 76.6954 86.4963C71.456 83.9399 71.456 79.7941 76.6954 77.2386C79.3107 75.9604 82.7428 75.3208 86.1749 75.3208C89.6069 75.3208 93.0389 75.9604 95.6543 77.2386C100.885 79.7941 100.885 83.9399 95.6543 86.4963C93.0389 87.7745 89.6069 88.4141 86.1749 88.4141Z"
     fill="#AD92C8"
     id="path1829"
     style="fill:url(#linearGradient4719);fill-opacity:1" />
  <path
     d="M114.943 95.0144C98.9908 102.824 73.1243 102.824 57.1717 95.0144C41.2192 87.204 41.2192 74.5428 57.1717 66.7333C73.1243 58.9238 98.9908 58.9238 114.943 66.7333C130.905 74.5428 130.905 87.204 114.943 95.0144ZM121.973 63.2925C102.136 53.5823 69.979 53.5823 50.1426 63.2925C30.3061 73.0018 30.3061 88.7441 50.1426 98.4543C69.979 108.164 102.136 108.164 121.973 98.4543C141.809 88.7441 141.809 73.0018 121.973 63.2925Z"
     fill="#D7D0F0"
     id="path1831"
     style="fill:url(#linearGradient4690);fill-opacity:1" />
  <path
     d="m 95.4109,76.2964 c -5.1698,-2.5275 -13.5371,-2.5275 -18.7069,0 -5.1611,2.5275 -5.1611,6.6266 0,9.154 5.1698,2.5284 13.5371,2.5284 18.7069,0 5.1611,-2.5274 5.1611,-6.6265 0,-9.154 z"
     fill="#D7D0F0"
     id="path1833"
     style="fill:url(#linearGradient4686)" />
  <path
     d="M 189.1181,97.297573 153.791,78.1103 c -1.208,-0.5927 -3.172,-0.5919 -4.379,0 l -4.075,2.2443 c 0.842,7.9005 -4.91,15.9362 -17.265,21.9704 -10.531,5.144 -24.042,7.937 -37.8223,8.398 l -10.070289,4.90507 c -0.05191,1.89088 -0.418546,1.44243 0.894991,2.29893 L 116.646,137.645 c 1.208,0.591 3.172,0.591 4.379,0 l 67.191,-38.1303 c 1.04105,-0.453845 0.91254,-0.567091 0.9021,-2.217127 z"
     fill="#D7D0F0"
     id="path1835"
     style="fill:url(#linearGradient4717);fill-opacity:1"
     sodipodi:nodetypes="cccccccccccc" />
  <defs
     id="defs1844">
    <linearGradient
       id="linearGradient12217"
       inkscape:swatch="solid">
      <stop
         style="stop-color:#a5b6df;stop-opacity:1;"
         offset="0"
         id="stop12215" />
    </linearGradient>
    <linearGradient
       id="linearGradient10028"
       inkscape:swatch="solid">
      <stop
         style="stop-color:#ffffff;stop-opacity:1;"
         offset="0"
         id="stop10026" />
    </linearGradient>
    <linearGradient
       id="linearGradient10022"
       inkscape:swatch="solid">
      <stop
         style="stop-color:#ffffff;stop-opacity:1;"
         offset="0"
         id="stop10020" />
    </linearGradient>
    <linearGradient
       id="linearGradient10016"
       inkscape:swatch="solid">
      <stop
         style="stop-color:#b3b3b3;stop-opacity:1;"
         offset="0"
         id="stop10014" />
    </linearGradient>
    <linearGradient
       id="linearGradient10010"
       inkscape:swatch="solid">
      <stop
         style="stop-color:#dbdbdb;stop-opacity:1;"
         offset="0"
         id="stop10008" />
    </linearGradient>
    <linearGradient
       id="linearGradient9998"
       inkscape:swatch="solid">
      <stop
         style="stop-color:#c1b8e2;stop-opacity:1;"
         offset="0"
         id="stop9996" />
    </linearGradient>
    <linearGradient
       id="linearGradient9992"
       inkscape:swatch="solid">
      <stop
         style="stop-color:#c1b8e2;stop-opacity:1;"
         offset="0"
         id="stop9990" />
    </linearGradient>
    <linearGradient
       id="linearGradient9986"
       inkscape:swatch="solid">
      <stop
         style="stop-color:#708bc0;stop-opacity:1;"
         offset="0"
         id="stop9984" />
    </linearGradient>
    <linearGradient
       id="linearGradient4723"
       inkscape:swatch="solid">
      <stop
         style="stop-color:#bcc6d9;stop-opacity:1;"
         offset="0"
         id="stop4721" />
    </linearGradient>
    <linearGradient
       id="linearGradient4717"
       inkscape:swatch="solid">
      <stop
         style="stop-color:#8199bb;stop-opacity:1;"
         offset="0"
         id="stop4715" />
    </linearGradient>
    <linearGradient
       id="linearGradient4686"
       inkscape:swatch="solid">
      <stop
         style="stop-color:#d5dfeb;stop-opacity:1;"
         offset="0"
         id="stop4684" />
    </linearGradient>
    <inkscape:perspective
       sodipodi:type="inkscape:persp3d"
       inkscape:vp_x="0 : 100 : 1"
       inkscape:vp_y="0 : 1000 : 0"
       inkscape:vp_z="200 : 100 : 1"
       inkscape:persp3d-origin="100 : 66.666667 : 1"
       id="perspective3998" />
    <linearGradient
       id="paint0_linear_135_191"
       x1="156.602"
       y1="148.584"
       x2="156.602"
       y2="100.624"
       gradientUnits="userSpaceOnUse"
       gradientTransform="matrix(0.99984296,0,0,0.98945106,-0.20699023,1.2006518)">
      <stop
         stop-color="#C5BAE3"
         id="stop1839" />
      <stop
         offset="1"
         stop-color="#ECE9F6"
         id="stop1841" />
    </linearGradient>
    <linearGradient
       inkscape:collect="always"
       xlink:href="#linearGradient4686"
       id="linearGradient4688"
       x1="80.162756"
       y1="106.81789"
       x2="189.11538"
       y2="106.81789"
       gradientUnits="userSpaceOnUse" />
    <linearGradient
       inkscape:collect="always"
       xlink:href="#linearGradient4686"
       id="linearGradient4690"
       x1="35.265225"
       y1="80.873212"
       x2="136.85"
       y2="80.873212"
       gradientUnits="userSpaceOnUse" />
    <linearGradient
       inkscape:collect="always"
       xlink:href="#linearGradient4717"
       id="linearGradient4719"
       x1="72.76585"
       y1="81.86745"
       x2="99.577325"
       y2="81.86745"
       gradientUnits="userSpaceOnUse" />
    <linearGradient
       inkscape:collect="always"
       xlink:href="#linearGradient9986"
       id="linearGradient9988"
       x1="1.5224053"
       y1="122.41843"
       x2="114.67678"
       y2="122.41843"
       gradientUnits="userSpaceOnUse" />
    <linearGradient
       inkscape:collect="always"
       xlink:href="#linearGradient10010"
       id="linearGradient10012"
       x1="124.353"
       y1="140.408"
       x2="149.403"
       y2="140.408"
       gradientUnits="userSpaceOnUse" />
    <linearGradient
       inkscape:collect="always"
       xlink:href="#linearGradient10016"
       id="linearGradient10018"
       x1="124.353"
       y1="148.8375"
       x2="128.724"
       y2="148.8375"
       gradientUnits="userSpaceOnUse" />
    <linearGradient
       inkscape:collect="always"
       xlink:href="#linearGradient10022"
       id="linearGradient10024"
       x1="134.545"
       y1="144.184"
       x2="139.202"
       y2="144.184"
       gradientUnits="userSpaceOnUse" />
    <linearGradient
       inkscape:collect="always"
       xlink:href="#linearGradient12217"
       id="linearGradient12219"
       x1="114.50038"
       y1="130.83893"
       x2="198.23884"
       y2="130.83893"
       gradientUnits="userSpaceOnUse" />
  </defs>
  <path
     d="m 188.21013,96.311517 -34.425,-19.260496 c -1.208,-0.5927 -3.172,-0.5919 -4.379,0 l -4.075,2.2443 c 0.842,7.9005 -4.91,15.936196 -17.265,21.970409 -10.531,5.144 -24.042,7.937 -37.822299,8.398 l -9.1753,5.06 c -1.2077,0.592 -1.2077,1.552 0,2.144 l 35.571599,19.718 c 1.208,0.591 3.172,0.591 4.379,0 l 67.191,-38.130303 c 1.207,-0.59181 1.207,-1.55201 0,-2.14391 z"
     fill="#d7d0f0"
     id="path2265"
     style="fill:url(#linearGradient4688);fill-opacity:1" />
  <path
     style="fill:none;fill-opacity:1;stroke:#ffffff;stroke-width:0.7"
     d="M 1.6793786,82.705253 114.50296,145.95678 198.00716,99.620573"
     id="path9926" />
  <path
     style="fill:none;fill-opacity:1;stroke:#ffffff;stroke-width:0.7"
     d="m 114.47051,145.79313 -0.0373,16.38499"
     id="path9982" />
</svg>
