<svg width="50" height="50" viewBox="0 0 50 50" fill="none" xmlns="http://www.w3.org/2000/svg">
<path d="M25 5.09521C14.0076 5.09521 5.09521 14.0076 5.09521 25C5.09521 28.7341 6.1441 32.2156 7.9332 35.2018L5.2734 44.9047L15.1837 42.3033C18.082 43.9511 21.4279 44.9047 25 44.9047C35.9924 44.9047 44.9047 35.9924 44.9047 25C44.9047 14.0076 35.9924 5.09521 25 5.09521ZM18.1869 15.715C18.5103 15.715 18.8427 15.713 19.1296 15.7279C19.4846 15.7362 19.8709 15.7622 20.2408 16.58C20.6804 17.552 21.6375 19.9905 21.7603 20.2376C21.883 20.4848 21.97 20.7759 21.7991 21.0994C21.6366 21.4311 21.552 21.6319 21.3132 21.9255C21.066 22.2108 20.7952 22.5651 20.5713 22.7808C20.3241 23.0279 20.0689 23.2989 20.3542 23.7916C20.6395 24.2842 21.6304 25.8992 23.095 27.203C24.9777 28.8849 26.5661 29.4018 27.0604 29.649C27.5547 29.8961 27.841 29.8576 28.1263 29.5258C28.4199 29.2024 29.3593 28.0925 29.6911 27.5982C30.0145 27.1039 30.3447 27.1894 30.7926 27.352C31.2471 27.5146 33.6708 28.7085 34.1651 28.9557C34.6594 29.2028 34.9835 29.3251 35.1079 29.5258C35.2356 29.7332 35.2357 30.7202 34.826 31.8714C34.4163 33.0209 32.4044 34.1325 31.5021 34.2105C30.5914 34.2951 29.7416 34.6198 25.5831 32.9826C20.5671 31.0071 17.4038 25.8695 17.1566 25.5378C16.9095 25.2143 15.148 22.8667 15.148 20.4449C15.148 18.0149 16.4221 16.8248 16.8683 16.3305C17.3228 15.8362 17.8551 15.715 18.1869 15.715Z" fill="#55D36E"/>
</svg>
