<svg width="50" height="50" viewBox="0 0 50 50" fill="none" xmlns="http://www.w3.org/2000/svg">
<path d="M25.3333 4C37.1156 4 46.6667 13.5511 46.6667 25.3333C46.6667 37.1156 37.1156 46.6667 25.3333 46.6667C13.5511 46.6667 4 37.1156 4 25.3333C4 13.5511 13.5511 4 25.3333 4ZM32.6924 34.0293C33.0844 32.8258 34.9236 20.8267 35.1502 18.4622C35.2187 17.7458 34.9929 17.2702 34.5493 17.0578C34.0133 16.8 33.2196 16.9289 32.2978 17.2613C31.0347 17.7164 14.8844 24.5742 13.9511 24.9707C13.0667 25.3467 12.2293 25.7564 12.2293 26.3502C12.2293 26.768 12.4773 27.0027 13.16 27.2462C13.8702 27.4996 15.6596 28.0418 16.7164 28.3333C17.7342 28.6142 18.8924 28.3707 19.5413 27.9671C20.2293 27.5396 28.1724 22.2249 28.7422 21.7591C29.312 21.2933 29.7662 21.8898 29.3004 22.3564C28.8347 22.8222 23.3831 28.1138 22.664 28.8462C21.7911 29.736 22.4107 30.6578 22.9964 31.0267C23.6649 31.448 28.4747 34.6738 29.1991 35.1911C29.9236 35.7084 30.6578 35.9431 31.3307 35.9431C32.0036 35.9431 32.3573 35.0578 32.6924 34.0293Z" fill="#3BA5E3"/>
</svg>
