<svg width="45" height="58" viewBox="0 0 45 58" fill="none" xmlns="http://www.w3.org/2000/svg">
<path fill-rule="evenodd" clip-rule="evenodd" d="M24 32.4362V41.0564L42 28.5333V19.9131L24 32.4362ZM42 16.2585L24 28.7816V19.196L42 6.67288V16.2585ZM45 41.7206L22.5 57.8571L0 41.7206V0H45V41.7206ZM42 3H3V3.01825L22.5 16.5849L42 3.01825V3ZM21 19.196L3 6.67288V16.2585L21 28.7816V19.196ZM3 19.9131L21 32.4362V41.0564L3 28.5333V19.9131ZM3 32.188V40.1804L21 53.0896V44.711L3 32.188ZM24 44.711V53.0896L42 40.1804V32.188L24 44.711Z" fill="white"/>
<path d="M28.7758 22.1093C28.3167 22.9112 27.8235 23.4907 27.0282 23.0278C26.233 22.5648 25.9605 21.5395 26.4197 20.7376C26.8788 19.9357 27.372 19.3562 28.1673 19.8191C28.9625 20.2821 29.235 21.3074 28.7758 22.1093Z" fill="white"/>
<path d="M28.7758 35.2587C28.3167 36.0605 27.8235 36.6401 27.0282 36.1771C26.233 35.7142 25.9605 34.6888 26.4197 33.887C26.8788 33.0851 27.372 32.5055 28.1673 32.9685C28.9625 33.4315 29.235 34.4568 28.7758 35.2587Z" fill="white"/>
<path d="M28.7758 47.5314C28.3167 48.3332 27.8235 48.9128 27.0282 48.4498C26.233 47.9869 25.9605 46.9615 26.4197 46.1597C26.8788 45.3578 27.372 44.7782 28.1673 45.2412C28.9625 45.7042 29.235 46.7295 28.7758 47.5314Z" fill="white"/>
</svg>
