<svg width="149" height="36" viewBox="0 0 149 36" fill="none" xmlns="http://www.w3.org/2000/svg">
<path d="M119.371 26.276C118.252 26.276 117.14 26.1303 116.036 25.839C114.947 25.5323 114.012 25.103 113.23 24.551L114.702 21.699C115.315 22.1437 116.021 22.4963 116.818 22.757C117.631 23.0177 118.451 23.148 119.279 23.148C120.214 23.148 120.95 22.964 121.487 22.596C122.024 22.228 122.292 21.7143 122.292 21.055C122.292 20.641 122.185 20.273 121.97 19.951C121.755 19.629 121.372 19.3837 120.82 19.215C120.283 19.0463 119.524 18.962 118.543 18.962H114.426L115.254 9.9H125.075V12.89H116.588L118.52 11.188L117.945 17.651L116.013 15.949H119.417C121.012 15.949 122.292 16.1713 123.258 16.616C124.239 17.0453 124.952 17.6357 125.397 18.387C125.842 19.1383 126.064 19.9893 126.064 20.94C126.064 21.8907 125.826 22.7723 125.351 23.585C124.876 24.3823 124.14 25.034 123.143 25.54C122.162 26.0307 120.904 26.276 119.371 26.276ZM127.714 29.542L129.232 24.022L129.738 26.092C129.078 26.092 128.534 25.9003 128.105 25.517C127.691 25.1337 127.484 24.6047 127.484 23.93C127.484 23.2553 127.698 22.7187 128.128 22.32C128.557 21.9213 129.086 21.722 129.715 21.722C130.359 21.722 130.888 21.929 131.302 22.343C131.716 22.7417 131.923 23.2707 131.923 23.93C131.923 24.1293 131.907 24.3287 131.877 24.528C131.846 24.712 131.785 24.942 131.693 25.218C131.616 25.4787 131.486 25.816 131.302 26.23L129.991 29.542H127.714ZM140.203 26.276C138.885 26.276 137.704 25.954 136.661 25.31C135.619 24.6507 134.798 23.7 134.2 22.458C133.602 21.216 133.303 19.7133 133.303 17.95C133.303 16.1867 133.602 14.684 134.2 13.442C134.798 12.2 135.619 11.257 136.661 10.613C137.704 9.95367 138.885 9.624 140.203 9.624C141.537 9.624 142.718 9.95367 143.745 10.613C144.788 11.257 145.608 12.2 146.206 13.442C146.804 14.684 147.103 16.1867 147.103 17.95C147.103 19.7133 146.804 21.216 146.206 22.458C145.608 23.7 144.788 24.6507 143.745 25.31C142.718 25.954 141.537 26.276 140.203 26.276ZM140.203 23.125C140.832 23.125 141.376 22.9487 141.836 22.596C142.312 22.2433 142.68 21.6837 142.94 20.917C143.216 20.1503 143.354 19.1613 143.354 17.95C143.354 16.7387 143.216 15.7497 142.94 14.983C142.68 14.2163 142.312 13.6567 141.836 13.304C141.376 12.9513 140.832 12.775 140.203 12.775C139.59 12.775 139.046 12.9513 138.57 13.304C138.11 13.6567 137.742 14.2163 137.466 14.983C137.206 15.7497 137.075 16.7387 137.075 17.95C137.075 19.1613 137.206 20.1503 137.466 20.917C137.742 21.6837 138.11 22.2433 138.57 22.596C139.046 22.9487 139.59 23.125 140.203 23.125Z" fill="black"/>
<path d="M23.8787 31.1786C27.8448 31.1786 31.0599 27.9479 31.0599 23.9625C31.0599 19.9772 27.8448 16.7465 23.8787 16.7465C19.9126 16.7465 16.6975 19.9772 16.6975 23.9625C16.6975 27.9479 19.9126 31.1786 23.8787 31.1786Z" fill="#97CF26"/>
<path d="M10.3799 27.3215C12.2261 27.3215 13.7226 25.8177 13.7226 23.9626C13.7226 22.1075 12.2261 20.6036 10.3799 20.6036C8.53381 20.6036 7.03723 22.1075 7.03723 23.9626C7.03723 25.8177 8.53381 27.3215 10.3799 27.3215Z" fill="#A169F7"/>
<path d="M23.8788 15.0429C26.4316 15.0429 28.501 12.9635 28.501 10.3983C28.501 7.83314 26.4316 5.75366 23.8788 5.75366C21.326 5.75366 19.2566 7.83314 19.2566 10.3983C19.2566 12.9635 21.326 15.0429 23.8788 15.0429Z" fill="#FF6163"/>
<path d="M10.38 16.3286C13.6394 16.3286 16.2817 13.6735 16.2817 10.3983C16.2817 7.12301 13.6394 4.4679 10.38 4.4679C7.12056 4.4679 4.47827 7.12301 4.47827 10.3983C4.47827 13.6735 7.12056 16.3286 10.38 16.3286Z" fill="#00AAFF"/>
<path d="M49.7298 27.2823H53.4576L46.5538 8.39258H43.8499L36.9447 27.2829H40.6729L41.9914 23.6771H48.4113L49.7298 27.2829L43.0297 20.8344L45.2017 14.8944L47.3723 20.8344H43.0297L49.7298 27.2823ZM62.6989 14.3859L59.2682 23.7697L55.8391 14.3859H52.3365L57.0521 27.2823H61.4849L66.1999 14.3859H62.6982M67.6659 14.3859H71.1685V27.2823H67.6659V14.3859Z" fill="black"/>
<path d="M69.4291 12.9214C70.6745 12.9214 71.6842 11.9069 71.6842 10.6554C71.6842 9.40384 70.6745 8.38928 69.4291 8.38928C68.1836 8.38928 67.174 9.40384 67.174 10.6554C67.174 11.9069 68.1836 12.9214 69.4291 12.9214Z" fill="black"/>
<path d="M83.5355 17.228V14.3859H79.3397V10.8284H75.8393V14.3859H73.0692V17.228H75.8393V22.7765C75.8393 25.6385 77.2634 27.5488 80.8998 27.5488C82.304 27.5488 83.5355 27.0306 83.5355 27.0306L83.1101 24.2461C83.1101 24.2461 82.4208 24.4531 81.5731 24.4531C80.5342 24.4531 79.3397 24.0031 79.3397 22.5599V17.2277L83.5355 17.228ZM91.5676 24.3345C89.6148 24.3345 88.0324 22.7788 88.0324 20.8598C88.0324 18.9425 89.6148 17.3865 91.567 17.3865C93.5205 17.3865 95.1023 18.9428 95.1023 20.8602C95.1023 22.7791 93.5205 24.3345 91.5676 24.3345ZM91.5676 14.0568C87.7713 14.0568 84.6925 17.083 84.6925 20.8132C84.6925 24.545 87.7713 27.5697 91.5673 27.5697C95.3617 27.5697 98.4405 24.545 98.4405 20.8132C98.4405 17.083 95.3617 14.0568 91.567 14.0568" fill="black"/>
</svg>
