<svg width="1440" height="660" viewBox="0 0 1440 660" fill="none" xmlns="http://www.w3.org/2000/svg">
<g clip-path="url(#clip0_226_1847)">
<path d="M1398.5 583C1398.5 646.787 1346.57 698.5 1282.5 698.5C1218.43 698.5 1166.5 646.787 1166.5 583C1166.5 519.213 1218.43 467.5 1282.5 467.5C1346.57 467.5 1398.5 519.213 1398.5 583Z" stroke="#FAFBFD"/>
<path d="M1334.5 583C1334.5 611.438 1311.22 634.5 1282.5 634.5C1253.78 634.5 1230.5 611.438 1230.5 583C1230.5 554.562 1253.78 531.5 1282.5 531.5C1311.22 531.5 1334.5 554.562 1334.5 583Z" stroke="#FAFBFD"/>
<path d="M208.5 262C208.5 316.952 163.952 361.5 109 361.5C54.0477 361.5 9.5 316.952 9.5 262C9.5 207.048 54.0477 162.5 109 162.5C163.952 162.5 208.5 207.048 208.5 262Z" stroke="#FAFBFD"/>
<path d="M196.5 262C196.5 310.325 157.325 349.5 109 349.5C60.6751 349.5 21.5 310.325 21.5 262C21.5 213.675 60.6751 174.5 109 174.5C157.325 174.5 196.5 213.675 196.5 262Z" stroke="#FAFBFD"/>
<path d="M1433.5 257C1433.5 305.325 1394.32 344.5 1346 344.5C1297.68 344.5 1258.5 305.325 1258.5 257C1258.5 208.675 1297.68 169.5 1346 169.5C1394.32 169.5 1433.5 208.675 1433.5 257Z" stroke="#FAFBFD"/>
<path d="M1413.5 257C1413.5 294.279 1383.28 324.5 1346 324.5C1308.72 324.5 1278.5 294.279 1278.5 257C1278.5 219.721 1308.72 189.5 1346 189.5C1383.28 189.5 1413.5 219.721 1413.5 257Z" stroke="#FAFBFD"/>
</g>
<defs>
<clipPath id="clip0_226_1847">
<rect width="1440" height="660" rx="20" fill="white"/>
</clipPath>
</defs>
</svg>
