<svg width="86" height="14" viewBox="0 0 86 14" fill="none" xmlns="http://www.w3.org/2000/svg">
<path d="M7.00008 1.16675L8.80258 4.81841L12.8334 5.40758L9.91675 8.24841L10.6051 12.2617L7.00008 10.3659L3.39508 12.2617L4.08341 8.24841L1.16675 5.40758L5.19758 4.81841L7.00008 1.16675Z" fill="#FCC70D"/>
<path d="M25.0001 1.16675L26.8026 4.81841L30.8334 5.40758L27.9167 8.24841L28.6051 12.2617L25.0001 10.3659L21.3951 12.2617L22.0834 8.24841L19.1667 5.40758L23.1976 4.81841L25.0001 1.16675Z" fill="#FCC70D"/>
<path d="M43.0001 1.16675L44.8026 4.81841L48.8334 5.40758L45.9167 8.24841L46.6051 12.2617L43.0001 10.3659L39.3951 12.2617L40.0834 8.24841L37.1667 5.40758L41.1976 4.81841L43.0001 1.16675Z" fill="#FCC70D"/>
<path d="M61.0001 1.16675L62.8026 4.81841L66.8334 5.40758L63.9167 8.24841L64.6051 12.2617L61.0001 10.3659L57.3951 12.2617L58.0834 8.24841L55.1667 5.40758L59.1976 4.81841L61.0001 1.16675Z" fill="#FCC70D"/>
<path d="M79.0001 1.16675L80.8026 4.81841L84.8334 5.40758L81.9167 8.24841L82.6051 12.2617L79.0001 10.3659L75.3951 12.2617L76.0834 8.24841L73.1667 5.40758L77.1976 4.81841L79.0001 1.16675Z" fill="#FCC70D"/>
</svg>
