<svg width="34" height="5" viewBox="0 0 34 5" fill="none" xmlns="http://www.w3.org/2000/svg">
<path d="M2.5578 0L3.34816 1.64564L5.11561 1.91115L3.83671 3.19138L4.13853 5L2.5578 4.14564L0.977081 5L1.2789 3.19138L0 1.91115L1.76744 1.64564L2.5578 0Z" fill="#FCC70D"/>
<path d="M9.71967 0L10.51 1.64564L12.2775 1.91115L10.9986 3.19138L11.3004 5L9.71967 4.14564L8.13895 5L8.44077 3.19138L7.16187 1.91115L8.92931 1.64564L9.71967 0Z" fill="#FCC70D"/>
<path d="M16.8815 0L17.6719 1.64564L19.4393 1.91115L18.1604 3.19138L18.4623 5L16.8815 4.14564L15.3008 5L15.6026 3.19138L14.3237 1.91115L16.0912 1.64564L16.8815 0Z" fill="#FCC70D"/>
<path d="M24.0434 0L24.8338 1.64564L26.6012 1.91115L25.3223 3.19138L25.6241 5L24.0434 4.14564L22.4627 5L22.7645 3.19138L21.4856 1.91115L23.253 1.64564L24.0434 0Z" fill="#FCC70D"/>
<path d="M31.2053 0L31.9956 1.64564L33.7631 1.91115L32.4842 3.19138L32.786 5L31.2053 4.14564L29.6245 5L29.9264 3.19138L28.6475 1.91115L30.4149 1.64564L31.2053 0Z" fill="#FCC70D"/>
</svg>
