<svg width="27" height="27" viewBox="0 0 27 27" fill="none" xmlns="http://www.w3.org/2000/svg">
<path d="M13.68 2.15997C20.0424 2.15997 25.2 7.31757 25.2 13.68C25.2 20.0424 20.0424 25.2 13.68 25.2C7.31763 25.2 2.16003 20.0424 2.16003 13.68C2.16003 7.31757 7.31763 2.15997 13.68 2.15997ZM17.654 18.3758C17.8656 17.7259 18.8588 11.2464 18.9812 9.96957C19.0181 9.58269 18.8962 9.32589 18.6567 9.21117C18.3672 9.07197 17.9386 9.14157 17.4408 9.32109C16.7588 9.56685 8.03763 13.2701 7.53363 13.4841C7.05603 13.6872 6.60387 13.9085 6.60387 14.2291C6.60387 14.4547 6.73779 14.5814 7.10643 14.7129C7.48995 14.8497 8.45619 15.1425 9.02691 15.3C9.57651 15.4517 10.202 15.3201 10.5524 15.1022C10.9239 14.8713 15.2132 12.0014 15.5208 11.7499C15.8285 11.4984 16.0738 11.8205 15.8223 12.0725C15.5708 12.324 12.6269 15.1814 12.2386 15.5769C11.7672 16.0574 12.1018 16.5552 12.4181 16.7544C12.7791 16.9819 15.3764 18.7238 15.7676 19.0032C16.1588 19.2825 16.5552 19.4093 16.9186 19.4093C17.282 19.4093 17.473 18.9312 17.654 18.3758Z" fill="white"/>
</svg>
