<svg width="63" height="16" viewBox="0 0 63 16" fill="none" xmlns="http://www.w3.org/2000/svg">
<path d="M62.4999 1.00863C62.5047 0.732527 62.2847 0.504839 62.0086 0.500074L57.5093 0.422424C57.2332 0.41766 57.0055 0.637621 57.0007 0.913722C56.996 1.18982 57.2159 1.41751 57.492 1.42228L61.4914 1.4913L61.4224 5.4907C61.4177 5.7668 61.6376 5.99449 61.9137 5.99926C62.1898 6.00402 62.4175 5.78406 62.4223 5.50796L62.4999 1.00863ZM1 6.7931C0.719856 7.20725 0.720035 7.20737 0.720261 7.20753C0.720398 7.20762 0.72067 7.2078 0.720944 7.20799C0.721492 7.20836 0.722225 7.20885 0.723143 7.20947C0.724978 7.2107 0.727553 7.21243 0.730863 7.21465C0.737483 7.21907 0.747046 7.22545 0.759523 7.2337C0.784479 7.2502 0.821096 7.27423 0.869159 7.30527C0.965284 7.36736 1.1072 7.45754 1.29319 7.57178C1.66514 7.80026 2.21344 8.12507 2.92425 8.51405C4.34571 9.29191 6.41812 10.327 9.0307 11.3614C14.2544 13.4298 21.6478 15.5 30.3204 15.5V14.5C21.8052 14.5 14.5385 12.4668 9.39886 10.4317C6.82981 9.41443 4.79483 8.39774 3.4043 7.63681C2.70913 7.25639 2.17529 6.94004 1.8166 6.7197C1.63726 6.60954 1.50173 6.5234 1.41174 6.46527C1.36675 6.43621 1.33314 6.41415 1.31113 6.3996C1.30013 6.39232 1.29203 6.38692 1.28686 6.38346C1.28427 6.38173 1.28241 6.38048 1.28129 6.37973C1.28073 6.37935 1.28036 6.3791 1.28017 6.37897C1.28007 6.3789 1.28006 6.3789 1.28002 6.37887C1.28006 6.3789 1.28014 6.37895 1 6.7931ZM30.3204 15.5C39.0439 15.5 47.0561 11.9502 52.8649 8.42753C55.7735 6.66363 58.1404 4.90001 59.781 3.57667C60.6015 2.91483 61.241 2.36264 61.6763 1.97495C61.894 1.78109 62.0606 1.62832 62.1734 1.52349C62.2298 1.47107 62.2728 1.43063 62.3019 1.40303C62.3164 1.38924 62.3275 1.37865 62.3351 1.37137C62.3389 1.36773 62.3419 1.36493 62.3439 1.36296C62.3449 1.36198 62.3457 1.3612 62.3463 1.36064C62.3466 1.36036 62.3469 1.3601 62.347 1.35996C62.3472 1.35976 62.3474 1.3596 62 1C61.6526 0.640399 61.6526 0.640351 61.6526 0.640357C61.6526 0.64043 61.6525 0.640489 61.6524 0.640635C61.6521 0.640926 61.6515 0.641428 61.6508 0.642141C61.6493 0.643566 61.6469 0.645831 61.6437 0.648923C61.6373 0.655107 61.6273 0.664598 61.6139 0.677288C61.5872 0.702668 61.5466 0.740846 61.4927 0.790968C61.3848 0.891216 61.2234 1.03923 61.0112 1.22818C60.5868 1.60611 59.9598 2.14767 59.1532 2.79833C57.5395 4.09999 55.2092 5.83637 52.3464 7.57247C46.6124 11.0498 38.7848 14.5 30.3204 14.5V15.5Z" fill="#FAFBFD"/>
</svg>
