<?xml version="1.0" encoding="UTF-8" standalone="no"?>
<!-- Created with Inkscape (http://www.inkscape.org/) -->

<svg
   version="1.1"
   id="svg2"
   width="1122.52"
   height="1122.52"
   viewBox="0 0 1122.52 1122.52"
   sodipodi:docname="hdd-banner.svg"
   inkscape:version="1.2.2 (1:1.2.2+202212051552+b0a8486541)"
   xmlns:inkscape="http://www.inkscape.org/namespaces/inkscape"
   xmlns:sodipodi="http://sodipodi.sourceforge.net/DTD/sodipodi-0.dtd"
   xmlns="http://www.w3.org/2000/svg"
   xmlns:svg="http://www.w3.org/2000/svg">
  <defs
     id="defs6">
    <clipPath
       clipPathUnits="userSpaceOnUse"
       id="clipPath64">
      <path
         d="m 846.086,5201.8 -0.195,-64.92 c 0.058,20.74 -13.567,41.56 -40.942,57.32 -54.469,31.45 -142.683,31.45 -196.695,0 -26.816,-15.57 -40.274,-36.05 -40.316,-56.5 l 0.148,64.86 c 0.066,20.51 13.535,40.98 40.359,56.6 54.055,31.37 142.27,31.41 196.68,0 27.316,-15.84 41.008,-36.6 40.961,-57.36"
         id="path62" />
    </clipPath>
    <clipPath
       clipPathUnits="userSpaceOnUse"
       id="clipPath78">
      <path
         d="m 5086.52,2798.15 -0.19,-64.91 c 0.04,20.75 -13.58,41.55 -40.95,57.33 -54.46,31.43 -142.68,31.43 -196.7,0 -26.82,-15.59 -40.27,-36.06 -40.32,-56.52 l 0.14,64.86 c 0.08,20.51 13.54,40.98 40.37,56.62 54.07,31.35 142.26,31.41 196.68,0 27.31,-15.86 41,-36.62 40.97,-57.38"
         id="path76" />
    </clipPath>
    <clipPath
       clipPathUnits="userSpaceOnUse"
       id="clipPath92">
      <path
         d="m 7827.16,4379.14 -0.21,-64.9 c 0.05,20.74 -13.56,41.54 -40.94,57.33 -54.47,31.42 -142.68,31.42 -196.7,0 -26.81,-15.57 -40.28,-36.08 -40.32,-56.53 l 0.16,64.88 c 0.06,20.49 13.54,40.98 40.35,56.59 54.06,31.38 142.27,31.4 196.68,0 27.32,-15.82 41.01,-36.6 40.98,-57.37"
         id="path90" />
    </clipPath>
    <clipPath
       clipPathUnits="userSpaceOnUse"
       id="clipPath106">
      <path
         d="m 3655.51,6846.64 -0.2,-64.9 c 0.04,20.74 -13.56,41.54 -40.94,57.33 -54.47,31.42 -142.68,31.42 -196.7,0 -26.81,-15.59 -40.28,-36.08 -40.32,-56.53 l 0.16,64.87 c 0.06,20.5 13.51,40.97 40.34,56.62 54.07,31.34 142.27,31.38 196.68,0 27.32,-15.86 41.02,-36.62 40.98,-57.39"
         id="path104" />
    </clipPath>
    <clipPath
       clipPathUnits="userSpaceOnUse"
       id="clipPath122">
      <path
         d="m 2517.1,5929.01 -0.45,0.27 c 17.68,24.25 24.44,65.46 31.75,110.23 l 0.1,0.05 c -7.28,-44.76 -13.94,-86.06 -31.4,-110.55"
         id="path120" />
    </clipPath>
    <clipPath
       clipPathUnits="userSpaceOnUse"
       id="clipPath314">
      <path
         d="m 5172.43,4799.57 -0.1,-31.38 c 0.04,10.02 -6.55,20.07 -19.78,27.71 -26.34,15.18 -68.96,15.18 -95.09,0 -12.96,-7.54 -19.45,-17.44 -19.49,-27.34 l 0.07,31.38 c 0.04,9.89 6.56,19.81 19.52,27.33 26.14,15.19 68.75,15.19 95.05,0 13.25,-7.64 19.86,-17.66 19.82,-27.7"
         id="path312" />
    </clipPath>
    <clipPath
       clipPathUnits="userSpaceOnUse"
       id="clipPath328">
      <path
         d="m 4765.74,4815.41 -0.07,-26.5 c 0,8.46 -5.54,16.97 -16.73,23.4 -22.23,12.83 -58.23,12.83 -80.29,0 -10.96,-6.37 -16.43,-14.73 -16.47,-23.09 l 0.07,26.51 c 0.03,8.35 5.5,16.72 16.47,23.1 22.06,12.79 58.09,12.81 80.31,0 11.14,-6.46 16.75,-14.96 16.71,-23.42"
         id="path326" />
    </clipPath>
    <clipPath
       clipPathUnits="userSpaceOnUse"
       id="clipPath342">
      <path
         d="m 5585.31,4753.27 -0.08,-26.51 c 0,8.48 -5.53,16.97 -16.71,23.42 -22.25,12.83 -58.25,12.83 -80.31,0 -10.97,-6.39 -16.44,-14.75 -16.48,-23.11 l 0.08,26.51 c 0.02,8.36 5.5,16.72 16.47,23.1 22.06,12.82 58.09,12.83 80.3,0 11.18,-6.46 16.75,-14.94 16.73,-23.41"
         id="path340" />
    </clipPath>
    <clipPath
       clipPathUnits="userSpaceOnUse"
       id="clipPath356">
      <path
         d="m 5044.09,4523.36 -0.1,-26.5 c 0.03,8.45 -5.54,16.95 -16.71,23.4 -22.22,12.83 -58.25,12.83 -80.32,0 -10.93,-6.37 -16.43,-14.73 -16.43,-23.07 l 0.02,26.48 c 0.05,8.38 5.55,16.72 16.48,23.11 22.1,12.79 58.09,12.81 80.31,0 11.18,-6.46 16.75,-14.96 16.75,-23.42"
         id="path354" />
    </clipPath>
    <clipPath
       clipPathUnits="userSpaceOnUse"
       id="clipPath370">
      <path
         d="m 5217.32,5010.26 -0.09,-26.51 c 0.03,8.48 -5.56,16.98 -16.71,23.42 -22.24,12.83 -58.26,12.83 -80.32,0 -10.93,-6.39 -16.45,-14.73 -16.45,-23.08 l 0.07,26.48 c 0,8.38 5.52,16.74 16.47,23.11 22.06,12.81 58.1,12.83 80.29,0 11.16,-6.47 16.74,-14.95 16.74,-23.42"
         id="path368" />
    </clipPath>
  </defs>
  <sodipodi:namedview
     id="namedview4"
     pagecolor="#505050"
     bordercolor="#eeeeee"
     borderopacity="1"
     inkscape:showpageshadow="0"
     inkscape:pageopacity="0"
     inkscape:pagecheckerboard="0"
     inkscape:deskcolor="#505050"
     showgrid="false"
     inkscape:zoom="0.53978923"
     inkscape:cx="542.80446"
     inkscape:cy="532.6153"
     inkscape:window-width="1920"
     inkscape:window-height="1016"
     inkscape:window-x="0"
     inkscape:window-y="0"
     inkscape:window-maximized="1"
     inkscape:current-layer="g12">
    <inkscape:page
       x="0"
       y="0"
       id="page8"
       width="1122.52"
       height="1122.52" />
  </sodipodi:namedview>
  <g
     id="g10"
     inkscape:groupmode="layer"
     inkscape:label="Page 1"
     transform="matrix(1.3333333,0,0,-1.3333333,0,1122.52)">
    <g
       id="g12"
       transform="scale(0.1)">
      <path
         d="m 4862.32,1599.69 c -74.52,0 -148.98,16.49 -205.61,49.41 L 351.668,4150.86 c -113.133,65.78 -112.891,172.44 1.016,238.26 l 587.527,339.2 3716.499,-2159.76 c 56.63,-32.92 131.09,-49.41 205.6,-49.41 74.32,-0.01 148.7,16.39 205.57,49.23 l 2370.18,1368.4 588.61,-342.07 c 113.13,-65.76 112.87,-172.4 -1.08,-238.18 L 5067.88,1648.93 c -56.86,-32.85 -131.24,-49.24 -205.56,-49.24"
         style="fill:#6e6e6e;fill-opacity:0.29781976;fill-rule:nonzero;stroke:none"
         id="path16" />
      <path
         d="m 2164.38,4065.35 -0.25,-83.69 -480.43,-279.2 0.24,83.71 480.44,279.18"
         style="fill:#3a3e27;fill-opacity:1;fill-rule:nonzero;stroke:none"
         id="path18" />
      <path
         d="m 1683.94,3786.17 -0.24,-83.71 -1201.837,693.89 0.254,83.67 1201.823,-693.85"
         style="fill:#282b1b;fill-opacity:1;fill-rule:nonzero;stroke:none"
         id="path20" />
      <path
         d="M 2164.38,4065.35 1683.94,3786.17 482.117,4480.02 962.539,4759.24 2164.38,4065.35"
         style="fill:#41462b;fill-opacity:1;fill-rule:nonzero;stroke:none"
         id="path22" />
      <path
         d="M 351.668,5070.33 4656.71,2568.56 c 113.11,-65.76 297.29,-65.94 411.17,-0.18 l 2957.71,1707.6 c 113.95,65.78 114.21,172.42 1.08,238.2 L 3721.64,7016 c -113.13,65.7 -297.29,65.9 -411.2,0.19 L 352.684,5308.6 c -113.907,-65.84 -114.149,-172.48 -1.016,-238.27"
         style="fill:#443c41;fill-opacity:1;fill-rule:nonzero;stroke:none"
         id="path24" />
      <path
         d="m 6148.57,2909.36 0.89,-307.4 849.3,490.37 -0.84,307.44 -849.35,-490.41"
         style="fill:#a3b7bf;fill-opacity:1;fill-rule:nonzero;stroke:none"
         id="path26" />
      <path
         d="m 6007.21,2977.97 0.9,-307.38 849.32,490.39 -0.89,307.44 -849.33,-490.45"
         style="fill:#273545;fill-opacity:1;fill-rule:nonzero;stroke:none"
         id="path28" />
      <path
         d="m 6149.46,2601.96 -0.89,307.4 849.35,490.41 0.84,-307.44 z m 1961.99,1745.25 c -0.01,6.56 -9.16,6.15 -12.16,0.29 -13.37,-26.17 -37.93,-50.86 -73.7,-71.52 L 5067.88,2568.38 c -113.88,-65.76 -298.06,-65.58 -411.17,0.18 L 351.672,5070.33 c -45.742,26.59 -72.949,59.89 -81.606,94.42 -0.371,1.42 -2.964,2.32 -2.964,0.86 0.41,-141.25 0.796,-282.52 1.187,-423.77 0.09,-29.51 15.82,-57.01 41.313,-71.9 169.058,-98.53 476.503,-278.04 559.609,-326.58 12.793,-7.48 21.199,-20.99 21.199,-35.82 v -290.76 c 0,-29.96 16.043,-57.83 41.945,-72.87 L 4658.95,1778.26 c 113.2,-65.84 297.29,-65.95 411.26,-0.25 l 2957.67,1707.68 c 57.17,32.97 85.8,76.34 85.61,119.72 l -2.04,741.8"
         style="fill:#241913;fill-opacity:1;fill-rule:nonzero;stroke:none"
         id="path30" />
      <path
         d="m 4130.93,2436.82 c 58.2,-33.61 105.16,-114.94 104.97,-181.82 -0.19,-66.79 -47.44,-93.81 -105.66,-60.21 -58.13,33.57 -105.15,115.02 -104.96,181.81 0.18,66.9 47.53,93.77 105.65,60.22"
         style="fill:#c0b9b0;fill-opacity:1;fill-rule:nonzero;stroke:none"
         id="path32" />
      <path
         d="m 4148.13,2395.73 c 36.55,-21.1 66.04,-72.15 65.9,-114.16 -0.11,-41.94 -29.79,-58.91 -66.33,-37.8 -36.51,21.08 -66.03,72.23 -65.91,114.14 0.1,42.01 29.84,58.89 66.34,37.82"
         style="fill:#4c453f;fill-opacity:1;fill-rule:nonzero;stroke:none"
         id="path34" />
      <path
         d="m 2353.45,3493.03 c 58.21,-33.61 105.17,-114.94 104.97,-181.82 -0.2,-66.79 -47.46,-93.8 -105.65,-60.21 -58.15,33.57 -105.18,115.02 -104.98,181.82 0.21,66.87 47.52,93.76 105.66,60.21"
         style="fill:#c0b9b0;fill-opacity:1;fill-rule:nonzero;stroke:none"
         id="path36" />
      <path
         d="m 2370.65,3451.94 c 36.54,-21.1 66.06,-72.17 65.91,-114.18 -0.12,-41.92 -29.8,-58.89 -66.34,-37.78 -36.5,21.08 -66.05,72.23 -65.9,114.14 0.09,42.02 29.84,58.89 66.33,37.82"
         style="fill:#4c453f;fill-opacity:1;fill-rule:nonzero;stroke:none"
         id="path38" />
      <path
         d="m 1252.48,4166.27 c 58.2,-33.59 105.17,-114.94 104.96,-181.81 -0.18,-66.8 -47.43,-93.81 -105.64,-60.22 -58.14,33.58 -105.17,115.04 -104.97,181.82 0.18,66.89 47.54,93.77 105.65,60.21"
         style="fill:#c0b9b0;fill-opacity:1;fill-rule:nonzero;stroke:none"
         id="path40" />
      <path
         d="m 1269.68,4125.18 c 36.54,-21.08 66.03,-72.15 65.91,-114.16 -0.12,-41.92 -29.8,-58.89 -66.35,-37.79 -36.5,21.07 -66.03,72.22 -65.9,114.16 0.11,41.99 29.83,58.88 66.34,37.79"
         style="fill:#4c453f;fill-opacity:1;fill-rule:nonzero;stroke:none"
         id="path42" />
      <path
         d="m 6519.02,5229.61 c 811.49,-468.51 815.64,-1230.74 9.54,-1699.22 -806.11,-468.43 -2122.01,-468.51 -2933.49,0 -265.42,153.23 -454.32,344.36 -546.87,553.19 l -249.26,-144.85 -1698.32,968.09 -104.761,490.72 1683.991,978.63 c 520.41,302.43 1370.1,302.52 1894.05,0.02 l 1139.4,-645.27 -152.48,-88.63 249.45,-144.01 c 26.54,-6.09 50.81,-11.83 74.27,-17.79 236.55,-60.02 450.08,-144.41 634.48,-250.88"
         style="fill:#251b1c;fill-opacity:1;fill-rule:nonzero;stroke:none"
         id="path44" />
      <path
         d="m 3845.67,5351.7 -0.27,-249 -303.16,-173.93 0.25,248.99 303.18,173.94"
         style="fill:#7c0b0b;fill-opacity:1;fill-rule:nonzero;stroke:none"
         id="path46" />
      <path
         d="m 5801.74,5488.6 -0.7,-244.75 -267.53,153.75 0.69,244.77 267.54,-153.77"
         style="fill:#2c2324;fill-opacity:1;fill-rule:nonzero;stroke:none"
         id="path48" />
      <path
         d="m 4560.55,6368.44 c -516.52,298.2 -1354.26,298.28 -1867.42,0.06 l -1677.54,-974.9 39.78,-227.25 1637.08,957.4 c 513.16,298.21 1350.88,298.15 1867.4,-0.05 l 976.92,-553.13 -0.68,72.91 150.46,87.44 -1126,637.52"
         style="fill:#2c2324;fill-opacity:1;fill-rule:nonzero;stroke:none"
         id="path50" />
      <path
         d="m 7111.64,4374.12 -14.68,-213.65 c 0.89,306.88 -187.22,583.11 -591.85,816.7 -182.73,105.51 -394.32,189.2 -628.85,248.63 -23.57,6.02 -48.32,11.88 -75.22,18.05 l 0.7,244.75 c 26.89,-6.16 51.63,-12.02 75.21,-18.05 234.52,-59.41 446.14,-143.13 628.85,-248.61 404.61,-233.62 606.73,-540.96 605.84,-847.82"
         style="fill:#2c2324;fill-opacity:1;fill-rule:nonzero;stroke:none"
         id="path52" />
      <path
         d="m 3608.26,3538.07 c 804.06,-464.24 2108.2,-464.24 2907.01,0.02 798.86,464.24 794.58,1219.61 -9.47,1683.85 -182.71,105.49 -394.33,189.2 -628.85,248.61 -23.58,6.04 -48.32,11.89 -75.21,18.05 l -267.54,153.77 152.35,88.55 -1126,637.52 c -516.52,298.2 -1354.26,298.28 -1867.42,0.06 l -1677.54,-974.9 102.78,-481.72 1680.48,-957.8 259.5,150.81 3.99,-9.34 c 90.27,-210.55 278.98,-403.36 545.92,-557.48 m 2910.76,1691.54 c 811.49,-468.51 815.64,-1230.74 9.54,-1699.22 -806.11,-468.43 -2122.01,-468.51 -2933.49,0 -265.42,153.23 -454.32,344.36 -546.87,553.19 l -249.26,-144.85 -1698.32,968.09 -104.761,490.72 1683.991,978.63 c 520.41,302.43 1370.1,302.52 1894.05,0.02 l 1139.4,-645.27 -152.48,-88.63 249.45,-144.01 c 26.54,-6.09 50.81,-11.83 74.27,-17.79 236.55,-60.02 450.08,-144.41 634.48,-250.88"
         style="fill:#443c41;fill-opacity:1;fill-rule:nonzero;stroke:none"
         id="path54" />
      <path
         d="m 846.086,5167.7 c 0,-28.11 -61.621,-50.86 -137.602,-50.86 -76.011,0 -137.617,22.75 -137.617,50.86 0,28.05 61.606,50.82 137.617,50.82 75.981,0 137.602,-22.77 137.602,-50.82"
         style="fill:#929396;fill-opacity:1;fill-rule:nonzero;stroke:none"
         id="path56" />
      <g
         id="g58">
        <g
           id="g60"
           clip-path="url(#clipPath64)">
          <path
             d="m 846.086,5201.8 -0.195,-64.92 c 0.054,20.74 -13.567,41.56 -40.942,57.32 -54.469,31.45 -142.683,31.45 -196.695,0 -26.816,-15.56 -40.274,-36.05 -40.316,-56.5 l 0.148,64.86 c 0.066,20.51 13.535,40.98 40.359,56.6 54.055,31.37 142.27,31.41 196.684,0 27.312,-15.84 41.004,-36.6 40.957,-57.36"
             style="fill:#b3b4b6;fill-opacity:1;fill-rule:nonzero;stroke:none"
             id="path66" />
        </g>
      </g>
      <path
         d="m 609.133,5145.22 c 54.375,-31.39 142.555,-31.39 196.609,0 54.055,31.44 53.77,82.52 -0.613,113.94 -54.414,31.41 -142.629,31.37 -196.684,0 -54.043,-31.42 -53.777,-82.5 0.688,-113.94 m 214.656,124.76 c 64.758,-37.36 65.098,-98.24 0.754,-135.6 -64.301,-37.4 -169.398,-37.4 -234.082,0 -64.758,37.36 -65.141,98.26 -0.832,135.6 64.363,37.37 169.434,37.37 234.16,0"
         style="fill:#443c41;fill-opacity:1;fill-rule:nonzero;stroke:none"
         id="path68" />
      <path
         d="m 5086.52,2764.07 c 0,-28.13 -61.63,-50.88 -137.6,-50.88 -76.02,0 -137.61,22.75 -137.61,50.88 0,28.02 61.59,50.82 137.61,50.82 75.97,0 137.6,-22.8 137.6,-50.82"
         style="fill:#929396;fill-opacity:1;fill-rule:nonzero;stroke:none"
         id="path70" />
      <g
         id="g72">
        <g
           id="g74"
           clip-path="url(#clipPath78)">
          <path
             d="m 5086.52,2798.15 -0.19,-64.9 c 0.04,20.74 -13.58,41.54 -40.95,57.32 -54.46,31.43 -142.68,31.43 -196.7,0 -26.81,-15.59 -40.27,-36.06 -40.32,-56.52 l 0.15,64.86 c 0.07,20.51 13.53,40.98 40.36,56.62 54.07,31.35 142.26,31.41 196.68,0 27.31,-15.86 41,-36.62 40.97,-57.38"
             style="fill:#b3b4b6;fill-opacity:1;fill-rule:nonzero;stroke:none"
             id="path80" />
        </g>
      </g>
      <path
         d="m 4849.55,2741.58 c 54.39,-31.4 142.57,-31.4 196.61,0 54.05,31.45 53.77,82.5 -0.61,113.95 -54.42,31.41 -142.61,31.35 -196.68,0 -54.03,-31.45 -53.78,-82.5 0.68,-113.95 m 214.66,124.75 c 64.75,-37.36 65.12,-98.22 0.77,-135.6 -64.3,-37.39 -169.4,-37.39 -234.1,0 -64.76,37.38 -65.14,98.28 -0.83,135.6 64.37,37.38 169.44,37.38 234.16,0"
         style="fill:#443c41;fill-opacity:1;fill-rule:nonzero;stroke:none"
         id="path82" />
      <path
         d="m 7827.16,4345.06 c 0,-28.14 -61.63,-50.88 -137.61,-50.88 -76.02,0 -137.62,22.74 -137.62,50.88 0,28.05 61.6,50.82 137.62,50.82 75.98,0 137.61,-22.77 137.61,-50.82"
         style="fill:#929396;fill-opacity:1;fill-rule:nonzero;stroke:none"
         id="path84" />
      <g
         id="g86">
        <g
           id="g88"
           clip-path="url(#clipPath92)">
          <path
             d="m 7827.16,4379.14 -0.21,-64.9 c 0.05,20.74 -13.56,41.54 -40.94,57.33 -54.47,31.42 -142.68,31.42 -196.7,0 -26.81,-15.57 -40.28,-36.08 -40.32,-56.53 l 0.16,64.88 c 0.06,20.49 13.54,40.98 40.35,56.59 54.06,31.38 142.27,31.4 196.68,0 27.33,-15.82 41.01,-36.6 40.98,-57.37"
             style="fill:#b3b4b6;fill-opacity:1;fill-rule:nonzero;stroke:none"
             id="path94" />
        </g>
      </g>
      <path
         d="m 7590.19,4322.58 c 54.37,-31.41 142.56,-31.41 196.61,0 54.05,31.43 53.78,82.5 -0.62,113.93 -54.41,31.4 -142.62,31.38 -196.68,0 -54.03,-31.43 -53.77,-82.5 0.69,-113.93 m 214.66,124.75 c 64.75,-37.37 65.1,-98.23 0.76,-135.61 -64.3,-37.38 -169.41,-37.38 -234.1,0 -64.74,37.38 -65.13,98.28 -0.83,135.61 64.37,37.36 169.44,37.36 234.17,0"
         style="fill:#443c41;fill-opacity:1;fill-rule:nonzero;stroke:none"
         id="path96" />
      <path
         d="m 3655.51,6812.56 c 0,-28.12 -61.63,-50.88 -137.6,-50.88 -76.03,0 -137.62,22.76 -137.62,50.88 0,28.03 61.59,50.82 137.62,50.82 75.97,0 137.6,-22.79 137.6,-50.82"
         style="fill:#929396;fill-opacity:1;fill-rule:nonzero;stroke:none"
         id="path98" />
      <g
         id="g100">
        <g
           id="g102"
           clip-path="url(#clipPath106)">
          <path
             d="m 3655.51,6846.64 -0.2,-64.9 c 0.04,20.74 -13.56,41.54 -40.94,57.33 -54.47,31.42 -142.68,31.42 -196.7,0 -26.81,-15.59 -40.28,-36.08 -40.32,-56.53 l 0.16,64.87 c 0.06,20.5 13.52,40.97 40.34,56.62 54.07,31.34 142.27,31.38 196.68,0 27.32,-15.86 41.02,-36.62 40.98,-57.39"
             style="fill:#b3b4b6;fill-opacity:1;fill-rule:nonzero;stroke:none"
             id="path108" />
        </g>
      </g>
      <path
         d="m 3418.54,6790.08 c 54.38,-31.41 142.57,-31.41 196.61,0 54.06,31.43 53.78,82.5 -0.62,113.95 -54.41,31.38 -142.61,31.34 -196.68,0 -54.02,-31.45 -53.78,-82.52 0.69,-113.95 m 214.65,124.75 c 64.77,-37.37 65.12,-98.22 0.77,-135.61 -64.29,-37.38 -169.4,-37.38 -234.09,0 -64.75,37.39 -65.13,98.28 -0.83,135.61 64.37,37.38 169.44,37.38 234.15,0"
         style="fill:#443c41;fill-opacity:1;fill-rule:nonzero;stroke:none"
         id="path110" />
      <path
         d="m 4926.76,5845.86 -113.36,65.72 c -72.1,36.9 -26.73,250.77 -136.2,314.01 -254.41,147.83 -498.85,326.83 -1021.69,326.19 -521.92,0.64 -766.02,-177.64 -1021.69,-326.19 -110.45,-63.83 -63.28,-276.68 -136.21,-314.01 l -113.35,-65.72 c -71.75,-41.68 -71.48,-109.26 0.73,-150.93 l 402.62,-232.45 c 71.45,-41.27 191.89,-49.37 266.27,-10.07 29.45,15.56 55.65,38.55 89.03,49.57 l 50.26,158.79 c 51.19,96.4 126.41,179.51 270.02,227.96 h 384.63 c 143.63,-48.45 218.84,-131.56 270.02,-227.96 l 50.28,-158.79 c 33.37,-11.02 59.56,-34.01 89.03,-49.57 74.36,-39.3 194.81,-31.2 266.26,10.07 l 402.62,232.45 c 72.21,41.67 72.47,109.25 0.73,150.93"
         style="fill:#aeaaa9;fill-opacity:1;fill-rule:nonzero;stroke:none"
         id="path112" />
      <path
         d="m 4978.41,5769.5 c 0.08,-27.47 -18.06,-54.97 -54.36,-75.94 l -402.6,-232.44 c -71.47,-41.25 -184.8,-36.61 -260.72,-0.37 -136.4,65.05 -26.17,285.11 -244.04,380.54 -206.8,109.32 -516.25,108.95 -722.36,0 -217.72,-95.37 -107.71,-315.53 -244.05,-380.54 -75.91,-36.24 -189.23,-40.88 -260.7,0.37 l -402.62,232.44 c -36.29,20.97 -54.42,48.47 -54.34,75.94 l -0.64,-86.27 c -0.08,-27.48 18.05,-54.98 54.35,-75.94 l 402.62,-232.46 c 71.44,-41.25 186.34,-39.67 260.72,-0.37 209.01,110.44 94.3,292.93 260.61,387.05 l -0.06,0.21 c 198.43,98.42 492.55,98.22 690.58,0 l -0.07,-0.21 c 166.31,-94.12 51.6,-276.61 260.63,-387.05 74.37,-39.3 189.25,-40.88 260.72,0.37 l 402.62,232.46 c 36.29,20.96 54.42,48.46 54.33,75.94 l -0.62,86.27"
         style="fill:#9c9897;fill-opacity:1;fill-rule:nonzero;stroke:none"
         id="path114" />
      <g
         id="g116">
        <g
           id="g118"
           clip-path="url(#clipPath122)">
          <path
             d="m 2516.65,5929.01 h 31.8516 v 110.551 H 2516.65 Z"
             style="fill:#1e1617;fill-opacity:1;fill-rule:nonzero;stroke:none"
             id="path124" />
        </g>
      </g>
      <path
         d="m 2548.4,6039.51 c 9.1,55.77 19.07,117.07 52.09,157.97 l 0.34,-0.2 c -33.19,-40.69 -43.25,-101.89 -52.33,-157.72 l -0.1,-0.05"
         style="fill:#241c1d;fill-opacity:1;fill-rule:nonzero;stroke:none"
         id="path126" />
      <path
         d="m 3125.97,5568.67 -608.87,360.34 c 17.46,24.49 24.12,65.79 31.4,110.55 9.08,55.83 19.14,117.03 52.33,157.72 l 645.31,-381.87 c -96.69,-66.42 -99.44,-166.85 -120.17,-246.74"
         style="fill:#908b8a;fill-opacity:1;fill-rule:nonzero;stroke:none"
         id="path128" />
      <path
         d="m 4184.7,5569.27 c -18.79,73.46 -22.83,164.04 -98.87,229.49 -6.69,5.84 -13.96,11.49 -21.85,16.91 l 645.67,382.09 c 59.52,-73.75 44.13,-213.77 83.84,-268.21 L 4184.7,5569.27"
         style="fill:#908b8a;fill-opacity:1;fill-rule:nonzero;stroke:none"
         id="path130" />
      <path
         d="m 4184.15,5568.95 c -19.02,73.37 -22.89,164.05 -98.32,229.81 76.04,-65.45 80.08,-156.03 98.87,-229.49 l -0.55,-0.32"
         style="fill:#817c7b;fill-opacity:1;fill-rule:nonzero;stroke:none"
         id="path132" />
      <path
         d="m 2603.95,5770.2 -0.07,-33.15 c -0.03,-12.85 -8.5,-25.68 -25.36,-35.48 -33.98,-19.75 -89.23,-19.75 -123.42,0 -17.21,9.94 -25.81,22.96 -25.75,35.99 l 0.08,33.15 c -0.07,-13.05 8.54,-26.1 25.73,-36 34.22,-19.77 89.46,-19.77 123.45,0 16.87,9.8 25.31,22.64 25.34,35.49"
         style="fill:#b9c0d1;fill-opacity:1;fill-rule:nonzero;stroke:none"
         id="path134" />
      <path
         d="m 2578.21,5806.19 c 34.16,-19.74 34.36,-51.77 0.4,-71.48 -33.99,-19.77 -89.23,-19.77 -123.45,0 -34.16,19.71 -34.37,51.74 -0.41,71.48 34.02,19.73 89.23,19.73 123.46,0"
         style="fill:#d5f0fd;fill-opacity:1;fill-rule:nonzero;stroke:none"
         id="path136" />
      <path
         d="m 2572.23,5804.65 c 10.17,-5.88 10.12,-15.39 0.11,-21.21 l -19.13,-11.13 19.25,-11.14 c 10.09,-5.82 10.3,-15.33 0.13,-21.21 -9.96,-5.82 -26.53,-5.82 -36.63,0 l -19.26,11.12 -19,-11.06 c -10.15,-5.88 -26.47,-5.88 -36.67,0 -10.04,5.82 -10.26,15.33 -0.12,21.23 l 19.04,11.06 -19.16,11.05 c -10.18,5.9 -10.12,15.41 -0.13,21.23 10.15,5.88 26.44,5.86 36.64,0 l 19.16,-11.05 19.14,11.11 c 10.01,5.82 26.57,5.82 36.63,0"
         style="fill:#b1b8c5;fill-opacity:1;fill-rule:nonzero;stroke:none"
         id="path138" />
      <path
         d="m 2909.29,5585.28 -0.08,-33.15 c -0.03,-12.85 -8.49,-25.68 -25.36,-35.49 -33.98,-19.74 -89.23,-19.74 -123.42,0 -17.21,9.94 -25.81,22.95 -25.75,36 l 0.09,33.14 c -0.08,-13.04 8.53,-26.11 25.72,-35.99 34.23,-19.77 89.46,-19.77 123.46,0 16.86,9.78 25.3,22.62 25.34,35.49"
         style="fill:#b9c0d1;fill-opacity:1;fill-rule:nonzero;stroke:none"
         id="path140" />
      <path
         d="m 2883.54,5621.27 c 34.17,-19.74 34.37,-51.77 0.41,-71.48 -34,-19.77 -89.23,-19.77 -123.46,0 -34.16,19.71 -34.37,51.74 -0.41,71.48 34.03,19.73 89.24,19.73 123.46,0"
         style="fill:#d5f0fd;fill-opacity:1;fill-rule:nonzero;stroke:none"
         id="path142" />
      <path
         d="m 2877.56,5619.73 c 10.18,-5.88 10.13,-15.41 0.12,-21.21 l -19.14,-11.13 19.25,-11.14 c 10.09,-5.82 10.31,-15.35 0.13,-21.23 -9.96,-5.82 -26.52,-5.82 -36.62,0 l -19.27,11.14 -19,-11.08 c -10.15,-5.88 -26.47,-5.88 -36.66,0 -10.05,5.82 -10.27,15.35 -0.13,21.25 l 19.04,11.06 -19.16,11.03 c -10.18,5.9 -10.11,15.43 -0.12,21.25 10.14,5.88 26.43,5.86 36.64,0 l 19.15,-11.07 19.14,11.13 c 10.01,5.82 26.57,5.82 36.63,0"
         style="fill:#b1b8c5;fill-opacity:1;fill-rule:nonzero;stroke:none"
         id="path144" />
      <path
         d="m 4516.03,5567 -0.07,-33.15 c -0.03,-12.87 -8.49,-25.7 -25.36,-35.49 -33.97,-19.74 -89.23,-19.74 -123.42,0 -17.21,9.94 -25.8,22.95 -25.75,36 l 0.08,33.12 c -0.06,-13.02 8.54,-26.09 25.73,-35.99 34.22,-19.75 89.46,-19.75 123.45,0 16.86,9.8 25.31,22.63 25.34,35.51"
         style="fill:#b9c0d1;fill-opacity:1;fill-rule:nonzero;stroke:none"
         id="path146" />
      <path
         d="m 4490.28,5602.99 c 34.16,-19.74 34.37,-51.78 0.41,-71.5 -33.99,-19.75 -89.23,-19.75 -123.45,0 -34.16,19.72 -34.37,51.76 -0.41,71.5 34.02,19.71 89.23,19.71 123.45,0"
         style="fill:#d5f0fd;fill-opacity:1;fill-rule:nonzero;stroke:none"
         id="path148" />
      <path
         d="m 4484.32,5601.45 c 10.17,-5.88 10.11,-15.39 0.11,-21.23 l -19.14,-11.12 19.25,-11.13 c 10.1,-5.82 10.29,-15.35 0.14,-21.23 -9.98,-5.8 -26.55,-5.8 -36.63,0 l -19.27,11.13 -19,-11.07 c -10.15,-5.86 -26.47,-5.86 -36.67,0 -10.03,5.82 -10.25,15.35 -0.12,21.25 l 19.03,11.05 -19.14,11.04 c -10.19,5.92 -10.14,15.43 -0.14,21.25 10.14,5.88 26.44,5.86 36.65,0 l 19.14,-11.06 19.16,11.12 c 10,5.82 26.57,5.82 36.63,0"
         style="fill:#b1b8c5;fill-opacity:1;fill-rule:nonzero;stroke:none"
         id="path150" />
      <path
         d="m 4841.34,5751.92 -0.08,-33.13 c -0.03,-12.87 -8.48,-25.7 -25.36,-35.51 -33.98,-19.72 -89.22,-19.72 -123.41,0 -17.22,9.95 -25.81,22.95 -25.76,36 l 0.09,33.14 c -0.08,-13.04 8.53,-26.11 25.72,-35.99 34.23,-19.77 89.47,-19.77 123.46,0 16.86,9.78 25.3,22.62 25.34,35.49"
         style="fill:#b9c0d1;fill-opacity:1;fill-rule:nonzero;stroke:none"
         id="path152" />
      <path
         d="m 4815.6,5787.91 c 34.16,-19.74 34.36,-51.77 0.4,-71.48 -33.99,-19.77 -89.23,-19.77 -123.46,0 -34.16,19.71 -34.37,51.74 -0.41,71.48 34.03,19.73 89.25,19.73 123.47,0"
         style="fill:#d5f0fd;fill-opacity:1;fill-rule:nonzero;stroke:none"
         id="path154" />
      <path
         d="m 4809.61,5786.37 c 10.18,-5.88 10.14,-15.39 0.12,-21.21 l -19.13,-11.13 19.25,-11.14 c 10.08,-5.8 10.3,-15.33 0.13,-21.23 -9.97,-5.8 -26.53,-5.8 -36.63,0 l -19.27,11.16 -19,-11.08 c -10.15,-5.88 -26.47,-5.88 -36.66,0 -10.05,5.82 -10.27,15.35 -0.13,21.25 l 19.04,11.04 -19.16,11.05 c -10.18,5.9 -10.11,15.41 -0.12,21.23 10.14,5.88 26.43,5.86 36.65,0 l 19.14,-11.05 19.14,11.11 c 10.01,5.82 26.57,5.82 36.63,0"
         style="fill:#b1b8c5;fill-opacity:1;fill-rule:nonzero;stroke:none"
         id="path156" />
      <path
         d="m 3188.2,5294.48 c -42.54,24.53 -80.85,63.92 -81.14,112.53 l -0.15,-198.75 c -0.11,-41.01 26.97,-82.1 81.16,-113.39 l 354.19,-166.53 v 199.67 l -354.06,166.47"
         style="fill:#5b0808;fill-opacity:1;fill-rule:nonzero;stroke:none"
         id="path158" />
      <path
         d="m 6399.74,5163.6 c 226.33,-131.55 380.28,-289.07 461.13,-456.18 132.68,-272.91 71.72,-570.97 -182.33,-821.67 -77.87,-76.63 -173.29,-148.5 -287.19,-214.2 -713.78,-412.09 -1867.27,-411.98 -2576.03,0 -709.06,412.03 -705.32,1080.02 8.42,1492.12 713.75,412.08 1866.93,412.04 2576,-0.07"
         style="fill:#91a2c1;fill-opacity:1;fill-rule:nonzero;stroke:none"
         id="path160" />
      <path
         d="m 3285.94,4412.37 0.12,-39.46 c 0.78,-268.3 177.12,-536.19 529.4,-740.9 708.76,-411.91 1862.24,-412.09 2576.01,0 113.88,65.71 209.3,137.58 287.14,214.26 167.55,165.26 251.11,351.14 250.6,536.78 l -0.13,39.53 c 0.51,-185.64 -83.05,-371.54 -250.54,-536.83 -77.87,-76.63 -173.29,-148.5 -287.19,-214.2 -713.78,-412.09 -1867.27,-411.98 -2576.03,0 -352.28,204.68 -528.61,472.59 -529.38,740.82"
         style="fill:#4a6699;fill-opacity:1;fill-rule:nonzero;stroke:none"
         id="path162" />
      <path
         d="m 3196.87,5286.47 -0.47,-167.4 c 0,-0.9 -0.5,-1.78 -1.6,-2.62 -140.43,-105.78 -308.21,-90.72 -302.51,-306.7 0.18,-6.31 6.84,-30.61 7.65,-37.83 0.4,-3.56 -27.65,16.52 -29.44,17.56 0,0 -1135.92,649.1 -1134.67,655.25 45.52,224.02 694.19,-81.72 855.4,-146.48 155.64,-62.58 463.62,-120.18 604.06,-14.4 1.1,0.84 1.58,1.72 1.58,2.62"
         style="fill:#8c0c0c;fill-opacity:1;fill-rule:nonzero;stroke:none"
         id="path164" />
      <path
         d="m 2969.13,5190.69 c -140.26,-0.02 -295.59,37.38 -383.09,72.57 -16.25,6.53 -37.17,15.32 -61.69,25.59 -184.12,77.23 -567.24,237.95 -696.52,172.83 -21.07,-10.6 -33.95,-26.44 -39.36,-48.43 l -9.71,2.38 c 6.06,24.65 21.06,43.16 44.58,55 133.38,67.17 519.39,-94.75 704.87,-172.56 24.47,-10.25 45.34,-19 61.56,-25.53 142.21,-57.19 465.39,-120.72 603.99,-16.33 l 6.02,-7.98 c -55.65,-41.92 -140.01,-57.54 -230.65,-57.54"
         style="fill:#3a0404;fill-opacity:1;fill-rule:nonzero;stroke:none"
         id="path166" />
      <path
         d="m 2847.83,4795.88 c -0.32,2.91 -1.86,9.59 -3.36,16.04 -2.45,10.58 -4.06,17.81 -4.16,21.42 -3.89,147.7 99.19,190.61 208.32,236.06 49.99,20.8 101.67,42.32 144.84,74.82 l 6.01,-7.99 c -44.17,-33.26 -96.44,-55.02 -147,-76.07 -105.88,-44.08 -205.89,-85.72 -202.17,-226.54 0.08,-2.89 2.2,-12.07 3.91,-19.46 1.63,-7.03 3.16,-13.69 3.55,-17.16 l -9.94,-1.12"
         style="fill:#3a0404;fill-opacity:1;fill-rule:nonzero;stroke:none"
         id="path168" />
      <path
         d="m 2934.53,5162.97 c -140.4,0 -292.6,26.21 -370.59,57.58 -18.08,7.27 -43.25,18.11 -72.4,30.66 -165.76,71.41 -510.65,219.95 -622.85,164.2 -17.89,-8.9 -28.82,-22.32 -33.43,-41.03 l -9.7,2.38 c 5.27,21.45 18.29,37.46 38.68,47.6 116.39,57.87 451.32,-86.45 631.27,-163.97 29.08,-12.52 54.2,-23.34 72.16,-30.56 138.42,-55.67 507.51,-91.08 625.8,-2 l 6.01,-7.98 c -54.65,-41.18 -156.27,-56.88 -264.95,-56.88"
         style="fill:#3a0404;fill-opacity:1;fill-rule:nonzero;stroke:none"
         id="path170" />
      <path
         d="m 2787.49,4835.12 c -0.28,2.58 -1.67,8.57 -3.01,14.38 -2.18,9.41 -3.61,15.83 -3.71,19.1 -3.51,133.43 138.64,195.35 264.07,249.96 57.26,24.92 111.35,48.47 149.1,76.91 l 6.01,-7.99 c -38.69,-29.14 -93.3,-52.93 -151.11,-78.1 -128.52,-55.96 -261.41,-113.81 -258.07,-240.51 0.08,-2.5 1.94,-10.61 3.46,-17.13 1.46,-6.37 2.85,-12.36 3.2,-15.53 l -9.94,-1.09"
         style="fill:#3a0404;fill-opacity:1;fill-rule:nonzero;stroke:none"
         id="path172" />
      <path
         d="m 2808.01,5130.71 c -85.42,0 -164.29,10.19 -215.56,30.8 -18.05,7.26 -43.18,18.08 -72.28,30.62 -165.78,71.43 -510.73,220.06 -622.94,164.24 -17.89,-8.91 -28.83,-22.32 -33.44,-41.04 l -9.71,2.39 c 5.28,21.44 18.29,37.46 38.69,47.6 116.4,57.89 451.39,-86.47 631.36,-164.01 29.03,-12.5 54.11,-23.32 72.05,-30.53 134.26,-53.98 478,-32.77 597.29,57.05 l 6.01,-7.98 c -78.34,-59.01 -244.58,-89.14 -391.47,-89.14"
         style="fill:#3a0404;fill-opacity:1;fill-rule:nonzero;stroke:none"
         id="path174" />
      <path
         d="m 2718.68,4861.25 c -0.28,2.56 -1.67,8.56 -3.01,14.34 -2.17,9.45 -3.62,15.88 -3.72,19.14 -3.39,128.53 157.57,184.16 299.58,233.24 72.66,25.12 141.28,48.83 182.26,79.69 l 6.01,-7.99 c -42.23,-31.8 -111.58,-55.78 -185,-81.15 -138.76,-47.95 -296.04,-102.31 -292.85,-223.52 0.08,-2.48 1.96,-10.62 3.47,-17.17 1.46,-6.34 2.85,-12.32 3.2,-15.46 l -9.94,-1.12"
         style="fill:#3a0404;fill-opacity:1;fill-rule:nonzero;stroke:none"
         id="path176" />
      <path
         d="m 2727.69,5088.11 c -49.32,0 -92.97,5.8 -125.61,18.92 -18.19,7.33 -42.87,17.95 -71.44,30.28 -167.32,72.17 -478.75,206.42 -587.9,152.22 -18.58,-9.23 -29.97,-23.32 -34.83,-43.06 l -9.71,2.38 c 5.53,22.46 19.02,39.16 40.1,49.65 113.29,56.25 427.49,-79.22 596.3,-152.01 28.51,-12.29 53.12,-22.91 71.21,-30.18 135.6,-54.55 466.03,19.92 587.66,111.52 l 6.01,-7.98 c -94.27,-71 -312.45,-131.74 -471.79,-131.74"
         style="fill:#3a0404;fill-opacity:1;fill-rule:nonzero;stroke:none"
         id="path178" />
      <path
         d="m 2641.68,4873.93 c -0.28,2.56 -1.66,8.51 -3,14.3 -2.19,9.47 -3.63,15.93 -3.73,19.19 -3.08,116.8 174.22,169.67 330.66,216.31 103.84,30.96 201.94,60.2 233.6,103.07 l 8.05,-5.94 c -33.66,-45.56 -133.3,-75.27 -238.8,-106.72 -152.99,-45.6 -326.4,-97.3 -323.51,-206.44 0.07,-2.5 1.95,-10.67 3.48,-17.23 1.45,-6.33 2.84,-12.3 3.19,-15.43 l -9.94,-1.11"
         style="fill:#3a0404;fill-opacity:1;fill-rule:nonzero;stroke:none"
         id="path180" />
      <path
         d="m 2509.92,4960.26 -5.02,8.65 c 62.51,36.31 154.19,62.62 242.85,88.07 39.98,11.48 77.75,22.32 111.19,33.63 l 3.2,-9.47 c -33.65,-11.39 -71.53,-22.25 -111.63,-33.77 -88.07,-25.28 -179.14,-51.41 -240.59,-87.11"
         style="fill:#3a0404;fill-opacity:1;fill-rule:nonzero;stroke:none"
         id="path182" />
      <path
         d="m 2681.45,5056.9 c -27.63,0 -54.05,2.44 -78.59,7.91 -50.39,11.23 -124.39,40.88 -202.73,72.28 -148.02,59.34 -315.83,126.53 -384.53,95.76 -13.3,-5.95 -22.08,-15.25 -26.85,-28.41 l -9.39,3.39 c 5.65,15.65 16.47,27.13 32.15,34.15 72.54,32.53 242.47,-35.53 392.34,-95.61 77.96,-31.25 151.58,-60.76 201.18,-71.8 187.66,-41.83 490,97.95 589.35,143.91 l 4.19,-9.08 c -87.24,-40.33 -329.83,-152.5 -517.12,-152.5"
         style="fill:#3a0404;fill-opacity:1;fill-rule:nonzero;stroke:none"
         id="path184" />
      <path
         d="m 2593.37,5047.35 c -47.52,0 -95.58,3.75 -143.38,12.34 -54.54,9.82 -112.24,32.68 -168.04,54.79 -80.99,32.09 -157.5,62.4 -202.72,42.05 -16.42,-7.41 -28.05,-21.06 -35.55,-41.78 l -9.39,3.4 c 8.34,23.06 22.08,39.04 40.84,47.5 49.06,22.07 127.49,-8.99 210.5,-41.88 55.35,-21.91 112.57,-44.59 166.14,-54.24 307.13,-55.27 626.86,92.56 731.92,141.16 l 4.2,-9.09 c -89.47,-41.36 -333.6,-154.23 -594.52,-154.25"
         style="fill:#3a0404;fill-opacity:1;fill-rule:nonzero;stroke:none"
         id="path186" />
      <path
         d="m 3192.45,5291.51 c -7.12,4.12 -20.99,6.68 -26.83,2.3 -95.66,-72.03 -308.64,-56.35 -437.64,-27.87 -98.88,21.88 -184.88,67.99 -271.62,102.11 -120.26,47.42 -519.82,221.48 -654.03,148.71 170.13,43.54 657.08,-165.57 788.9,-218.51 155.64,-62.58 463.62,-120.18 604.06,-14.4 3.17,2.4 1.28,5.27 -2.84,7.66"
         style="fill:#4e0707;fill-opacity:1;fill-rule:nonzero;stroke:none"
         id="path188" />
      <path
         d="m 4100.67,4836.16 -0.43,-28.17 -146.56,115 0.39,28.15 146.6,-114.98"
         style="fill:#717273;fill-opacity:1;fill-rule:nonzero;stroke:none"
         id="path190" />
      <path
         d="m 4398.86,4512.54 -0.41,-28.12 -298.21,323.57 0.43,28.17 298.19,-323.62"
         style="fill:#6f6f70;fill-opacity:1;fill-rule:nonzero;stroke:none"
         id="path192" />
      <path
         d="m 4457.06,4526.17 -0.41,-28.16 -58.2,-13.59 0.41,28.12 58.2,13.63"
         style="fill:#a7a8a9;fill-opacity:1;fill-rule:nonzero;stroke:none"
         id="path194" />
      <path
         d="m 4262.92,5023.05 32.6,-141.52 161.54,-355.36 -58.2,-13.63 -298.19,323.62 -146.6,114.98 308.85,71.91"
         style="fill:#bebfc1;fill-opacity:1;fill-rule:nonzero;stroke:none"
         id="path196" />
      <path
         d="m 3744.14,5299.08 -0.15,-50.25 -118.67,-68.96 0.16,50.23 118.66,68.98"
         style="fill:#757372;fill-opacity:1;fill-rule:nonzero;stroke:none"
         id="path198" />
      <path
         d="m 4077,5038.17 -0.15,-50.26 -332.86,260.92 0.15,50.25 332.86,-260.91"
         style="fill:#757372;fill-opacity:1;fill-rule:nonzero;stroke:none"
         id="path200" />
      <path
         d="m 4216.17,4957.8 c -67,-38.93 -175.96,-38.93 -243.37,0 l -782.49,367.91 c -54.21,31.25 -81.26,72.34 -81.15,113.36 l -0.15,-50.26 c -0.11,-41.01 26.98,-82.11 81.16,-113.38 l 782.47,-367.91 c 67.43,-38.88 176.38,-38.9 243.39,0.04 33.29,19.32 49.95,44.65 50,69.98 l 0.14,50.26 c -0.07,-25.36 -16.7,-50.65 -50,-70"
         style="fill:#7e7d7b;fill-opacity:1;fill-rule:nonzero;stroke:none"
         id="path202" />
      <path
         d="M 3625.48,5230.1 4077,5038.17 3744.14,5299.08 3625.48,5230.1 m 589.9,-131.33 c 67.4,-38.92 67.8,-102.05 0.79,-140.97 -67,-38.93 -175.96,-38.93 -243.37,0 l -782.49,367.91 c -107.68,62.14 -108.29,162.96 -1.3,225.15 106.99,62.15 281.03,62.15 388.73,0 l 637.64,-452.09"
         style="fill:#c4c1bf;fill-opacity:1;fill-rule:nonzero;stroke:none"
         id="path204" />
      <path
         d="m 3535.03,5538.97 c 86.74,-50.08 87.25,-131.29 1.06,-181.37 -86.16,-50.08 -226.35,-50.08 -313.11,0 -86.7,50.08 -87.16,131.29 -0.98,181.37 86.18,50.06 226.31,50.06 313.03,0"
         style="fill:#757372;fill-opacity:1;fill-rule:nonzero;stroke:none"
         id="path206" />
      <path
         d="m 3568.14,5479.46 -0.16,-28.27 c -0.08,-27.85 -18.41,-55.64 -54.95,-76.89 -73.62,-42.77 -193.35,-42.77 -267.45,0 -37.27,21.52 -55.88,49.77 -55.79,77.99 l 0.14,28.26 c -0.08,-28.22 18.54,-56.47 55.8,-77.97 74.1,-42.79 193.85,-42.79 267.46,0 36.57,21.25 54.87,49.04 54.95,76.88"
         style="fill:#8791a0;fill-opacity:1;fill-rule:nonzero;stroke:none"
         id="path208" />
      <path
         d="m 3512.29,5557.46 c 74.1,-42.77 74.5,-112.11 0.9,-154.88 -73.61,-42.79 -193.36,-42.79 -267.46,0 -74.06,42.77 -74.45,112.11 -0.84,154.88 73.62,42.78 193.3,42.78 267.4,0"
         style="fill:#c6dce5;fill-opacity:1;fill-rule:nonzero;stroke:none"
         id="path210" />
      <path
         d="m 3517.44,5502.41 -0.12,-17.62 c -0.06,-20.39 -13.46,-40.72 -40.22,-56.31 -53.88,-31.29 -141.53,-31.29 -195.77,0 -27.3,15.78 -40.89,36.46 -40.87,57.09 l 0.14,17.62 c -0.06,-20.65 13.56,-41.35 40.85,-57.11 54.23,-31.27 141.89,-31.27 195.77,0 26.75,15.58 40.15,35.92 40.22,56.33"
         style="fill:#a0adc1;fill-opacity:1;fill-rule:nonzero;stroke:none"
         id="path212" />
      <path
         d="m 3476.57,5559.48 c 54.23,-31.29 54.53,-82.06 0.65,-113.4 -53.88,-31.27 -141.54,-31.27 -195.77,0 -54.25,31.34 -54.52,82.11 -0.63,113.4 53.9,31.32 141.49,31.32 195.75,0"
         style="fill:#d5f0fd;fill-opacity:1;fill-rule:nonzero;stroke:none"
         id="path214" />
      <path
         d="m 3419.21,5526.17 c 22.35,-12.91 22.5,-33.84 0.28,-46.73 -22.2,-12.91 -58.34,-12.91 -80.69,0 -22.35,12.89 -22.46,33.82 -0.26,46.73 22.22,12.91 58.33,12.91 80.67,0"
         style="fill:#bfc8d4;fill-opacity:1;fill-rule:nonzero;stroke:none"
         id="path216" />
      <path
         d="m 1275.63,5207.97 c -60.79,35.12 -91.15,81.23 -91.03,127.29 l -0.07,-35 c -0.15,-46.06 30.22,-92.13 91.02,-127.27 l 195.89,-113.08 0.09,34.96 -195.9,113.1"
         style="fill:#ca7444;fill-opacity:1;fill-rule:nonzero;stroke:none"
         id="path218" />
      <path
         d="m 2025.3,4523.23 -552.21,318.78 c -60.86,35.18 -91.26,81.33 -91.15,127.43 l -0.08,-35 c -0.14,-46.06 30.24,-92.25 91.14,-127.39 l 552.21,-318.79 c 120.83,-69.78 316.35,-69.78 436.4,-0.01 l 0.07,34.96 c -120,-69.73 -315.54,-69.73 -436.38,0.02"
         style="fill:#ca7444;fill-opacity:1;fill-rule:nonzero;stroke:none"
         id="path220" />
      <path
         d="m 3093.97,4410.12 c -120.01,-69.77 -315.56,-69.77 -436.39,0 l -195.9,113.09 -0.07,-34.96 195.86,-113.09 c 120.84,-69.77 316.39,-69.77 436.42,0 59.71,34.69 89.6,80.12 89.72,125.59 l 0.1,34.98 c -0.13,-45.47 -30.01,-90.9 -89.74,-125.61"
         style="fill:#ca7444;fill-opacity:1;fill-rule:nonzero;stroke:none"
         id="path222" />
      <path
         d="m 3092.69,4662.97 c 120.84,-69.74 121.48,-183.03 1.28,-252.85 -120.01,-69.77 -315.56,-69.77 -436.39,0 l -195.9,113.09 c -120,-69.73 -315.54,-69.73 -436.38,0.02 l -552.21,318.78 c -120.94,69.85 -121.58,183.11 -1.56,252.86 l -195.9,113.1 c -120.81,69.77 -121.44,183.03 -1.4,252.81 120.17,69.81 315.72,69.81 436.53,0.06 l 1381.93,-797.87"
         style="fill:#fc9862;fill-opacity:1;fill-rule:nonzero;stroke:none"
         id="path224" />
      <path
         d="m 1919.46,4994.44 c -14.55,8.39 -38.06,8.39 -52.57,0 -14.44,-8.4 -14.38,-22.03 0.2,-30.43 14.56,-8.42 38.07,-8.42 52.55,0 14.47,8.4 14.39,22.03 -0.18,30.43 m -15.12,208.65 c -14.47,-8.4 -14.39,-22.05 0.17,-30.45 14.55,-8.4 38.07,-8.4 52.55,0 14.47,8.4 14.4,22.05 -0.16,30.45 -14.59,8.42 -38.06,8.42 -52.56,0 m 27,-424.32 c 14.57,-8.38 38.05,-8.38 52.52,0 14.49,8.42 14.39,22.05 -0.18,30.47 -14.55,8.42 -38.07,8.42 -52.53,0 -14.5,-8.42 -14.41,-22.05 0.19,-30.47 m 69.98,40.71 c 24.28,-14.05 24.44,-36.88 0.26,-50.94 -24.11,-14.03 -63.54,-13.99 -87.84,0.02 -20.69,11.97 -23.93,30.27 -9.5,44.08 l -202.29,120.78 c -62.68,36.23 -62.98,95.18 -0.66,131.39 l 126.01,73.2 12.72,7.38 38.91,22.62 c -16.01,14.02 -13.46,33.07 7.67,45.31 24.14,14.03 63.61,14.03 87.91,0 24.29,-14.02 24.45,-36.89 0.3,-50.91 -21.13,-12.27 -53.98,-13.83 -78.21,-4.61 l -38.89,-22.6 -12.72,-7.42 c -52.6,-30.53 -52.28,-80.28 0.66,-110.84 l 13.29,-7.68 c 24.03,9.22 56.85,7.74 78.15,-4.61 24.31,-14 24.47,-36.85 0.29,-50.9 -24.15,-14.02 -63.59,-14 -87.87,0.04 -21.29,12.29 -24.03,31.29 -8.19,45.24 l -13.28,7.65 c -40.39,23.34 -54.87,56 -43.54,85.98 l -65.54,-38.09 c -52.56,-30.56 -52.31,-80.31 0.64,-110.88 l 201.59,-120.43 c 24.2,10.1 58.25,8.83 80.13,-3.78"
         style="fill:#043f3b;fill-opacity:1;fill-rule:nonzero;stroke:none"
         id="path226" />
      <path
         d="m 2435.01,4866.31 c 14.8,-8.53 38.7,-8.51 53.4,0.04 14.65,8.5 14.6,22.32 -0.19,30.88 -14.77,8.55 -38.67,8.52 -53.33,0 -14.68,-8.56 -14.68,-22.38 0.12,-30.92 m 71.11,41.31 c 24.7,-14.26 24.79,-37.46 0.26,-51.66 -21.43,-12.48 -54.81,-14.02 -79.34,-4.69 l -34.54,-20.08 c -10.52,-6.09 -21.05,-11.23 -31.39,-15.25 -10.32,-4.04 -20.79,-7.07 -31.06,-9.16 -4.74,-0.9 -9.75,-0.16 -13.11,1.78 -1.31,0.76 -2.35,1.74 -3.02,2.81 -2.31,3.83 1.21,8.01 7.85,9.34 8.19,1.64 16.68,4.12 25.08,7.42 9.02,3.49 18.34,8.04 27.63,13.47 l 34.57,20.04 c -16.24,14.2 -13.63,33.5 7.83,45.98 24.52,14.24 64.53,14.24 89.24,0"
         style="fill:#043f3b;fill-opacity:1;fill-rule:nonzero;stroke:none"
         id="path228" />
      <path
         d="m 1930.3,4779.98 c 14.8,-8.53 38.66,-8.53 53.35,0.02 14.64,8.52 14.63,22.37 -0.16,30.9 -14.79,8.52 -38.7,8.52 -53.36,-0.02 -14.67,-8.51 -14.62,-22.36 0.17,-30.9 m 79.12,35.61 c 16.26,-14.2 13.66,-33.54 -7.77,-46 -24.51,-14.26 -64.53,-14.24 -89.22,0 -24.69,14.26 -24.84,37.46 -0.31,51.68 21.44,12.48 54.76,14.05 79.29,4.71 l 32.56,18.93 c 14.77,8.55 29.61,15.15 44.2,19.66 9.08,2.87 18.27,4.93 27.35,6.23 4.45,0.67 8.97,-0.21 12,-1.95 1.59,-0.92 2.77,-2.07 3.36,-3.4 1.72,-3.94 -2.44,-7.93 -9.23,-8.9 -7.02,-1 -14.24,-2.64 -21.43,-4.87 -12.4,-3.9 -25.25,-9.63 -38.24,-17.18 l -32.56,-18.91"
         style="fill:#043f3b;fill-opacity:1;fill-rule:nonzero;stroke:none"
         id="path230" />
      <path
         d="m 2108.98,4676.84 c 14.78,-8.54 38.65,-8.52 53.35,0 14.63,8.53 14.6,22.36 -0.18,30.9 -14.8,8.55 -38.67,8.51 -53.35,0 -14.69,-8.54 -14.6,-22.37 0.18,-30.9 m 147.25,323.53 c -14.7,-8.53 -14.67,-22.36 0.11,-30.89 14.77,-8.54 38.69,-8.5 53.41,0.02 14.63,8.53 14.61,22.34 -0.2,30.87 -14.77,8.56 -38.68,8.54 -53.32,0 m -68.14,-287.95 c 16.22,-14.17 13.66,-33.53 -7.79,-45.99 -24.51,-14.24 -64.53,-14.24 -89.22,0 -24.68,14.28 -24.78,37.46 -0.27,51.7 21.41,12.46 54.76,14.02 79.28,4.69 l 32.58,18.92 c 53.2,30.92 53.06,58.52 -0.49,89.45 l -5.74,3.29 c -32.22,18.61 -47.9,36.62 -47.92,55.15 -0.18,18.5 15.28,36.51 47.3,55.12 l 34.52,20.08 c -16.2,14.16 -13.58,33.47 7.87,45.97 24.5,14.2 64.55,14.24 89.24,0 24.67,-14.27 24.78,-37.48 0.29,-51.72 -21.47,-12.46 -54.86,-13.98 -79.36,-4.64 l -34.56,-20.08 c -53.26,-30.94 -53.09,-58.54 0.5,-89.49 l 5.72,-3.29 c 32.18,-18.59 47.89,-36.62 48.01,-55.11 0.09,-18.52 -15.42,-36.53 -47.39,-55.12 l -32.57,-18.93"
         style="fill:#043f3b;fill-opacity:1;fill-rule:nonzero;stroke:none"
         id="path232" />
      <path
         d="m 1624.68,5397.5 c -14.99,8.73 -39.4,8.73 -54.48,0 -15.16,-8.73 -15.23,-22.85 -0.23,-31.56 15,-8.73 39.41,-8.77 54.57,0 15.07,8.71 15.13,22.83 0.14,31.56 M 1957,5172.72 c 15.1,8.71 15.17,22.81 0.19,31.56 -15.04,8.73 -39.44,8.73 -54.54,0.02 -15.14,-8.77 -15.22,-22.87 -0.16,-31.62 14.98,-8.71 39.39,-8.71 54.51,0.04 m -324.32,177.79 c -25.09,-9.57 -59.17,-7.97 -81.1,4.79 -25.07,14.55 -24.91,38.24 0.33,52.83 25.24,14.55 66.12,14.55 91.17,0 21.94,-12.76 24.6,-32.5 7.97,-47.01 l 243.38,-141.45 c 25.12,9.59 59.19,7.99 81.15,-4.78 25.04,-14.57 24.93,-38.23 -0.32,-52.82 -25.25,-14.57 -66.13,-14.57 -91.17,-0.02 -21.95,12.8 -24.61,32.52 -7.99,47.02 l -243.42,141.44"
         style="fill:#043f3b;fill-opacity:1;fill-rule:nonzero;stroke:none"
         id="path234" />
      <path
         d="m 1537.17,5276.98 c -14.98,8.73 -39.39,8.73 -54.46,0 -15.18,-8.73 -15.24,-22.86 -0.25,-31.57 15.01,-8.73 39.42,-8.77 54.58,0 15.08,8.71 15.12,22.85 0.13,31.57 m 189.15,-141.65 c 15.1,8.74 15.15,22.86 0.18,31.59 -15.06,8.75 -39.44,8.75 -54.55,0.02 -15.11,-8.75 -15.2,-22.87 -0.16,-31.62 15,-8.72 39.38,-8.72 54.53,0.01 m -181.12,94.65 c -25.12,-9.57 -59.17,-7.95 -81.13,4.79 -25.06,14.55 -24.9,38.26 0.34,52.83 25.24,14.55 66.12,14.55 91.17,0 21.94,-12.75 24.6,-32.48 7.96,-47.01 l 100.21,-58.26 c 25.11,9.55 59.19,7.97 81.11,-4.81 25.07,-14.55 24.93,-38.22 -0.28,-52.79 -25.25,-14.59 -66.13,-14.59 -91.19,-0.02 -21.94,12.77 -24.6,32.5 -8,47.01 l -100.19,58.26"
         style="fill:#043f3b;fill-opacity:1;fill-rule:nonzero;stroke:none"
         id="path236" />
      <path
         d="m 2057.38,5105.82 c -14.99,-8.73 -14.94,-22.87 0.15,-31.58 15.15,-8.77 39.56,-8.71 54.59,0 14.97,8.71 14.92,22.85 -0.25,31.58 -15.1,8.71 -39.48,8.71 -54.49,0 m -189.13,-141.64 c 15.13,-8.75 39.53,-8.75 54.53,-0.02 15.04,8.73 14.97,22.85 -0.17,31.62 -15.11,8.72 -39.49,8.72 -54.52,-0.02 -15,-8.75 -14.94,-22.87 0.16,-31.58 m 80.91,36.37 c 16.61,-14.49 13.96,-34.24 -7.99,-47.01 -25.05,-14.55 -65.93,-14.55 -91.17,0.02 -25.23,14.59 -25.36,38.22 -0.3,52.79 21.94,12.79 55.99,14.38 81.13,4.81 l 100.21,58.26 c -16.66,14.53 -14,34.27 7.94,47.03 25.07,14.53 65.94,14.53 91.19,0 25.23,-14.59 25.38,-38.28 0.33,-52.85 -21.95,-12.74 -56.02,-14.36 -81.12,-4.77 l -100.22,-58.28"
         style="fill:#043f3b;fill-opacity:1;fill-rule:nonzero;stroke:none"
         id="path238" />
      <path
         d="m 2490.95,4898.07 c -15.01,8.73 -39.4,8.73 -54.49,0 -15.15,-8.77 -15.22,-22.85 -0.23,-31.56 15.01,-8.75 39.42,-8.77 54.6,0 15.06,8.71 15.1,22.81 0.12,31.56 m 332.3,-224.81 c 15.1,8.74 15.22,22.88 0.2,31.55 -15.04,8.77 -39.44,8.75 -54.54,0.06 -15.13,-8.73 -15.21,-22.87 -0.17,-31.62 15,-8.72 39.39,-8.72 54.51,0.01 m -324.29,177.82 c -25.09,-9.57 -59.17,-7.95 -81.13,4.78 -25.03,14.55 -24.9,38.24 0.36,52.83 25.21,14.56 66.09,14.56 91.16,-0.02 21.92,-12.75 24.56,-32.48 7.94,-47.01 l 243.42,-141.42 c 25.11,9.59 59.16,7.97 81.13,-4.79 25.04,-14.59 24.93,-38.24 -0.31,-52.77 -25.25,-14.61 -66.13,-14.61 -91.2,-0.06 -21.95,12.79 -24.59,32.52 -7.97,47.01 l -243.4,141.45"
         style="fill:#043f3b;fill-opacity:1;fill-rule:nonzero;stroke:none"
         id="path240" />
      <path
         d="m 3017.03,4552.03 -0.06,-33.12 c -0.04,-12.87 -8.49,-25.7 -25.37,-35.51 -33.97,-19.73 -89.23,-19.73 -123.41,0 -17.22,9.94 -25.81,22.97 -25.75,36 l 0.09,33.14 c -0.08,-13.03 8.53,-26.11 25.7,-35.99 34.23,-19.75 89.48,-19.75 123.47,0 16.86,9.78 25.3,22.63 25.33,35.48"
         style="fill:#b9c0d1;fill-opacity:1;fill-rule:nonzero;stroke:none"
         id="path242" />
      <path
         d="m 2991.3,4588.03 c 34.16,-19.75 34.35,-51.76 0.4,-71.48 -33.99,-19.75 -89.24,-19.75 -123.47,0 -34.16,19.72 -34.35,51.73 -0.4,71.48 34.03,19.73 89.25,19.73 123.47,0"
         style="fill:#d5f0fd;fill-opacity:1;fill-rule:nonzero;stroke:none"
         id="path244" />
      <path
         d="m 2985.32,4586.51 c 10.18,-5.88 10.13,-15.41 0.12,-21.23 l -19.14,-11.14 19.26,-11.13 c 10.08,-5.8 10.28,-15.33 0.12,-21.21 -9.98,-5.82 -26.53,-5.82 -36.63,0 l -19.26,11.13 -19,-11.07 c -10.15,-5.88 -26.48,-5.88 -36.67,0 -10.05,5.82 -10.26,15.35 -0.12,21.25 l 19.04,11.03 -19.15,11.06 c -10.21,5.9 -10.13,15.43 -0.15,21.23 10.16,5.88 26.45,5.88 36.66,0 l 19.13,-11.06 19.15,11.14 c 10.02,5.8 26.58,5.8 36.64,0"
         style="fill:#b1b8c5;fill-opacity:1;fill-rule:nonzero;stroke:none"
         id="path246" />
      <path
         d="m 2362.28,4619.12 -0.06,-33.12 c -0.06,-12.87 -8.5,-25.7 -25.39,-35.49 -33.95,-19.75 -89.22,-19.75 -123.41,0 -17.2,9.92 -25.79,22.97 -25.75,36 l 0.08,33.12 c -0.06,-13.03 8.56,-26.09 25.74,-35.99 34.21,-19.75 89.47,-19.75 123.46,0 16.87,9.8 25.31,22.61 25.33,35.48"
         style="fill:#b9c0d1;fill-opacity:1;fill-rule:nonzero;stroke:none"
         id="path248" />
      <path
         d="m 2336.55,4655.12 c 34.13,-19.73 34.36,-51.76 0.4,-71.48 -33.99,-19.75 -89.25,-19.75 -123.46,0 -34.17,19.72 -34.36,51.75 -0.4,71.48 34,19.75 89.23,19.75 123.46,0"
         style="fill:#d5f0fd;fill-opacity:1;fill-rule:nonzero;stroke:none"
         id="path250" />
      <path
         d="m 2330.56,4653.6 c 10.17,-5.9 10.13,-15.41 0.1,-21.23 l -19.12,-11.12 19.26,-11.13 c 10.08,-5.84 10.3,-15.35 0.13,-21.23 -9.96,-5.84 -26.55,-5.84 -36.63,0 l -19.28,11.11 -19,-11.05 c -10.15,-5.9 -26.46,-5.9 -36.67,0 -10.04,5.82 -10.24,15.33 -0.1,21.25 l 19.01,11.05 -19.15,11.04 c -10.17,5.9 -10.12,15.41 -0.11,21.25 10.13,5.88 26.44,5.86 36.63,0 l 19.14,-11.08 19.15,11.14 c 10.01,5.82 26.57,5.82 36.64,0"
         style="fill:#b1b8c5;fill-opacity:1;fill-rule:nonzero;stroke:none"
         id="path252" />
      <path
         d="m 1469.14,5408.26 -0.05,-33.12 c -0.05,-12.89 -8.49,-25.72 -25.39,-35.51 -33.95,-19.72 -89.21,-19.72 -123.41,0 -17.18,9.94 -25.78,22.97 -25.74,36 l 0.07,33.14 c -0.06,-13.04 8.55,-26.11 25.74,-36.01 34.23,-19.75 89.47,-19.75 123.48,0 16.84,9.8 25.29,22.63 25.3,35.5"
         style="fill:#b9c0d1;fill-opacity:1;fill-rule:nonzero;stroke:none"
         id="path254" />
      <path
         d="m 1443.43,5444.26 c 34.14,-19.75 34.35,-51.76 0.41,-71.5 -34.01,-19.75 -89.25,-19.75 -123.48,0 -34.18,19.74 -34.35,51.75 -0.39,71.5 34,19.73 89.23,19.73 123.46,0"
         style="fill:#d5f0fd;fill-opacity:1;fill-rule:nonzero;stroke:none"
         id="path256" />
      <path
         d="m 1437.43,5442.72 c 10.18,-5.88 10.14,-15.39 0.12,-21.21 l -19.12,-11.14 19.25,-11.13 c 10.07,-5.8 10.29,-15.33 0.12,-21.23 -9.97,-5.8 -26.55,-5.8 -36.62,0 l -19.3,11.13 -18.98,-11.05 c -10.16,-5.88 -26.46,-5.88 -36.67,0 -10.05,5.82 -10.25,15.35 -0.11,21.25 l 19.03,11.03 -19.15,11.06 c -10.18,5.9 -10.11,15.41 -0.12,21.23 10.12,5.88 26.43,5.86 36.65,0 l 19.11,-11.06 19.15,11.12 c 10.03,5.82 26.58,5.82 36.64,0"
         style="fill:#b1b8c5;fill-opacity:1;fill-rule:nonzero;stroke:none"
         id="path258" />
      <path
         d="m 1619.93,4998.05 -0.07,-33.13 c -0.03,-12.87 -8.48,-25.7 -25.37,-35.48 -33.96,-19.73 -89.21,-19.73 -123.42,0 -17.2,9.94 -25.79,22.95 -25.74,35.99 l 0.08,33.13 c -0.07,-13.03 8.55,-26.1 25.72,-35.98 34.22,-19.76 89.49,-19.76 123.47,0 16.86,9.79 25.29,22.62 25.33,35.47"
         style="fill:#b9c0d1;fill-opacity:1;fill-rule:nonzero;stroke:none"
         id="path260" />
      <path
         d="m 1594.2,5034.07 c 34.16,-19.75 34.34,-51.78 0.4,-71.49 -33.98,-19.76 -89.25,-19.76 -123.47,0 -34.16,19.71 -34.36,51.74 -0.4,71.49 34.03,19.72 89.24,19.72 123.47,0"
         style="fill:#d5f0fd;fill-opacity:1;fill-rule:nonzero;stroke:none"
         id="path262" />
      <path
         d="m 1588.21,5032.52 c 10.18,-5.88 10.12,-15.39 0.12,-21.21 l -19.14,-11.13 19.25,-11.13 c 10.1,-5.82 10.3,-15.34 0.14,-21.23 -9.98,-5.81 -26.54,-5.81 -36.64,0 l -19.26,11.13 -19,-11.06 c -10.15,-5.88 -26.47,-5.88 -36.66,0 -10.05,5.82 -10.26,15.34 -0.12,21.23 l 19.04,11.06 -19.15,11.05 c -10.21,5.9 -10.14,15.41 -0.14,21.23 10.14,5.88 26.44,5.86 36.64,0 l 19.14,-11.05 19.15,11.11 c 10.01,5.82 26.57,5.82 36.63,0"
         style="fill:#b1b8c5;fill-opacity:1;fill-rule:nonzero;stroke:none"
         id="path264" />
      <path
         d="m 5839.85,4659.42 -0.63,-219.67 c -0.3,-108.17 -71.4,-216.17 -213.44,-298.73 -285.93,-166.17 -751.1,-166.19 -1038.91,0 -144.83,83.61 -217.15,193.34 -216.82,302.91 l 0.6,219.69 c -0.3,-109.59 72,-219.32 216.82,-302.93 287.83,-166.18 752.98,-166.18 1038.95,0.02 142.01,82.52 213.1,190.52 213.43,298.71"
         style="fill:#8791a0;fill-opacity:1;fill-rule:nonzero;stroke:none"
         id="path266" />
      <path
         d="m 5622.94,4962.42 c 287.84,-166.17 289.4,-435.56 3.48,-601.71 -285.97,-166.2 -751.12,-166.2 -1038.95,-0.02 -287.81,166.17 -289.24,435.56 -3.3,601.73 285.96,166.18 750.97,166.18 1038.77,0"
         style="fill:#c6dce5;fill-opacity:1;fill-rule:nonzero;stroke:none"
         id="path268" />
      <path
         d="m 5738.58,4754.26 -0.54,-80.53 c -0.26,-93.28 -61.56,-186.4 -184.02,-257.56 -246.53,-143.28 -647.62,-143.28 -895.76,0 -124.87,72.09 -187.23,166.68 -186.96,261.18 l 0.53,80.54 c -0.28,-94.49 62.06,-189.1 186.93,-261.19 248.19,-143.3 649.24,-143.3 895.8,0 122.46,71.17 183.75,164.28 184.02,257.56"
         style="fill:#a0adc1;fill-opacity:1;fill-rule:nonzero;stroke:none"
         id="path270" />
      <path
         d="m 5551.58,5015.53 c 248.17,-143.28 249.54,-375.55 2.98,-518.83 -246.56,-143.3 -647.61,-143.3 -895.8,0 -248.13,143.28 -249.39,375.55 -2.84,518.83 246.56,143.28 647.5,143.28 895.66,0"
         style="fill:#d5f0fd;fill-opacity:1;fill-rule:nonzero;stroke:none"
         id="path272" />
      <path
         d="m 5470.67,4968.52 c 203.21,-117.31 204.35,-307.48 2.46,-424.83 -201.86,-117.3 -530.25,-117.3 -733.45,0 -203.18,117.35 -204.21,307.52 -2.35,424.83 201.88,117.34 530.16,117.34 733.34,0"
         style="fill:#bfc8d4;fill-opacity:1;fill-rule:nonzero;stroke:none"
         id="path274" />
      <path
         d="m 5488.04,4927 -0.06,-22.52 c 0,-8.73 -5.75,-17.45 -17.21,-24.11 -23.06,-13.41 -60.59,-13.41 -83.83,0 -11.66,6.74 -17.55,15.59 -17.52,24.42 l 0.07,22.52 c -0.03,-8.83 5.82,-17.7 17.48,-24.42 23.27,-13.43 60.79,-13.43 83.86,0 11.46,6.64 17.21,15.34 17.21,24.11"
         style="fill:#b9c0d1;fill-opacity:1;fill-rule:nonzero;stroke:none"
         id="path276" />
      <path
         d="m 5470.56,4951.45 c 23.21,-13.42 23.34,-35.18 0.27,-48.56 -23.07,-13.43 -60.59,-13.43 -83.86,0 -23.23,13.38 -23.33,35.14 -0.26,48.56 23.09,13.4 60.62,13.4 83.85,0"
         style="fill:#d5f0fd;fill-opacity:1;fill-rule:nonzero;stroke:none"
         id="path278" />
      <path
         d="m 5466.49,4950.37 c 6.92,-3.96 6.88,-10.45 0.1,-14.39 l -13.01,-7.56 13.07,-7.56 c 6.86,-3.94 6.99,-10.43 0.11,-14.43 -6.79,-3.95 -18.05,-3.95 -24.87,0 l -13.1,7.58 -12.9,-7.52 c -6.9,-4.01 -18.02,-4.01 -24.94,0 -6.81,3.94 -6.96,10.43 -0.07,14.41 l 12.94,7.52 -13.01,7.5 c -6.91,4 -6.87,10.49 -0.1,14.41 6.89,4.03 17.99,4.01 24.91,0 l 13,-7.51 13,7.55 c 6.82,3.99 18.01,3.99 24.87,0"
         style="fill:#b1b8c5;fill-opacity:1;fill-rule:nonzero;stroke:none"
         id="path280" />
      <path
         d="m 4979.05,4989.3 -0.06,-22.52 c 0,-8.73 -5.75,-17.44 -17.22,-24.1 -23.05,-13.42 -60.6,-13.42 -83.82,0 -11.67,6.74 -17.56,15.6 -17.51,24.43 l 0.06,22.5 c -0.03,-8.83 5.82,-17.67 17.48,-24.43 23.26,-13.4 60.8,-13.4 83.86,0 11.47,6.66 17.21,15.35 17.21,24.12"
         style="fill:#b9c0d1;fill-opacity:1;fill-rule:nonzero;stroke:none"
         id="path282" />
      <path
         d="m 4961.57,5013.75 c 23.2,-13.42 23.32,-35.17 0.27,-48.57 -23.06,-13.4 -60.6,-13.4 -83.86,0 -23.22,13.4 -23.33,35.15 -0.27,48.57 23.1,13.4 60.6,13.4 83.86,0"
         style="fill:#d5f0fd;fill-opacity:1;fill-rule:nonzero;stroke:none"
         id="path284" />
      <path
         d="m 4957.49,5012.7 c 6.91,-4.01 6.89,-10.45 0.11,-14.42 l -13.01,-7.57 13.08,-7.52 c 6.84,-3.97 6.97,-10.43 0.09,-14.46 -6.78,-3.94 -18.05,-3.94 -24.87,0 l -13.1,7.6 -12.91,-7.52 c -6.87,-4.02 -18.01,-4.02 -24.93,0 -6.81,3.95 -6.95,10.41 -0.06,14.38 l 12.93,7.52 -12.99,7.54 c -6.93,4 -6.9,10.44 -0.11,14.39 6.89,4 17.99,4 24.9,0 l 13.01,-7.5 13,7.56 c 6.77,3.94 18.01,3.94 24.86,0"
         style="fill:#b1b8c5;fill-opacity:1;fill-rule:nonzero;stroke:none"
         id="path286" />
      <path
         d="m 5418.43,4788.87 -0.3,-39.84 c -0.1,-46.16 -30.44,-92.21 -91.02,-127.43 -121.95,-70.87 -320.38,-70.87 -443.15,0 -61.76,35.67 -92.62,82.48 -92.48,129.2 l 0.23,39.85 c -0.1,-46.74 30.72,-93.56 92.52,-129.22 122.76,-70.88 321.17,-70.86 443.15,0.02 60.56,35.21 90.92,81.27 91.05,127.42"
         style="fill:#c9cfdd;fill-opacity:1;fill-rule:nonzero;stroke:none"
         id="path288" />
      <path
         d="m 5325.88,4918.13 c 122.8,-70.9 123.47,-185.8 1.5,-256.68 -121.98,-70.88 -320.39,-70.9 -443.15,-0.02 -122.77,70.9 -123.4,185.8 -1.45,256.7 122.01,70.9 320.34,70.9 443.1,0"
         style="fill:#d5f0fd;fill-opacity:1;fill-rule:nonzero;stroke:none"
         id="path290" />
      <path
         d="m 5285.88,4894.87 c 100.53,-58.05 101.06,-152.11 1.23,-210.18 -99.86,-58.01 -262.33,-58.01 -362.87,0 -100.51,58.07 -101.04,152.13 -1.14,210.18 99.87,58.02 262.26,58.02 362.78,0"
         style="fill:#bfc8d4;fill-opacity:1;fill-rule:nonzero;stroke:none"
         id="path292" />
      <path
         d="m 4820.42,4654.18 -0.03,-26.4 c -0.03,-10.28 -6.79,-20.53 -20.25,-28.32 -27.07,-15.75 -71.17,-15.75 -98.43,0 -13.71,7.91 -20.56,18.3 -20.53,28.71 l 0.07,26.4 c -0.07,-10.39 6.82,-20.8 20.53,-28.69 27.27,-15.76 71.35,-15.76 98.46,0 13.43,7.81 20.18,18.05 20.18,28.3"
         style="fill:#b9c0d1;fill-opacity:1;fill-rule:nonzero;stroke:none"
         id="path294" />
      <path
         d="m 4799.89,4682.89 c 27.25,-15.74 27.42,-41.27 0.35,-57.01 -27.11,-15.76 -71.19,-15.76 -98.46,0 -27.28,15.74 -27.41,41.27 -0.34,57.01 27.13,15.75 71.19,15.75 98.45,0"
         style="fill:#d5f0fd;fill-opacity:1;fill-rule:nonzero;stroke:none"
         id="path296" />
      <path
         d="m 4795.13,4681.68 c 8.12,-4.7 8.08,-12.28 0.1,-16.93 l -15.25,-8.89 15.35,-8.86 c 8.05,-4.65 8.21,-12.23 0.09,-16.94 -7.95,-4.63 -21.15,-4.63 -29.2,0 l -15.38,8.89 -15.15,-8.83 c -8.08,-4.69 -21.11,-4.69 -29.23,0 -8.02,4.65 -8.2,12.23 -0.1,16.93 l 15.17,8.81 -15.27,8.83 c -8.13,4.71 -8.06,12.29 -0.11,16.93 8.1,4.69 21.09,4.67 29.25,0 l 15.23,-8.82 15.28,8.88 c 8,4.63 21.2,4.63 29.22,0"
         style="fill:#b1b8c5;fill-opacity:1;fill-rule:nonzero;stroke:none"
         id="path298" />
      <path
         d="m 5397.37,4578.38 -0.08,-26.44 c 0,-10.26 -6.73,-20.49 -20.21,-28.3 -27.07,-15.75 -71.15,-15.75 -98.43,0 -13.7,7.93 -20.55,18.32 -20.52,28.71 l 0.06,26.4 c -0.06,-10.37 6.79,-20.8 20.53,-28.69 27.27,-15.74 71.36,-15.74 98.46,0.02 13.44,7.79 20.19,18.03 20.19,28.3"
         style="fill:#b9c0d1;fill-opacity:1;fill-rule:nonzero;stroke:none"
         id="path300" />
      <path
         d="m 5376.85,4607.07 c 27.23,-15.74 27.41,-41.29 0.33,-56.99 -27.1,-15.76 -71.19,-15.76 -98.46,-0.02 -27.27,15.72 -27.41,41.27 -0.34,57.01 27.15,15.75 71.19,15.75 98.47,0"
         style="fill:#d5f0fd;fill-opacity:1;fill-rule:nonzero;stroke:none"
         id="path302" />
      <path
         d="m 5372.06,4605.84 c 8.13,-4.68 8.1,-12.28 0.11,-16.91 l -15.25,-8.87 15.35,-8.89 c 8.05,-4.62 8.22,-12.22 0.09,-16.93 -7.95,-4.65 -21.15,-4.65 -29.21,0 l -15.37,8.89 -15.13,-8.81 c -8.09,-4.73 -21.14,-4.73 -29.26,0 -8.01,4.63 -8.18,12.23 -0.1,16.93 l 15.18,8.81 -15.28,8.81 c -8.12,4.69 -8.05,12.29 -0.09,16.93 8.09,4.71 21.09,4.67 29.24,0 l 15.25,-8.82 15.26,8.86 c 8,4.67 21.19,4.67 29.21,0"
         style="fill:#b1b8c5;fill-opacity:1;fill-rule:nonzero;stroke:none"
         id="path304" />
      <path
         d="m 5172.43,4783.09 c 0,-13.59 -29.78,-24.59 -66.5,-24.59 -36.74,0 -66.55,11 -66.55,24.59 0,13.55 29.81,24.55 66.55,24.55 36.72,0 66.5,-11 66.5,-24.55"
         style="fill:#9da1ab;fill-opacity:1;fill-rule:nonzero;stroke:none"
         id="path306" />
      <g
         id="g308">
        <g
           id="g310"
           clip-path="url(#clipPath314)">
          <path
             d="m 5172.43,4799.57 -0.1,-31.38 c 0.04,10.02 -6.55,20.07 -19.78,27.71 -26.34,15.18 -68.96,15.18 -95.09,0 -12.96,-7.54 -19.45,-17.44 -19.49,-27.34 l 0.07,31.38 c 0.04,9.89 6.56,19.81 19.52,27.33 26.14,15.19 68.75,15.19 95.05,0 13.25,-7.64 19.86,-17.66 19.82,-27.7"
             style="fill:#bbbec5;fill-opacity:1;fill-rule:nonzero;stroke:none"
             id="path316" />
        </g>
      </g>
      <path
         d="m 5057.86,4772.21 c 26.31,-15.18 68.96,-15.18 95.06,0 26.13,15.2 26,39.9 -0.31,55.06 -26.3,15.19 -68.91,15.19 -95.05,0 -26.13,-15.16 -26.01,-39.86 0.3,-55.06 m 103.81,60.31 c 31.28,-18.08 31.46,-47.48 0.37,-65.56 -31.12,-18.05 -81.88,-18.05 -113.2,0 -31.29,18.08 -31.46,47.5 -0.37,65.56 31.08,18.07 81.89,18.07 113.2,0"
         style="fill:#d3d7dd;fill-opacity:1;fill-rule:nonzero;stroke:none"
         id="path318" />
      <path
         d="m 4765.74,4801.49 c 0,-11.47 -25.16,-20.76 -56.18,-20.76 -31.02,0 -56.18,9.29 -56.18,20.76 0,11.44 25.16,20.74 56.18,20.74 31.02,0 56.18,-9.3 56.18,-20.74"
         style="fill:#9da1ab;fill-opacity:1;fill-rule:nonzero;stroke:none"
         id="path320" />
      <g
         id="g322">
        <g
           id="g324"
           clip-path="url(#clipPath328)">
          <path
             d="m 4765.74,4815.41 -0.07,-26.5 c 0,8.46 -5.54,16.97 -16.73,23.4 -22.23,12.83 -58.23,12.83 -80.29,0 -10.96,-6.37 -16.43,-14.73 -16.47,-23.09 l 0.07,26.51 c 0.03,8.35 5.5,16.71 16.47,23.1 22.06,12.79 58.09,12.81 80.31,0 11.14,-6.46 16.75,-14.96 16.71,-23.42"
             style="fill:#bbbec5;fill-opacity:1;fill-rule:nonzero;stroke:none"
             id="path330" />
        </g>
      </g>
      <path
         d="m 4668.99,4792.33 c 22.22,-12.85 58.23,-12.85 80.28,0 22.05,12.81 21.96,33.67 -0.24,46.5 -22.22,12.81 -58.25,12.79 -80.31,0 -22.06,-12.83 -21.96,-33.69 0.27,-46.5 m 87.66,50.92 c 26.44,-15.28 26.58,-40.12 0.3,-55.38 -26.27,-15.27 -69.15,-15.27 -95.59,0 -26.43,15.26 -26.57,40.12 -0.32,55.38 26.25,15.25 69.18,15.25 95.61,0"
         style="fill:#d3d7dd;fill-opacity:1;fill-rule:nonzero;stroke:none"
         id="path332" />
      <path
         d="m 5585.31,4739.34 c 0,-11.47 -25.17,-20.76 -56.15,-20.76 -31.04,0 -56.22,9.29 -56.22,20.76 0,11.44 25.18,20.76 56.22,20.76 30.98,0 56.15,-9.32 56.15,-20.76"
         style="fill:#9da1ab;fill-opacity:1;fill-rule:nonzero;stroke:none"
         id="path334" />
      <g
         id="g336">
        <g
           id="g338"
           clip-path="url(#clipPath342)">
          <path
             d="m 5585.31,4753.26 -0.08,-26.5 c 0,8.48 -5.53,16.97 -16.7,23.42 -22.26,12.83 -58.26,12.83 -80.32,0 -10.96,-6.39 -16.44,-14.75 -16.48,-23.11 l 0.08,26.51 c 0.03,8.36 5.5,16.72 16.47,23.1 22.06,12.82 58.09,12.83 80.3,0 11.18,-6.46 16.75,-14.94 16.73,-23.42"
             style="fill:#bbbec5;fill-opacity:1;fill-rule:nonzero;stroke:none"
             id="path344" />
        </g>
      </g>
      <path
         d="m 5488.54,4730.18 c 22.23,-12.81 58.23,-12.81 80.29,0 22.09,12.81 21.96,33.67 -0.25,46.5 -22.21,12.83 -58.24,12.82 -80.3,0 -22.06,-12.83 -21.96,-33.69 0.26,-46.5 m 87.67,50.92 c 26.44,-15.26 26.58,-40.12 0.3,-55.37 -26.24,-15.26 -69.16,-15.26 -95.58,0 -26.45,15.25 -26.57,40.11 -0.34,55.37 26.3,15.25 69.19,15.25 95.62,0"
         style="fill:#d3d7dd;fill-opacity:1;fill-rule:nonzero;stroke:none"
         id="path346" />
      <path
         d="m 5044.09,4509.44 c 0,-11.49 -25.16,-20.77 -56.18,-20.77 -31.04,0 -56.18,9.28 -56.18,20.77 0,11.46 25.14,20.74 56.18,20.74 31.02,0 56.18,-9.28 56.18,-20.74"
         style="fill:#9da1ab;fill-opacity:1;fill-rule:nonzero;stroke:none"
         id="path348" />
      <g
         id="g350">
        <g
           id="g352"
           clip-path="url(#clipPath356)">
          <path
             d="m 5044.09,4523.36 -0.1,-26.5 c 0.03,8.46 -5.54,16.95 -16.71,23.4 -22.22,12.83 -58.25,12.83 -80.32,0 -10.92,-6.37 -16.43,-14.73 -16.43,-23.07 l 0.02,26.48 c 0.05,8.38 5.55,16.72 16.48,23.11 22.1,12.79 58.09,12.81 80.31,0 11.18,-6.46 16.75,-14.96 16.75,-23.42"
             style="fill:#bbbec5;fill-opacity:1;fill-rule:nonzero;stroke:none"
             id="path358" />
        </g>
      </g>
      <path
         d="m 4947.33,4500.26 c 22.19,-12.82 58.19,-12.82 80.28,0 22.06,12.83 21.93,33.69 -0.27,46.52 -22.22,12.81 -58.21,12.79 -80.31,0 -22.02,-12.83 -21.92,-33.69 0.3,-46.52 m 87.64,50.93 c 26.44,-15.25 26.57,-40.11 0.3,-55.37 -26.24,-15.27 -69.16,-15.27 -95.56,0 -26.44,15.26 -26.59,40.14 -0.33,55.37 26.26,15.26 69.15,15.26 95.59,0"
         style="fill:#d3d7dd;fill-opacity:1;fill-rule:nonzero;stroke:none"
         id="path360" />
      <path
         d="m 5217.32,4996.33 c 0,-11.48 -25.17,-20.76 -56.19,-20.76 -31.04,0 -56.18,9.28 -56.18,20.76 0,11.47 25.14,20.74 56.18,20.74 31.02,0 56.19,-9.27 56.19,-20.74"
         style="fill:#9da1ab;fill-opacity:1;fill-rule:nonzero;stroke:none"
         id="path362" />
      <g
         id="g364">
        <g
           id="g366"
           clip-path="url(#clipPath370)">
          <path
             d="m 5217.32,5010.26 -0.09,-26.51 c 0.03,8.48 -5.56,16.98 -16.71,23.42 -22.24,12.83 -58.26,12.83 -80.32,0 -10.93,-6.39 -16.45,-14.73 -16.45,-23.09 l 0.07,26.49 c 0,8.38 5.52,16.74 16.47,23.1 22.06,12.82 58.1,12.84 80.29,0 11.16,-6.46 16.74,-14.94 16.74,-23.41"
             style="fill:#bbbec5;fill-opacity:1;fill-rule:nonzero;stroke:none"
             id="path372" />
        </g>
      </g>
      <path
         d="m 5120.56,4987.15 c 22.2,-12.81 58.23,-12.81 80.29,0 22.05,12.83 21.95,33.69 -0.27,46.52 -22.19,12.84 -58.23,12.82 -80.29,0 -22.06,-12.83 -21.95,-33.69 0.27,-46.52 m 87.63,50.94 c 26.44,-15.26 26.58,-40.1 0.34,-55.35 -26.27,-15.28 -69.18,-15.28 -95.59,0 -26.45,15.25 -26.6,40.11 -0.33,55.35 26.27,15.25 69.15,15.25 95.58,0"
         style="fill:#d3d7dd;fill-opacity:1;fill-rule:nonzero;stroke:none"
         id="path374" />
      <path
         d="m 5484.76,4427.97 -134.6,-22.49 c 0,0 -105.34,-47.81 -153.36,-114.26 -43.49,-144.55 -1.21,-122.66 96.31,-85.25 41.27,15.83 63.57,27.83 77.35,36.44 9.7,2.81 32.96,7.96 38.48,-5.4 5.29,-12.82 -23.75,-29.88 -36.36,-36.47 -8.79,-4.59 -27.28,-17.53 -27.85,-28.14 -0.85,-15.9 13.69,-17.93 13.69,-17.93 0,0 8.28,1.01 48.71,22.51 32.51,17.29 57.8,27.09 76.49,37.22 10.82,5.9 35.02,52.8 40.63,60.02 11.71,4.77 -39.49,153.75 -39.49,153.75"
         style="fill:#e8c7b1;fill-opacity:1;fill-rule:nonzero;stroke:none"
         id="path376" />
      <path
         d="m 6249.39,3709.62 -0.11,-41.66 c -0.07,-20.5 -13.54,-40.98 -40.47,-56.64 -54.22,-31.5 -142.41,-31.5 -196.98,0 -27.46,15.86 -41.19,36.67 -41.12,57.44 l 0.12,41.65 c -0.06,-20.77 13.64,-41.58 41.1,-57.44 54.58,-31.5 142.78,-31.5 197.01,0.01 26.92,15.65 40.4,36.12 40.45,56.64"
         style="fill:#8791a0;fill-opacity:1;fill-rule:nonzero;stroke:none"
         id="path378" />
      <path
         d="m 6208.27,3767.07 c 54.57,-31.51 54.86,-82.58 0.67,-114.09 -54.23,-31.51 -142.43,-31.51 -197.01,-0.01 -54.56,31.52 -54.83,82.59 -0.62,114.1 54.22,31.5 142.39,31.5 196.96,0"
         style="fill:#c6dce5;fill-opacity:1;fill-rule:nonzero;stroke:none"
         id="path380" />
      <path
         d="m 6230.2,3727.6 -0.11,-15.27 c -0.04,-17.69 -11.67,-35.34 -34.88,-48.83 -46.75,-27.17 -122.8,-27.17 -169.85,0 -23.67,13.66 -35.51,31.6 -35.45,49.52 l 0.1,15.26 c -0.05,-17.91 11.76,-35.85 35.45,-49.52 47.05,-27.17 123.09,-27.17 169.84,0 23.23,13.5 34.85,31.16 34.9,48.84"
         style="fill:#a0adc1;fill-opacity:1;fill-rule:nonzero;stroke:none"
         id="path382" />
      <path
         d="m 6194.74,3777.13 c 47.05,-27.16 47.32,-71.2 0.56,-98.37 -46.75,-27.17 -122.79,-27.17 -169.84,0 -47.06,27.17 -47.3,71.21 -0.54,98.37 46.74,27.18 122.76,27.18 169.82,0"
         style="fill:#d5f0fd;fill-opacity:1;fill-rule:nonzero;stroke:none"
         id="path384" />
      <path
         d="m 6179.39,3768.23 c 38.53,-22.24 38.75,-58.31 0.48,-80.55 -38.28,-22.25 -100.54,-22.25 -139.08,0 -38.51,22.24 -38.72,58.31 -0.44,80.55 38.27,22.25 100.52,22.25 139.04,0"
         style="fill:#bfc8d4;fill-opacity:1;fill-rule:nonzero;stroke:none"
         id="path386" />
      <path
         d="m 6663.73,5666.97 c -64.99,41.2 -225.93,157.65 -347.15,-194.91 -83.74,-243.49 -214.68,-538.98 -280.15,-596.83 -68.72,-60.73 -488.43,-398 -578.51,-389.85 -6.41,0.55 -12.87,-3.91 -11.15,-10.04 L 5529,4227.88 c 1.63,-5.79 5.13,-11.68 11.09,-12.42 78.08,-9.12 612.93,260.94 660.17,305.58 213.76,201.93 414.75,512.53 509.13,810.96 38.04,120.21 19.28,293.75 -45.66,334.97"
         style="fill:#ffffff;fill-opacity:1;fill-rule:nonzero;stroke:none"
         id="path388" />
      <path
         d="m 7311.58,1075.59 c -162.35,-0.01 -315.13,75.4 -339.61,242.71 -19.17,131.02 -358.04,206.3 -562.46,206.3 -32.81,0 -62.14,-1.94 -86.15,-5.9 -5.26,-0.86 -10.71,-1.28 -16.32,-1.28 -179.62,0 -515.22,432 600.99,473.64 0,0 694.27,-71.57 813.03,-508.16 69.62,-255.91 -179.51,-407.28 -409.48,-407.31"
         style="fill:#6e6e6e;fill-opacity:0.29781976;fill-rule:nonzero;stroke:none"
         id="path390" />
      <path
         d="m 6678.24,1971.99 -30.88,-70.86 c 0,0 -292.32,-121.12 -310.35,-130.81 -20.46,-10.86 -65.71,-30.42 -58.63,-69.6 1.59,-9.33 1.46,-15.3 7.66,-23.6 22,-29.31 64.97,-41.5 104.63,-47.08 86.32,-12.94 265.55,18.51 265.55,18.51 52.31,7.93 138.62,36.54 148.07,44.61 0,0 44.7,14.75 53.37,-1.17 3.11,-5.48 -0.48,-31.99 -0.96,-37.34 l 110.51,48.9 c 5.48,3.18 13.83,58.31 15.48,82.78 l -8.65,160.73 -295.8,24.93"
         style="fill:#140f10;fill-opacity:1;fill-rule:nonzero;stroke:none"
         id="path392" />
      <path
         d="m 6341.03,1656.48 c 22.82,-10.37 54.52,-14.93 86.03,-17.81 125.59,-10.9 313.04,37.47 313.04,37.47 18.63,4.96 88.96,24.58 88.96,24.58 0,0 29.23,-1.76 28.6,-8.73 -0.11,3.57 -0.44,0.48 1.18,-0.08 2.83,-0.78 -2.14,-37.26 -2.14,-37.26 l -30.84,18.44 c 0,0 -85.99,-21.59 -101.06,-26.98 0,0 -180.42,-46 -306.86,-36.6 -39.96,2.9 -108.09,24.61 -133.23,60.93 -4.56,6.52 -10.04,22.49 -5.84,33.85 0.69,-1.97 31.2,-33.85 62.16,-47.81"
         style="fill:#282827;fill-opacity:1;fill-rule:nonzero;stroke:none"
         id="path394" />
      <path
         d="m 6857.66,1691.99 120.46,58.83 c 0,0 -8.02,-48.04 -9.79,-47.31 l -110.34,-49.12 c 0.22,3.93 -0.3,27.63 -0.33,37.6"
         style="fill:#282827;fill-opacity:1;fill-rule:nonzero;stroke:none"
         id="path396" />
      <path
         d="m 7557.21,1648.77 c 0,0 -11.17,-178.54 -11.15,-182.79 -1.08,-79.68 -105.48,-274.13 -230.48,-274.8 -18.7,-0.21 -82.81,12.39 -82.81,12.39 0,0 -84.4,11.08 -53.19,170.09 12.09,61.86 94.92,307.73 94.92,307.73 l 282.71,-32.62"
         style="fill:#383736;fill-opacity:1;fill-rule:nonzero;stroke:none"
         id="path398" />
      <path
         d="m 7573.26,1692 c 0,0 -19.28,-101.22 -39.88,-233.34 -12.3,-78.79 -116.53,-238.01 -226.29,-234.23 -28.45,1.08 -50.42,5.98 -52.3,6.24 -46.89,7.08 -109.41,31.57 -68.01,192.62 14.8,57.4 74.34,278.67 77.62,278.47 l 308.86,-9.76"
         style="fill:#140f10;fill-opacity:1;fill-rule:nonzero;stroke:none"
         id="path400" />
      <path
         d="m 6658.53,4065.55 -28.28,-2000.93 c -2.17,-65.2 26.98,-85.52 32.71,-90.97 60.7,-58.33 302.67,-142.73 338.2,-59.57 l 119.41,2145.45 -462.04,6.02"
         style="fill:#141413;fill-opacity:1;fill-rule:nonzero;stroke:none"
         id="path402" />
      <path
         d="m 7106.02,4123.63 25.77,-576.16 101.15,-1799.14 c 1.33,-38.76 34.73,-67.63 66.12,-83.34 131.82,-65.48 264.35,13 264.35,13 38.87,14.95 39.64,45.51 42.97,63.33 l 33.14,1925.8 -271.13,450.71 -262.37,5.8"
         style="fill:#383736;fill-opacity:1;fill-rule:nonzero;stroke:none"
         id="path404" />
      <path
         d="m 7175.99,5418.9 c -66.01,50.06 -415.42,122.89 -589.47,50.87 -66.36,-27.44 -204.55,-28.35 -275.05,-94.98 -101.4,-95.85 -33.96,-441.39 135.82,-752.76 8.69,-15.89 174.66,-285.72 204.16,-521.59 27.88,-223.04 -102.85,-618.14 -108.08,-688.74 -3.95,-53.23 180.41,-104.01 379.05,-128.39 17.3,-2.17 34.94,566.27 52.37,564.52 20.31,-2 40.44,-574.02 60.6,-575.31 112.09,-7.61 218.42,-5.48 287.08,11.05 137.63,33.15 346.53,107.91 397.38,159.47 28.23,28.61 -55.74,584.18 -105.37,919.22 -20.65,139.49 -98.37,798.76 -438.49,1056.64"
         style="fill:#efefef;fill-opacity:1;fill-rule:nonzero;stroke:none"
         id="path406" />
      <path
         d="m 6560.79,5156.56 c 141.79,-92.74 176.33,152.48 234.22,258.95 l -140.4,446.39 -274.01,-159.93 80.84,-210.7 99.35,-334.71"
         style="fill:#e8c5ac;fill-opacity:1;fill-rule:nonzero;stroke:none"
         id="path408" />
      <path
         d="m 6304.5,6139.96 64.06,8.26 199.37,-42.37 105.05,-418.36 c 3.77,-29.45 10.71,-68.03 -6.97,-102.3 -12.85,-24.76 -24.59,-37.11 -57.37,-70.33 0,0 -131.12,-105.74 -224.8,-99.09 -51.58,3.64 -83.35,57.2 -96.28,86.63 -13.35,30.49 -155.5,367.18 -155.5,367.18 0,0 -52.63,106.18 4.76,185.82 29.01,40.3 167.68,84.56 167.68,84.56"
         style="fill:#e8c5ac;fill-opacity:1;fill-rule:nonzero;stroke:none"
         id="path410" />
      <path
         d="m 6078.56,6042.3 c -19.18,-22.54 -21.87,-50.46 5.72,-64.85 24.46,-12.81 82.41,-7.68 94.8,-5.84 15.11,2.34 148.33,27.34 149.2,26.46 2.95,-2.32 -7.88,27.27 -3.43,30.21 30.58,19.82 68.46,-7.09 103.09,-41.8 37.33,-37.48 80.11,-133.12 86.71,-170.22 l 8.94,-36.55 c 4.52,-19.07 14.15,-25.12 18.47,-23.86 14.95,4.26 24.89,19.92 25.56,41.65 0,0 8.17,55.26 62.3,60.32 46.38,4.45 38.04,-107.94 36.71,-114.09 l 11.27,-28.79 c 9.38,-19.66 40.43,-77.33 42.59,-62.49 7.04,47.57 34.16,166.73 38.04,212.76 27.72,325.8 -242.19,526.19 -510.57,334.55 -57.88,-41.17 -158.84,-144.88 -169.4,-157.46"
         style="fill:#332107;fill-opacity:1;fill-rule:nonzero;stroke:none"
         id="path412" />
      <path
         d="m 6620.19,5893.31 c -60.05,-14.58 -52.88,-73.91 -52.88,-73.91 l 4.22,-98.88 c 0,0 15.33,-32.51 39.14,-31.6 35.98,1.21 39.34,5.51 60.02,36.62 12.37,18.23 24.53,63.5 25.07,66.67 6.41,45.17 -18.55,114.86 -75.57,101.1"
         style="fill:#e8c5ac;fill-opacity:1;fill-rule:nonzero;stroke:none"
         id="path414" />
      <path
         d="m 6972.79,3846.47 c -0.03,2.25 -9.67,226.59 -35.38,320.66 -25.83,94.7 -154.84,546.14 -156.13,550.63 l 1.29,6.55 c 1.29,-4.49 139.18,-459.65 164.98,-554.4 25.95,-95.36 28.87,-312.79 29.14,-322.08 l -3.9,-1.36"
         style="fill:#a0a1a3;fill-opacity:1;fill-rule:nonzero;stroke:none"
         id="path416" />
      <path
         d="m 6720.49,4972.62 -108.47,159.46 54.86,32.18 13.9,2.08 18.66,8.19 70.03,-3.79 -48.98,-198.12"
         style="fill:#a5dbcc;fill-opacity:1;fill-rule:nonzero;stroke:none"
         id="path418" />
      <path
         d="m 6479.43,5426.52 c 0,0 -7.96,-5.51 -17.74,-32.97 -10.56,-29.57 -15.04,-69.47 -15.04,-69.47 l 183.87,-237.95 c 0,0 6.49,82.05 44.93,77.93 32.26,-3.59 -128.06,26.36 -196.02,262.46"
         style="fill:#bfefe3;fill-opacity:1;fill-rule:nonzero;stroke:none"
         id="path420" />
      <path
         d="m 6756.42,5536.16 c 0,0 27.89,6.92 74.03,-14.81 28.46,-13.41 48.57,-60.02 48.57,-60.02 l -119.83,-338.29 c 0,0 -47.63,65.49 -78.79,42.36 -26.07,-19.21 76.02,53.59 76.02,370.76"
         style="fill:#bfefe3;fill-opacity:1;fill-rule:nonzero;stroke:none"
         id="path422" />
      <path
         d="m 6463.45,5399.86 -101.93,-114.35 c -4.35,-5.1 -4.28,-12.72 0.14,-17.9 l 341.14,-386.48 17.69,92.21 -257.04,426.52"
         style="fill:#ffffff;fill-opacity:1;fill-rule:nonzero;stroke:none"
         id="path424" />
      <path
         d="m 6847.12,5507.97 -149.9,-656.89 c -1.46,-7.3 0.21,-15.04 4.5,-21.4 l 85.64,-124.32 -30.07,133.56 c -0.8,3.82 -0.68,7.73 0.6,11.5 l 214.46,616.9 c 1.98,5.94 -1.63,12.35 -7.87,13.82 l -117.36,26.83"
         style="fill:#ffffff;fill-opacity:1;fill-rule:nonzero;stroke:none"
         id="path426" />
      <path
         d="m 6420.82,5059.01 c 3.98,0 7.57,2.61 8.73,6.51 l 71.56,237.51 c 1.46,4.82 -1.28,9.92 -6.12,11.39 -4.82,1.45 -9.92,-1.29 -11.37,-6.13 l -57.41,-190.51 -16.09,212.93 c -0.38,5.03 -4.95,8.8 -9.8,8.42 -5.03,-0.38 -8.81,-4.77 -8.42,-9.8 l 19.79,-261.88 c 0.33,-4.38 3.75,-7.92 8.12,-8.38 l 1.01,-0.06"
         style="fill:#707070;fill-opacity:1;fill-rule:nonzero;stroke:none"
         id="path428" />
      <path
         d="m 6620.54,5780.51 c -1.25,4.88 1.7,9.87 6.56,11.12 4.88,1.24 9.87,-1.67 11.14,-6.55 l 3.87,-14.97 c -4.65,-0.07 -11.79,-0.96 -17.59,-4.99 l -3.98,15.39"
         style="fill:#f4f4f4;fill-opacity:1;fill-rule:nonzero;stroke:none"
         id="path430" />
      <path
         d="m 6381.94,5424.72 c 5,1.03 9.81,-2.13 10.84,-7.05 l 18.28,-86.52 73.42,-19.32 153.62,400.7 -13.58,52.59 c 5.8,4.03 12.94,4.92 17.59,4.99 l 14.4,-55.83 c 0.47,-1.84 0.37,-3.78 -0.32,-5.56 L 6498.6,5297.64 c -1.38,-3.61 -4.82,-5.87 -8.52,-5.87 l -2.33,0.3 -86.78,22.83 c -3.34,0.89 -5.9,3.58 -6.62,6.95 l -19.45,92.03 c -1.04,4.95 2.12,9.79 7.04,10.84"
         style="fill:#707070;fill-opacity:1;fill-rule:nonzero;stroke:none"
         id="path432" />
      <path
         d="m 6112.4,3796.39 c 25.71,18.58 48.02,50.34 69.62,92.05 37.56,72.99 71.88,177.2 102.79,294.92 46.3,176.5 84.57,383.1 111.32,556.66 13.37,86.77 23.86,165.27 31.02,227.63 3.57,31.18 6.32,58.32 8.17,80.5 1.86,22.2 2.84,39.32 2.84,51.01 h -29.99 c 0.01,-15.4 -2.15,-45.94 -6.33,-86.76 -14.62,-143.19 -53.79,-415.58 -108.69,-665.42 -27.44,-124.91 -58.84,-244.25 -92.87,-338.73 -17,-47.22 -34.67,-88.23 -52.59,-120.39 -17.85,-32.18 -36.2,-55.35 -52.75,-67.07 l 17.46,-24.4"
         style="fill:#707070;fill-opacity:1;fill-rule:nonzero;stroke:none"
         id="path434" />
      <path
         d="m 6436.06,3871.97 c 0,0 -157.26,32.02 -195.89,-68.2 -51.37,-133.2 -223.51,-141.93 -214.71,-182.48 8.81,-40.57 91.01,-76.23 162.6,-54.91 59.26,17.67 127.47,67.47 176.41,117.07 49.04,49.61 174.97,88.28 174.97,88.28 l -103.38,100.24"
         style="fill:#e8c5ac;fill-opacity:1;fill-rule:nonzero;stroke:none"
         id="path436" />
      <path
         d="m 6188.9,3730 c 0,0 18.57,28.72 6.03,41.79 -12.5,13.07 -30.65,23.1 -51.59,15.94 -4.7,-1.62 -102.93,-21.91 -115.16,-13.76 -13.06,8.7 -27.45,23.28 -9.42,34.4 30.05,18.51 111.74,42.51 131.91,53.16 63.42,33.43 147.82,10.48 175.04,24.16 84.98,42.7 54.01,68.84 163.15,114.14 L 6456.79,3848.16 6188.9,3730"
         style="fill:#e8c5ac;fill-opacity:1;fill-rule:nonzero;stroke:none"
         id="path438" />
      <path
         d="m 7222.69,5426.72 c -73.49,22.79 -259.27,93.15 -284.18,-278.83 -17.22,-256.9 -66.4,-576.33 -114.49,-649.29 -50.48,-76.58 -367.48,-511.78 -456.57,-527.46 -6.33,-1.14 -11.41,-7.12 -8.12,-12.6 l 144.02,-217.37 c 3.08,-5.18 8.01,-9.96 13.94,-9.11 77.76,11.61 523.46,412.02 557.43,467.46 153.57,250.77 266.41,603.09 279.56,915.81 5.3,125.98 -58.14,288.59 -131.59,311.39"
         style="fill:#ffffff;fill-opacity:1;fill-rule:nonzero;stroke:none"
         id="path440" />
    </g>
  </g>
</svg>
