<svg width="27" height="27" viewBox="0 0 27 27" fill="none" xmlns="http://www.w3.org/2000/svg">
<path d="M13.5 2.7514C7.56414 2.7514 2.75146 7.56408 2.75146 13.5C2.75146 15.5164 3.31786 17.3964 4.28398 19.009L2.84768 24.2485L8.19923 22.8437C9.76433 23.7336 11.5711 24.2485 13.5 24.2485C19.4359 24.2485 24.2486 19.4359 24.2486 13.5C24.2486 7.56408 19.4359 2.7514 13.5 2.7514ZM9.82096 8.48607C9.99562 8.48607 10.1751 8.48501 10.33 8.49307C10.5217 8.49755 10.7304 8.51159 10.9301 8.95318C11.1675 9.47806 11.6843 10.7948 11.7506 10.9283C11.8169 11.0618 11.8638 11.219 11.7716 11.3936C11.6838 11.5728 11.6382 11.6812 11.5092 11.8398C11.3757 11.9938 11.2295 12.1852 11.1085 12.3016C10.9751 12.4351 10.8373 12.5814 10.9913 12.8474C11.1454 13.1135 11.6804 13.9856 12.4714 14.6896C13.488 15.5978 14.3458 15.877 14.6127 16.0104C14.8796 16.1439 15.0342 16.1231 15.1882 15.9439C15.3468 15.7693 15.8541 15.17 16.0332 14.903C16.2079 14.6361 16.3862 14.6823 16.628 14.7701C16.8735 14.8579 18.1823 15.5026 18.4492 15.636C18.7161 15.7695 18.8911 15.8356 18.9583 15.9439C19.0273 16.0559 19.0273 16.5889 18.8061 17.2105C18.5849 17.8313 17.4984 18.4315 17.0112 18.4736C16.5194 18.5193 16.0605 18.6947 13.8149 17.8106C11.1063 16.7438 9.3981 13.9695 9.26464 13.7904C9.13118 13.6157 8.17998 12.348 8.17998 11.0403C8.17998 9.72804 8.86799 9.08539 9.10894 8.81847C9.35436 8.55155 9.64182 8.48607 9.82096 8.48607Z" fill="white"/>
</svg>
